<?xml version="1.0" encoding="utf-8"?>
<!-- Generator: Adobe Illustrator 24.0.1, SVG Export Plug-In . SVG Version: 6.00 Build 0)  -->
<svg version="1.0" id="Layer_1" xmlns="http://www.w3.org/2000/svg" xmlns:xlink="http://www.w3.org/1999/xlink" x="0px" y="0px"
	 viewBox="0 0 679.15 260.43" style="enable-background:new 0 0 679.15 260.43;" xml:space="preserve">
<style type="text/css">
	.st0{clip-path:url(#XMLID_15_);fill:url(#XMLID_95_);}
	.st1{fill:#00A651;}
	.st2{clip-path:url(#XMLID_97_);fill:url(#XMLID_98_);}
	.st3{fill:#FFFFFF;}
	.st4{fill:#009857;}
	.st5{fill:#36895E;}
	.st6{fill:#48785D;}
	.st7{fill:#4B6557;}
	.st8{fill:#404A46;}
</style>
<rect id="XMLID_79_" class="st1" width="679.15" height="260.43"/>
<g id="XMLID_1_">
	<g id="XMLID_73_">
		<g id="XMLID_76_">
			<defs>
				<path id="XMLID_77_" d="M105.42,94.73c-23.99,11.11-62.2,32.88-86.19,17.77c0,0,32.88,55.53,100.85,35.99l17.77-17.77l17.77-12
					l6.22-15.99l-8.44-3.55c0,0-13.03-8.44-29.48-8.44C118.05,90.73,111.74,91.81,105.42,94.73"/>
			</defs>
			<linearGradient id="XMLID_15_" gradientUnits="userSpaceOnUse" x1="19.2307" y1="121.6984" x2="161.8459" y2="121.6984">
				<stop  offset="0" style="stop-color:#00A651"/>
				<stop  offset="7.129550e-03" style="stop-color:#09A957"/>
				<stop  offset="0.0477" style="stop-color:#37B976"/>
				<stop  offset="0.0932" style="stop-color:#62C894"/>
				<stop  offset="0.1423" style="stop-color:#88D5AE"/>
				<stop  offset="0.1956" style="stop-color:#A8E1C4"/>
				<stop  offset="0.2545" style="stop-color:#C4EAD6"/>
				<stop  offset="0.321" style="stop-color:#DAF2E5"/>
				<stop  offset="0.3986" style="stop-color:#EAF8F1"/>
				<stop  offset="0.4945" style="stop-color:#F6FCF9"/>
				<stop  offset="0.6288" style="stop-color:#FDFEFE"/>
				<stop  offset="1" style="stop-color:#FFFFFF"/>
			</linearGradient>
			<use xlink:href="#XMLID_77_"  style="overflow:visible;fill:url(#XMLID_15_);"/>
			<clipPath id="XMLID_95_">
				<use xlink:href="#XMLID_77_"  style="overflow:visible;"/>
			</clipPath>
			<linearGradient id="XMLID_96_" gradientUnits="userSpaceOnUse" x1="19.2307" y1="129.3874" x2="161.8459" y2="129.3874">
				<stop  offset="0" style="stop-color:#00A651"/>
				<stop  offset="7.129550e-03" style="stop-color:#09A957"/>
				<stop  offset="0.0477" style="stop-color:#37B976"/>
				<stop  offset="0.0932" style="stop-color:#62C894"/>
				<stop  offset="0.1423" style="stop-color:#88D5AE"/>
				<stop  offset="0.1956" style="stop-color:#A8E1C4"/>
				<stop  offset="0.2545" style="stop-color:#C4EAD6"/>
				<stop  offset="0.321" style="stop-color:#DAF2E5"/>
				<stop  offset="0.3986" style="stop-color:#EAF8F1"/>
				<stop  offset="0.4945" style="stop-color:#F6FCF9"/>
				<stop  offset="0.6288" style="stop-color:#FDFEFE"/>
				<stop  offset="1" style="stop-color:#FFFFFF"/>
			</linearGradient>
			
				<rect id="XMLID_78_" x="19.23" y="90.73" style="clip-path:url(#XMLID_95_);fill:url(#XMLID_96_);" width="142.62" height="77.31"/>
		</g>
		<path id="XMLID_75_" d="M155.62,85.85c0,7.36-5.97,13.33-13.33,13.33c-7.36,0-13.33-5.97-13.33-13.33
			c0-7.36,5.97-13.33,13.33-13.33C149.66,72.52,155.62,78.49,155.62,85.85"/>
		<path id="XMLID_74_" d="M175.62,72.52c0,0-7.55,19.99-22.21,26.66c0,0,2.22,9.78-5.33,17.77c0,0-19.99-26.66-56.42,7.11
			c0,0,30.21-12.44,29.32,4.44c-0.89,16.88-32.88,40.87-51.98,43.54C68.99,172.04,161.85,172.04,175.62,72.52"/>
	</g>
	<g id="XMLID_47_">
		<path id="XMLID_71_" class="st3" d="M183.28,102.9c0.8,0,1.19,0.4,1.19,1.19v35.62c0,0.8-0.4,1.19-1.19,1.19h-5.86
			c-0.83,0-1.25-0.4-1.25-1.19v-35.62c0-0.8,0.42-1.19,1.25-1.19H183.28z"/>
		<path id="XMLID_69_" class="st3" d="M233.99,102.9c0.8,0,1.19,0.4,1.19,1.19v5.32c0,0.83-0.4,1.25-1.19,1.25h-27.2
			c-1.41,0-2.58,0.12-3.5,0.35c-0.92,0.24-1.66,0.63-2.2,1.19s-0.93,1.31-1.17,2.25c-0.24,0.94-0.35,2.14-0.35,3.58v7.82
			c0,1.45,0.12,2.65,0.35,3.61c0.24,0.96,0.62,1.72,1.17,2.28s1.28,0.96,2.2,1.19c0.92,0.24,2.09,0.35,3.5,0.35h17.92
			c0.94,0,1.63-0.24,2.06-0.73c0.43-0.49,0.65-1.35,0.65-2.58v-4.4c0-0.47-0.22-0.71-0.65-0.71h-15.91c-0.8,0-1.19-0.42-1.19-1.25
			v-4.07c0-0.83,0.4-1.25,1.19-1.25h22.64c1.09,0,1.63,0.54,1.63,1.63v12.65c0,3.04-0.58,5.19-1.74,6.43
			c-1.16,1.25-2.82,1.87-4.99,1.87h-21.94c-2.75,0-5.09-0.25-7-0.76c-1.92-0.51-3.48-1.33-4.7-2.47c-1.21-1.14-2.1-2.62-2.66-4.45
			c-0.56-1.83-0.84-4.04-0.84-6.65v-9.34c0-2.61,0.28-4.81,0.84-6.62c0.56-1.81,1.45-3.28,2.66-4.43c1.21-1.14,2.78-1.97,4.7-2.5
			c1.92-0.52,4.25-0.79,7-0.79H233.99z"/>
		<path id="XMLID_67_" class="st3" d="M249.09,102.9c0.8,0,1.19,0.4,1.19,1.19v35.62c0,0.8-0.4,1.19-1.19,1.19h-5.86
			c-0.83,0-1.25-0.4-1.25-1.19v-35.62c0-0.8,0.42-1.19,1.25-1.19H249.09z"/>
		<path id="XMLID_65_" class="st3" d="M296.75,102.9c0.8,0,1.19,0.4,1.19,1.19v5.32c0,0.83-0.4,1.25-1.19,1.25h-24.16
			c-1.41,0-2.58,0.12-3.5,0.35c-0.92,0.24-1.66,0.63-2.2,1.19c-0.54,0.56-0.93,1.31-1.17,2.25s-0.35,2.14-0.35,3.58v7.71
			c0,1.45,0.12,2.65,0.35,3.61c0.24,0.96,0.62,1.72,1.17,2.28c0.54,0.56,1.28,0.96,2.2,1.19c0.92,0.24,2.09,0.35,3.5,0.35h24.16
			c0.8,0,1.19,0.4,1.19,1.19v5.32c0,0.8-0.4,1.19-1.19,1.19h-24.49c-2.75,0-5.09-0.25-7-0.76c-1.92-0.51-3.48-1.33-4.7-2.47
			c-1.21-1.14-2.1-2.62-2.66-4.45c-0.56-1.83-0.84-4.04-0.84-6.65v-9.34c0-2.61,0.28-4.81,0.84-6.62c0.56-1.81,1.45-3.28,2.66-4.43
			c1.21-1.14,2.78-1.97,4.7-2.5c1.92-0.52,4.25-0.79,7-0.79H296.75z"/>
		<path id="XMLID_63_" class="st3" d="M310.76,102.9c0.8,0,1.19,0.4,1.19,1.19v21.66c0,1.45,0.12,2.65,0.35,3.61
			c0.24,0.96,0.62,1.72,1.17,2.28s1.28,0.96,2.2,1.19c0.92,0.24,2.09,0.35,3.5,0.35h15.04c1.41,0,2.58-0.12,3.5-0.35
			c0.92-0.24,1.66-0.63,2.2-1.19c0.54-0.56,0.92-1.32,1.14-2.28c0.22-0.96,0.33-2.16,0.33-3.61v-21.66c0-0.8,0.4-1.19,1.19-1.19
			h5.92c0.8,0,1.19,0.4,1.19,1.19v22.48c0,2.61-0.27,4.82-0.81,6.65c-0.54,1.83-1.42,3.31-2.63,4.45c-1.21,1.14-2.79,1.96-4.72,2.47
			c-1.94,0.51-4.28,0.76-7.03,0.76h-15.64c-2.75,0-5.09-0.25-7-0.76c-1.92-0.51-3.48-1.33-4.7-2.47c-1.21-1.14-2.1-2.62-2.66-4.45
			c-0.56-1.83-0.84-4.04-0.84-6.65v-22.48c0-0.8,0.42-1.19,1.25-1.19H310.76z"/>
		<path id="XMLID_60_" class="st3" d="M399.09,102.9c1.38,0,2.53,0.28,3.47,0.84s1.86,1.66,2.77,3.28l17.97,32.63
			c0.18,0.36,0.23,0.66,0.14,0.9c-0.09,0.24-0.35,0.35-0.79,0.35h-6.9c-0.62,0-1.03-0.23-1.25-0.71l-3.86-7h-25.52l-3.75,7
			c-0.25,0.47-0.67,0.71-1.25,0.71h-7.06c-0.47,0-0.75-0.12-0.84-0.35c-0.09-0.24-0.05-0.53,0.14-0.9l17.81-32.63
			c0.91-1.63,1.79-2.72,2.66-3.28c0.87-0.56,1.88-0.84,3.04-0.84H399.09z M388.56,126.89h18.68l-8.63-15.91
			c-0.15-0.25-0.34-0.38-0.6-0.38h-0.33c-0.25,0-0.45,0.13-0.6,0.38L388.56,126.89z"/>
		<path id="XMLID_58_" class="st3" d="M466.58,102.9c0.83,0,1.25,0.4,1.25,1.19v5.16c0,0.8-0.42,1.19-1.25,1.19h-23.56
			c-1.41,0-2.58,0.12-3.5,0.35c-0.92,0.24-1.66,0.63-2.2,1.19s-0.93,1.32-1.17,2.28c-0.24,0.96-0.35,2.15-0.35,3.56v1.09h30.51
			c0.8,0,1.19,0.4,1.19,1.19v4.29c0,0.8-0.4,1.19-1.19,1.19h-30.51v14.12c0,0.8-0.4,1.19-1.19,1.19h-5.86
			c-0.83,0-1.25-0.4-1.25-1.19v-22.48c0-2.61,0.28-4.81,0.84-6.62c0.56-1.81,1.45-3.28,2.66-4.43c1.21-1.14,2.78-1.97,4.7-2.5
			c1.92-0.52,4.25-0.79,7-0.79H466.58z"/>
		<path id="XMLID_55_" class="st3" d="M503.98,102.9c4.16,0,7.15,0.94,8.96,2.82c1.81,1.88,2.71,4.67,2.71,8.36v3.1
			c0,3.11-0.63,5.57-1.9,7.38c-1.27,1.81-3.33,2.97-6.19,3.47l9.28,11.51c0.18,0.18,0.23,0.45,0.16,0.81
			c-0.07,0.36-0.36,0.54-0.87,0.54h-7c-0.47,0-0.8-0.05-0.98-0.16c-0.18-0.11-0.36-0.29-0.54-0.54l-8.58-11.29H481.5v10.8
			c0,0.8-0.4,1.19-1.19,1.19h-5.86c-0.83,0-1.25-0.4-1.25-1.19v-35.18c0-1.09,0.54-1.63,1.63-1.63H503.98z M481.5,122.28h20.79
			c1.85,0,3.15-0.4,3.91-1.19c0.76-0.8,1.14-2.01,1.14-3.64v-2.28c0-1.63-0.38-2.84-1.14-3.64s-2.06-1.19-3.91-1.19h-20.09
			c-0.47,0-0.71,0.22-0.71,0.65V122.28z"/>
		<path id="XMLID_53_" class="st3" d="M529.44,102.9c0.8,0,1.19,0.4,1.19,1.19v35.62c0,0.8-0.4,1.19-1.19,1.19h-5.86
			c-0.83,0-1.25-0.4-1.25-1.19v-35.62c0-0.8,0.42-1.19,1.25-1.19H529.44z"/>
		<path id="XMLID_51_" class="st3" d="M577.11,102.9c0.8,0,1.19,0.4,1.19,1.19v5.32c0,0.83-0.4,1.25-1.19,1.25h-24.16
			c-1.41,0-2.58,0.12-3.5,0.35c-0.92,0.24-1.66,0.63-2.2,1.19c-0.54,0.56-0.93,1.31-1.17,2.25c-0.24,0.94-0.35,2.14-0.35,3.58v7.71
			c0,1.45,0.12,2.65,0.35,3.61c0.24,0.96,0.62,1.72,1.17,2.28c0.54,0.56,1.28,0.96,2.2,1.19c0.92,0.24,2.09,0.35,3.5,0.35h24.16
			c0.8,0,1.19,0.4,1.19,1.19v5.32c0,0.8-0.4,1.19-1.19,1.19h-24.49c-2.75,0-5.09-0.25-7-0.76c-1.92-0.51-3.48-1.33-4.7-2.47
			c-1.21-1.14-2.1-2.62-2.66-4.45c-0.56-1.83-0.84-4.04-0.84-6.65v-9.34c0-2.61,0.28-4.81,0.84-6.62c0.56-1.81,1.45-3.28,2.66-4.43
			c1.21-1.14,2.78-1.97,4.7-2.5c1.92-0.52,4.25-0.79,7-0.79H577.11z"/>
		<path id="XMLID_48_" class="st3" d="M608.22,102.9c1.38,0,2.53,0.28,3.47,0.84s1.86,1.66,2.77,3.28l17.97,32.63
			c0.18,0.36,0.23,0.66,0.14,0.9c-0.09,0.24-0.35,0.35-0.79,0.35h-6.9c-0.62,0-1.03-0.23-1.25-0.71l-3.86-7h-25.52l-3.75,7
			c-0.25,0.47-0.67,0.71-1.25,0.71h-7.06c-0.47,0-0.75-0.12-0.84-0.35c-0.09-0.24-0.05-0.53,0.14-0.9l17.81-32.63
			c0.91-1.63,1.79-2.72,2.66-3.28s1.88-0.84,3.04-0.84H608.22z M597.69,126.89h18.68l-8.63-15.91c-0.15-0.25-0.34-0.38-0.6-0.38
			h-0.33c-0.25,0-0.45,0.13-0.6,0.38L597.69,126.89z"/>
	</g>
	<g id="XMLID_3_">
		<path id="XMLID_45_" d="M189.91,158.15c0.26,0,0.4,0.13,0.4,0.4v1.85c0,0.26-0.13,0.4-0.4,0.4h-8.57c-0.49,0-0.88,0.04-1.19,0.12
			c-0.31,0.08-0.55,0.21-0.73,0.4c-0.18,0.18-0.3,0.43-0.38,0.75c-0.07,0.32-0.11,0.7-0.11,1.16v1.96c0,0.47,0.04,0.86,0.11,1.17
			c0.07,0.31,0.2,0.56,0.38,0.74c0.18,0.18,0.42,0.32,0.73,0.4c0.31,0.08,0.71,0.12,1.19,0.12h8.57c0.26,0,0.4,0.13,0.4,0.4v1.85
			c0,0.26-0.13,0.4-0.4,0.4h-8.88c-1,0-1.84-0.08-2.51-0.24c-0.67-0.16-1.21-0.42-1.61-0.78c-0.4-0.36-0.7-0.82-0.87-1.39
			c-0.18-0.57-0.26-1.25-0.26-2.04v-3.18c0-0.79,0.09-1.48,0.26-2.04c0.18-0.57,0.47-1.03,0.87-1.39c0.4-0.36,0.94-0.63,1.61-0.79
			c0.67-0.17,1.5-0.25,2.51-0.25H189.91z"/>
		<path id="XMLID_42_" d="M213.87,158.15c0.99,0,1.82,0.08,2.49,0.25c0.68,0.17,1.22,0.43,1.62,0.79c0.4,0.36,0.7,0.82,0.87,1.39
			c0.18,0.57,0.26,1.25,0.26,2.04v3.18c0,0.79-0.09,1.48-0.26,2.04c-0.18,0.57-0.47,1.03-0.87,1.39c-0.4,0.36-0.95,0.62-1.62,0.78
			c-0.68,0.16-1.51,0.24-2.49,0.24h-6.25c-1,0-1.84-0.08-2.51-0.24c-0.67-0.16-1.21-0.42-1.61-0.78c-0.4-0.36-0.7-0.82-0.87-1.39
			c-0.18-0.57-0.26-1.25-0.26-2.04v-3.18c0-0.79,0.09-1.48,0.26-2.04c0.18-0.57,0.47-1.03,0.87-1.39c0.4-0.36,0.94-0.63,1.61-0.79
			c0.67-0.17,1.5-0.25,2.51-0.25H213.87z M205.52,165.25c0,0.47,0.04,0.86,0.11,1.17c0.07,0.31,0.2,0.56,0.39,0.74
			c0.18,0.18,0.43,0.32,0.74,0.4c0.31,0.08,0.7,0.12,1.17,0.12h5.63c0.49,0,0.88-0.04,1.19-0.12c0.31-0.08,0.56-0.21,0.74-0.4
			c0.18-0.18,0.31-0.43,0.39-0.74c0.07-0.31,0.11-0.7,0.11-1.17v-2.1c0-0.46-0.04-0.84-0.11-1.15c-0.07-0.31-0.2-0.56-0.39-0.75
			c-0.18-0.19-0.43-0.32-0.74-0.4c-0.31-0.07-0.71-0.11-1.19-0.11h-5.63c-0.47,0-0.86,0.04-1.17,0.11c-0.31,0.07-0.56,0.21-0.74,0.4
			c-0.18,0.19-0.31,0.44-0.39,0.75c-0.07,0.31-0.11,0.69-0.11,1.15V165.25z"/>
		<path id="XMLID_40_" d="M243.41,158.15c0.99,0,1.82,0.08,2.49,0.25c0.68,0.17,1.22,0.43,1.62,0.79c0.4,0.36,0.7,0.82,0.87,1.39
			c0.18,0.57,0.26,1.25,0.26,2.04v7.15c0,0.32-0.16,0.49-0.49,0.49h-2.16c-0.32,0-0.49-0.16-0.49-0.49v-6.4
			c0-0.46-0.03-0.84-0.09-1.16c-0.06-0.32-0.17-0.57-0.34-0.75c-0.17-0.18-0.4-0.32-0.7-0.4c-0.29-0.08-0.68-0.12-1.15-0.12h-5.87
			c-0.47,0-0.86,0.04-1.17,0.12c-0.31,0.08-0.56,0.21-0.74,0.4c-0.18,0.18-0.31,0.43-0.39,0.75c-0.07,0.32-0.11,0.7-0.11,1.16v6.4
			c0,0.32-0.16,0.49-0.49,0.49h-2.16c-0.34,0-0.51-0.16-0.51-0.49v-7.15c0-0.79,0.09-1.48,0.26-2.04c0.18-0.57,0.47-1.03,0.87-1.39
			c0.4-0.36,0.94-0.63,1.61-0.79c0.67-0.17,1.5-0.25,2.51-0.25H243.41z"/>
		<path id="XMLID_38_" d="M275.53,158.15c0.26,0,0.4,0.13,0.4,0.4v1.77c0,0.26-0.13,0.4-0.4,0.4h-9.96c-0.46,0-0.77,0.08-0.95,0.25
			c-0.18,0.17-0.26,0.42-0.26,0.74v0.33c0,0.29,0.09,0.53,0.26,0.7c0.18,0.17,0.49,0.25,0.95,0.25h7.44c1.24,0,2.12,0.26,2.65,0.77
			c0.53,0.52,0.79,1.24,0.79,2.19v1.24c0,0.49-0.06,0.92-0.18,1.3c-0.12,0.38-0.31,0.71-0.59,0.97c-0.27,0.26-0.63,0.47-1.07,0.61
			c-0.44,0.14-0.99,0.21-1.63,0.21h-11.3c-0.26,0-0.4-0.13-0.4-0.4v-1.77c0-0.26,0.13-0.4,0.4-0.4h10.46c0.46,0,0.78-0.08,0.96-0.24
			c0.18-0.16,0.28-0.43,0.28-0.82v-0.6c0-0.29-0.09-0.52-0.28-0.68c-0.18-0.16-0.5-0.24-0.96-0.24h-7.42
			c-1.24,0-2.12-0.25-2.65-0.76c-0.53-0.51-0.79-1.25-0.79-2.22v-0.97c0-0.46,0.06-0.87,0.18-1.25c0.12-0.38,0.31-0.7,0.59-0.96
			c0.27-0.26,0.63-0.47,1.07-0.61c0.44-0.14,0.99-0.21,1.63-0.21H275.53z"/>
		<path id="XMLID_36_" d="M291.6,158.15c0.32,0,0.49,0.17,0.49,0.51v6.38c0,0.47,0.03,0.86,0.09,1.17c0.06,0.31,0.17,0.56,0.33,0.74
			c0.16,0.18,0.39,0.32,0.68,0.4c0.29,0.08,0.68,0.12,1.17,0.12h5.67c0.49,0,0.88-0.04,1.19-0.12c0.31-0.08,0.56-0.21,0.74-0.4
			c0.18-0.18,0.31-0.43,0.39-0.74c0.07-0.31,0.11-0.7,0.11-1.17v-6.38c0-0.34,0.16-0.51,0.49-0.51h2.16c0.32,0,0.49,0.17,0.49,0.51
			v7.15c0,0.79-0.09,1.48-0.26,2.04c-0.18,0.57-0.47,1.03-0.87,1.39c-0.4,0.36-0.95,0.62-1.62,0.78c-0.68,0.16-1.51,0.24-2.49,0.24
			h-6.16c-1,0-1.84-0.08-2.51-0.24c-0.67-0.16-1.21-0.42-1.61-0.78c-0.4-0.36-0.7-0.82-0.87-1.39c-0.18-0.57-0.26-1.25-0.26-2.04
			v-7.15c0-0.34,0.17-0.51,0.51-0.51H291.6z"/>
		<path id="XMLID_34_" d="M321.17,153.71c0.32,0,0.49,0.16,0.49,0.49v15.59c0,0.32-0.16,0.49-0.49,0.49H319
			c-0.32,0-0.49-0.16-0.49-0.49v-15.59c0-0.32,0.16-0.49,0.49-0.49H321.17z"/>
		<path id="XMLID_32_" d="M336.09,158.15v-2.91c0-0.32,0.16-0.49,0.49-0.49h2.19c0.32,0,0.49,0.16,0.49,0.49v2.91h3.86
			c0.26,0,0.4,0.13,0.4,0.4v1.81c0,0.26-0.13,0.4-0.4,0.4h-3.86v5.12c0,0.62,0.12,1.07,0.38,1.36c0.25,0.29,0.74,0.43,1.48,0.43
			h2.14c0.26,0,0.4,0.13,0.4,0.4v1.81c0,0.26-0.13,0.4-0.4,0.4h-2.67c-0.88,0-1.61-0.08-2.19-0.24c-0.57-0.16-1.03-0.42-1.38-0.77
			c-0.35-0.35-0.59-0.81-0.72-1.37c-0.13-0.56-0.2-1.23-0.2-2.01v-5.12h-2.1c-0.26,0-0.4-0.13-0.4-0.4v-1.81
			c0-0.26,0.13-0.4,0.4-0.4H336.09z"/>
		<path id="XMLID_29_" d="M365.39,158.15c0.99,0,1.82,0.08,2.49,0.25c0.68,0.17,1.22,0.43,1.62,0.79c0.4,0.36,0.7,0.82,0.87,1.39
			c0.18,0.57,0.26,1.25,0.26,2.04v5.87c0,0.35-0.03,0.64-0.08,0.87c-0.05,0.23-0.14,0.41-0.26,0.54c-0.13,0.13-0.29,0.22-0.5,0.28
			c-0.21,0.05-0.47,0.08-0.79,0.08H358.5c-0.65,0-1.19-0.06-1.62-0.19c-0.43-0.12-0.78-0.31-1.05-0.56
			c-0.26-0.25-0.45-0.57-0.56-0.97c-0.11-0.4-0.17-0.87-0.17-1.41v-1.06c0-0.46,0.06-0.86,0.17-1.23c0.11-0.36,0.3-0.67,0.56-0.92
			c0.26-0.25,0.61-0.44,1.05-0.56c0.43-0.12,0.97-0.19,1.62-0.19h8.99v-0.42c0-0.35-0.04-0.65-0.11-0.91
			c-0.07-0.25-0.2-0.45-0.38-0.61c-0.18-0.15-0.42-0.27-0.73-0.34c-0.31-0.07-0.71-0.11-1.19-0.11h-9.23c-0.26,0-0.4-0.13-0.4-0.4
			v-1.85c0-0.26,0.13-0.4,0.4-0.4H365.39z M366.85,167.84c0.24,0,0.4-0.06,0.5-0.17c0.1-0.11,0.14-0.31,0.14-0.59v-1.94h-8.08
			c-0.46,0-0.78,0.09-0.96,0.28c-0.18,0.18-0.28,0.45-0.28,0.81v0.46c0,0.4,0.09,0.69,0.28,0.87c0.18,0.18,0.5,0.28,0.96,0.28
			H366.85z"/>
		<path id="XMLID_27_" d="M394.69,158.15c0.99,0,1.82,0.08,2.49,0.25c0.68,0.17,1.22,0.43,1.62,0.79c0.4,0.36,0.7,0.82,0.87,1.39
			c0.18,0.57,0.26,1.25,0.26,2.04v7.15c0,0.32-0.16,0.49-0.49,0.49h-2.16c-0.32,0-0.49-0.16-0.49-0.49v-6.4
			c0-0.46-0.03-0.84-0.09-1.16c-0.06-0.32-0.17-0.57-0.34-0.75c-0.17-0.18-0.4-0.32-0.7-0.4c-0.29-0.08-0.68-0.12-1.15-0.12h-5.87
			c-0.47,0-0.86,0.04-1.17,0.12c-0.31,0.08-0.56,0.21-0.74,0.4c-0.18,0.18-0.31,0.43-0.39,0.75c-0.07,0.32-0.11,0.7-0.11,1.16v6.4
			c0,0.32-0.16,0.49-0.49,0.49h-2.16c-0.34,0-0.51-0.16-0.51-0.49v-7.15c0-0.79,0.09-1.48,0.26-2.04c0.18-0.57,0.47-1.03,0.87-1.39
			c0.4-0.36,0.94-0.63,1.61-0.79c0.67-0.17,1.5-0.25,2.51-0.25H394.69z"/>
		<path id="XMLID_25_" d="M426.43,158.15c0.26,0,0.4,0.13,0.4,0.4v1.85c0,0.26-0.13,0.4-0.4,0.4h-8.57c-0.49,0-0.88,0.04-1.19,0.12
			c-0.31,0.08-0.55,0.21-0.73,0.4c-0.18,0.18-0.3,0.43-0.38,0.75c-0.07,0.32-0.11,0.7-0.11,1.16v1.96c0,0.47,0.04,0.86,0.11,1.17
			c0.07,0.31,0.2,0.56,0.38,0.74c0.18,0.18,0.42,0.32,0.73,0.4c0.31,0.08,0.71,0.12,1.19,0.12h8.57c0.26,0,0.4,0.13,0.4,0.4v1.85
			c0,0.26-0.13,0.4-0.4,0.4h-8.88c-1,0-1.84-0.08-2.51-0.24c-0.67-0.16-1.21-0.42-1.61-0.78c-0.41-0.36-0.7-0.82-0.87-1.39
			c-0.18-0.57-0.26-1.25-0.26-2.04v-3.18c0-0.79,0.09-1.48,0.26-2.04c0.18-0.57,0.47-1.03,0.87-1.39c0.4-0.36,0.94-0.63,1.61-0.79
			c0.67-0.17,1.5-0.25,2.51-0.25H426.43z"/>
		<path id="XMLID_23_" d="M455.05,158.15c0.16,0,0.27,0.06,0.32,0.17c0.05,0.11,0.04,0.24-0.03,0.39l-8.48,14.95
			c-0.29,0.52-0.71,0.89-1.25,1.14c-0.54,0.24-1.28,0.36-2.24,0.36h-1.55c-0.26,0-0.4-0.13-0.4-0.4v-1.81c0-0.26,0.13-0.4,0.4-0.4
			h1.3c0.56,0,0.93-0.17,1.13-0.51l1.19-2.1c-0.37-0.03-0.65-0.12-0.85-0.26c-0.2-0.15-0.39-0.38-0.56-0.68l-5.96-10.29
			c-0.07-0.15-0.08-0.28-0.03-0.39c0.05-0.11,0.16-0.17,0.32-0.17h2.54c0.25,0,0.43,0.1,0.53,0.31l4.9,8.5
			c0.12,0.21,0.21,0.34,0.28,0.41c0.07,0.07,0.15,0.1,0.25,0.1l5.19-9.01c0.1-0.21,0.28-0.31,0.53-0.31H455.05z"/>
		<path id="XMLID_21_" d="M487.3,153.71c0.32,0,0.49,0.16,0.49,0.49v15.59c0,0.32-0.16,0.49-0.49,0.49h-2.16
			c-0.32,0-0.49-0.16-0.49-0.49v-15.59c0-0.32,0.16-0.49,0.49-0.49H487.3z"/>
		<path id="XMLID_18_" d="M503.42,153.66c0.32,0,0.49,0.16,0.49,0.49v2.1c0,0.34-0.16,0.51-0.49,0.51h-2.16
			c-0.34,0-0.51-0.17-0.51-0.51v-2.1c0-0.32,0.17-0.49,0.51-0.49H503.42z M503.42,158.15c0.32,0,0.49,0.17,0.49,0.51v11.13
			c0,0.32-0.16,0.49-0.49,0.49h-2.16c-0.32,0-0.49-0.16-0.49-0.49v-11.13c0-0.34,0.16-0.51,0.49-0.51H503.42z"/>
		<path id="XMLID_16_" d="M533.33,158.15c0.99,0,1.81,0.08,2.48,0.25c0.67,0.17,1.21,0.43,1.62,0.79c0.41,0.36,0.7,0.82,0.87,1.39
			c0.17,0.57,0.25,1.25,0.25,2.04v7.15c0,0.32-0.16,0.49-0.49,0.49h-2.16c-0.32,0-0.49-0.16-0.49-0.49v-6.4
			c0-0.46-0.03-0.84-0.09-1.16c-0.06-0.32-0.17-0.57-0.33-0.75c-0.16-0.18-0.39-0.32-0.68-0.4c-0.29-0.08-0.68-0.12-1.17-0.12h-3.89
			v8.83c0,0.32-0.17,0.49-0.51,0.49h-2.16c-0.32,0-0.49-0.16-0.49-0.49v-8.83h-3.75c-0.47,0-0.86,0.04-1.17,0.12
			c-0.31,0.08-0.56,0.21-0.74,0.4c-0.18,0.18-0.31,0.43-0.39,0.75c-0.07,0.32-0.11,0.7-0.11,1.16v6.4c0,0.32-0.16,0.49-0.49,0.49
			h-2.16c-0.34,0-0.51-0.16-0.51-0.49v-7.15c0-0.79,0.09-1.48,0.27-2.04c0.18-0.57,0.47-1.03,0.87-1.39
			c0.4-0.36,0.94-0.63,1.61-0.79c0.67-0.17,1.5-0.25,2.51-0.25H533.33z"/>
		<path id="XMLID_12_" d="M554.13,153.66c0.32,0,0.49,0.16,0.49,0.49v2.1c0,0.34-0.16,0.51-0.49,0.51h-2.16
			c-0.34,0-0.51-0.17-0.51-0.51v-2.1c0-0.32,0.17-0.49,0.51-0.49H554.13z M554.13,158.15c0.32,0,0.49,0.17,0.49,0.51v11.13
			c0,0.32-0.16,0.49-0.49,0.49h-2.16c-0.32,0-0.49-0.16-0.49-0.49v-11.13c0-0.34,0.16-0.51,0.49-0.51H554.13z"/>
		<path id="XMLID_10_" d="M569.06,158.15v-2.91c0-0.32,0.16-0.49,0.49-0.49h2.19c0.32,0,0.49,0.16,0.49,0.49v2.91h3.86
			c0.27,0,0.4,0.13,0.4,0.4v1.81c0,0.26-0.13,0.4-0.4,0.4h-3.86v5.12c0,0.62,0.12,1.07,0.38,1.36c0.25,0.29,0.74,0.43,1.48,0.43
			h2.14c0.26,0,0.4,0.13,0.4,0.4v1.81c0,0.26-0.13,0.4-0.4,0.4h-2.67c-0.88,0-1.61-0.08-2.19-0.24c-0.57-0.16-1.03-0.42-1.38-0.77
			c-0.35-0.35-0.59-0.81-0.72-1.37c-0.13-0.56-0.2-1.23-0.2-2.01v-5.12h-2.1c-0.26,0-0.4-0.13-0.4-0.4v-1.81
			c0-0.26,0.13-0.4,0.4-0.4H569.06z"/>
		<path id="XMLID_7_" d="M599.79,158.15c0.75,0,1.37,0.06,1.87,0.19c0.49,0.13,0.88,0.33,1.17,0.62c0.29,0.29,0.49,0.66,0.61,1.13
			c0.12,0.46,0.18,1.03,0.18,1.69v2.1c0,0.47-0.1,0.8-0.31,0.98c-0.21,0.18-0.52,0.28-0.95,0.28H591.2v0.53
			c0,0.69,0.17,1.19,0.5,1.5c0.33,0.31,0.97,0.46,1.93,0.46h9.21c0.26,0,0.4,0.13,0.4,0.4v1.85c0,0.26-0.13,0.4-0.4,0.4h-9.52
			c-1,0-1.84-0.08-2.51-0.24c-0.67-0.16-1.21-0.42-1.61-0.78c-0.4-0.36-0.7-0.82-0.87-1.39c-0.18-0.57-0.27-1.25-0.27-2.04v-3.18
			c0-0.79,0.09-1.48,0.27-2.04c0.18-0.57,0.47-1.03,0.87-1.39c0.4-0.36,0.94-0.63,1.61-0.79c0.67-0.17,1.5-0.25,2.51-0.25H599.79z
			 M591.2,163.16h8.94c0.25,0,0.38-0.12,0.38-0.38v-0.93c0-0.46-0.1-0.78-0.29-0.97c-0.19-0.19-0.54-0.29-1.06-0.29h-5.54
			c-0.96,0-1.6,0.15-1.93,0.45c-0.33,0.3-0.5,0.81-0.5,1.51V163.16z"/>
		<path id="XMLID_4_" d="M629.48,158.15v-3.95c0-0.32,0.16-0.49,0.49-0.49h2.16c0.32,0,0.49,0.16,0.49,0.49v11.61
			c0,0.79-0.09,1.48-0.27,2.04c-0.18,0.57-0.47,1.03-0.87,1.39c-0.4,0.36-0.95,0.62-1.62,0.78c-0.68,0.16-1.51,0.24-2.49,0.24h-6.18
			c-1,0-1.84-0.08-2.51-0.24c-0.67-0.16-1.21-0.42-1.61-0.78c-0.41-0.36-0.7-0.82-0.87-1.39c-0.18-0.57-0.26-1.25-0.26-2.04v-3.18
			c0-0.79,0.09-1.48,0.26-2.04c0.18-0.57,0.47-1.03,0.87-1.39c0.4-0.36,0.94-0.63,1.61-0.79c0.67-0.17,1.5-0.25,2.51-0.25H629.48z
			 M627.05,167.62c0.49,0,0.88-0.04,1.19-0.12c0.31-0.08,0.56-0.21,0.74-0.4c0.18-0.18,0.31-0.43,0.39-0.74
			c0.07-0.31,0.11-0.7,0.11-1.17v-4.39h-7.99c-0.47,0-0.86,0.04-1.17,0.12c-0.31,0.08-0.56,0.21-0.74,0.4
			c-0.18,0.18-0.31,0.43-0.39,0.75c-0.07,0.32-0.11,0.7-0.11,1.16v1.96c0,0.47,0.04,0.86,0.11,1.17c0.07,0.31,0.2,0.56,0.39,0.74
			c0.18,0.18,0.43,0.32,0.74,0.4c0.31,0.08,0.7,0.12,1.17,0.12H627.05z"/>
	</g>
</g>
</svg>
