<?xml version="1.0" encoding="utf-8"?>
<!-- Generator: Adobe Illustrator 24.0.1, SVG Export Plug-In . SVG Version: 6.00 Build 0)  -->
<svg version="1.0" id="Layer_1" xmlns="http://www.w3.org/2000/svg" xmlns:xlink="http://www.w3.org/1999/xlink" x="0px" y="0px"
	 viewBox="0 0 679.15 260.43" style="enable-background:new 0 0 679.15 260.43;" xml:space="preserve">
<style type="text/css">
	.st0{clip-path:url(#XMLID_15_);fill:url(#XMLID_95_);}
	.st1{fill:#00A651;}
	.st2{clip-path:url(#XMLID_97_);fill:url(#XMLID_98_);}
	.st3{fill:#FFFFFF;}
	.st4{fill:#009857;}
	.st5{fill:#36895E;}
	.st6{fill:#48785D;}
	.st7{fill:#4B6557;}
	.st8{fill:#404A46;}
</style>
<g id="XMLID_80_">
	<g id="XMLID_155_">
		<g id="XMLID_158_">
			<defs>
				<path id="XMLID_159_" d="M122.85,111.22c-23.01,10.65-59.65,31.53-82.66,17.04c0,0,31.53,53.26,96.72,34.51l17.04-17.04
					l17.04-11.5l5.97-15.34l-8.1-3.41c0,0-12.49-8.1-28.27-8.1C134.96,107.38,128.91,108.42,122.85,111.22"/>
			</defs>
			<clipPath id="XMLID_15_">
				<use xlink:href="#XMLID_159_"  style="overflow:visible;"/>
			</clipPath>
			
				<linearGradient id="XMLID_95_" gradientUnits="userSpaceOnUse" x1="87.7006" y1="296.5988" x2="88.3487" y2="296.5988" gradientTransform="matrix(211.0539 0 0 -211.0539 -18475.0313 62742.8008)">
				<stop  offset="0" style="stop-color:#D2E5A6"/>
				<stop  offset="0.5" style="stop-color:#39B54A"/>
				<stop  offset="1" style="stop-color:#009444"/>
			</linearGradient>
			<rect id="XMLID_160_" x="40.19" y="107.38" class="st0" width="136.77" height="74.14"/>
		</g>
		<path id="XMLID_157_" d="M171,102.7c0,7.06-5.72,12.78-12.78,12.78c-7.06,0-12.78-5.72-12.78-12.78c0-7.06,5.72-12.78,12.78-12.78
			C165.28,89.92,171,95.64,171,102.7"/>
		<path id="XMLID_156_" d="M190.17,89.92c0,0-7.24,19.17-21.3,25.56c0,0,2.13,9.37-5.11,17.04c0,0-19.17-25.57-54.11,6.82
			c0,0,28.97-11.93,28.12,4.26c-0.85,16.19-31.53,39.2-49.85,41.76C87.91,185.36,176.96,185.36,190.17,89.92"/>
	</g>
	<g id="XMLID_128_">
		<path id="XMLID_153_" class="st1" d="M197.52,119.05c0.76,0,1.15,0.38,1.15,1.15v34.16c0,0.76-0.38,1.15-1.15,1.15h-5.62
			c-0.8,0-1.2-0.38-1.2-1.15v-34.16c0-0.76,0.4-1.15,1.2-1.15H197.52z"/>
		<path id="XMLID_151_" class="st1" d="M246.16,119.05c0.76,0,1.15,0.38,1.15,1.15v5.1c0,0.8-0.38,1.2-1.15,1.2h-26.09
			c-1.35,0-2.47,0.11-3.36,0.34c-0.89,0.23-1.59,0.61-2.11,1.15c-0.52,0.54-0.89,1.26-1.12,2.16c-0.23,0.9-0.34,2.05-0.34,3.44v7.5
			c0,1.39,0.11,2.54,0.34,3.46c0.23,0.92,0.6,1.65,1.12,2.19c0.52,0.54,1.22,0.92,2.11,1.15c0.88,0.23,2,0.34,3.36,0.34h17.18
			c0.9,0,1.56-0.23,1.98-0.7c0.42-0.47,0.62-1.29,0.62-2.47v-4.22c0-0.45-0.21-0.68-0.62-0.68h-15.26c-0.76,0-1.15-0.4-1.15-1.2
			v-3.9c0-0.8,0.38-1.2,1.15-1.2h21.71c1.04,0,1.56,0.52,1.56,1.56v12.13c0,2.92-0.56,4.97-1.67,6.17c-1.11,1.2-2.71,1.8-4.79,1.8
			h-21.04c-2.64,0-4.88-0.24-6.72-0.73c-1.84-0.49-3.34-1.28-4.5-2.37c-1.16-1.09-2.01-2.52-2.55-4.27
			c-0.54-1.75-0.81-3.88-0.81-6.38v-8.96c0-2.5,0.27-4.62,0.81-6.35s1.39-3.15,2.55-4.24c1.16-1.09,2.66-1.89,4.5-2.4
			c1.84-0.5,4.08-0.76,6.72-0.76H246.16z"/>
		<path id="XMLID_149_" class="st1" d="M260.63,119.05c0.76,0,1.15,0.38,1.15,1.15v34.16c0,0.76-0.38,1.15-1.15,1.15h-5.62
			c-0.8,0-1.2-0.38-1.2-1.15v-34.16c0-0.76,0.4-1.15,1.2-1.15H260.63z"/>
		<path id="XMLID_147_" class="st1" d="M306.35,119.05c0.76,0,1.15,0.38,1.15,1.15v5.1c0,0.8-0.38,1.2-1.15,1.2h-23.17
			c-1.35,0-2.47,0.11-3.36,0.34c-0.89,0.23-1.59,0.61-2.11,1.15c-0.52,0.54-0.89,1.26-1.12,2.16c-0.23,0.9-0.34,2.05-0.34,3.44v7.39
			c0,1.39,0.11,2.54,0.34,3.46s0.6,1.65,1.12,2.19s1.22,0.92,2.11,1.15c0.88,0.23,2,0.34,3.36,0.34h23.17
			c0.76,0,1.15,0.38,1.15,1.15v5.1c0,0.76-0.38,1.15-1.15,1.15h-23.48c-2.64,0-4.88-0.24-6.72-0.73c-1.84-0.49-3.34-1.28-4.5-2.37
			c-1.16-1.09-2.01-2.52-2.55-4.27c-0.54-1.75-0.81-3.88-0.81-6.38v-8.96c0-2.5,0.27-4.62,0.81-6.35c0.54-1.74,1.39-3.15,2.55-4.24
			c1.16-1.09,2.66-1.89,4.5-2.4c1.84-0.5,4.08-0.76,6.72-0.76H306.35z"/>
		<path id="XMLID_145_" class="st1" d="M319.78,119.05c0.76,0,1.15,0.38,1.15,1.15v20.78c0,1.39,0.11,2.54,0.34,3.46
			s0.6,1.65,1.12,2.19s1.22,0.92,2.11,1.15c0.88,0.23,2,0.34,3.36,0.34h14.42c1.35,0,2.47-0.11,3.36-0.34
			c0.88-0.23,1.59-0.61,2.11-1.15s0.89-1.27,1.09-2.19c0.21-0.92,0.31-2.07,0.31-3.46v-20.78c0-0.76,0.38-1.15,1.15-1.15h5.68
			c0.76,0,1.15,0.38,1.15,1.15v21.56c0,2.5-0.26,4.63-0.78,6.38c-0.52,1.75-1.36,3.18-2.52,4.27c-1.16,1.09-2.67,1.88-4.53,2.37
			c-1.86,0.49-4.11,0.73-6.74,0.73h-15c-2.64,0-4.88-0.24-6.72-0.73c-1.84-0.49-3.34-1.28-4.5-2.37c-1.16-1.09-2.01-2.52-2.55-4.27
			c-0.54-1.75-0.81-3.88-0.81-6.38v-21.56c0-0.76,0.4-1.15,1.2-1.15H319.78z"/>
		<path id="XMLID_142_" class="st1" d="M404.49,119.05c1.32,0,2.43,0.27,3.33,0.81s1.79,1.59,2.66,3.15l17.24,31.29
			c0.17,0.35,0.22,0.63,0.13,0.86c-0.09,0.23-0.34,0.34-0.75,0.34h-6.61c-0.59,0-0.99-0.23-1.2-0.68l-3.7-6.72h-24.47l-3.59,6.72
			c-0.24,0.45-0.64,0.68-1.2,0.68h-6.77c-0.45,0-0.72-0.11-0.81-0.34c-0.09-0.23-0.04-0.51,0.13-0.86L395.95,123
			c0.87-1.56,1.72-2.61,2.55-3.15c0.83-0.54,1.8-0.81,2.92-0.81H404.49z M394.39,142.06h17.91l-8.28-15.26
			c-0.14-0.24-0.33-0.36-0.57-0.36h-0.31c-0.24,0-0.43,0.12-0.57,0.36L394.39,142.06z"/>
		<path id="XMLID_140_" class="st1" d="M469.21,119.05c0.8,0,1.2,0.38,1.2,1.15v4.95c0,0.76-0.4,1.15-1.2,1.15h-22.6
			c-1.35,0-2.47,0.11-3.36,0.34c-0.89,0.23-1.59,0.61-2.11,1.15c-0.52,0.54-0.89,1.27-1.12,2.19c-0.23,0.92-0.34,2.06-0.34,3.41
			v1.04h29.26c0.76,0,1.15,0.38,1.15,1.15v4.11c0,0.76-0.38,1.15-1.15,1.15h-29.26v13.54c0,0.76-0.38,1.15-1.15,1.15h-5.62
			c-0.8,0-1.2-0.38-1.2-1.15v-21.56c0-2.5,0.27-4.62,0.81-6.35c0.54-1.74,1.39-3.15,2.55-4.24c1.16-1.09,2.66-1.89,4.5-2.4
			c1.84-0.5,4.08-0.76,6.72-0.76H469.21z"/>
		<path id="XMLID_136_" class="st1" d="M505.08,119.05c3.99,0,6.86,0.9,8.59,2.71c1.74,1.8,2.6,4.48,2.6,8.02v2.97
			c0,2.99-0.61,5.35-1.82,7.08c-1.21,1.74-3.19,2.85-5.94,3.33l8.9,11.04c0.17,0.17,0.23,0.43,0.16,0.78
			c-0.07,0.35-0.35,0.52-0.83,0.52h-6.72c-0.45,0-0.76-0.05-0.94-0.16c-0.17-0.1-0.35-0.28-0.52-0.52l-8.23-10.83h-16.82v10.36
			c0,0.76-0.38,1.15-1.15,1.15h-5.62c-0.8,0-1.2-0.38-1.2-1.15v-33.74c0-1.04,0.52-1.56,1.56-1.56H505.08z M483.53,137.64h19.94
			c1.77,0,3.02-0.38,3.75-1.15c0.73-0.76,1.09-1.93,1.09-3.49v-2.19c0-1.56-0.37-2.73-1.09-3.49c-0.73-0.76-1.98-1.15-3.75-1.15
			H484.2c-0.45,0-0.68,0.21-0.68,0.63V137.64z"/>
		<path id="XMLID_134_" class="st1" d="M529.5,119.05c0.76,0,1.15,0.38,1.15,1.15v34.16c0,0.76-0.38,1.15-1.15,1.15h-5.62
			c-0.8,0-1.2-0.38-1.2-1.15v-34.16c0-0.76,0.4-1.15,1.2-1.15H529.5z"/>
		<path id="XMLID_132_" class="st1" d="M575.22,119.05c0.76,0,1.15,0.38,1.15,1.15v5.1c0,0.8-0.38,1.2-1.15,1.2h-23.17
			c-1.35,0-2.47,0.11-3.36,0.34c-0.89,0.23-1.59,0.61-2.11,1.15c-0.52,0.54-0.89,1.26-1.12,2.16c-0.23,0.9-0.34,2.05-0.34,3.44v7.39
			c0,1.39,0.11,2.54,0.34,3.46s0.6,1.65,1.12,2.19s1.22,0.92,2.11,1.15c0.88,0.23,2,0.34,3.36,0.34h23.17
			c0.76,0,1.15,0.38,1.15,1.15v5.1c0,0.76-0.38,1.15-1.15,1.15h-23.48c-2.64,0-4.88-0.24-6.72-0.73c-1.84-0.49-3.34-1.28-4.5-2.37
			c-1.16-1.09-2.01-2.52-2.55-4.27c-0.54-1.75-0.81-3.88-0.81-6.38v-8.96c0-2.5,0.27-4.62,0.81-6.35s1.39-3.15,2.55-4.24
			c1.16-1.09,2.66-1.89,4.5-2.4c1.84-0.5,4.08-0.76,6.72-0.76H575.22z"/>
		<path id="XMLID_129_" class="st1" d="M605.05,119.05c1.32,0,2.43,0.27,3.33,0.81c0.9,0.54,1.79,1.59,2.66,3.15l17.24,31.29
			c0.17,0.35,0.22,0.63,0.13,0.86c-0.09,0.23-0.34,0.34-0.75,0.34h-6.61c-0.59,0-0.99-0.23-1.2-0.68l-3.7-6.72h-24.47l-3.59,6.72
			c-0.24,0.45-0.64,0.68-1.2,0.68h-6.77c-0.45,0-0.72-0.11-0.81-0.34c-0.09-0.23-0.04-0.51,0.13-0.86L596.51,123
			c0.87-1.56,1.72-2.61,2.55-3.15c0.83-0.54,1.8-0.81,2.92-0.81H605.05z M594.95,142.06h17.91l-8.28-15.26
			c-0.14-0.24-0.33-0.36-0.57-0.36h-0.31c-0.24,0-0.43,0.12-0.57,0.36L594.95,142.06z"/>
	</g>
	<g id="XMLID_81_">
		<path id="XMLID_126_" d="M203.88,172.03c0.25,0,0.38,0.13,0.38,0.38v1.78c0,0.25-0.13,0.38-0.38,0.38h-8.22
			c-0.47,0-0.85,0.04-1.14,0.12c-0.3,0.08-0.53,0.2-0.7,0.38c-0.17,0.18-0.29,0.42-0.36,0.72c-0.07,0.3-0.11,0.67-0.11,1.11v1.88
			c0,0.45,0.04,0.83,0.11,1.12c0.07,0.3,0.19,0.53,0.36,0.71c0.17,0.18,0.4,0.3,0.7,0.38c0.3,0.08,0.68,0.12,1.14,0.12h8.22
			c0.25,0,0.38,0.13,0.38,0.38v1.78c0,0.25-0.13,0.38-0.38,0.38h-8.51c-0.96,0-1.76-0.08-2.4-0.23c-0.64-0.16-1.16-0.41-1.55-0.75
			c-0.39-0.35-0.67-0.79-0.84-1.33c-0.17-0.54-0.25-1.2-0.25-1.96v-3.05c0-0.76,0.08-1.42,0.25-1.96c0.17-0.54,0.45-0.99,0.84-1.33
			c0.39-0.35,0.9-0.6,1.55-0.76c0.64-0.16,1.44-0.24,2.4-0.24H203.88z"/>
		<path id="XMLID_123_" d="M226.86,172.03c0.95,0,1.74,0.08,2.39,0.24c0.65,0.16,1.17,0.42,1.56,0.76c0.39,0.35,0.67,0.79,0.84,1.33
			c0.17,0.54,0.25,1.2,0.25,1.96v3.05c0,0.76-0.08,1.42-0.25,1.96c-0.17,0.54-0.45,0.99-0.84,1.33c-0.39,0.35-0.91,0.6-1.56,0.75
			c-0.65,0.16-1.45,0.23-2.39,0.23h-5.99c-0.96,0-1.76-0.08-2.4-0.23c-0.64-0.16-1.16-0.41-1.55-0.75
			c-0.39-0.35-0.67-0.79-0.84-1.33c-0.17-0.54-0.25-1.2-0.25-1.96v-3.05c0-0.76,0.08-1.42,0.25-1.96c0.17-0.54,0.45-0.99,0.84-1.33
			c0.39-0.35,0.9-0.6,1.55-0.76c0.64-0.16,1.44-0.24,2.4-0.24H226.86z M218.85,178.85c0,0.45,0.04,0.83,0.11,1.12
			c0.07,0.3,0.19,0.53,0.37,0.71c0.18,0.18,0.41,0.3,0.71,0.38c0.3,0.08,0.67,0.12,1.12,0.12h5.4c0.47,0,0.85-0.04,1.14-0.12
			c0.3-0.08,0.53-0.2,0.71-0.38c0.18-0.18,0.3-0.41,0.37-0.71c0.07-0.3,0.11-0.67,0.11-1.12v-2.01c0-0.44-0.04-0.8-0.11-1.1
			c-0.07-0.3-0.19-0.54-0.37-0.72c-0.18-0.18-0.41-0.31-0.71-0.38c-0.3-0.07-0.68-0.11-1.14-0.11h-5.4c-0.45,0-0.83,0.04-1.12,0.11
			c-0.3,0.07-0.53,0.2-0.71,0.38c-0.18,0.18-0.3,0.42-0.37,0.72c-0.07,0.3-0.11,0.66-0.11,1.1V178.85z"/>
		<path id="XMLID_121_" d="M255.19,172.03c0.95,0,1.74,0.08,2.39,0.24c0.65,0.16,1.17,0.42,1.56,0.76c0.39,0.35,0.67,0.79,0.84,1.33
			c0.17,0.54,0.25,1.2,0.25,1.96v6.86c0,0.31-0.16,0.47-0.47,0.47h-2.08c-0.31,0-0.47-0.16-0.47-0.47v-6.14
			c0-0.44-0.03-0.81-0.08-1.11c-0.06-0.3-0.17-0.54-0.33-0.72c-0.16-0.18-0.38-0.3-0.67-0.38c-0.28-0.08-0.65-0.12-1.1-0.12h-5.63
			c-0.45,0-0.83,0.04-1.12,0.12c-0.3,0.08-0.53,0.2-0.71,0.38c-0.18,0.18-0.3,0.42-0.37,0.72c-0.07,0.3-0.11,0.67-0.11,1.11v6.14
			c0,0.31-0.16,0.47-0.47,0.47h-2.07c-0.32,0-0.49-0.16-0.49-0.47v-6.86c0-0.76,0.08-1.42,0.25-1.96c0.17-0.54,0.45-0.99,0.84-1.33
			c0.39-0.35,0.9-0.6,1.55-0.76c0.64-0.16,1.44-0.24,2.4-0.24H255.19z"/>
		<path id="XMLID_119_" d="M285.99,172.03c0.25,0,0.38,0.13,0.38,0.38v1.69c0,0.25-0.13,0.38-0.38,0.38h-9.55
			c-0.44,0-0.74,0.08-0.91,0.24c-0.17,0.16-0.25,0.4-0.25,0.71v0.32c0,0.28,0.08,0.5,0.25,0.67c0.17,0.16,0.47,0.24,0.91,0.24h7.14
			c1.19,0,2.03,0.25,2.54,0.74c0.51,0.49,0.76,1.19,0.76,2.1v1.19c0,0.47-0.06,0.88-0.17,1.25c-0.11,0.37-0.3,0.68-0.56,0.93
			c-0.26,0.25-0.6,0.45-1.03,0.58c-0.42,0.13-0.95,0.2-1.57,0.2h-10.84c-0.25,0-0.38-0.13-0.38-0.38v-1.69
			c0-0.25,0.13-0.38,0.38-0.38h10.04c0.44,0,0.74-0.08,0.92-0.23c0.18-0.16,0.26-0.42,0.26-0.78v-0.57c0-0.28-0.09-0.5-0.26-0.66
			c-0.18-0.16-0.48-0.23-0.92-0.23h-7.11c-1.19,0-2.03-0.24-2.54-0.73c-0.51-0.49-0.76-1.2-0.76-2.13v-0.93
			c0-0.44,0.06-0.84,0.17-1.2c0.11-0.36,0.3-0.67,0.56-0.92c0.26-0.25,0.6-0.45,1.03-0.58c0.42-0.13,0.95-0.2,1.57-0.2H285.99z"/>
		<path id="XMLID_117_" d="M301.41,172.03c0.31,0,0.47,0.16,0.47,0.49v6.12c0,0.45,0.03,0.83,0.08,1.12
			c0.06,0.3,0.16,0.53,0.32,0.71c0.16,0.18,0.37,0.3,0.66,0.38c0.28,0.08,0.66,0.12,1.12,0.12h5.44c0.47,0,0.85-0.04,1.14-0.12
			c0.3-0.08,0.53-0.2,0.71-0.38c0.18-0.18,0.3-0.41,0.37-0.71c0.07-0.3,0.11-0.67,0.11-1.12v-6.12c0-0.32,0.16-0.49,0.47-0.49h2.07
			c0.31,0,0.47,0.16,0.47,0.49v6.86c0,0.76-0.08,1.42-0.25,1.96c-0.17,0.54-0.45,0.99-0.84,1.33c-0.39,0.35-0.91,0.6-1.56,0.75
			c-0.65,0.16-1.45,0.23-2.39,0.23h-5.91c-0.96,0-1.76-0.08-2.4-0.23c-0.64-0.16-1.16-0.41-1.55-0.75
			c-0.39-0.35-0.67-0.79-0.84-1.33c-0.17-0.54-0.25-1.2-0.25-1.96v-6.86c0-0.32,0.16-0.49,0.49-0.49H301.41z"/>
		<path id="XMLID_115_" d="M329.76,167.78c0.31,0,0.47,0.16,0.47,0.47v14.95c0,0.31-0.16,0.47-0.47,0.47h-2.07
			c-0.31,0-0.47-0.16-0.47-0.47v-14.95c0-0.31,0.16-0.47,0.47-0.47H329.76z"/>
		<path id="XMLID_113_" d="M344.07,172.03v-2.79c0-0.31,0.16-0.47,0.47-0.47h2.1c0.31,0,0.47,0.16,0.47,0.47v2.79h3.71
			c0.25,0,0.38,0.13,0.38,0.38v1.74c0,0.25-0.13,0.38-0.38,0.38h-3.71v4.91c0,0.59,0.12,1.03,0.36,1.3
			c0.24,0.28,0.71,0.41,1.42,0.41h2.05c0.25,0,0.38,0.13,0.38,0.38v1.74c0,0.25-0.13,0.38-0.38,0.38h-2.56
			c-0.85,0-1.55-0.08-2.1-0.23c-0.55-0.16-0.99-0.4-1.32-0.74c-0.33-0.34-0.56-0.78-0.69-1.31c-0.13-0.54-0.19-1.18-0.19-1.93v-4.91
			h-2.01c-0.25,0-0.38-0.13-0.38-0.38v-1.74c0-0.25,0.13-0.38,0.38-0.38H344.07z"/>
		<path id="XMLID_110_" d="M372.17,172.03c0.95,0,1.74,0.08,2.39,0.24c0.65,0.16,1.17,0.42,1.56,0.76c0.39,0.35,0.67,0.79,0.84,1.33
			c0.17,0.54,0.25,1.2,0.25,1.96v5.63c0,0.34-0.02,0.62-0.07,0.84c-0.05,0.22-0.13,0.39-0.25,0.52c-0.12,0.13-0.28,0.22-0.48,0.26
			c-0.2,0.05-0.45,0.07-0.76,0.07h-10.08c-0.62,0-1.14-0.06-1.56-0.18c-0.42-0.12-0.75-0.3-1.01-0.54
			c-0.25-0.24-0.43-0.55-0.54-0.93c-0.11-0.38-0.16-0.83-0.16-1.36v-1.02c0-0.44,0.05-0.83,0.16-1.18c0.11-0.35,0.29-0.64,0.54-0.88
			c0.25-0.24,0.59-0.42,1.01-0.54c0.42-0.12,0.93-0.18,1.56-0.18h8.62v-0.4c0-0.34-0.04-0.63-0.11-0.87
			c-0.07-0.24-0.19-0.43-0.36-0.58c-0.17-0.15-0.4-0.26-0.7-0.33c-0.3-0.07-0.68-0.11-1.14-0.11h-8.85c-0.25,0-0.38-0.13-0.38-0.38
			v-1.78c0-0.25,0.13-0.38,0.38-0.38H372.17z M373.56,181.33c0.23,0,0.38-0.05,0.48-0.16c0.09-0.11,0.14-0.29,0.14-0.56v-1.86h-7.75
			c-0.44,0-0.74,0.09-0.92,0.26c-0.18,0.18-0.26,0.43-0.26,0.77v0.44c0,0.38,0.09,0.66,0.26,0.84c0.18,0.18,0.48,0.26,0.92,0.26
			H373.56z"/>
		<path id="XMLID_108_" d="M400.26,172.03c0.95,0,1.74,0.08,2.39,0.24c0.65,0.16,1.17,0.42,1.56,0.76c0.39,0.35,0.67,0.79,0.84,1.33
			c0.17,0.54,0.25,1.2,0.25,1.96v6.86c0,0.31-0.16,0.47-0.47,0.47h-2.07c-0.31,0-0.47-0.16-0.47-0.47v-6.14
			c0-0.44-0.03-0.81-0.08-1.11c-0.06-0.3-0.17-0.54-0.33-0.72c-0.16-0.18-0.38-0.3-0.67-0.38c-0.28-0.08-0.65-0.12-1.1-0.12h-5.63
			c-0.45,0-0.83,0.04-1.12,0.12c-0.3,0.08-0.53,0.2-0.71,0.38c-0.18,0.18-0.3,0.42-0.37,0.72c-0.07,0.3-0.11,0.67-0.11,1.11v6.14
			c0,0.31-0.16,0.47-0.47,0.47h-2.07c-0.32,0-0.49-0.16-0.49-0.47v-6.86c0-0.76,0.08-1.42,0.25-1.96c0.17-0.54,0.45-0.99,0.84-1.33
			c0.39-0.35,0.9-0.6,1.55-0.76c0.64-0.16,1.44-0.24,2.4-0.24H400.26z"/>
		<path id="XMLID_106_" d="M430.71,172.03c0.25,0,0.38,0.13,0.38,0.38v1.78c0,0.25-0.13,0.38-0.38,0.38h-8.22
			c-0.47,0-0.85,0.04-1.14,0.12c-0.3,0.08-0.53,0.2-0.7,0.38c-0.17,0.18-0.29,0.42-0.36,0.72c-0.07,0.3-0.11,0.67-0.11,1.11v1.88
			c0,0.45,0.04,0.83,0.11,1.12c0.07,0.3,0.19,0.53,0.36,0.71c0.17,0.18,0.4,0.3,0.7,0.38c0.3,0.08,0.68,0.12,1.14,0.12h8.22
			c0.25,0,0.38,0.13,0.38,0.38v1.78c0,0.25-0.13,0.38-0.38,0.38h-8.51c-0.96,0-1.76-0.08-2.4-0.23c-0.64-0.16-1.16-0.41-1.55-0.75
			c-0.39-0.35-0.67-0.79-0.84-1.33c-0.17-0.54-0.25-1.2-0.25-1.96v-3.05c0-0.76,0.08-1.42,0.25-1.96c0.17-0.54,0.45-0.99,0.84-1.33
			c0.39-0.35,0.9-0.6,1.55-0.76c0.64-0.16,1.44-0.24,2.4-0.24H430.71z"/>
		<path id="XMLID_104_" d="M458.15,172.03c0.16,0,0.26,0.05,0.31,0.16c0.05,0.11,0.04,0.23-0.03,0.37l-8.13,14.33
			c-0.28,0.49-0.68,0.86-1.2,1.09c-0.52,0.23-1.23,0.35-2.15,0.35h-1.48c-0.25,0-0.38-0.13-0.38-0.38v-1.74
			c0-0.25,0.13-0.38,0.38-0.38h1.25c0.54,0,0.9-0.16,1.08-0.49l1.14-2.01c-0.35-0.03-0.62-0.11-0.82-0.25
			c-0.19-0.14-0.37-0.36-0.54-0.66l-5.72-9.87c-0.07-0.14-0.08-0.26-0.03-0.37c0.05-0.11,0.15-0.16,0.31-0.16h2.44
			c0.24,0,0.41,0.1,0.51,0.3l4.7,8.15c0.11,0.2,0.2,0.33,0.26,0.39c0.06,0.06,0.14,0.1,0.24,0.1l4.98-8.64
			c0.1-0.2,0.27-0.3,0.51-0.3H458.15z"/>
		<path id="XMLID_102_" d="M489.09,167.78c0.31,0,0.47,0.16,0.47,0.47v14.95c0,0.31-0.16,0.47-0.47,0.47h-2.07
			c-0.31,0-0.47-0.16-0.47-0.47v-14.95c0-0.31,0.16-0.47,0.47-0.47H489.09z"/>
		<path id="XMLID_99_" d="M504.54,167.73c0.31,0,0.47,0.16,0.47,0.47v2.01c0,0.32-0.16,0.49-0.47,0.49h-2.07
			c-0.32,0-0.49-0.16-0.49-0.49v-2.01c0-0.31,0.16-0.47,0.49-0.47H504.54z M504.54,172.03c0.31,0,0.47,0.16,0.47,0.49v10.67
			c0,0.31-0.16,0.47-0.47,0.47h-2.07c-0.31,0-0.47-0.16-0.47-0.47v-10.67c0-0.32,0.16-0.49,0.47-0.49H504.54z"/>
		<path id="XMLID_93_" d="M533.23,172.03c0.95,0,1.74,0.08,2.38,0.24c0.64,0.16,1.16,0.42,1.56,0.76c0.4,0.35,0.67,0.79,0.84,1.33
			c0.16,0.54,0.24,1.2,0.24,1.96v6.86c0,0.31-0.16,0.47-0.47,0.47h-2.07c-0.31,0-0.47-0.16-0.47-0.47v-6.14
			c0-0.44-0.03-0.81-0.08-1.11c-0.06-0.3-0.16-0.54-0.32-0.72c-0.16-0.18-0.37-0.3-0.66-0.38c-0.28-0.08-0.66-0.12-1.12-0.12h-3.73
			v8.47c0,0.31-0.16,0.47-0.49,0.47h-2.08c-0.31,0-0.47-0.16-0.47-0.47v-8.47h-3.6c-0.45,0-0.83,0.04-1.12,0.12
			c-0.3,0.08-0.53,0.2-0.71,0.38c-0.18,0.18-0.3,0.42-0.37,0.72c-0.07,0.3-0.11,0.67-0.11,1.11v6.14c0,0.31-0.16,0.47-0.47,0.47
			h-2.07c-0.32,0-0.49-0.16-0.49-0.47v-6.86c0-0.76,0.08-1.42,0.25-1.96c0.17-0.54,0.45-0.99,0.84-1.33c0.39-0.35,0.9-0.6,1.55-0.76
			c0.64-0.16,1.44-0.24,2.4-0.24H533.23z"/>
		<path id="XMLID_90_" d="M553.18,167.73c0.31,0,0.47,0.16,0.47,0.47v2.01c0,0.32-0.16,0.49-0.47,0.49h-2.08
			c-0.32,0-0.49-0.16-0.49-0.49v-2.01c0-0.31,0.16-0.47,0.49-0.47H553.18z M553.18,172.03c0.31,0,0.47,0.16,0.47,0.49v10.67
			c0,0.31-0.16,0.47-0.47,0.47h-2.08c-0.31,0-0.47-0.16-0.47-0.47v-10.67c0-0.32,0.16-0.49,0.47-0.49H553.18z"/>
		<path id="XMLID_88_" d="M567.49,172.03v-2.79c0-0.31,0.16-0.47,0.47-0.47h2.1c0.31,0,0.47,0.16,0.47,0.47v2.79h3.71
			c0.25,0,0.38,0.13,0.38,0.38v1.74c0,0.25-0.13,0.38-0.38,0.38h-3.71v4.91c0,0.59,0.12,1.03,0.36,1.3
			c0.24,0.28,0.71,0.41,1.42,0.41h2.05c0.25,0,0.38,0.13,0.38,0.38v1.74c0,0.25-0.13,0.38-0.38,0.38h-2.56
			c-0.85,0-1.55-0.08-2.1-0.23c-0.55-0.16-0.99-0.4-1.32-0.74c-0.33-0.34-0.56-0.78-0.69-1.31c-0.13-0.54-0.19-1.18-0.19-1.93v-4.91
			h-2.01c-0.25,0-0.38-0.13-0.38-0.38v-1.74c0-0.25,0.13-0.38,0.38-0.38H567.49z"/>
		<path id="XMLID_85_" d="M596.96,172.03c0.72,0,1.32,0.06,1.79,0.18c0.47,0.12,0.85,0.32,1.12,0.59c0.28,0.28,0.47,0.64,0.58,1.08
			c0.11,0.44,0.17,0.98,0.17,1.62v2.01c0,0.45-0.1,0.77-0.3,0.94c-0.2,0.18-0.5,0.26-0.91,0.26h-10.69v0.51
			c0,0.66,0.16,1.14,0.48,1.44c0.32,0.3,0.93,0.44,1.85,0.44h8.83c0.25,0,0.38,0.13,0.38,0.38v1.78c0,0.25-0.13,0.38-0.38,0.38
			h-9.13c-0.96,0-1.76-0.08-2.4-0.23c-0.64-0.16-1.16-0.41-1.55-0.75c-0.39-0.35-0.67-0.79-0.84-1.33c-0.17-0.54-0.25-1.2-0.25-1.96
			v-3.05c0-0.76,0.08-1.42,0.25-1.96c0.17-0.54,0.45-0.99,0.84-1.33c0.39-0.35,0.9-0.6,1.55-0.76c0.64-0.16,1.44-0.24,2.4-0.24
			H596.96z M588.73,176.84h8.58c0.24,0,0.36-0.12,0.36-0.36v-0.89c0-0.44-0.09-0.75-0.28-0.93c-0.18-0.18-0.52-0.28-1.02-0.28h-5.31
			c-0.92,0-1.54,0.14-1.85,0.43c-0.32,0.29-0.48,0.77-0.48,1.45V176.84z"/>
		<path id="XMLID_82_" d="M625.44,172.03v-3.79c0-0.31,0.16-0.47,0.47-0.47h2.07c0.31,0,0.47,0.16,0.47,0.47v11.14
			c0,0.76-0.08,1.42-0.25,1.96c-0.17,0.54-0.45,0.99-0.84,1.33c-0.39,0.35-0.91,0.6-1.56,0.75c-0.65,0.16-1.45,0.23-2.39,0.23h-5.93
			c-0.96,0-1.76-0.08-2.4-0.23c-0.64-0.16-1.16-0.41-1.55-0.75c-0.39-0.35-0.67-0.79-0.84-1.33c-0.17-0.54-0.25-1.2-0.25-1.96v-3.05
			c0-0.76,0.08-1.42,0.25-1.96c0.17-0.54,0.45-0.99,0.84-1.33c0.39-0.35,0.9-0.6,1.55-0.76c0.64-0.16,1.44-0.24,2.4-0.24H625.44z
			 M623.11,181.12c0.47,0,0.85-0.04,1.14-0.12c0.3-0.08,0.53-0.2,0.71-0.38c0.18-0.18,0.3-0.41,0.37-0.71
			c0.07-0.3,0.11-0.67,0.11-1.12v-4.21h-7.66c-0.45,0-0.83,0.04-1.12,0.12c-0.3,0.08-0.53,0.2-0.71,0.38
			c-0.18,0.18-0.3,0.42-0.37,0.72c-0.07,0.3-0.11,0.67-0.11,1.11v1.88c0,0.45,0.04,0.83,0.11,1.12c0.07,0.3,0.19,0.53,0.37,0.71
			c0.18,0.18,0.41,0.3,0.71,0.38c0.3,0.08,0.67,0.12,1.12,0.12H623.11z"/>
	</g>
</g>
</svg>
