<?xml version="1.0" encoding="utf-8"?>
<!-- Generator: Adobe Illustrator 24.0.1, SVG Export Plug-In . SVG Version: 6.00 Build 0)  -->
<svg version="1.0" id="Layer_1" xmlns="http://www.w3.org/2000/svg" xmlns:xlink="http://www.w3.org/1999/xlink" x="0px" y="0px"
	 viewBox="0 0 841.89 197.05" style="enable-background:new 0 0 841.89 197.05;" xml:space="preserve">
<style type="text/css">
	.st0{fill:#00A651;}
	.st1{clip-path:url(#XMLID_2_);fill:url(#XMLID_3_);}
	.st2{clip-path:url(#XMLID_4_);fill:url(#XMLID_5_);}
	.st3{clip-path:url(#XMLID_6_);fill:url(#XMLID_7_);}
	.st4{clip-path:url(#XMLID_8_);fill:url(#XMLID_9_);}
	.st5{clip-path:url(#XMLID_10_);fill:url(#XMLID_11_);}
	.st6{clip-path:url(#XMLID_12_);fill:url(#XMLID_13_);}
	.st7{clip-path:url(#XMLID_14_);fill:url(#XMLID_15_);}
	.st8{clip-path:url(#XMLID_16_);fill:url(#XMLID_17_);}
</style>
<g id="XMLID_270_">
	<g id="XMLID_273_">
		<defs>
			<path id="XMLID_274_" d="M145.31,61.71c-28.65,13.26-74.28,39.26-102.93,21.22c0,0,39.26,66.32,120.44,42.97l21.22-21.22
				l21.22-14.33l7.43-19.1l-10.08-4.24c0,0-15.56-10.08-35.2-10.08C160.39,56.93,152.85,58.22,145.31,61.71"/>
		</defs>
		<clipPath id="XMLID_2_">
			<use xlink:href="#XMLID_274_"  style="overflow:visible;"/>
		</clipPath>
		
			<linearGradient id="XMLID_3_" gradientUnits="userSpaceOnUse" x1="631.659" y1="-545.067" x2="632.4659" y2="-545.067" gradientTransform="matrix(211.0539 0 0 -211.0539 -133278.7656 -114935.4219)">
			<stop  offset="0" style="stop-color:#D2E5A6"/>
			<stop  offset="0.5" style="stop-color:#39B54A"/>
			<stop  offset="1" style="stop-color:#009444"/>
		</linearGradient>
		<rect id="XMLID_275_" x="42.39" y="56.93" class="st1" width="170.31" height="92.32"/>
	</g>
	<path id="XMLID_272_" d="M205.26,51.1c0,8.79-7.12,15.91-15.92,15.91c-8.79,0-15.92-7.12-15.92-15.91
		c0-8.79,7.12-15.92,15.92-15.92C198.14,35.18,205.26,42.31,205.26,51.1"/>
	<path id="XMLID_271_" d="M229.14,35.18c0,0-9.02,23.87-26.53,31.83c0,0,2.65,11.67-6.37,21.22c0,0-23.88-31.83-67.38,8.49
		c0,0,36.08-14.86,35.02,5.3c-1.06,20.16-39.26,48.81-62.08,51.99C101.81,154.02,212.69,154.02,229.14,35.18"/>
</g>
<g id="XMLID_239_">
	<path id="XMLID_268_" class="st0" d="M238.3,71.45c0.95,0,1.43,0.48,1.43,1.43v42.53c0,0.95-0.48,1.43-1.43,1.43h-7
		c-0.99,0-1.49-0.48-1.49-1.43V72.88c0-0.95,0.5-1.43,1.49-1.43H238.3z"/>
	<path id="XMLID_266_" class="st0" d="M298.85,71.45c0.95,0,1.43,0.48,1.43,1.43v6.35c0,1-0.48,1.49-1.43,1.49h-32.48
		c-1.69,0-3.08,0.14-4.18,0.42c-1.1,0.28-1.98,0.76-2.63,1.43c-0.65,0.67-1.11,1.57-1.39,2.69c-0.28,1.12-0.42,2.55-0.42,4.28v9.34
		c0,1.73,0.14,3.17,0.42,4.31s0.75,2.05,1.39,2.72c0.65,0.67,1.52,1.14,2.63,1.43c1.1,0.28,2.5,0.42,4.18,0.42h21.4
		c1.12,0,1.95-0.29,2.46-0.88c0.52-0.58,0.78-1.61,0.78-3.08v-5.25c0-0.56-0.26-0.84-0.78-0.84h-19c-0.95,0-1.43-0.5-1.43-1.49
		v-4.86c0-0.99,0.47-1.49,1.43-1.49h27.04c1.3,0,1.95,0.65,1.95,1.95v15.11c0,3.63-0.69,6.19-2.08,7.68
		c-1.38,1.49-3.37,2.24-5.96,2.24h-26.2c-3.29,0-6.07-0.3-8.36-0.91c-2.29-0.61-4.16-1.59-5.61-2.95c-1.45-1.36-2.51-3.13-3.18-5.32
		c-0.67-2.18-1.01-4.83-1.01-7.94V88.57c0-3.11,0.34-5.75,1.01-7.91c0.67-2.16,1.73-3.92,3.18-5.28c1.45-1.36,3.32-2.36,5.61-2.98
		c2.29-0.63,5.08-0.94,8.36-0.94H298.85z"/>
	<path id="XMLID_264_" class="st0" d="M316.87,71.45c0.95,0,1.43,0.48,1.43,1.43v42.53c0,0.95-0.48,1.43-1.43,1.43h-7
		c-0.99,0-1.49-0.48-1.49-1.43V72.88c0-0.95,0.5-1.43,1.49-1.43H316.87z"/>
	<path id="XMLID_262_" class="st0" d="M373.8,71.45c0.95,0,1.43,0.48,1.43,1.43v6.35c0,1-0.48,1.49-1.43,1.49h-28.85
		c-1.69,0-3.08,0.14-4.18,0.42c-1.1,0.28-1.98,0.76-2.63,1.43c-0.65,0.67-1.11,1.57-1.39,2.69c-0.28,1.12-0.42,2.55-0.42,4.28v9.21
		c0,1.73,0.14,3.17,0.42,4.31c0.28,1.15,0.75,2.05,1.39,2.72c0.65,0.67,1.52,1.14,2.63,1.43c1.1,0.28,2.5,0.42,4.18,0.42h28.85
		c0.95,0,1.43,0.48,1.43,1.43v6.35c0,0.95-0.48,1.43-1.43,1.43h-29.24c-3.29,0-6.07-0.3-8.36-0.91c-2.29-0.61-4.16-1.59-5.61-2.95
		c-1.45-1.36-2.51-3.13-3.18-5.32c-0.67-2.18-1.01-4.83-1.01-7.94V88.57c0-3.11,0.34-5.75,1.01-7.91c0.67-2.16,1.73-3.92,3.18-5.28
		c1.45-1.36,3.32-2.36,5.61-2.98c2.29-0.63,5.08-0.94,8.36-0.94H373.8z"/>
	<path id="XMLID_260_" class="st0" d="M390.53,71.45c0.95,0,1.43,0.48,1.43,1.43v25.87c0,1.73,0.14,3.17,0.42,4.31
		s0.75,2.05,1.39,2.72c0.65,0.67,1.52,1.14,2.63,1.43c1.1,0.28,2.5,0.42,4.18,0.42h17.96c1.69,0,3.08-0.14,4.18-0.42
		c1.1-0.28,1.98-0.76,2.63-1.43s1.1-1.58,1.36-2.72c0.26-1.15,0.39-2.58,0.39-4.31V72.88c0-0.95,0.48-1.43,1.43-1.43h7.07
		c0.95,0,1.43,0.48,1.43,1.43v26.84c0,3.11-0.33,5.76-0.97,7.94c-0.65,2.18-1.7,3.96-3.14,5.32c-1.45,1.36-3.33,2.35-5.64,2.95
		c-2.31,0.61-5.11,0.91-8.4,0.91h-18.67c-3.29,0-6.07-0.3-8.36-0.91c-2.29-0.61-4.16-1.59-5.61-2.95c-1.45-1.36-2.51-3.13-3.18-5.32
		c-0.67-2.18-1-4.83-1-7.94V72.88c0-0.95,0.5-1.43,1.49-1.43H390.53z"/>
	<path id="XMLID_257_" class="st0" d="M496.01,71.45c1.64,0,3.03,0.34,4.15,1.01c1.12,0.67,2.23,1.98,3.31,3.92l21.46,38.97
		c0.22,0.43,0.27,0.79,0.16,1.07c-0.11,0.28-0.42,0.42-0.94,0.42h-8.23c-0.74,0-1.23-0.28-1.49-0.84l-4.6-8.36h-30.47l-4.47,8.36
		c-0.3,0.56-0.8,0.84-1.49,0.84h-8.43c-0.56,0-0.9-0.14-1.01-0.42s-0.05-0.64,0.16-1.07l21.27-38.97c1.08-1.94,2.14-3.25,3.18-3.92
		c1.04-0.67,2.25-1.01,3.63-1.01H496.01z M483.43,100.11h22.3l-10.31-19c-0.17-0.3-0.41-0.45-0.71-0.45h-0.39
		c-0.3,0-0.54,0.15-0.71,0.45L483.43,100.11z"/>
	<path id="XMLID_255_" class="st0" d="M576.6,71.45c0.99,0,1.49,0.48,1.49,1.43v6.16c0,0.95-0.5,1.43-1.49,1.43h-28.14
		c-1.69,0-3.08,0.14-4.18,0.42c-1.1,0.28-1.98,0.76-2.63,1.43s-1.11,1.58-1.39,2.72c-0.28,1.15-0.42,2.56-0.42,4.25v1.3h36.44
		c0.95,0,1.43,0.48,1.43,1.43v5.12c0,0.95-0.48,1.43-1.43,1.43h-36.44v16.86c0,0.95-0.48,1.43-1.43,1.43h-7
		c-1,0-1.49-0.48-1.49-1.43V88.57c0-3.11,0.34-5.75,1.01-7.91c0.67-2.16,1.73-3.92,3.18-5.28c1.45-1.36,3.32-2.36,5.61-2.98
		c2.29-0.63,5.08-0.94,8.36-0.94H576.6z"/>
	<path id="XMLID_247_" class="st0" d="M621.27,71.45c4.97,0,8.54,1.12,10.7,3.37c2.16,2.25,3.24,5.58,3.24,9.98v3.7
		c0,3.72-0.76,6.66-2.27,8.82c-1.51,2.16-3.98,3.54-7.39,4.15l11.09,13.75c0.22,0.22,0.28,0.54,0.19,0.97
		c-0.09,0.43-0.43,0.65-1.04,0.65h-8.37c-0.56,0-0.95-0.06-1.17-0.19c-0.22-0.13-0.43-0.35-0.65-0.65l-10.24-13.49h-20.94v12.9
		c0,0.95-0.48,1.43-1.43,1.43h-7c-0.99,0-1.49-0.48-1.49-1.43V73.4c0-1.3,0.65-1.95,1.94-1.95H621.27z M594.43,94.6h24.83
		c2.2,0,3.76-0.47,4.67-1.43s1.36-2.4,1.36-4.34v-2.72c0-1.94-0.45-3.39-1.36-4.34s-2.46-1.43-4.67-1.43h-23.99
		c-0.56,0-0.84,0.26-0.84,0.78V94.6z"/>
	<path id="XMLID_245_" class="st0" d="M651.68,71.45c0.95,0,1.43,0.48,1.43,1.43v42.53c0,0.95-0.48,1.43-1.43,1.43h-7
		c-0.99,0-1.49-0.48-1.49-1.43V72.88c0-0.95,0.5-1.43,1.49-1.43H651.68z"/>
	<path id="XMLID_243_" class="st0" d="M708.6,71.45c0.95,0,1.43,0.48,1.43,1.43v6.35c0,1-0.48,1.49-1.43,1.49h-28.85
		c-1.69,0-3.08,0.14-4.18,0.42c-1.1,0.28-1.98,0.76-2.63,1.43c-0.65,0.67-1.11,1.57-1.39,2.69c-0.28,1.12-0.42,2.55-0.42,4.28v9.21
		c0,1.73,0.14,3.17,0.42,4.31s0.75,2.05,1.39,2.72s1.52,1.14,2.63,1.43c1.1,0.28,2.5,0.42,4.18,0.42h28.85
		c0.95,0,1.43,0.48,1.43,1.43v6.35c0,0.95-0.48,1.43-1.43,1.43h-29.24c-3.29,0-6.07-0.3-8.36-0.91c-2.29-0.61-4.16-1.59-5.61-2.95
		c-1.45-1.36-2.51-3.13-3.18-5.32c-0.67-2.18-1.01-4.83-1.01-7.94V88.57c0-3.11,0.34-5.75,1.01-7.91c0.67-2.16,1.73-3.92,3.18-5.28
		c1.45-1.36,3.32-2.36,5.61-2.98c2.29-0.63,5.08-0.94,8.36-0.94H708.6z"/>
	<path id="XMLID_240_" class="st0" d="M745.75,71.45c1.64,0,3.03,0.34,4.15,1.01c1.12,0.67,2.23,1.98,3.31,3.92l21.46,38.97
		c0.22,0.43,0.27,0.79,0.16,1.07c-0.11,0.28-0.42,0.42-0.94,0.42h-8.23c-0.74,0-1.23-0.28-1.49-0.84l-4.6-8.36h-30.47l-4.47,8.36
		c-0.3,0.56-0.8,0.84-1.49,0.84h-8.43c-0.56,0-0.9-0.14-1.01-0.42c-0.11-0.28-0.05-0.64,0.16-1.07l21.27-38.97
		c1.08-1.94,2.14-3.25,3.18-3.92s2.25-1.01,3.63-1.01H745.75z M733.17,100.11h22.3l-10.31-19c-0.17-0.3-0.41-0.45-0.71-0.45h-0.39
		c-0.3,0-0.54,0.15-0.71,0.45L733.17,100.11z"/>
</g>
<g id="XMLID_192_">
	<path id="XMLID_237_" d="M246.21,137.43c0.32,0,0.47,0.16,0.47,0.47v2.21c0,0.32-0.16,0.47-0.47,0.47h-10.23
		c-0.58,0-1.05,0.05-1.42,0.15c-0.37,0.1-0.66,0.26-0.87,0.47c-0.21,0.22-0.36,0.52-0.45,0.9c-0.09,0.38-0.13,0.84-0.13,1.38v2.35
		c0,0.56,0.04,1.03,0.13,1.4c0.09,0.37,0.24,0.66,0.45,0.88c0.21,0.22,0.5,0.38,0.87,0.47c0.37,0.1,0.84,0.15,1.42,0.15h10.23
		c0.32,0,0.47,0.16,0.47,0.47v2.21c0,0.32-0.16,0.47-0.47,0.47h-10.6c-1.2,0-2.19-0.1-2.99-0.29c-0.8-0.19-1.44-0.51-1.92-0.94
		c-0.48-0.43-0.83-0.98-1.04-1.66c-0.21-0.68-0.32-1.49-0.32-2.44v-3.8c0-0.95,0.11-1.76,0.32-2.44c0.21-0.68,0.56-1.23,1.04-1.66
		c0.48-0.43,1.12-0.75,1.92-0.95c0.8-0.2,1.8-0.3,2.99-0.3H246.21z"/>
	<path id="XMLID_234_" d="M274.82,137.43c1.18,0,2.17,0.1,2.98,0.3c0.81,0.2,1.45,0.52,1.94,0.95c0.48,0.43,0.83,0.98,1.04,1.66
		c0.21,0.68,0.32,1.49,0.32,2.44v3.8c0,0.95-0.11,1.76-0.32,2.44c-0.21,0.68-0.56,1.23-1.04,1.66c-0.48,0.43-1.13,0.74-1.94,0.94
		c-0.81,0.19-1.8,0.29-2.98,0.29h-7.46c-1.2,0-2.19-0.1-2.99-0.29c-0.8-0.19-1.44-0.51-1.92-0.94c-0.48-0.43-0.83-0.98-1.04-1.66
		c-0.21-0.68-0.32-1.49-0.32-2.44v-3.8c0-0.95,0.11-1.76,0.32-2.44c0.21-0.68,0.56-1.23,1.04-1.66c0.48-0.43,1.12-0.75,1.92-0.95
		c0.8-0.2,1.8-0.3,2.99-0.3H274.82z M264.85,145.92c0,0.56,0.04,1.03,0.13,1.4c0.09,0.37,0.24,0.66,0.46,0.88
		c0.22,0.22,0.51,0.38,0.88,0.47c0.37,0.1,0.83,0.15,1.4,0.15h6.72c0.58,0,1.05-0.05,1.42-0.15c0.37-0.1,0.66-0.25,0.88-0.47
		c0.22-0.22,0.37-0.51,0.46-0.88c0.09-0.37,0.13-0.83,0.13-1.4v-2.5c0-0.54-0.04-1-0.13-1.37c-0.09-0.37-0.24-0.67-0.46-0.9
		c-0.22-0.23-0.51-0.39-0.88-0.47c-0.37-0.09-0.84-0.13-1.42-0.13h-6.72c-0.56,0-1.03,0.04-1.4,0.13c-0.37,0.09-0.66,0.25-0.88,0.47
		c-0.22,0.23-0.37,0.53-0.46,0.9c-0.09,0.37-0.13,0.83-0.13,1.37V145.92z"/>
	<path id="XMLID_232_" d="M310.1,137.43c1.18,0,2.17,0.1,2.98,0.3c0.81,0.2,1.45,0.52,1.94,0.95c0.48,0.43,0.83,0.98,1.04,1.66
		c0.21,0.68,0.32,1.49,0.32,2.44v8.54c0,0.39-0.19,0.58-0.58,0.58h-2.58c-0.39,0-0.58-0.19-0.58-0.58v-7.65
		c0-0.54-0.04-1.01-0.11-1.38c-0.07-0.38-0.21-0.68-0.41-0.9c-0.2-0.22-0.48-0.38-0.83-0.47c-0.35-0.1-0.81-0.15-1.37-0.15h-7.01
		c-0.56,0-1.03,0.05-1.4,0.15c-0.37,0.1-0.66,0.26-0.88,0.47c-0.22,0.22-0.37,0.52-0.46,0.9c-0.09,0.38-0.13,0.84-0.13,1.38v7.65
		c0,0.39-0.19,0.58-0.58,0.58h-2.58c-0.4,0-0.61-0.19-0.61-0.58v-8.54c0-0.95,0.11-1.76,0.32-2.44c0.21-0.68,0.56-1.23,1.04-1.66
		c0.48-0.43,1.12-0.75,1.92-0.95c0.8-0.2,1.8-0.3,2.99-0.3H310.1z"/>
	<path id="XMLID_230_" d="M348.46,137.43c0.32,0,0.47,0.16,0.47,0.47v2.11c0,0.32-0.16,0.47-0.47,0.47h-11.89
		c-0.55,0-0.92,0.1-1.13,0.3c-0.21,0.2-0.32,0.5-0.32,0.88v0.4c0,0.35,0.11,0.63,0.32,0.83c0.21,0.2,0.59,0.3,1.13,0.3h8.89
		c1.48,0,2.53,0.31,3.16,0.92c0.63,0.62,0.95,1.49,0.95,2.61v1.48c0,0.58-0.07,1.1-0.21,1.56c-0.14,0.46-0.37,0.84-0.7,1.16
		c-0.33,0.32-0.75,0.56-1.28,0.73c-0.53,0.17-1.18,0.25-1.95,0.25h-13.5c-0.32,0-0.47-0.16-0.47-0.47v-2.11
		c0-0.32,0.16-0.47,0.47-0.47h12.5c0.54,0,0.93-0.1,1.15-0.29c0.22-0.19,0.33-0.52,0.33-0.98v-0.71c0-0.35-0.11-0.62-0.33-0.82
		c-0.22-0.19-0.6-0.29-1.15-0.29h-8.86c-1.48,0-2.53-0.3-3.16-0.91c-0.63-0.61-0.95-1.49-0.95-2.65v-1.16
		c0-0.54,0.07-1.04,0.21-1.49c0.14-0.45,0.37-0.83,0.7-1.15c0.33-0.32,0.75-0.56,1.28-0.73c0.53-0.17,1.18-0.25,1.95-0.25H348.46z"
		/>
	<path id="XMLID_228_" d="M367.65,137.43c0.39,0,0.58,0.2,0.58,0.61v7.62c0,0.56,0.04,1.03,0.11,1.4c0.07,0.37,0.2,0.66,0.4,0.88
		c0.19,0.22,0.47,0.38,0.82,0.47c0.35,0.1,0.82,0.15,1.4,0.15h6.78c0.58,0,1.05-0.05,1.42-0.15c0.37-0.1,0.66-0.25,0.88-0.47
		c0.22-0.22,0.37-0.51,0.46-0.88c0.09-0.37,0.13-0.83,0.13-1.4v-7.62c0-0.4,0.19-0.61,0.58-0.61h2.58c0.39,0,0.58,0.2,0.58,0.61
		v8.54c0,0.95-0.11,1.76-0.32,2.44c-0.21,0.68-0.56,1.23-1.04,1.66c-0.48,0.43-1.13,0.74-1.94,0.94c-0.81,0.19-1.8,0.29-2.98,0.29
		h-7.36c-1.2,0-2.19-0.1-2.99-0.29c-0.8-0.19-1.44-0.51-1.92-0.94c-0.48-0.43-0.83-0.98-1.04-1.66c-0.21-0.68-0.32-1.49-0.32-2.44
		v-8.54c0-0.4,0.2-0.61,0.61-0.61H367.65z"/>
	<path id="XMLID_226_" d="M402.95,132.13c0.39,0,0.58,0.19,0.58,0.58v18.61c0,0.39-0.19,0.58-0.58,0.58h-2.58
		c-0.39,0-0.58-0.19-0.58-0.58v-18.61c0-0.39,0.19-0.58,0.58-0.58H402.95z"/>
	<path id="XMLID_224_" d="M420.78,137.43v-3.48c0-0.39,0.19-0.58,0.58-0.58h2.61c0.39,0,0.58,0.19,0.58,0.58v3.48h4.61
		c0.32,0,0.47,0.16,0.47,0.47v2.16c0,0.32-0.16,0.47-0.47,0.47h-4.61v6.12c0,0.74,0.15,1.28,0.45,1.62c0.3,0.34,0.89,0.51,1.77,0.51
		h2.56c0.32,0,0.47,0.16,0.47,0.47v2.16c0,0.32-0.16,0.47-0.47,0.47h-3.19c-1.05,0-1.92-0.1-2.61-0.29
		c-0.69-0.19-1.24-0.5-1.65-0.92c-0.41-0.42-0.7-0.97-0.86-1.63c-0.16-0.67-0.24-1.47-0.24-2.4v-6.12h-2.5
		c-0.32,0-0.47-0.16-0.47-0.47v-2.16c0-0.32,0.16-0.47,0.47-0.47H420.78z"/>
	<path id="XMLID_219_" d="M455.76,137.43c1.18,0,2.17,0.1,2.98,0.3c0.81,0.2,1.45,0.52,1.94,0.95c0.48,0.43,0.83,0.98,1.04,1.66
		c0.21,0.68,0.32,1.49,0.32,2.44v7.01c0,0.42-0.03,0.77-0.09,1.04c-0.06,0.27-0.17,0.49-0.32,0.65c-0.15,0.16-0.35,0.27-0.59,0.33
		c-0.25,0.06-0.56,0.09-0.95,0.09h-12.55c-0.77,0-1.42-0.07-1.94-0.22c-0.52-0.15-0.94-0.37-1.25-0.67
		c-0.32-0.3-0.54-0.69-0.67-1.16c-0.13-0.47-0.2-1.04-0.2-1.69v-1.27c0-0.54,0.07-1.03,0.2-1.46c0.13-0.43,0.36-0.8,0.67-1.09
		c0.32-0.3,0.73-0.52,1.25-0.67c0.52-0.15,1.16-0.22,1.94-0.22h10.73v-0.5c0-0.42-0.04-0.78-0.13-1.08
		c-0.09-0.3-0.24-0.54-0.45-0.73c-0.21-0.18-0.5-0.32-0.87-0.41c-0.37-0.09-0.84-0.13-1.42-0.13h-11.02c-0.32,0-0.47-0.16-0.47-0.47
		v-2.21c0-0.32,0.16-0.47,0.47-0.47H455.76z M457.5,149.01c0.28,0,0.48-0.07,0.59-0.2c0.11-0.13,0.17-0.36,0.17-0.7v-2.32h-9.65
		c-0.55,0-0.93,0.11-1.15,0.33c-0.22,0.22-0.33,0.54-0.33,0.96v0.55c0,0.47,0.11,0.82,0.33,1.04c0.22,0.22,0.6,0.33,1.15,0.33H457.5
		z"/>
	<path id="XMLID_217_" d="M490.75,137.43c1.18,0,2.17,0.1,2.98,0.3c0.81,0.2,1.45,0.52,1.94,0.95c0.48,0.43,0.83,0.98,1.04,1.66
		c0.21,0.68,0.32,1.49,0.32,2.44v8.54c0,0.39-0.19,0.58-0.58,0.58h-2.58c-0.39,0-0.58-0.19-0.58-0.58v-7.65
		c0-0.54-0.04-1.01-0.11-1.38c-0.07-0.38-0.21-0.68-0.41-0.9c-0.2-0.22-0.48-0.38-0.83-0.47c-0.35-0.1-0.81-0.15-1.37-0.15h-7.01
		c-0.56,0-1.03,0.05-1.4,0.15c-0.37,0.1-0.66,0.26-0.88,0.47c-0.22,0.22-0.37,0.52-0.46,0.9c-0.09,0.38-0.13,0.84-0.13,1.38v7.65
		c0,0.39-0.19,0.58-0.58,0.58h-2.58c-0.4,0-0.61-0.19-0.61-0.58v-8.54c0-0.95,0.11-1.76,0.32-2.44c0.21-0.68,0.56-1.23,1.04-1.66
		c0.48-0.43,1.12-0.75,1.92-0.95c0.8-0.2,1.8-0.3,2.99-0.3H490.75z"/>
	<path id="XMLID_215_" d="M528.66,137.43c0.32,0,0.47,0.16,0.47,0.47v2.21c0,0.32-0.16,0.47-0.47,0.47h-10.23
		c-0.58,0-1.05,0.05-1.42,0.15c-0.37,0.1-0.66,0.26-0.87,0.47c-0.21,0.22-0.36,0.52-0.45,0.9c-0.09,0.38-0.13,0.84-0.13,1.38v2.35
		c0,0.56,0.04,1.03,0.13,1.4c0.09,0.37,0.24,0.66,0.45,0.88c0.21,0.22,0.5,0.38,0.87,0.47c0.37,0.1,0.84,0.15,1.42,0.15h10.23
		c0.32,0,0.47,0.16,0.47,0.47v2.21c0,0.32-0.16,0.47-0.47,0.47h-10.6c-1.2,0-2.19-0.1-2.99-0.29c-0.8-0.19-1.44-0.51-1.92-0.94
		c-0.48-0.43-0.83-0.98-1.04-1.66c-0.21-0.68-0.32-1.49-0.32-2.44v-3.8c0-0.95,0.11-1.76,0.32-2.44c0.21-0.68,0.56-1.23,1.04-1.66
		c0.48-0.43,1.12-0.75,1.92-0.95c0.8-0.2,1.8-0.3,2.99-0.3H528.66z"/>
	<path id="XMLID_213_" d="M562.83,137.43c0.19,0,0.32,0.07,0.38,0.2c0.06,0.13,0.05,0.29-0.04,0.46l-10.12,17.85
		c-0.35,0.62-0.85,1.07-1.49,1.36c-0.64,0.29-1.53,0.44-2.68,0.44h-1.85c-0.32,0-0.47-0.16-0.47-0.47v-2.16
		c0-0.32,0.16-0.47,0.47-0.47h1.56c0.67,0,1.12-0.2,1.34-0.61l1.42-2.5c-0.44-0.04-0.78-0.14-1.02-0.32
		c-0.24-0.18-0.46-0.45-0.67-0.82l-7.12-12.29c-0.09-0.18-0.1-0.33-0.04-0.46c0.06-0.13,0.19-0.2,0.38-0.2h3.03
		c0.3,0,0.51,0.12,0.63,0.37l5.85,10.15c0.14,0.25,0.25,0.41,0.33,0.49c0.08,0.08,0.18,0.12,0.3,0.12l6.2-10.76
		c0.12-0.25,0.33-0.37,0.63-0.37H562.83z"/>
	<path id="XMLID_211_" d="M601.35,132.13c0.39,0,0.58,0.19,0.58,0.58v18.61c0,0.39-0.19,0.58-0.58,0.58h-2.58
		c-0.39,0-0.58-0.19-0.58-0.58v-18.61c0-0.39,0.19-0.58,0.58-0.58H601.35z"/>
	<path id="XMLID_208_" d="M620.6,132.08c0.39,0,0.58,0.19,0.58,0.58v2.5c0,0.4-0.19,0.61-0.58,0.61h-2.58c-0.4,0-0.61-0.2-0.61-0.61
		v-2.5c0-0.39,0.2-0.58,0.61-0.58H620.6z M620.6,137.43c0.39,0,0.58,0.2,0.58,0.61v13.29c0,0.39-0.19,0.58-0.58,0.58h-2.58
		c-0.39,0-0.58-0.19-0.58-0.58v-13.29c0-0.4,0.19-0.61,0.58-0.61H620.6z"/>
	<path id="XMLID_206_" d="M656.32,137.43c1.18,0,2.17,0.1,2.97,0.3c0.8,0.2,1.45,0.52,1.94,0.95c0.49,0.43,0.84,0.98,1.04,1.66
		c0.2,0.68,0.3,1.49,0.3,2.44v8.54c0,0.39-0.19,0.58-0.58,0.58h-2.58c-0.39,0-0.58-0.19-0.58-0.58v-7.65c0-0.54-0.04-1.01-0.11-1.38
		c-0.07-0.38-0.2-0.68-0.4-0.9c-0.19-0.22-0.47-0.38-0.82-0.47c-0.35-0.1-0.82-0.15-1.4-0.15h-4.64v10.55c0,0.39-0.2,0.58-0.61,0.58
		h-2.58c-0.39,0-0.58-0.19-0.58-0.58v-10.55h-4.48c-0.56,0-1.03,0.05-1.4,0.15c-0.37,0.1-0.66,0.26-0.88,0.47
		c-0.22,0.22-0.37,0.52-0.46,0.9c-0.09,0.38-0.13,0.84-0.13,1.38v7.65c0,0.39-0.19,0.58-0.58,0.58h-2.58c-0.4,0-0.61-0.19-0.61-0.58
		v-8.54c0-0.95,0.11-1.76,0.32-2.44c0.21-0.68,0.56-1.23,1.04-1.66c0.48-0.43,1.12-0.75,1.92-0.95c0.8-0.2,1.8-0.3,2.99-0.3H656.32z
		"/>
	<path id="XMLID_203_" d="M681.16,132.08c0.39,0,0.58,0.19,0.58,0.58v2.5c0,0.4-0.19,0.61-0.58,0.61h-2.58
		c-0.4,0-0.61-0.2-0.61-0.61v-2.5c0-0.39,0.2-0.58,0.61-0.58H681.16z M681.16,137.43c0.39,0,0.58,0.2,0.58,0.61v13.29
		c0,0.39-0.19,0.58-0.58,0.58h-2.58c-0.39,0-0.58-0.19-0.58-0.58v-13.29c0-0.4,0.19-0.61,0.58-0.61H681.16z"/>
	<path id="XMLID_201_" d="M698.98,137.43v-3.48c0-0.39,0.19-0.58,0.58-0.58h2.61c0.39,0,0.58,0.19,0.58,0.58v3.48h4.61
		c0.32,0,0.47,0.16,0.47,0.47v2.16c0,0.32-0.16,0.47-0.47,0.47h-4.61v6.12c0,0.74,0.15,1.28,0.45,1.62c0.3,0.34,0.89,0.51,1.77,0.51
		h2.56c0.32,0,0.47,0.16,0.47,0.47v2.16c0,0.32-0.16,0.47-0.47,0.47h-3.19c-1.05,0-1.92-0.1-2.61-0.29
		c-0.69-0.19-1.24-0.5-1.65-0.92c-0.41-0.42-0.7-0.97-0.86-1.63c-0.16-0.67-0.24-1.47-0.24-2.4v-6.12h-2.5
		c-0.32,0-0.47-0.16-0.47-0.47v-2.16c0-0.32,0.16-0.47,0.47-0.47H698.98z"/>
	<path id="XMLID_198_" d="M735.68,137.43c0.9,0,1.64,0.07,2.23,0.22c0.59,0.15,1.05,0.4,1.4,0.74c0.34,0.34,0.58,0.79,0.73,1.34
		c0.14,0.55,0.21,1.23,0.21,2.02v2.5c0,0.56-0.12,0.95-0.37,1.17c-0.25,0.22-0.62,0.33-1.13,0.33h-13.31v0.63
		c0,0.83,0.2,1.42,0.59,1.79s1.16,0.55,2.31,0.55h10.99c0.32,0,0.47,0.16,0.47,0.47v2.21c0,0.32-0.16,0.47-0.47,0.47h-11.36
		c-1.2,0-2.19-0.1-2.99-0.29c-0.8-0.19-1.44-0.51-1.92-0.94c-0.48-0.43-0.83-0.98-1.04-1.66c-0.21-0.68-0.32-1.49-0.32-2.44v-3.8
		c0-0.95,0.11-1.76,0.32-2.44c0.21-0.68,0.56-1.23,1.04-1.66c0.48-0.43,1.12-0.75,1.92-0.95c0.8-0.2,1.8-0.3,2.99-0.3H735.68z
		 M725.42,143.42h10.68c0.3,0,0.45-0.15,0.45-0.45v-1.11c0-0.54-0.11-0.93-0.34-1.16c-0.23-0.23-0.65-0.34-1.27-0.34h-6.62
		c-1.14,0-1.91,0.18-2.31,0.54c-0.4,0.36-0.59,0.96-0.59,1.81V143.42z"/>
	<path id="XMLID_195_" d="M771.14,137.43v-4.72c0-0.39,0.19-0.58,0.58-0.58h2.58c0.39,0,0.58,0.19,0.58,0.58v13.87
		c0,0.95-0.11,1.76-0.32,2.44c-0.21,0.68-0.56,1.23-1.04,1.66c-0.48,0.43-1.13,0.74-1.94,0.94c-0.81,0.19-1.8,0.29-2.98,0.29h-7.38
		c-1.2,0-2.19-0.1-2.99-0.29c-0.8-0.19-1.44-0.51-1.92-0.94c-0.48-0.43-0.83-0.98-1.04-1.66c-0.21-0.68-0.32-1.49-0.32-2.44v-3.8
		c0-0.95,0.11-1.76,0.32-2.44c0.21-0.68,0.56-1.23,1.04-1.66c0.48-0.43,1.12-0.75,1.92-0.95c0.8-0.2,1.8-0.3,2.99-0.3H771.14z
		 M768.24,148.74c0.58,0,1.05-0.05,1.42-0.15c0.37-0.1,0.66-0.25,0.88-0.47c0.22-0.22,0.37-0.51,0.46-0.88
		c0.09-0.37,0.13-0.83,0.13-1.4v-5.25h-9.54c-0.56,0-1.03,0.05-1.4,0.15c-0.37,0.1-0.66,0.26-0.88,0.47
		c-0.22,0.22-0.37,0.52-0.46,0.9c-0.09,0.38-0.13,0.84-0.13,1.38v2.35c0,0.56,0.04,1.03,0.13,1.4c0.09,0.37,0.24,0.66,0.46,0.88
		c0.22,0.22,0.51,0.38,0.88,0.47c0.37,0.1,0.83,0.15,1.4,0.15H768.24z"/>
</g>
</svg>
