<?xml version="1.0" encoding="utf-8"?>
<!-- Generator: Adobe Illustrator 24.0.1, SVG Export Plug-In . SVG Version: 6.00 Build 0)  -->
<svg version="1.0" id="Ñëîé_1" xmlns="http://www.w3.org/2000/svg" xmlns:xlink="http://www.w3.org/1999/xlink" x="0px" y="0px"
	 viewBox="0 0 5500 4000" style="enable-background:new 0 0 5500 4000;" xml:space="preserve">
<style type="text/css">
	.st0{fill:#E6FFE8;}
	.st1{fill:#97CC9D;}
	.st2{fill:#79AA7D;}
	.st3{fill:#C1F6C9;}
	.st4{fill:#D9BEA7;}
	.st5{fill:#6F6F6F;}
	.st6{fill:#E8E8E8;}
	.st7{fill:#6A4646;}
	.st8{fill:#A37E4E;}
	.st9{fill:#D05757;}
	.st10{fill:#4A81B8;}
	.st11{fill:#4172AF;}
	.st12{fill:#8C6230;}
	.st13{fill:#EFF2F8;}
	.st14{fill:#D9DDE6;}
	.st15{fill:#313131;}
	.st16{fill:#FAF0B6;}
	.st17{fill:#343841;}
	.st18{fill:#2E333A;}
	.st19{fill:#E1E9FB;}
	.st20{fill:#D0DEF9;}
	.st21{fill:#8DC794;}
	.st22{fill:#D37C35;}
	.st23{fill:#304886;}
	.st24{fill:#2E3B61;}
	.st25{fill:#D7A367;}
	.st26{fill:#D79560;}
	.st27{fill:#FFFFFF;}
	.st28{fill:#DDE5F6;}
	.st29{fill:#384987;}
	.st30{fill:#9E4D43;}
	.st31{fill:#E1954D;}
	.st32{clip-path:url(#SVGID_3_);fill:#FFFFFF;}
	.st33{clip-path:url(#SVGID_5_);fill:#FFFFFF;}
	.st34{clip-path:url(#SVGID_7_);fill:#FFFFFF;}
	.st35{clip-path:url(#SVGID_9_);fill:#FFFFFF;}
	.st36{clip-path:url(#SVGID_11_);fill:#FFFFFF;}
	.st37{clip-path:url(#SVGID_13_);fill:#FFFFFF;}
	.st38{clip-path:url(#SVGID_15_);fill:#FFFFFF;}
	.st39{clip-path:url(#SVGID_17_);fill:#FFFFFF;}
	.st40{clip-path:url(#SVGID_19_);}
	.st41{clip-path:url(#SVGID_21_);}
	.st42{clip-path:url(#SVGID_23_);fill:#FFFFFF;}
	.st43{clip-path:url(#SVGID_25_);fill:#FFFFFF;}
	.st44{clip-path:url(#SVGID_27_);fill:#FFFFFF;}
	.st45{clip-path:url(#SVGID_29_);fill:#FFFFFF;}
	.st46{clip-path:url(#SVGID_31_);fill:#FFFFFF;}
	.st47{clip-path:url(#SVGID_33_);fill:#FFFFFF;}
	.st48{clip-path:url(#SVGID_35_);fill:#FFFFFF;}
	.st49{clip-path:url(#SVGID_37_);fill:#FFFFFF;}
	.st50{clip-path:url(#SVGID_39_);}
	.st51{clip-path:url(#SVGID_41_);}
	.st52{clip-path:url(#SVGID_43_);fill:#FFFFFF;}
	.st53{clip-path:url(#SVGID_45_);fill:#FFFFFF;}
	.st54{clip-path:url(#SVGID_47_);fill:#FFFFFF;}
	.st55{clip-path:url(#SVGID_49_);fill:#FFFFFF;}
	.st56{clip-path:url(#SVGID_51_);fill:#FFFFFF;}
	.st57{clip-path:url(#SVGID_53_);fill:#FFFFFF;}
	.st58{clip-path:url(#SVGID_55_);fill:#FFFFFF;}
	.st59{clip-path:url(#SVGID_57_);fill:#FFFFFF;}
	.st60{clip-path:url(#SVGID_59_);}
	.st61{clip-path:url(#SVGID_61_);}
	.st62{clip-path:url(#SVGID_63_);fill:#FFFFFF;}
	.st63{clip-path:url(#SVGID_65_);fill:#FFFFFF;}
	.st64{clip-path:url(#SVGID_67_);fill:#FFFFFF;}
	.st65{clip-path:url(#SVGID_69_);fill:#FFFFFF;}
	.st66{clip-path:url(#SVGID_71_);fill:#FFFFFF;}
	.st67{clip-path:url(#SVGID_73_);fill:#FFFFFF;}
	.st68{clip-path:url(#SVGID_75_);fill:#FFFFFF;}
	.st69{clip-path:url(#SVGID_77_);fill:#FFFFFF;}
	.st70{clip-path:url(#SVGID_79_);}
	.st71{clip-path:url(#SVGID_81_);}
	.st72{clip-path:url(#SVGID_83_);fill:#FFFFFF;}
	.st73{clip-path:url(#SVGID_85_);fill:#FFFFFF;}
	.st74{clip-path:url(#SVGID_87_);fill:#FFFFFF;}
	.st75{clip-path:url(#SVGID_89_);fill:#FFFFFF;}
	.st76{clip-path:url(#SVGID_91_);fill:#FFFFFF;}
	.st77{clip-path:url(#SVGID_93_);fill:#FFFFFF;}
	.st78{clip-path:url(#SVGID_95_);fill:#FFFFFF;}
	.st79{clip-path:url(#SVGID_97_);fill:#FFFFFF;}
	.st80{clip-path:url(#SVGID_99_);}
	.st81{clip-path:url(#SVGID_101_);}
	.st82{clip-path:url(#SVGID_103_);fill:#FFFFFF;}
	.st83{clip-path:url(#SVGID_105_);fill:#FFFFFF;}
	.st84{clip-path:url(#SVGID_107_);fill:#FFFFFF;}
	.st85{clip-path:url(#SVGID_109_);fill:#FFFFFF;}
	.st86{clip-path:url(#SVGID_111_);fill:#FFFFFF;}
	.st87{clip-path:url(#SVGID_113_);fill:#FFFFFF;}
	.st88{clip-path:url(#SVGID_115_);fill:#FFFFFF;}
	.st89{clip-path:url(#SVGID_117_);fill:#FFFFFF;}
	.st90{clip-path:url(#SVGID_119_);}
	.st91{clip-path:url(#SVGID_121_);}
	.st92{clip-path:url(#SVGID_123_);fill:#FFFFFF;}
	.st93{clip-path:url(#SVGID_125_);fill:#FFFFFF;}
	.st94{clip-path:url(#SVGID_127_);fill:#FFFFFF;}
	.st95{clip-path:url(#SVGID_129_);fill:#FFFFFF;}
	.st96{clip-path:url(#SVGID_131_);fill:#FFFFFF;}
	.st97{clip-path:url(#SVGID_133_);fill:#FFFFFF;}
	.st98{clip-path:url(#SVGID_135_);fill:#FFFFFF;}
	.st99{clip-path:url(#SVGID_137_);fill:#FFFFFF;}
	.st100{clip-path:url(#SVGID_139_);}
	.st101{clip-path:url(#SVGID_141_);}
	.st102{clip-path:url(#SVGID_143_);fill:#FFFFFF;}
	.st103{clip-path:url(#SVGID_145_);fill:#FFFFFF;}
	.st104{clip-path:url(#SVGID_147_);fill:#FFFFFF;}
	.st105{clip-path:url(#SVGID_149_);fill:#FFFFFF;}
	.st106{clip-path:url(#SVGID_151_);fill:#FFFFFF;}
	.st107{clip-path:url(#SVGID_153_);fill:#FFFFFF;}
	.st108{clip-path:url(#SVGID_155_);fill:#FFFFFF;}
	.st109{clip-path:url(#SVGID_157_);fill:#FFFFFF;}
	.st110{clip-path:url(#SVGID_159_);}
	.st111{clip-path:url(#SVGID_161_);}
	.st112{clip-path:url(#SVGID_163_);fill:#FFFFFF;}
	.st113{clip-path:url(#SVGID_165_);fill:#FFFFFF;}
	.st114{clip-path:url(#SVGID_167_);fill:#FFFFFF;}
	.st115{clip-path:url(#SVGID_169_);fill:#FFFFFF;}
	.st116{clip-path:url(#SVGID_171_);fill:#FFFFFF;}
	.st117{clip-path:url(#SVGID_173_);fill:#FFFFFF;}
	.st118{clip-path:url(#SVGID_175_);fill:#FFFFFF;}
	.st119{clip-path:url(#SVGID_177_);fill:#FFFFFF;}
	.st120{clip-path:url(#SVGID_179_);}
	.st121{clip-path:url(#SVGID_181_);}
	.st122{clip-path:url(#SVGID_183_);fill:#FFFFFF;}
	.st123{clip-path:url(#SVGID_185_);fill:#FFFFFF;}
	.st124{clip-path:url(#SVGID_187_);fill:#FFFFFF;}
	.st125{clip-path:url(#SVGID_189_);fill:#FFFFFF;}
	.st126{clip-path:url(#SVGID_191_);fill:#FFFFFF;}
	.st127{clip-path:url(#SVGID_193_);fill:#FFFFFF;}
	.st128{clip-path:url(#SVGID_195_);fill:#FFFFFF;}
	.st129{clip-path:url(#SVGID_197_);fill:#FFFFFF;}
	.st130{clip-path:url(#SVGID_199_);}
	.st131{clip-path:url(#SVGID_201_);}
	.st132{clip-path:url(#SVGID_203_);fill:#FFFFFF;}
	.st133{clip-path:url(#SVGID_205_);fill:#FFFFFF;}
	.st134{clip-path:url(#SVGID_207_);fill:#FFFFFF;}
	.st135{clip-path:url(#SVGID_209_);fill:#FFFFFF;}
	.st136{clip-path:url(#SVGID_211_);fill:#FFFFFF;}
	.st137{clip-path:url(#SVGID_213_);fill:#FFFFFF;}
	.st138{clip-path:url(#SVGID_215_);fill:#FFFFFF;}
	.st139{clip-path:url(#SVGID_217_);fill:#FFFFFF;}
	.st140{clip-path:url(#SVGID_219_);}
	.st141{clip-path:url(#SVGID_221_);}
	.st142{clip-path:url(#SVGID_223_);fill:#FFFFFF;}
	.st143{clip-path:url(#SVGID_225_);fill:#FFFFFF;}
	.st144{clip-path:url(#SVGID_227_);fill:#FFFFFF;}
	.st145{clip-path:url(#SVGID_229_);fill:#FFFFFF;}
	.st146{clip-path:url(#SVGID_231_);fill:#FFFFFF;}
	.st147{clip-path:url(#SVGID_233_);fill:#FFFFFF;}
	.st148{clip-path:url(#SVGID_235_);fill:#FFFFFF;}
	.st149{clip-path:url(#SVGID_237_);fill:#FFFFFF;}
	.st150{clip-path:url(#SVGID_239_);}
	.st151{clip-path:url(#SVGID_241_);}
	.st152{clip-path:url(#SVGID_243_);fill:#FFFFFF;}
	.st153{clip-path:url(#SVGID_245_);fill:#FFFFFF;}
	.st154{clip-path:url(#SVGID_247_);fill:#FFFFFF;}
	.st155{clip-path:url(#SVGID_249_);fill:#FFFFFF;}
	.st156{clip-path:url(#SVGID_251_);fill:#FFFFFF;}
	.st157{clip-path:url(#SVGID_253_);fill:#FFFFFF;}
	.st158{clip-path:url(#SVGID_255_);fill:#FFFFFF;}
	.st159{clip-path:url(#SVGID_257_);fill:#FFFFFF;}
	.st160{clip-path:url(#SVGID_259_);}
	.st161{clip-path:url(#SVGID_261_);}
	.st162{clip-path:url(#SVGID_263_);fill:#FFFFFF;}
	.st163{clip-path:url(#SVGID_265_);fill:#FFFFFF;}
	.st164{clip-path:url(#SVGID_267_);fill:#FFFFFF;}
	.st165{clip-path:url(#SVGID_269_);fill:#FFFFFF;}
	.st166{clip-path:url(#SVGID_271_);fill:#FFFFFF;}
	.st167{clip-path:url(#SVGID_273_);fill:#FFFFFF;}
	.st168{clip-path:url(#SVGID_275_);fill:#FFFFFF;}
	.st169{clip-path:url(#SVGID_277_);fill:#FFFFFF;}
	.st170{clip-path:url(#SVGID_279_);}
	.st171{clip-path:url(#SVGID_281_);}
	.st172{clip-path:url(#SVGID_283_);fill:#FFFFFF;}
	.st173{clip-path:url(#SVGID_285_);fill:#FFFFFF;}
	.st174{clip-path:url(#SVGID_287_);fill:#FFFFFF;}
	.st175{clip-path:url(#SVGID_289_);fill:#FFFFFF;}
	.st176{clip-path:url(#SVGID_291_);fill:#FFFFFF;}
	.st177{clip-path:url(#SVGID_293_);fill:#FFFFFF;}
	.st178{clip-path:url(#SVGID_295_);fill:#FFFFFF;}
	.st179{clip-path:url(#SVGID_297_);fill:#FFFFFF;}
	.st180{clip-path:url(#SVGID_299_);}
	.st181{clip-path:url(#SVGID_301_);}
	.st182{clip-path:url(#SVGID_303_);fill:#FFFFFF;}
	.st183{clip-path:url(#SVGID_305_);fill:#FFFFFF;}
	.st184{clip-path:url(#SVGID_307_);fill:#FFFFFF;}
	.st185{clip-path:url(#SVGID_309_);fill:#FFFFFF;}
	.st186{clip-path:url(#SVGID_311_);fill:#FFFFFF;}
	.st187{clip-path:url(#SVGID_313_);fill:#FFFFFF;}
	.st188{clip-path:url(#SVGID_315_);fill:#FFFFFF;}
	.st189{clip-path:url(#SVGID_317_);fill:#FFFFFF;}
	.st190{clip-path:url(#SVGID_319_);}
	.st191{clip-path:url(#SVGID_321_);}
	.st192{clip-path:url(#SVGID_323_);fill:#FFFFFF;}
	.st193{clip-path:url(#SVGID_325_);fill:#FFFFFF;}
	.st194{clip-path:url(#SVGID_327_);fill:#FFFFFF;}
	.st195{clip-path:url(#SVGID_329_);fill:#FFFFFF;}
	.st196{clip-path:url(#SVGID_331_);fill:#FFFFFF;}
	.st197{clip-path:url(#SVGID_333_);fill:#FFFFFF;}
	.st198{clip-path:url(#SVGID_335_);fill:#FFFFFF;}
	.st199{clip-path:url(#SVGID_337_);fill:#FFFFFF;}
	.st200{clip-path:url(#SVGID_339_);}
	.st201{clip-path:url(#SVGID_341_);}
	.st202{clip-path:url(#SVGID_343_);fill:#FFFFFF;}
	.st203{clip-path:url(#SVGID_345_);fill:#FFFFFF;}
	.st204{clip-path:url(#SVGID_347_);fill:#FFFFFF;}
	.st205{clip-path:url(#SVGID_349_);fill:#FFFFFF;}
	.st206{clip-path:url(#SVGID_351_);fill:#FFFFFF;}
	.st207{clip-path:url(#SVGID_353_);fill:#FFFFFF;}
	.st208{clip-path:url(#SVGID_355_);fill:#FFFFFF;}
	.st209{clip-path:url(#SVGID_357_);fill:#FFFFFF;}
	.st210{clip-path:url(#SVGID_359_);}
	.st211{clip-path:url(#SVGID_361_);}
	.st212{clip-path:url(#SVGID_363_);fill:#FFFFFF;}
	.st213{clip-path:url(#SVGID_365_);fill:#FFFFFF;}
	.st214{clip-path:url(#SVGID_367_);fill:#FFFFFF;}
	.st215{clip-path:url(#SVGID_369_);fill:#FFFFFF;}
	.st216{clip-path:url(#SVGID_371_);fill:#FFFFFF;}
	.st217{clip-path:url(#SVGID_373_);fill:#FFFFFF;}
	.st218{clip-path:url(#SVGID_375_);fill:#FFFFFF;}
	.st219{clip-path:url(#SVGID_377_);fill:#FFFFFF;}
	.st220{clip-path:url(#SVGID_379_);}
	.st221{clip-path:url(#SVGID_381_);}
	.st222{clip-path:url(#SVGID_383_);fill:#FFFFFF;}
	.st223{clip-path:url(#SVGID_385_);fill:#FFFFFF;}
	.st224{clip-path:url(#SVGID_387_);fill:#FFFFFF;}
	.st225{clip-path:url(#SVGID_389_);fill:#FFFFFF;}
	.st226{clip-path:url(#SVGID_391_);fill:#FFFFFF;}
	.st227{clip-path:url(#SVGID_393_);fill:#FFFFFF;}
	.st228{clip-path:url(#SVGID_395_);fill:#FFFFFF;}
	.st229{clip-path:url(#SVGID_397_);fill:#FFFFFF;}
	.st230{clip-path:url(#SVGID_399_);}
	.st231{clip-path:url(#SVGID_401_);}
	.st232{clip-path:url(#SVGID_403_);fill:#FFFFFF;}
	.st233{clip-path:url(#SVGID_405_);fill:#FFFFFF;}
	.st234{clip-path:url(#SVGID_407_);fill:#FFFFFF;}
	.st235{clip-path:url(#SVGID_409_);fill:#FFFFFF;}
	.st236{clip-path:url(#SVGID_411_);fill:#FFFFFF;}
	.st237{clip-path:url(#SVGID_413_);fill:#FFFFFF;}
	.st238{clip-path:url(#SVGID_415_);fill:#FFFFFF;}
	.st239{clip-path:url(#SVGID_417_);fill:#FFFFFF;}
	.st240{clip-path:url(#SVGID_419_);}
	.st241{clip-path:url(#SVGID_421_);}
	.st242{clip-path:url(#SVGID_423_);fill:#FFFFFF;}
	.st243{clip-path:url(#SVGID_425_);fill:#FFFFFF;}
	.st244{clip-path:url(#SVGID_427_);fill:#FFFFFF;}
	.st245{clip-path:url(#SVGID_429_);fill:#FFFFFF;}
	.st246{clip-path:url(#SVGID_431_);fill:#FFFFFF;}
	.st247{clip-path:url(#SVGID_433_);fill:#FFFFFF;}
	.st248{clip-path:url(#SVGID_435_);fill:#FFFFFF;}
	.st249{clip-path:url(#SVGID_437_);fill:#FFFFFF;}
	.st250{clip-path:url(#SVGID_439_);}
	.st251{clip-path:url(#SVGID_441_);}
	.st252{clip-path:url(#SVGID_443_);fill:#FFFFFF;}
	.st253{clip-path:url(#SVGID_445_);fill:#FFFFFF;}
	.st254{clip-path:url(#SVGID_447_);fill:#FFFFFF;}
	.st255{clip-path:url(#SVGID_449_);fill:#FFFFFF;}
	.st256{clip-path:url(#SVGID_451_);fill:#FFFFFF;}
	.st257{clip-path:url(#SVGID_453_);fill:#FFFFFF;}
	.st258{clip-path:url(#SVGID_455_);fill:#FFFFFF;}
	.st259{clip-path:url(#SVGID_457_);fill:#FFFFFF;}
	.st260{clip-path:url(#SVGID_459_);}
	.st261{clip-path:url(#SVGID_461_);}
	.st262{clip-path:url(#SVGID_463_);fill:#FFFFFF;}
	.st263{clip-path:url(#SVGID_465_);fill:#FFFFFF;}
	.st264{clip-path:url(#SVGID_467_);fill:#FFFFFF;}
	.st265{clip-path:url(#SVGID_469_);fill:#FFFFFF;}
	.st266{clip-path:url(#SVGID_471_);fill:#FFFFFF;}
	.st267{clip-path:url(#SVGID_473_);fill:#FFFFFF;}
	.st268{clip-path:url(#SVGID_475_);fill:#FFFFFF;}
	.st269{clip-path:url(#SVGID_477_);fill:#FFFFFF;}
	.st270{clip-path:url(#SVGID_479_);}
	.st271{clip-path:url(#SVGID_481_);}
	.st272{clip-path:url(#SVGID_483_);fill:#FFFFFF;}
	.st273{clip-path:url(#SVGID_485_);fill:#FFFFFF;}
	.st274{clip-path:url(#SVGID_487_);fill:#FFFFFF;}
	.st275{clip-path:url(#SVGID_489_);fill:#FFFFFF;}
	.st276{clip-path:url(#SVGID_491_);fill:#FFFFFF;}
	.st277{clip-path:url(#SVGID_493_);fill:#FFFFFF;}
	.st278{clip-path:url(#SVGID_495_);fill:#FFFFFF;}
	.st279{clip-path:url(#SVGID_497_);fill:#FFFFFF;}
	.st280{clip-path:url(#SVGID_499_);}
	.st281{clip-path:url(#SVGID_501_);}
	.st282{clip-path:url(#SVGID_503_);fill:#FFFFFF;}
	.st283{clip-path:url(#SVGID_505_);fill:#FFFFFF;}
	.st284{clip-path:url(#SVGID_507_);fill:#FFFFFF;}
	.st285{clip-path:url(#SVGID_509_);fill:#FFFFFF;}
	.st286{clip-path:url(#SVGID_511_);fill:#FFFFFF;}
	.st287{clip-path:url(#SVGID_513_);fill:#FFFFFF;}
	.st288{clip-path:url(#SVGID_515_);fill:#FFFFFF;}
	.st289{clip-path:url(#SVGID_517_);fill:#FFFFFF;}
	.st290{clip-path:url(#SVGID_519_);}
	.st291{clip-path:url(#SVGID_521_);}
	.st292{clip-path:url(#SVGID_523_);fill:#FFFFFF;}
	.st293{clip-path:url(#SVGID_525_);fill:#FFFFFF;}
	.st294{clip-path:url(#SVGID_527_);fill:#FFFFFF;}
	.st295{clip-path:url(#SVGID_529_);fill:#FFFFFF;}
	.st296{clip-path:url(#SVGID_531_);fill:#FFFFFF;}
	.st297{clip-path:url(#SVGID_533_);fill:#FFFFFF;}
	.st298{clip-path:url(#SVGID_535_);fill:#FFFFFF;}
	.st299{clip-path:url(#SVGID_537_);fill:#FFFFFF;}
	.st300{clip-path:url(#SVGID_539_);}
	.st301{clip-path:url(#SVGID_541_);}
	.st302{clip-path:url(#SVGID_543_);fill:#FFFFFF;}
	.st303{clip-path:url(#SVGID_545_);fill:#FFFFFF;}
	.st304{clip-path:url(#SVGID_547_);fill:#FFFFFF;}
	.st305{clip-path:url(#SVGID_549_);fill:#FFFFFF;}
	.st306{clip-path:url(#SVGID_551_);fill:#FFFFFF;}
	.st307{clip-path:url(#SVGID_553_);fill:#FFFFFF;}
	.st308{clip-path:url(#SVGID_555_);fill:#FFFFFF;}
	.st309{clip-path:url(#SVGID_557_);fill:#FFFFFF;}
	.st310{clip-path:url(#SVGID_559_);}
	.st311{clip-path:url(#SVGID_561_);}
	.st312{clip-path:url(#SVGID_563_);fill:#FFFFFF;}
	.st313{clip-path:url(#SVGID_565_);fill:#FFFFFF;}
	.st314{clip-path:url(#SVGID_567_);fill:#FFFFFF;}
	.st315{clip-path:url(#SVGID_569_);fill:#FFFFFF;}
	.st316{clip-path:url(#SVGID_571_);fill:#FFFFFF;}
	.st317{clip-path:url(#SVGID_573_);fill:#FFFFFF;}
	.st318{clip-path:url(#SVGID_575_);fill:#FFFFFF;}
	.st319{clip-path:url(#SVGID_577_);fill:#FFFFFF;}
	.st320{clip-path:url(#SVGID_579_);}
	.st321{clip-path:url(#SVGID_581_);}
	.st322{clip-path:url(#SVGID_583_);fill:#FFFFFF;}
	.st323{clip-path:url(#SVGID_585_);fill:#FFFFFF;}
	.st324{clip-path:url(#SVGID_587_);fill:#FFFFFF;}
	.st325{clip-path:url(#SVGID_589_);fill:#FFFFFF;}
	.st326{clip-path:url(#SVGID_591_);fill:#FFFFFF;}
	.st327{clip-path:url(#SVGID_593_);fill:#FFFFFF;}
	.st328{clip-path:url(#SVGID_595_);fill:#FFFFFF;}
	.st329{clip-path:url(#SVGID_597_);fill:#FFFFFF;}
	.st330{clip-path:url(#SVGID_599_);}
	.st331{clip-path:url(#SVGID_601_);}
	.st332{clip-path:url(#SVGID_603_);fill:#FFFFFF;}
	.st333{clip-path:url(#SVGID_605_);fill:#FFFFFF;}
	.st334{clip-path:url(#SVGID_607_);fill:#FFFFFF;}
	.st335{clip-path:url(#SVGID_609_);fill:#FFFFFF;}
	.st336{clip-path:url(#SVGID_611_);fill:#FFFFFF;}
	.st337{clip-path:url(#SVGID_613_);fill:#FFFFFF;}
	.st338{clip-path:url(#SVGID_615_);fill:#FFFFFF;}
	.st339{clip-path:url(#SVGID_617_);fill:#FFFFFF;}
	.st340{clip-path:url(#SVGID_619_);}
	.st341{clip-path:url(#SVGID_621_);}
	.st342{clip-path:url(#SVGID_623_);fill:#FFFFFF;}
	.st343{clip-path:url(#SVGID_625_);fill:#FFFFFF;}
	.st344{clip-path:url(#SVGID_627_);fill:#FFFFFF;}
	.st345{clip-path:url(#SVGID_629_);fill:#FFFFFF;}
	.st346{clip-path:url(#SVGID_631_);fill:#FFFFFF;}
	.st347{clip-path:url(#SVGID_633_);fill:#FFFFFF;}
	.st348{clip-path:url(#SVGID_635_);fill:#FFFFFF;}
	.st349{clip-path:url(#SVGID_637_);fill:#FFFFFF;}
	.st350{clip-path:url(#SVGID_639_);}
	.st351{clip-path:url(#SVGID_641_);}
	.st352{clip-path:url(#SVGID_643_);fill:#FFFFFF;}
	.st353{clip-path:url(#SVGID_645_);fill:#FFFFFF;}
	.st354{clip-path:url(#SVGID_647_);fill:#FFFFFF;}
	.st355{clip-path:url(#SVGID_649_);fill:#FFFFFF;}
	.st356{clip-path:url(#SVGID_651_);fill:#FFFFFF;}
	.st357{clip-path:url(#SVGID_653_);fill:#FFFFFF;}
	.st358{clip-path:url(#SVGID_655_);fill:#FFFFFF;}
	.st359{clip-path:url(#SVGID_657_);fill:#FFFFFF;}
	.st360{clip-path:url(#SVGID_659_);}
	.st361{clip-path:url(#SVGID_661_);}
	.st362{clip-path:url(#SVGID_663_);fill:#FFFFFF;}
	.st363{clip-path:url(#SVGID_665_);fill:#FFFFFF;}
	.st364{clip-path:url(#SVGID_667_);fill:#FFFFFF;}
	.st365{clip-path:url(#SVGID_669_);fill:#FFFFFF;}
	.st366{clip-path:url(#SVGID_671_);fill:#FFFFFF;}
	.st367{clip-path:url(#SVGID_673_);fill:#FFFFFF;}
	.st368{clip-path:url(#SVGID_675_);fill:#FFFFFF;}
	.st369{clip-path:url(#SVGID_677_);fill:#FFFFFF;}
	.st370{clip-path:url(#SVGID_679_);}
	.st371{clip-path:url(#SVGID_681_);}
	.st372{clip-path:url(#SVGID_683_);fill:#FFFFFF;}
	.st373{clip-path:url(#SVGID_685_);fill:#FFFFFF;}
	.st374{clip-path:url(#SVGID_687_);fill:#FFFFFF;}
	.st375{clip-path:url(#SVGID_689_);fill:#FFFFFF;}
	.st376{clip-path:url(#SVGID_691_);fill:#FFFFFF;}
	.st377{clip-path:url(#SVGID_693_);fill:#FFFFFF;}
	.st378{clip-path:url(#SVGID_695_);fill:#FFFFFF;}
	.st379{clip-path:url(#SVGID_697_);fill:#FFFFFF;}
	.st380{clip-path:url(#SVGID_699_);}
	.st381{clip-path:url(#SVGID_701_);}
	.st382{clip-path:url(#SVGID_703_);fill:#FFFFFF;}
	.st383{clip-path:url(#SVGID_705_);fill:#FFFFFF;}
	.st384{clip-path:url(#SVGID_707_);fill:#FFFFFF;}
	.st385{clip-path:url(#SVGID_709_);fill:#FFFFFF;}
	.st386{clip-path:url(#SVGID_711_);fill:#FFFFFF;}
	.st387{clip-path:url(#SVGID_713_);fill:#FFFFFF;}
	.st388{clip-path:url(#SVGID_715_);fill:#FFFFFF;}
	.st389{clip-path:url(#SVGID_717_);fill:#FFFFFF;}
	.st390{clip-path:url(#SVGID_719_);}
	.st391{clip-path:url(#SVGID_721_);}
	.st392{clip-path:url(#SVGID_723_);fill:#FFFFFF;}
	.st393{clip-path:url(#SVGID_725_);fill:#FFFFFF;}
	.st394{clip-path:url(#SVGID_727_);fill:#FFFFFF;}
	.st395{clip-path:url(#SVGID_729_);fill:#FFFFFF;}
	.st396{clip-path:url(#SVGID_731_);fill:#FFFFFF;}
	.st397{clip-path:url(#SVGID_733_);fill:#FFFFFF;}
	.st398{clip-path:url(#SVGID_735_);fill:#FFFFFF;}
	.st399{clip-path:url(#SVGID_737_);fill:#FFFFFF;}
	.st400{clip-path:url(#SVGID_739_);}
	.st401{clip-path:url(#SVGID_741_);}
	.st402{clip-path:url(#SVGID_743_);fill:#FFFFFF;}
	.st403{clip-path:url(#SVGID_745_);fill:#FFFFFF;}
	.st404{clip-path:url(#SVGID_747_);fill:#FFFFFF;}
	.st405{clip-path:url(#SVGID_749_);fill:#FFFFFF;}
	.st406{clip-path:url(#SVGID_751_);fill:#FFFFFF;}
	.st407{clip-path:url(#SVGID_753_);fill:#FFFFFF;}
	.st408{clip-path:url(#SVGID_755_);fill:#FFFFFF;}
	.st409{clip-path:url(#SVGID_757_);fill:#FFFFFF;}
	.st410{clip-path:url(#SVGID_759_);}
	.st411{clip-path:url(#SVGID_761_);}
	.st412{clip-path:url(#SVGID_763_);fill:#FFFFFF;}
	.st413{clip-path:url(#SVGID_765_);fill:#FFFFFF;}
	.st414{clip-path:url(#SVGID_767_);fill:#FFFFFF;}
	.st415{clip-path:url(#SVGID_769_);fill:#FFFFFF;}
	.st416{clip-path:url(#SVGID_771_);fill:#FFFFFF;}
	.st417{clip-path:url(#SVGID_773_);fill:#FFFFFF;}
	.st418{clip-path:url(#SVGID_775_);fill:#FFFFFF;}
	.st419{clip-path:url(#SVGID_777_);fill:#FFFFFF;}
	.st420{clip-path:url(#SVGID_779_);}
	.st421{clip-path:url(#SVGID_781_);}
	.st422{clip-path:url(#SVGID_783_);fill:#FFFFFF;}
	.st423{clip-path:url(#SVGID_785_);fill:#FFFFFF;}
	.st424{clip-path:url(#SVGID_787_);fill:#FFFFFF;}
	.st425{clip-path:url(#SVGID_789_);fill:#FFFFFF;}
	.st426{clip-path:url(#SVGID_791_);fill:#FFFFFF;}
	.st427{clip-path:url(#SVGID_793_);fill:#FFFFFF;}
	.st428{clip-path:url(#SVGID_795_);fill:#FFFFFF;}
	.st429{clip-path:url(#SVGID_797_);fill:#FFFFFF;}
	.st430{clip-path:url(#SVGID_799_);}
	.st431{clip-path:url(#SVGID_801_);}
	.st432{clip-path:url(#SVGID_803_);fill:#FFFFFF;}
	.st433{clip-path:url(#SVGID_805_);fill:#FFFFFF;}
	.st434{clip-path:url(#SVGID_807_);fill:#FFFFFF;}
	.st435{clip-path:url(#SVGID_809_);fill:#FFFFFF;}
	.st436{clip-path:url(#SVGID_811_);fill:#FFFFFF;}
	.st437{clip-path:url(#SVGID_813_);fill:#FFFFFF;}
	.st438{clip-path:url(#SVGID_815_);fill:#FFFFFF;}
	.st439{clip-path:url(#SVGID_817_);fill:#FFFFFF;}
	.st440{clip-path:url(#SVGID_819_);}
	.st441{clip-path:url(#SVGID_821_);}
	.st442{clip-path:url(#SVGID_823_);fill:#FFFFFF;}
	.st443{clip-path:url(#SVGID_825_);fill:#FFFFFF;}
	.st444{clip-path:url(#SVGID_827_);fill:#FFFFFF;}
	.st445{clip-path:url(#SVGID_829_);fill:#FFFFFF;}
	.st446{clip-path:url(#SVGID_831_);fill:#FFFFFF;}
	.st447{clip-path:url(#SVGID_833_);fill:#FFFFFF;}
	.st448{clip-path:url(#SVGID_835_);fill:#FFFFFF;}
	.st449{clip-path:url(#SVGID_837_);fill:#FFFFFF;}
	.st450{clip-path:url(#SVGID_839_);}
	.st451{clip-path:url(#SVGID_841_);}
	.st452{clip-path:url(#SVGID_843_);fill:#FFFFFF;}
	.st453{clip-path:url(#SVGID_845_);fill:#FFFFFF;}
	.st454{clip-path:url(#SVGID_847_);fill:#FFFFFF;}
	.st455{clip-path:url(#SVGID_849_);fill:#FFFFFF;}
	.st456{clip-path:url(#SVGID_851_);fill:#FFFFFF;}
	.st457{clip-path:url(#SVGID_853_);fill:#FFFFFF;}
	.st458{clip-path:url(#SVGID_855_);fill:#FFFFFF;}
	.st459{clip-path:url(#SVGID_857_);fill:#FFFFFF;}
	.st460{clip-path:url(#SVGID_859_);}
	.st461{clip-path:url(#SVGID_861_);}
	.st462{clip-path:url(#SVGID_863_);fill:#FFFFFF;}
	.st463{clip-path:url(#SVGID_865_);fill:#FFFFFF;}
	.st464{clip-path:url(#SVGID_867_);fill:#FFFFFF;}
	.st465{clip-path:url(#SVGID_869_);fill:#FFFFFF;}
	.st466{clip-path:url(#SVGID_871_);fill:#FFFFFF;}
	.st467{clip-path:url(#SVGID_873_);fill:#FFFFFF;}
	.st468{clip-path:url(#SVGID_875_);fill:#FFFFFF;}
	.st469{clip-path:url(#SVGID_877_);fill:#FFFFFF;}
	.st470{clip-path:url(#SVGID_879_);}
	.st471{clip-path:url(#SVGID_881_);}
	.st472{clip-path:url(#SVGID_883_);fill:#FFFFFF;}
	.st473{clip-path:url(#SVGID_885_);fill:#FFFFFF;}
	.st474{clip-path:url(#SVGID_887_);fill:#FFFFFF;}
	.st475{clip-path:url(#SVGID_889_);fill:#FFFFFF;}
	.st476{clip-path:url(#SVGID_891_);fill:#FFFFFF;}
	.st477{clip-path:url(#SVGID_893_);fill:#FFFFFF;}
	.st478{clip-path:url(#SVGID_895_);fill:#FFFFFF;}
	.st479{clip-path:url(#SVGID_897_);fill:#FFFFFF;}
	.st480{clip-path:url(#SVGID_899_);}
	.st481{clip-path:url(#SVGID_901_);}
	.st482{clip-path:url(#SVGID_903_);fill:#FFFFFF;}
	.st483{clip-path:url(#SVGID_905_);fill:#FFFFFF;}
	.st484{clip-path:url(#SVGID_907_);fill:#FFFFFF;}
	.st485{clip-path:url(#SVGID_909_);fill:#FFFFFF;}
	.st486{clip-path:url(#SVGID_911_);fill:#FFFFFF;}
	.st487{clip-path:url(#SVGID_913_);fill:#FFFFFF;}
	.st488{clip-path:url(#SVGID_915_);fill:#FFFFFF;}
	.st489{clip-path:url(#SVGID_917_);fill:#FFFFFF;}
	.st490{clip-path:url(#SVGID_919_);}
	.st491{clip-path:url(#SVGID_921_);}
	.st492{clip-path:url(#SVGID_923_);fill:#FFFFFF;}
	.st493{clip-path:url(#SVGID_925_);fill:#FFFFFF;}
	.st494{clip-path:url(#SVGID_927_);fill:#FFFFFF;}
	.st495{clip-path:url(#SVGID_929_);fill:#FFFFFF;}
	.st496{clip-path:url(#SVGID_931_);fill:#FFFFFF;}
	.st497{clip-path:url(#SVGID_933_);fill:#FFFFFF;}
	.st498{clip-path:url(#SVGID_935_);fill:#FFFFFF;}
	.st499{clip-path:url(#SVGID_937_);fill:#FFFFFF;}
	.st500{clip-path:url(#SVGID_939_);}
	.st501{clip-path:url(#SVGID_941_);}
	.st502{clip-path:url(#SVGID_943_);fill:#FFFFFF;}
	.st503{clip-path:url(#SVGID_945_);fill:#FFFFFF;}
	.st504{clip-path:url(#SVGID_947_);fill:#FFFFFF;}
	.st505{clip-path:url(#SVGID_949_);fill:#FFFFFF;}
	.st506{clip-path:url(#SVGID_951_);fill:#FFFFFF;}
	.st507{clip-path:url(#SVGID_953_);fill:#FFFFFF;}
	.st508{clip-path:url(#SVGID_955_);fill:#FFFFFF;}
	.st509{clip-path:url(#SVGID_957_);fill:#FFFFFF;}
	.st510{clip-path:url(#SVGID_959_);}
	.st511{clip-path:url(#SVGID_961_);}
	.st512{clip-path:url(#SVGID_963_);fill:#FFFFFF;}
	.st513{clip-path:url(#SVGID_965_);fill:#FFFFFF;}
	.st514{clip-path:url(#SVGID_967_);fill:#FFFFFF;}
	.st515{clip-path:url(#SVGID_969_);fill:#FFFFFF;}
	.st516{clip-path:url(#SVGID_971_);fill:#FFFFFF;}
	.st517{clip-path:url(#SVGID_973_);fill:#FFFFFF;}
	.st518{clip-path:url(#SVGID_975_);fill:#FFFFFF;}
	.st519{clip-path:url(#SVGID_977_);fill:#FFFFFF;}
	.st520{clip-path:url(#SVGID_979_);}
	.st521{clip-path:url(#SVGID_981_);}
	.st522{clip-path:url(#SVGID_983_);fill:#FFFFFF;}
	.st523{clip-path:url(#SVGID_985_);fill:#FFFFFF;}
	.st524{clip-path:url(#SVGID_987_);fill:#FFFFFF;}
	.st525{clip-path:url(#SVGID_989_);fill:#FFFFFF;}
	.st526{clip-path:url(#SVGID_991_);fill:#FFFFFF;}
	.st527{clip-path:url(#SVGID_993_);fill:#FFFFFF;}
	.st528{clip-path:url(#SVGID_995_);fill:#FFFFFF;}
	.st529{clip-path:url(#SVGID_997_);fill:#FFFFFF;}
	.st530{clip-path:url(#SVGID_999_);}
	.st531{clip-path:url(#SVGID_1001_);}
	.st532{clip-path:url(#SVGID_1003_);fill:#FFFFFF;}
	.st533{clip-path:url(#SVGID_1005_);fill:#FFFFFF;}
	.st534{clip-path:url(#SVGID_1007_);fill:#FFFFFF;}
	.st535{clip-path:url(#SVGID_1009_);fill:#FFFFFF;}
	.st536{clip-path:url(#SVGID_1011_);fill:#FFFFFF;}
	.st537{clip-path:url(#SVGID_1013_);fill:#FFFFFF;}
	.st538{clip-path:url(#SVGID_1015_);fill:#FFFFFF;}
	.st539{clip-path:url(#SVGID_1017_);fill:#FFFFFF;}
	.st540{clip-path:url(#SVGID_1019_);}
	.st541{clip-path:url(#SVGID_1021_);}
	.st542{clip-path:url(#SVGID_1023_);fill:#FFFFFF;}
	.st543{clip-path:url(#SVGID_1025_);fill:#FFFFFF;}
	.st544{clip-path:url(#SVGID_1027_);fill:#FFFFFF;}
	.st545{clip-path:url(#SVGID_1029_);fill:#FFFFFF;}
	.st546{clip-path:url(#SVGID_1031_);fill:#FFFFFF;}
	.st547{clip-path:url(#SVGID_1033_);fill:#FFFFFF;}
	.st548{clip-path:url(#SVGID_1035_);fill:#FFFFFF;}
	.st549{clip-path:url(#SVGID_1037_);fill:#FFFFFF;}
	.st550{clip-path:url(#SVGID_1039_);}
	.st551{clip-path:url(#SVGID_1041_);}
	.st552{clip-path:url(#SVGID_1043_);fill:#FFFFFF;}
	.st553{clip-path:url(#SVGID_1045_);fill:#FFFFFF;}
	.st554{clip-path:url(#SVGID_1047_);fill:#FFFFFF;}
	.st555{clip-path:url(#SVGID_1049_);fill:#FFFFFF;}
	.st556{clip-path:url(#SVGID_1051_);fill:#FFFFFF;}
	.st557{clip-path:url(#SVGID_1053_);fill:#FFFFFF;}
	.st558{clip-path:url(#SVGID_1055_);fill:#FFFFFF;}
	.st559{clip-path:url(#SVGID_1057_);fill:#FFFFFF;}
	.st560{clip-path:url(#SVGID_1059_);}
	.st561{clip-path:url(#SVGID_1061_);}
	.st562{clip-path:url(#SVGID_1063_);fill:#FFFFFF;}
	.st563{clip-path:url(#SVGID_1065_);fill:#FFFFFF;}
	.st564{clip-path:url(#SVGID_1067_);fill:#FFFFFF;}
	.st565{clip-path:url(#SVGID_1069_);fill:#FFFFFF;}
	.st566{clip-path:url(#SVGID_1071_);fill:#FFFFFF;}
	.st567{clip-path:url(#SVGID_1073_);fill:#FFFFFF;}
	.st568{clip-path:url(#SVGID_1075_);fill:#FFFFFF;}
	.st569{clip-path:url(#SVGID_1077_);fill:#FFFFFF;}
	.st570{clip-path:url(#SVGID_1079_);}
	.st571{clip-path:url(#SVGID_1081_);}
	.st572{clip-path:url(#SVGID_1083_);fill:#FFFFFF;}
	.st573{clip-path:url(#SVGID_1085_);fill:#FFFFFF;}
	.st574{clip-path:url(#SVGID_1087_);fill:#FFFFFF;}
	.st575{clip-path:url(#SVGID_1089_);fill:#FFFFFF;}
	.st576{clip-path:url(#SVGID_1091_);fill:#FFFFFF;}
	.st577{clip-path:url(#SVGID_1093_);fill:#FFFFFF;}
	.st578{clip-path:url(#SVGID_1095_);fill:#FFFFFF;}
	.st579{clip-path:url(#SVGID_1097_);fill:#FFFFFF;}
	.st580{clip-path:url(#SVGID_1099_);}
	.st581{clip-path:url(#SVGID_1101_);}
	.st582{clip-path:url(#SVGID_1103_);fill:#FFFFFF;}
	.st583{clip-path:url(#SVGID_1105_);fill:#FFFFFF;}
	.st584{clip-path:url(#SVGID_1107_);fill:#FFFFFF;}
	.st585{clip-path:url(#SVGID_1109_);fill:#FFFFFF;}
	.st586{clip-path:url(#SVGID_1111_);fill:#FFFFFF;}
	.st587{clip-path:url(#SVGID_1113_);fill:#FFFFFF;}
	.st588{clip-path:url(#SVGID_1115_);fill:#FFFFFF;}
	.st589{clip-path:url(#SVGID_1117_);fill:#FFFFFF;}
	.st590{clip-path:url(#SVGID_1119_);}
	.st591{clip-path:url(#SVGID_1121_);}
	.st592{clip-path:url(#SVGID_1123_);fill:#FFFFFF;}
	.st593{clip-path:url(#SVGID_1125_);fill:#FFFFFF;}
	.st594{clip-path:url(#SVGID_1127_);fill:#FFFFFF;}
	.st595{clip-path:url(#SVGID_1129_);fill:#FFFFFF;}
	.st596{clip-path:url(#SVGID_1131_);fill:#FFFFFF;}
	.st597{clip-path:url(#SVGID_1133_);fill:#FFFFFF;}
	.st598{clip-path:url(#SVGID_1135_);fill:#FFFFFF;}
	.st599{clip-path:url(#SVGID_1137_);fill:#FFFFFF;}
	.st600{clip-path:url(#SVGID_1139_);}
	.st601{clip-path:url(#SVGID_1141_);}
	.st602{clip-path:url(#SVGID_1143_);fill:#FFFFFF;}
	.st603{clip-path:url(#SVGID_1145_);fill:#FFFFFF;}
	.st604{clip-path:url(#SVGID_1147_);fill:#FFFFFF;}
	.st605{clip-path:url(#SVGID_1149_);fill:#FFFFFF;}
	.st606{clip-path:url(#SVGID_1151_);fill:#FFFFFF;}
	.st607{clip-path:url(#SVGID_1153_);fill:#FFFFFF;}
	.st608{clip-path:url(#SVGID_1155_);fill:#FFFFFF;}
	.st609{clip-path:url(#SVGID_1157_);fill:#FFFFFF;}
	.st610{clip-path:url(#SVGID_1159_);}
	.st611{clip-path:url(#SVGID_1161_);}
	.st612{clip-path:url(#SVGID_1163_);fill:#FFFFFF;}
	.st613{clip-path:url(#SVGID_1165_);fill:#FFFFFF;}
	.st614{clip-path:url(#SVGID_1167_);fill:#FFFFFF;}
	.st615{clip-path:url(#SVGID_1169_);fill:#FFFFFF;}
	.st616{clip-path:url(#SVGID_1171_);fill:#FFFFFF;}
	.st617{clip-path:url(#SVGID_1173_);fill:#FFFFFF;}
	.st618{clip-path:url(#SVGID_1175_);fill:#FFFFFF;}
	.st619{clip-path:url(#SVGID_1177_);fill:#FFFFFF;}
	.st620{clip-path:url(#SVGID_1179_);}
	.st621{clip-path:url(#SVGID_1181_);}
	.st622{clip-path:url(#SVGID_1183_);fill:#FFFFFF;}
	.st623{clip-path:url(#SVGID_1185_);fill:#FFFFFF;}
	.st624{clip-path:url(#SVGID_1187_);fill:#FFFFFF;}
	.st625{clip-path:url(#SVGID_1189_);fill:#FFFFFF;}
	.st626{clip-path:url(#SVGID_1191_);fill:#FFFFFF;}
	.st627{clip-path:url(#SVGID_1193_);fill:#FFFFFF;}
	.st628{clip-path:url(#SVGID_1195_);fill:#FFFFFF;}
	.st629{clip-path:url(#SVGID_1197_);fill:#FFFFFF;}
	.st630{clip-path:url(#SVGID_1199_);}
	.st631{clip-path:url(#SVGID_1201_);}
	.st632{clip-path:url(#SVGID_1203_);fill:#FFFFFF;}
	.st633{clip-path:url(#SVGID_1205_);fill:#FFFFFF;}
	.st634{clip-path:url(#SVGID_1207_);fill:#FFFFFF;}
	.st635{clip-path:url(#SVGID_1209_);fill:#FFFFFF;}
	.st636{clip-path:url(#SVGID_1211_);fill:#FFFFFF;}
	.st637{clip-path:url(#SVGID_1213_);fill:#FFFFFF;}
	.st638{clip-path:url(#SVGID_1215_);fill:#FFFFFF;}
	.st639{clip-path:url(#SVGID_1217_);fill:#FFFFFF;}
	.st640{clip-path:url(#SVGID_1219_);}
	.st641{clip-path:url(#SVGID_1221_);}
	.st642{clip-path:url(#SVGID_1223_);fill:#FFFFFF;}
	.st643{clip-path:url(#SVGID_1225_);fill:#FFFFFF;}
	.st644{clip-path:url(#SVGID_1227_);fill:#FFFFFF;}
	.st645{clip-path:url(#SVGID_1229_);fill:#FFFFFF;}
	.st646{clip-path:url(#SVGID_1231_);fill:#FFFFFF;}
	.st647{clip-path:url(#SVGID_1233_);fill:#FFFFFF;}
	.st648{clip-path:url(#SVGID_1235_);fill:#FFFFFF;}
	.st649{clip-path:url(#SVGID_1237_);fill:#FFFFFF;}
	.st650{clip-path:url(#SVGID_1239_);}
	.st651{clip-path:url(#SVGID_1241_);}
	.st652{clip-path:url(#SVGID_1243_);fill:#FFFFFF;}
	.st653{clip-path:url(#SVGID_1245_);fill:#FFFFFF;}
	.st654{clip-path:url(#SVGID_1247_);fill:#FFFFFF;}
	.st655{clip-path:url(#SVGID_1249_);fill:#FFFFFF;}
	.st656{clip-path:url(#SVGID_1251_);fill:#FFFFFF;}
	.st657{clip-path:url(#SVGID_1253_);fill:#FFFFFF;}
	.st658{clip-path:url(#SVGID_1255_);fill:#FFFFFF;}
	.st659{clip-path:url(#SVGID_1257_);fill:#FFFFFF;}
	.st660{clip-path:url(#SVGID_1259_);}
	.st661{clip-path:url(#SVGID_1261_);}
	.st662{clip-path:url(#SVGID_1263_);fill:#FFFFFF;}
	.st663{clip-path:url(#SVGID_1265_);fill:#FFFFFF;}
	.st664{clip-path:url(#SVGID_1267_);fill:#FFFFFF;}
	.st665{clip-path:url(#SVGID_1269_);fill:#FFFFFF;}
	.st666{clip-path:url(#SVGID_1271_);fill:#FFFFFF;}
	.st667{clip-path:url(#SVGID_1273_);fill:#FFFFFF;}
	.st668{clip-path:url(#SVGID_1275_);fill:#FFFFFF;}
	.st669{clip-path:url(#SVGID_1277_);fill:#FFFFFF;}
	.st670{clip-path:url(#SVGID_1279_);}
	.st671{clip-path:url(#SVGID_1281_);}
	.st672{fill:#CD8F5D;}
	.st673{fill:#2B3C6E;}
	.st674{fill:#90B07A;}
	.st675{fill:#B7D096;}
	.st676{fill:#84A56C;}
	.st677{fill:#212E5A;}
	.st678{fill:#C0712F;}
	.st679{fill:#DB7C4C;}
	.st680{fill:#84B5BC;}
	.st681{fill:#DCA155;}
	.st682{fill:#C37625;}
	.st683{fill:#6683D3;}
	.st684{fill:#7F98EC;}
	.st685{fill:#C56640;}
	.st686{fill:#B35534;}
	.st687{fill:#487E42;}
	.st688{opacity:0.5;fill:#AFAFAF;}
	.st689{opacity:0.5;}
	.st690{fill:#AFAFAF;}
	.st691{fill:#747474;}
	.st692{fill:url(#SVGID_1282_);}
	.st693{fill:url(#SVGID_1283_);}
	.st694{fill:url(#SVGID_1284_);}
	.st695{fill:url(#SVGID_1285_);}
	.st696{fill:url(#SVGID_1286_);}
	.st697{fill:url(#SVGID_1287_);}
	.st698{fill:url(#SVGID_1288_);}
	.st699{fill:url(#SVGID_1289_);}
	.st700{fill:url(#SVGID_1290_);}
	.st701{fill:url(#SVGID_1291_);}
	.st702{fill:url(#SVGID_1292_);}
	.st703{fill:url(#SVGID_1293_);}
	.st704{fill:url(#SVGID_1294_);}
	.st705{fill:url(#SVGID_1295_);}
	.st706{fill:url(#SVGID_1296_);}
	.st707{fill:url(#SVGID_1297_);}
	.st708{fill:url(#SVGID_1298_);}
	.st709{fill:url(#SVGID_1299_);}
	.st710{fill:url(#SVGID_1300_);}
	.st711{fill:url(#SVGID_1301_);}
	.st712{fill:url(#SVGID_1302_);}
	.st713{fill:url(#SVGID_1303_);}
	.st714{fill:url(#SVGID_1304_);}
	.st715{fill:url(#SVGID_1305_);}
	.st716{font-family:'Montserrat-Bold';}
	.st717{font-size:99.4372px;}
</style>
<rect x="1232.34" y="777.21" class="st0" width="3035.27" height="2186.97"/>
<rect x="1232.34" y="777.21" class="st1" width="170.76" height="2186.97"/>
<rect x="4096.85" y="777.21" class="st1" width="170.76" height="2186.97"/>
<g>
	<rect x="1709.13" y="2336.82" class="st2" width="1716.57" height="329.65"/>
	<polygon class="st2" points="2791.39,1706.23 2825.98,1706.23 2825.98,1080.08 1506.94,1080.08 1506.94,2367.29 1709.13,2367.29 
		1709.13,2336.82 2791.39,2336.82 	"/>
	<rect x="1541.53" y="1112.98" class="st3" width="1249.86" height="1223.83"/>
	<polygon class="st3" points="3198.05,2367.29 3397.09,2367.29 3397.09,2635.99 1737.74,2635.99 1737.74,2367.29 2095.77,2367.29 
		3010.57,2367.29 2942.87,2317.57 3188.14,2286.54 	"/>
	<polygon class="st3" points="2095.77,2367.29 2054.12,2334.1 2280.44,2323.08 2280.44,2409.28 	"/>
	<polygon class="st2" points="2791.39,1919.93 2791.39,1706.23 3698.99,1706.23 3698.99,2565.69 3670.52,2565.69 3415.19,2565.93 
		3415.19,2177.33 3415.19,1919.93 	"/>
	<polygon class="st2" points="3425.7,2565.69 3425.7,2336.82 2791.39,2336.82 2791.39,2148.27 2824,2101.09 3454.82,2148.27 
		3454.82,2519.16 	"/>
	<polygon class="st3" points="2825.98,1740.52 2825.98,1916.12 2782.28,1918.46 2787,2153.05 2825.98,2099.77 2825.98,2336.82 
		3425.7,2336.82 3425.7,2565.69 3666.86,2565.69 3666.86,1740.52 	"/>
	
		<rect x="3455.61" y="2092.92" transform="matrix(6.123234e-17 -1 1 6.123234e-17 1560.9292 5805.6284)" class="st2" width="455.33" height="58.85"/>
	<rect x="1938.8" y="1066.55" class="st2" width="455.33" height="58.85"/>
	<g>
		<rect x="1939.1" y="1091.48" class="st4" width="455.57" height="8.99"/>
	</g>
	<g>
		<rect x="3678.78" y="1895.41" class="st4" width="8.99" height="455.3"/>
	</g>
	<g>
		
			<rect x="2566.98" y="2622.09" transform="matrix(-1 -1.224647e-16 1.224647e-16 -1 5589.2827 5303.0425)" class="st2" width="455.33" height="58.85"/>
		<g>
			<rect x="2567.7" y="2647.03" class="st4" width="455.3" height="8.99"/>
		</g>
		
			<rect x="2112.34" y="2622.09" transform="matrix(-1 -1.224647e-16 1.224647e-16 -1 4680.0156 5303.0425)" class="st2" width="455.33" height="58.85"/>
		<g>
			<rect x="2112.37" y="2647.03" class="st4" width="455.3" height="8.99"/>
		</g>
	</g>
	<g>
		<g>
			<path class="st2" d="M3440.01,2570.42h-13.49c-2.61,0-4.72-2.11-4.72-4.72s2.11-4.72,4.72-4.72h13.49c2.61,0,4.72,2.11,4.72,4.72
				S3442.62,2570.42,3440.01,2570.42z"/>
		</g>
		<g>
			<path class="st2" d="M3632.92,2570.42h-24.11c-2.61,0-4.72-2.11-4.72-4.72s2.11-4.72,4.72-4.72h24.11c2.61,0,4.72,2.11,4.72,4.72
				S3635.53,2570.42,3632.92,2570.42z M3584.69,2570.42h-24.11c-2.61,0-4.72-2.11-4.72-4.72s2.11-4.72,4.72-4.72h24.11
				c2.61,0,4.72,2.11,4.72,4.72S3587.3,2570.42,3584.69,2570.42z M3536.46,2570.42h-24.11c-2.61,0-4.72-2.11-4.72-4.72
				s2.11-4.72,4.72-4.72h24.11c2.61,0,4.72,2.11,4.72,4.72S3539.07,2570.42,3536.46,2570.42z M3488.24,2570.42h-24.11
				c-2.61,0-4.72-2.11-4.72-4.72s2.11-4.72,4.72-4.72h24.11c2.61,0,4.72,2.11,4.72,4.72S3490.84,2570.42,3488.24,2570.42z"/>
		</g>
		<g>
			<path class="st2" d="M3670.52,2570.42h-13.49c-2.61,0-4.72-2.11-4.72-4.72s2.11-4.72,4.72-4.72h13.49c2.61,0,4.72,2.11,4.72,4.72
				S3673.13,2570.42,3670.52,2570.42z"/>
		</g>
	</g>
	<g>
		<path class="st5" d="M3647.23,2692.21c-1.34,0-2.68-0.57-3.61-1.68c-1.67-1.98-1.43-4.94,0.54-6.63
			c0.53-0.47,34.47-32.02,18.04-145.32c-0.37-2.58,1.41-4.98,4-5.35c2.59-0.36,4.98,1.42,5.35,4
			c17.37,119.75-19.69,152.54-21.27,153.88C3649.38,2691.85,3648.3,2692.21,3647.23,2692.21z"/>
	</g>
	<g>
		<path class="st2" d="M3647.31,2692.2c-0.76,0-1.54-0.19-2.25-0.58l-221.61-121.78c-2.29-1.25-3.14-4.12-1.89-6.41
			c1.25-2.29,4.11-3.14,6.41-1.89l221.61,121.78c2.29,1.25,3.14,4.12,1.89,6.41C3650.61,2691.3,3648.99,2692.2,3647.31,2692.2z"/>
	</g>
	<g>
		<path class="st2" d="M2282.55,2371.79h-26.97c-2.48,0-4.5-2.01-4.5-4.5s2.01-4.5,4.5-4.5h26.97c2.48,0,4.5,2.01,4.5,4.5
			S2285.03,2371.79,2282.55,2371.79z M2228.6,2371.79h-26.98c-2.48,0-4.5-2.01-4.5-4.5s2.01-4.5,4.5-4.5h26.98
			c2.48,0,4.5,2.01,4.5,4.5S2231.08,2371.79,2228.6,2371.79z M2174.65,2371.79h-26.97c-2.48,0-4.5-2.01-4.5-4.5s2.01-4.5,4.5-4.5
			h26.97c2.48,0,4.5,2.01,4.5,4.5S2177.13,2371.79,2174.65,2371.79z M2120.7,2371.79h-26.97c-2.48,0-4.5-2.01-4.5-4.5
			s2.01-4.5,4.5-4.5h26.97c2.48,0,4.5,2.01,4.5,4.5S2123.18,2371.79,2120.7,2371.79z"/>
	</g>
	<g>
		<path class="st2" d="M3199.28,2371.79h-26.98c-2.48,0-4.5-2.01-4.5-4.5s2.01-4.5,4.5-4.5h26.98c2.48,0,4.5,2.01,4.5,4.5
			S3201.76,2371.79,3199.28,2371.79z M3145.33,2371.79h-26.97c-2.48,0-4.5-2.01-4.5-4.5s2.01-4.5,4.5-4.5h26.97
			c2.48,0,4.5,2.01,4.5,4.5S3147.81,2371.79,3145.33,2371.79z M3091.38,2371.79h-26.98c-2.48,0-4.5-2.01-4.5-4.5s2.01-4.5,4.5-4.5
			h26.98c2.48,0,4.5,2.01,4.5,4.5S3093.86,2371.79,3091.38,2371.79z M3037.43,2371.79h-26.98c-2.48,0-4.5-2.01-4.5-4.5
			s2.01-4.5,4.5-4.5h26.98c2.48,0,4.5,2.01,4.5,4.5S3039.91,2371.79,3037.43,2371.79z"/>
	</g>
	<g>
		<path class="st5" d="M2245.72,2482.87c-1.35,0-2.68-0.6-3.56-1.75c-1.51-1.96-1.15-4.78,0.8-6.3c0.12-0.1,12.56-9.95,22.92-31.3
			c9.59-19.75,19.33-53.68,11.29-103.18c-0.4-2.45,1.27-4.76,3.72-5.16c2.45-0.39,4.76,1.27,5.16,3.72
			c8.46,52.16-2.04,88.11-12.35,109.09c-11.31,23.03-24.68,33.51-25.25,33.94C2247.65,2482.56,2246.68,2482.87,2245.72,2482.87z"/>
	</g>
	<g>
		<path class="st5" d="M3163.29,2478.92c-1.32,0-2.63-0.58-3.52-1.69c-1.55-1.94-1.23-4.76,0.7-6.31
			c0.22-0.18,11.78-9.74,21.32-30.69c8.87-19.49,17.76-53.12,9.72-102.64c-0.4-2.45,1.27-4.76,3.72-5.16
			c2.45-0.39,4.76,1.27,5.16,3.72c8.46,52.11-1.14,87.71-10.68,108.4c-10.5,22.76-23.09,32.98-23.62,33.4
			C3165.26,2478.6,3164.27,2478.92,3163.29,2478.92z"/>
	</g>
	<g>
		<path class="st2" d="M2825.98,2104.26c-2.48,0-4.5-2.01-4.5-4.5v-21.8c0-2.48,2.01-4.5,4.5-4.5c2.48,0,4.5,2.01,4.5,4.5v21.8
			C2830.48,2102.25,2828.47,2104.26,2825.98,2104.26z M2825.98,2055.49c-2.48,0-4.5-2.01-4.5-4.5v-26.97c0-2.48,2.01-4.5,4.5-4.5
			c2.48,0,4.5,2.01,4.5,4.5v26.97C2830.48,2053.48,2828.47,2055.49,2825.98,2055.49z M2825.98,2001.54c-2.48,0-4.5-2.01-4.5-4.5
			v-26.97c0-2.48,2.01-4.5,4.5-4.5c2.48,0,4.5,2.01,4.5,4.5v26.97C2830.48,1999.53,2828.47,2001.54,2825.98,2001.54z
			 M2825.98,1947.59c-2.48,0-4.5-2.01-4.5-4.5v-26.98c0-2.48,2.01-4.5,4.5-4.5c2.48,0,4.5,2.01,4.5,4.5v26.98
			C2830.48,1945.58,2828.47,1947.59,2825.98,1947.59z"/>
	</g>
	<g>
		<path class="st5" d="M2930.47,1956.05c-1.4,0-2.79-0.62-3.72-1.81c-0.09-0.11-9.28-11.55-29.94-20.95
			c-19.15-8.71-52.34-17.41-101.78-9.39c-2.57,0.42-5-1.33-5.42-3.91c-0.42-2.58,1.33-5,3.91-5.42
			c52.16-8.46,87.44,0.99,107.84,10.41c22.49,10.38,32.41,22.9,32.82,23.43c1.6,2.06,1.23,5.03-0.82,6.63
			C2932.51,1955.72,2931.49,1956.05,2930.47,1956.05z"/>
	</g>
	<g>
		<path class="st2" d="M2245.71,2483.09c-0.97,0-1.96-0.3-2.8-0.92l-186.09-137.18c-2.1-1.55-2.55-4.51-1-6.6
			c1.55-2.1,4.5-2.55,6.6-1l186.09,137.18c2.1,1.55,2.55,4.51,1,6.6C2248.59,2482.43,2247.16,2483.09,2245.71,2483.09z"/>
	</g>
	<g>
		<path class="st2" d="M2795.64,2151.5c-0.94,0-1.89-0.28-2.72-0.87c-2.13-1.51-2.64-4.45-1.13-6.58l135.25-195.24
			c1.51-2.13,4.45-2.64,6.58-1.13c2.13,1.5,2.64,4.45,1.13,6.58L2799.5,2149.5C2798.58,2150.81,2797.12,2151.5,2795.64,2151.5z"/>
	</g>
	<g>
		<path class="st2" d="M3163.08,2479.82c-0.94,0-1.89-0.28-2.72-0.87l-195.79-133.6c-2.13-1.5-2.64-4.45-1.13-6.58
			c1.51-2.13,4.45-2.64,6.58-1.13l195.79,133.6c2.13,1.5,2.64,4.45,1.13,6.58C3166.02,2479.13,3164.56,2479.82,3163.08,2479.82z"/>
	</g>
</g>
<g>
	<rect x="3015.36" y="1080.78" class="st2" width="1072.45" height="137.33"/>
	<rect x="3015.36" y="1280.23" class="st2" width="333.51" height="62.12"/>
	<rect x="3015.36" y="1397.95" class="st2" width="853.35" height="62.12"/>
	<rect x="3934.93" y="1397.95" class="st2" width="152.88" height="62.12"/>
	<rect x="3417.53" y="1280.23" class="st2" width="670.28" height="62.12"/>
</g>
<path class="st3" d="M4342.19,3127.66h390.23c41.19,0,74.58-33.39,74.58-74.58V688.31c0-41.19-33.39-74.58-74.58-74.58h-390.23
	c-41.19,0-74.58,33.39-74.58,74.58v2364.77C4267.61,3094.27,4301,3127.66,4342.19,3127.66z"/>
<path class="st3" d="M767.58,3127.66h390.23c41.19,0,74.58-33.39,74.58-74.58V688.31c0-41.19-33.39-74.58-74.58-74.58H767.58
	c-41.19,0-74.58,33.39-74.58,74.58v2364.77C693,3094.27,726.39,3127.66,767.58,3127.66z"/>
<ellipse class="st6" cx="3697.05" cy="3278.94" rx="592.81" ry="107.33"/>
<g>
	<g id="shoe_R_5_">
		<path class="st7" d="M3717.19,3244.02c0,0-2.6,8.77,12.18,5.31c14.78-3.45,134.34-57.56,149.55-76.14
			c15.21-18.58,47.67-91.9,51.49-92.41s13.71,40.26,13.71,40.26l9.29-3.16c0,0-7.02-34.67-5.85-42.94
			c1.17-8.27,0.83-32.58-5.51-38.31C3935.7,3030.89,3717.19,3244.02,3717.19,3244.02z"/>
		<path class="st8" d="M3814.31,2944.67c4.44,1.48,38.05,94.08,29.17,111.86c-6.91,13.81-39.8,97.28-74.35,131.86
			c-14.43,14.44-2.24,15.48,16.8,8.11c9.39-3.63,20.7-9.3,34.31-17.74c56.23-34.87,92.33-86.96,112.05-114.82
			c7.94-11.23,15.91-36.83,3.82-43.37c-9.23-5-20.15-9.76-31.41-31.45c-19.8-38.1-24.26-85.67-28.71-84.19
			C3871.54,2906.41,3814.31,2944.67,3814.31,2944.67z"/>
		<path class="st9" d="M3830.25,3086.01c0,0-2.26,5.8-5.67,13.12c-10.34,22.18-30.45,66.02-23.79,66.56
			c20.37,1.64,50.4-29.4,73.53-64.55c22.29-33.86,39.38-92.02,40.6-96.21c0.04-0.13,0.17-0.19,0.3-0.13
			c3.92,1.83,56.73,27.27,24.5,57.85c-21.42,20.32-56.34,102.57-80.1,117.13c-23.76,14.56-137.63,73.66-142.43,64.26
			c-4.8-9.4,45.81-56.29,55.61-68.59C3798.39,3143.33,3830.25,3086.01,3830.25,3086.01z"/>
	</g>
	<path class="st10" d="M3551.26,2508.18c0,0,263.77,511.13,284.51,505.21c0,0,71.12-29.63,64.6-44.45
		c-9.59-21.81-56.52-425.67-156.59-460.76H3551.26z"/>
	<path class="st10" d="M3862.58,1856.6c0,0-7.99,55.45-19.57,134.34c-27.42,186.33-74.92,503.41-84.55,528.4
		c-7.05,18.17-41.99,33.26-81.6,38.86c-37.88,5.47-80.02,2.24-105.94-15.13c-44.05-29.52-106.27-363.27-86.18-491.92
		c3.36-21.67,7.1-42.04,11.3-60.72c14.11-63.15,33.45-107.34,62.13-119.11c20.74-8.5,49.09-13.73,80.2-16.82
		C3736.74,1844.74,3862.58,1856.6,3862.58,1856.6z"/>
	<path class="st11" d="M3795.78,2959.12c10.83-33.49,39.27-129.47,51.98-249.02c-21.97-84.91-51.14-164.79-88.48-193.3
		c4.77-16.47,15.73-80.8,28.81-163.28c-43.37-147.32-99.77-288.62-135.56-330.09c0,0,5.82,59.07,9.15,79.87
		c3.33,20.8-18.3,197.19-24.13,297.03c-5.82,99.84,0,191.36-1.66,212.17c-1.12,14-10.17,19.69-25.09,9.74
		C3666.17,2727.42,3747.21,2879.03,3795.78,2959.12z"/>
</g>
<g>
	<g id="shoe_L_1_">
		<path class="st7" d="M3355.33,3336.2c0,0-6.91,9.88,12.84,11.85c19.75,1.98,190.63-14.82,217.3-31.61
			c26.67-16.79,97.78-94.82,102.72-93.83c4.94,0.99,0,56.3,0,56.3h12.84c0,0,5.93-46.44,10.86-56.31
			c4.94-9.87,14.76-40.47,9.33-50.36C3715.8,3162.34,3355.33,3336.2,3355.33,3336.2z"/>
		<path class="st8" d="M3728.29,2999.69c2.19,6.61-23.75,87.6-18.68,113.28c2.6,13.17,5.61,21.66,7.92,33.47
			c5.06,25.89-9.89,51.76-34.96,59.97c-108.76,35.63-180.12,110.39-204.95,96.2c-27.66-15.8,3.95-43.46,53.34-94.82
			c49.39-51.36,103.92-140.04,102.13-270.64C3630.9,2777.12,3728.29,2999.69,3728.29,2999.69z"/>
		<path class="st9" d="M3536.04,3202.44c0,0-8.26,9.93-18.81,21.58c-16.18,17.89-34.85,40.28-15.71,39.08
			c31.61-1.98,65.19-4.75,108.65-38.92c43.46-34.17,99.44-111.21,99.44-111.21s36.84,80.01-2.23,90.87
			c-37.25,10.36-113.02,104.49-148.58,112.6c-35.56,8.11-201.5,33.58-203.47,19.75c-1.98-13.83,80-51.77,97.78-62.23
			C3486.7,3254.22,3536.04,3202.44,3536.04,3202.44z"/>
	</g>
	<path class="st10" d="M3741.45,3032.14c0,0-3.08,1.73-8.13,4.16c-3.27,1.59-7.43,3.46-12.1,5.32
		c-26.39,10.46-100.34-0.97-100.31-30.07c0.02-15.84,32.35-393.98,38.65-507.3c0.98-18.12,1.78-30.27,2.15-34.24
		c4.11-41.76,111.22-56.05,152.14-43.11c3.36,1.07,6.26,2.34,8.64,3.78c4.67,2.8,7.24,6.35,7.01,10.56
		c-0.33,5.79,1.68,26.49,3.08,58.62C3836.98,2600.39,3835.76,2812.92,3741.45,3032.14z"/>
	<path class="st10" d="M3957.91,2060.4c-1.54,65.35-16.96,131.17-40.45,200.02c-87.26,255.98-111.27,298.9-108.18,317.17
		c6.03,35.69-90.53,53.44-132.43-19.39c-9.02-15.46-15.46-35.03-17.94-59.42c-10.23-100.48,3.74-237.9,18.45-396.86
		c-12.99-34.05-22.75-64.79-29.71-92.58c-17.05-67.73-17.7-117.81-9.3-154.85c8.69-38.63,27.28-63.01,47.23-78.43
		c34.1-26.34,72.31-26.34,72.31-26.34c10.32,10.93,57.08,3.41,73.62,10.6c5.18,2.24,10.09,5,14.76,8.13
		c29.15,19.53,48.81,54.47,63.95,84.41c19.85,39.24,32.88,77.77,40.22,116.03C3956.37,1999.45,3958.66,2029.9,3957.91,2060.4z"/>
	<path class="st11" d="M3950.44,1968.9c-26.2,9.48-61.98,15.18-107.42,22.04c-40.21,6.07-365.6,52.12-336.1-41.81
		c12.84-40.88,29.31-68.82,51.23-77.82c20.74-8.5,49.09-13.73,80.2-16.82c8.69-38.63,27.28-63.01,47.23-78.43l160.69-7.61
		c29.15,19.53,48.81,54.47,63.95,84.41C3930.07,1892.1,3943.11,1930.64,3950.44,1968.9z"/>
</g>
<path class="st8" d="M3544.29,1369.97c-0.09-0.05-0.19-0.05-0.28-0.05C3544.66,1369.41,3544.8,1369.36,3544.29,1369.97z"/>
<path class="st8" d="M3533.59,1594.65c0,0-101.22,101.04-188.15,126.73c-72.54,21.44-88-73.24-52.04-129.81
	c7.1-11.21,16.21-20.88,27.28-27.89c8.92-5.65,18.54-12.33,28.59-19.76c80.62-59.37,188.48-166.01,195.02-173.95
	C3609.92,1375.81,3533.59,1594.65,3533.59,1594.65z"/>
<path class="st12" d="M3360.48,1651.21c-20.88,17.66-46.9-19.67-67.08-59.65c7.1-11.21,16.21-20.88,27.28-27.89
	c8.92-5.65,18.54-12.33,28.59-19.76C3367.72,1579.28,3385.14,1630.34,3360.48,1651.21z"/>
<path class="st8" d="M3130.66,1342.4c0,0,204.73,213.23,221.33,255.65c16.6,42.42,13.47,144.65-49.52,119.36
	c-62.99-25.29-212.39-327.23-214.23-345.03C3086.39,1354.59,3130.66,1342.4,3130.66,1342.4z"/>
<path class="st8" d="M2914.86,1280.58c5.02-5.94,136.27-81.54,227.57,74.17c0,0-45.44,35.79-54.2,17.64s-133.26-24.96-137.41-43.69
	c-4.15-18.73,44.27-8.06,58.1-7.17c13.83,0.89,17.98-48.21-12.45-40.95c-30.43,7.26-76.08,42.08-76.08,28.13
	s17.98-20.87,17.98-20.87S2894.11,1305.13,2914.86,1280.58z"/>
<path class="st13" d="M3621.55,1502.95c-10.51,39.61-26.49,76.75-45.36,103.75c-15.09,21.58-36.01,33.59-54.23,40.31
	c-17.66,6.59-32.7,8.13-37.23,8.69c-25.18,2.99-34.1-191.24-34.1-216.41s161.43-125.33,162.46-123.78
	C3641.54,1358.15,3639.81,1434.19,3621.55,1502.95z"/>
<path class="st14" d="M3621.55,1502.95c-10.51,39.61-26.49,76.75-45.36,103.75c-15.09,21.58-36.01,33.59-54.23,40.31
	c-2.94-14.01-7.52-32.6-14.53-57.13c-6.21-21.72,104.73-249.86,104.73-249.86L3621.55,1502.95z"/>
<g>
	<path class="st15" d="M3071.89,1283.95l0.73,3.04c1.09,4.55-1.71,9.12-6.26,10.22l-222.48,53.49l-4.69-19.51l222.48-53.49
		C3066.22,1276.6,3070.8,1279.4,3071.89,1283.95z"/>
	<path class="st6" d="M2843.89,1350.7l-15-0.44l-12.15-0.44c-2.3-0.11-3.28-4.38-1.32-5.47l11.82-6.57l11.93-6.57L2843.89,1350.7z"
		/>
</g>
<path class="st15" d="M2829.11,1347.2c0,0.98-0.11,2.08-0.22,3.06l-12.15-0.44c-2.3-0.11-3.28-4.38-1.32-5.47l11.82-6.57
	C2828.45,1340.41,2829.11,1343.69,2829.11,1347.2z"/>
<g>
	<path class="st15" d="M3888.83,904.36c0,0-44.93-27.46-128.96-18.3c-84.03,9.15-113.15,49.92-105.67,81.54
		c0,0-31.62,10.82-24.13,38.27c7.49,27.46,2.5,40.77-8.32,54.91c-10.82,14.14-27.46,41.6-14.98,60.74
		c12.48,19.14-13.31,76.55,19.97,99.01c33.28,22.46-45.76,68.23,10.82,97.35c56.58,29.12,106.5-3.33,106.5-3.33L3888.83,904.36z"/>
	<g>
		<path class="st8" d="M3707.36,1633.37c-56.71-14.81-120.24-276.92-97.46-299.48c27.48-27.21,59.02-33.44,75.32-34.93
			c5.34-0.49,9.14-5.39,8.32-10.69l-1.36-8.88l-15.27-99.26l-11.44-74.22h139.29c0,0-0.05,31.58,3.41,72.45
			c0.51,6.59,1.17,13.41,1.92,20.37c7.15,66.1,23.78,145.6,62.64,159.05C3941.05,1381.5,3764.11,1648.18,3707.36,1633.37z"/>
		<path class="st12" d="M3810.07,1198.72c-3.88,54.56-82.02,77.54-117.9,80.67l-15.27-99.26c41.29-38.12,117.71-49.93,131.26-1.77
			c0.65,2.38,1.17,4.9,1.54,7.57C3810.31,1190.36,3810.4,1194.61,3810.07,1198.72z"/>
	</g>
</g>
<path class="st8" d="M4017.23,1462.49c0,0,65,306.84,19.6,342.25c-116.51,90.87-106.45-165.11-148.65-273.6
	C3859.17,1456.57,3996.23,1406.19,4017.23,1462.49z"/>
<g>
	<path class="st13" d="M3899.95,1652.66c-0.51,8.27-0.7,17.33-0.56,26.91c0.98,94.96,29.24,244.21,29.24,244.21
		c-164.24,36.44-340.66,87.44-429.09,32.56l45.08-263.68l-8.45-75.2c-1.68-14.9-0.33-29.99,3.97-44.33
		c11.26-37.46,36.57-123.55,72.96-257.61c10.66-6.57,23.1-12.57,44.9-13.88c1.46-0.09,2.77,0.89,3.07,2.32
		c5.2,25.06,48.86,233.75,56.81,217.02c1.03-2.15,3.36-7.89,6.73-16.4c24.38-61.99,92.07-201.63,105.89-203.68
		c15.74-2.34,155.22,54.65,169.84,104.31c16.91,57.31,41.99,138.73,41.99,138.73s-33.12,38.68-141.96,103.09
		C3900.23,1648.83,3900.09,1650.75,3899.95,1652.66z"/>
	<path class="st14" d="M3899.39,1679.57h-107.2c49.07-8.06,70.85-66.11,70.39-164.86c0-2.43,3.55-2.66,3.87-0.26l15.33,114.11
		l18.17,24.1C3899.43,1660.93,3899.25,1669.99,3899.39,1679.57z"/>
	<path class="st14" d="M3792.18,1905.79c-33.07-36.29-84.83-316.89-84.83-316.89c1.03-2.15,3.36-7.89,6.73-16.4L3792.18,1905.79z"/>
</g>
<g>
	<g>
		<path id="face_3_" class="st8" d="M3695.2,947.49c0,0-66.89,122.06-60.56,212.29c2.5,35.57,16.66,98.8,43.68,99.84
			c48.67,1.87,128.5,0.38,183.08-153.71C3915.98,951.84,3758.4,867.49,3695.2,947.49z"/>
		<path class="st12" d="M3695.2,947.49c0,0-17.33,31.63-33.51,74.58c12.39-15.16,42.22-46.13,85.9-56.35
			c0,0-14.35,73.01,44.31,78.63c0,0,6.24,33.7,35.57,28.08c0,0,23.7-15.97,45.01-36.39C3866.74,928.55,3748.01,880.63,3695.2,947.49
			z"/>
	</g>
	<path class="st15" d="M3756.95,980.07c0,0-2.5,53.67,42.43,57.41c0,0,9.98,41.18,43.68,41.18c0,0,1.25,33.7,3.74,56.16
		c0,0-49.92,51.17-37.44,71.14c0,0-19.03,33.38,9.98,56.47c0,0-16.22,33.38,19.97,47.11c36.19,13.73,59.91,47.43,97.35,32.45
		c37.44-14.98,34.94-29.95,18.72-59.91c-16.22-29.95-17.47-34.94-9.98-64.9c7.49-29.95-6.24-42.43-19.97-62.4
		c-13.73-19.97,67.39-69.89,39.1-153.09c-23.97-70.5-66.56-102.75-87.78-101.51C3855.55,901.45,3745.72,869,3756.95,980.07z"/>
	<g>
		<path class="st8" d="M3819.56,1076.29c0.99-2.96,26.56-33.53,47.41-16.08c20.85,17.45-10.86,118.8-42.47,100.04
			C3802.08,1146.93,3819.56,1076.29,3819.56,1076.29z"/>
		<path class="st12" d="M3861.05,1080.86c-9.21-0.24-18.24,0.78-27.17,2.93c-0.33-0.05-0.69-0.03-1.1,0.13
			c-0.22,0.09-0.45,0.18-0.67,0.27c-2.73,1.08-1.74,5.28,1.24,4.5c1.39-0.36,2.78-0.63,4.18-0.93c0.24,0.11,0.48,0.22,0.77,0.26
			c18.93,2.51,15.75,30.21,9.03,41.48c-1.54,2.59,2.49,4.94,4.03,2.36c7.68-12.88,9.04-37.11-4.87-45.64
			c4.81-0.58,9.66-0.82,14.57-0.7C3864.05,1085.61,3864.05,1080.93,3861.05,1080.86z"/>
		<path id="earring_2_" class="st16" d="M3842.71,1151.8c3.64-4.7-2.93-11.35-6.61-6.61c-0.81,1.04-1.52,2.13-2.17,3.24
			c-1.42,0.63-2.46,1.93-2.28,4.02c0.02,0.28,0.05,0.56,0.07,0.84c-2.56,7.29-1.99,15.35,2.37,22.35c2.28,3.67,9.12,2.5,8.7-2.36
			c-0.55-6.33-1.09-12.66-1.64-18.99C3841.6,1153.43,3842.1,1152.6,3842.71,1151.8z"/>
	</g>
</g>
<path class="st15" d="M3771.51,952.61c0,0-79.67-2.91-117.31,75.71c0,0,12.48-143.11,132.29-122.31L3771.51,952.61z"/>
<g>
	<g>
		<path class="st17" d="M3974.2,2083.16l-208.82,71.25c-10.4,3.55-21.7-2.01-25.25-12.4l-101.34-297.01
			c-3.55-10.4,2.01-21.7,12.4-25.25l208.82-71.25c10.4-3.55,21.7,2.01,25.25,12.4l101.34,297.01
			C3990.15,2068.31,3984.6,2079.61,3974.2,2083.16z"/>
		<path class="st18" d="M3899.23,1801.84c-14.67,24.27-67.9,112.24-74.89,122.99c-8.11,12.48-26.21-18.1-62.4-11.86
			c-36.19,6.24-66.77,26.83-46.18,36.19c0,0-30.14-4.24-47.09-16.6l33.72,98.82c25.95,12.94,94.92,42.29,138.8,13.87
			c38.64-25.03,83.76-73.22,107.11-99.59L3899.23,1801.84z"/>
	</g>
	<g>
		<path class="st8" d="M4052.55,1768.81l-0.65,3.83c-2.87,16.8-9.65,32.67-19.82,46.34c-43.16,57.99-150.93,196.43-195.15,208.56
			c-91.83,25.19-80.16-20.45-75.06-23.78c108.14-70.71,167.69-282.38,213.34-287.43
			C4052.61,1707.78,4052.55,1768.81,4052.55,1768.81z"/>
		<path class="st8" d="M3832.64,1963.76c-24.22-9.21-41.32-4.82-84.69-3.02c-11.83,0.49-25.54-0.46-46.42-0.93
			c-11.49-4.42-23.49-12.76-35.34-19.97c-6.49-3.95-14,3.36-10.14,9.89c5.17,8.78,12.53,18.03,24.64,28.92
			c-10.63,9.54,25.45,27.93,33.25,34.5c44.08,37.09,111.96,32.45,137,4.7C3853.18,2015.37,3865.37,2001.27,3832.64,1963.76z"/>
		<path class="st8" d="M3855.01,1970.15c0,0-17.25-21.27-59.44-45.58c-24.62-14.18-77.82,3.29-78.17,14.15
			c-0.55,17.1,61.57,10.61,61.57,10.61c2.89,8.1-47.2,11.9-47.2,11.9C3701.3,1970.02,3855.01,1970.15,3855.01,1970.15z"/>
	</g>
</g>
<polygon class="st688" points="2491.53,1637.66 2541.41,1653.24 2544.89,1685.43 2586.4,1663.42 2649.25,1693.07 2662.47,1546.03 
	"/>
<g class="st689">
	<path class="st690" d="M2330.03,1520.74c-1.22-0.09-2.4-0.01-3.57,0.19c-2.3,0.4-4.51,1.27-6.67,2.26
		c-5.44,2.49-8.62,4.31-13.29,8.04c-7.33,5.84-13.95,10.36-20.29,19.93c-0.63,0.95-2.59,5.03-2.76,6.12l10.74-10.59
		c0,0-14.12,18.03-18.56,40.77c0,0,34.95-19.47,41.21-30.49c0,0-5.05,9.78-7.95,14.02c0.88-1.29,2.3-2.41,3.36-3.56
		c2.71-2.94,5.35-5.94,7.91-9.01c3.19-3.81,6.26-7.73,9.09-11.81c2.31-3.33,4.56-6.84,6.29-10.55c1.54-3.3,3.1-7.3,2.01-10.96
		C2336.6,1521.98,2332.9,1520.96,2330.03,1520.74z"/>
	<path class="st690" d="M2405.24,1539.34c-0.37-0.03-0.74,0-1.09,0.06c-0.71,0.12-1.38,0.39-2.04,0.69
		c-1.67,0.76-2.64,1.32-4.07,2.46c-2.25,1.79-4.27,3.17-6.22,6.11c-0.19,0.29-0.79,1.54-0.85,1.87l3.29-3.24
		c0,0-4.33,5.52-5.69,12.49c0,0,10.71-5.96,12.63-9.34c0,0-1.55,3-2.44,4.3c0.27-0.4,0.7-0.74,1.03-1.09
		c0.83-0.9,1.64-1.82,2.42-2.76c0.98-1.17,1.92-2.37,2.79-3.62c0.71-1.02,1.4-2.1,1.93-3.23c0.47-1.01,0.95-2.23,0.62-3.36
		C2407.25,1539.72,2406.12,1539.41,2405.24,1539.34z"/>
	<path class="st690" d="M2294.55,1480.01c0,0-1.55,3-2.44,4.3c0.27-0.4,0.7-0.74,1.03-1.09c0.83-0.9,1.64-1.82,2.42-2.76
		c0.98-1.17,1.92-2.37,2.79-3.62c0.71-1.02,1.4-2.1,1.93-3.23c0.47-1.01,0.95-2.24,0.62-3.36c-0.29-0.96-1.42-1.27-2.3-1.33
		c-0.37-0.03-0.74,0-1.09,0.06c-0.71,0.12-1.38,0.39-2.04,0.69c-1.67,0.76-2.64,1.32-4.07,2.46c-2.25,1.79-4.27,3.17-6.22,6.11
		c-0.19,0.29-0.79,1.54-0.85,1.87l3.29-3.24c0,0-4.33,5.52-5.69,12.49C2281.92,1489.35,2292.63,1483.39,2294.55,1480.01z"/>
	<path class="st690" d="M2468.28,1374.04c5.57-8.81,3.74-30.72,3.74-30.72c-6.67,0.71-26.61,10.64-29.79,14
		c-3.18,3.36-23.34,24.94-23.34,24.94l-61.5,26.02c1.11-5.34,1.28-9.76,1.28-9.76c-9.59,2.22-14.16,7-14.16,7l-6.63,8.85
		l-27.59,8.61l2.17-3.31l0.59-3l-3.38,1.02l-19.88,23.77l1.63,2.47l3.66-3.81l12.15,15.13l-1.05,1.41l0.95,1.23l-1.55,1.77
		l4.59,6.08l1.44-2.04l1.58,2.04l1.2-1.58l23.55,34l-5.41,12.08l5.65,4.72l4.05-1.28l0.2,3.69l6.09,4.16l11.82-9.22l49.83,15.68
		l-1.7,2.13l2.52,1.26l-1.8,2.01l7.42,3.47l1.42-1.96l1.84,0.92l3.31-3.74l25.21,7.93l-1.17,3.26l2.42,1.29l16.66-21.12l-0.15-2.83
		l-3.33,0.53l-2.21,2.6l-1.64-31.91c3.47-4.35,5.96-7.89,6.52-9.66c2.36-7.51,2.66-15.17,2.66-15.17c-4.41,1-7.81,2.49-10.26,3.87
		l-3.76-73.01C2454.11,1397.86,2462.71,1382.85,2468.28,1374.04z"/>
</g>
<g>
	<path class="st691" d="M2376.56,2009.95l-0.87-0.17c0.01-0.04,0.75-3.88,2.15-10.49l0.87,0.18
		C2377.31,2006.08,2376.57,2009.92,2376.56,2009.95z M2380.97,1989.08l-0.86-0.19c0.7-3.17,1.49-6.65,2.36-10.39l0.86,0.2
		C2382.46,1982.44,2381.68,1985.91,2380.97,1989.08z M2385.77,1968.34l-0.86-0.21c0.79-3.31,1.64-6.76,2.53-10.34l0.86,0.21
		C2387.41,1961.58,2386.56,1965.03,2385.77,1968.34z M2390.91,1947.7l-0.86-0.22c0.87-3.35,1.77-6.79,2.7-10.29l0.86,0.23
		C2392.67,1940.91,2391.77,1944.35,2390.91,1947.7z M2396.4,1927.15l-0.85-0.24c0.93-3.37,1.9-6.79,2.89-10.24l0.85,0.25
		C2398.3,1920.37,2397.34,1923.79,2396.4,1927.15z M2402.28,1906.72l-0.85-0.25c1.01-3.37,2.04-6.77,3.1-10.18l0.84,0.26
		C2404.33,1899.96,2403.29,1903.35,2402.28,1906.72z M2408.6,1886.43l-0.84-0.27c1.11-3.43,2.24-6.82,3.35-10.09l0.84,0.28
		C2410.84,1879.61,2409.71,1883,2408.6,1886.43z M2415.44,1866.29l-0.83-0.3c1.21-3.39,2.43-6.75,3.65-9.99l0.83,0.31
		C2417.87,1859.54,2416.65,1862.9,2415.44,1866.29z M2422.9,1846.39l-0.82-0.32c1.33-3.35,2.68-6.67,4.01-9.86l0.82,0.34
		C2425.57,1839.73,2424.22,1843.04,2422.9,1846.39z M2431.13,1826.81l-0.81-0.36c1.48-3.31,3-6.55,4.5-9.65l0.8,0.39
		C2434.12,1820.27,2432.61,1823.51,2431.13,1826.81z M2440.4,1807.71l-0.78-0.41c1.71-3.24,3.45-6.37,5.16-9.31l0.76,0.45
		C2443.84,1801.36,2442.1,1804.48,2440.4,1807.71z M2451.13,1789.41l-0.74-0.49c2.04-3.1,4.12-6.03,6.17-8.69l0.7,0.54
		C2455.22,1783.42,2453.16,1786.33,2451.13,1789.41z M2464.06,1772.66l-0.66-0.59l7.05-7.95l0.66,0.59L2464.06,1772.66z
		 M2478.15,1756.75l-0.66-0.59c2.33-2.63,4.67-5.29,7.04-7.96l0.66,0.59C2482.82,1751.46,2480.48,1754.12,2478.15,1756.75z
		 M2492.21,1740.82l-0.66-0.59c2.33-2.64,4.67-5.3,7.01-7.97l0.66,0.58C2496.89,1735.51,2494.55,1738.17,2492.21,1740.82z
		 M2506.24,1724.87l-0.67-0.58c2.34-2.67,4.68-5.34,7.01-8l0.67,0.58C2510.92,1719.53,2508.59,1722.2,2506.24,1724.87z
		 M2520.25,1708.86l-0.67-0.58c2.34-2.68,4.67-5.36,6.98-8.01l0.67,0.58C2524.92,1703.5,2522.59,1706.18,2520.25,1708.86z
		 M2534.19,1692.82l-0.67-0.58c2.35-2.71,4.66-5.39,6.95-8.04l0.67,0.58C2538.86,1687.43,2536.54,1690.11,2534.19,1692.82z
		 M2548.06,1676.72l-0.67-0.58c2.35-2.74,4.65-5.44,6.9-8.08l0.67,0.57C2552.72,1671.28,2550.41,1673.97,2548.06,1676.72z
		 M2561.83,1660.52l-0.68-0.57c2.36-2.8,4.64-5.52,6.82-8.15l0.68,0.56C2566.47,1655,2564.19,1657.72,2561.83,1660.52z
		 M2575.43,1644.17l-0.68-0.56c2.41-2.94,4.66-5.72,6.68-8.26l0.69,0.55C2580.09,1638.44,2577.84,1641.23,2575.43,1644.17z
		 M2588.68,1627.53l-0.7-0.54c2.59-3.39,4.69-6.28,6.24-8.58l0.73,0.49C2593.38,1621.22,2591.28,1624.12,2588.68,1627.53z"/>
</g>
<polygon class="st688" points="1951.32,1569.49 1992.34,1592.72 1986.54,1639.61 2036.03,1613.36 2099.73,1633.62 2112.11,1495.97 
	"/>
<g>
	<path class="st691" d="M1749.96,2009.56l-0.7-0.54c1.99-2.56,4.3-5.29,6.87-8.14l0.66,0.59
		C1754.23,2004.29,1751.93,2007.02,1749.96,2009.56z M1764.07,1993.77l-0.63-0.62c2.33-2.36,4.88-4.86,7.6-7.44l0.61,0.64
		C1768.94,1988.92,1766.39,1991.42,1764.07,1993.77z M1779.43,1979.12l-0.6-0.65c2.46-2.24,5.13-4.62,7.93-7.08l0.58,0.67
		C1784.55,1974.51,1781.88,1976.89,1779.43,1979.12z M1795.36,1965.09l-0.58-0.67c2.65-2.28,5.36-4.57,8.1-6.88l0.57,0.68
		C1800.72,1960.53,1798.02,1962.82,1795.36,1965.09z M1811.61,1951.41l-0.56-0.68c2.71-2.25,5.44-4.5,8.19-6.77l0.56,0.68
		C1817.05,1946.91,1814.31,1949.16,1811.61,1951.41z M1828.02,1937.9l-0.56-0.68l8.23-6.72l0.56,0.69L1828.02,1937.9z
		 M1844.47,1924.46l-0.56-0.68c2.75-2.25,5.49-4.49,8.21-6.73l0.56,0.68C1849.95,1919.96,1847.22,1922.21,1844.47,1924.46z
		 M1860.87,1910.96l-0.57-0.68c2.75-2.28,5.47-4.55,8.15-6.81l0.57,0.68C1866.34,1906.41,1863.62,1908.68,1860.87,1910.96z
		 M1877.12,1897.27l-0.58-0.67c2.76-2.37,5.46-4.7,8.01-6.95l0.61,0.64l-0.08,0.06C1882.59,1892.56,1879.89,1894.9,1877.12,1897.27z
		 M1892.78,1882.85l-0.65-0.6c2.24-2.39,4.6-5.08,7-7.97l0.68,0.56C1897.4,1877.75,1895.03,1880.44,1892.78,1882.85z
		 M1906.45,1866.51l-0.7-0.54c2.05-2.68,4.17-5.56,6.31-8.54l0.72,0.52C1910.63,1860.93,1908.5,1863.81,1906.45,1866.51z
		 M1918.86,1849.2l-0.73-0.5c1.93-2.84,3.91-5.81,5.88-8.85l0.74,0.48C1922.77,1843.38,1920.79,1846.36,1918.86,1849.2z
		 M1930.47,1831.37l-0.75-0.47c1.84-2.93,3.71-5.98,5.57-9.05l0.76,0.46C1934.19,1825.38,1932.32,1828.43,1930.47,1831.37z
		 M1941.51,1813.18l-0.76-0.45c1.75-2.98,3.55-6.07,5.33-9.19l0.77,0.44C1945.06,1807.1,1943.26,1810.19,1941.51,1813.18z
		 M1952.08,1794.71l-0.77-0.43c1.73-3.1,3.44-6.2,5.13-9.32l0.78,0.42C1955.52,1788.5,1953.81,1791.62,1952.08,1794.71z
		 M1962.25,1776.03l-0.78-0.41c1.67-3.14,3.32-6.28,4.94-9.41l0.78,0.41C1965.57,1769.74,1963.92,1772.88,1962.25,1776.03z
		 M1972.05,1757.15l-0.79-0.4c1.62-3.19,3.21-6.36,4.76-9.5l0.79,0.39C1975.26,1750.78,1973.67,1753.95,1972.05,1757.15z
		 M1981.48,1738.07l-0.8-0.38c1.57-3.25,3.09-6.46,4.56-9.6l0.8,0.37C1984.58,1731.61,1983.05,1734.82,1981.48,1738.07z
		 M1990.51,1718.8l-0.81-0.37c1.5-3.3,2.95-6.56,4.33-9.71l0.81,0.35C1993.47,1712.23,1992.01,1715.5,1990.51,1718.8z
		 M1999.02,1699.29l-0.82-0.34c1.44-3.47,2.78-6.79,3.97-9.86l0.82,0.32C2001.81,1692.49,2000.47,1695.81,1999.02,1699.29z
		 M2006.69,1679.4l-0.84-0.29c1.36-3.94,2.4-7.35,3.1-10.14l0.86,0.21C2009.11,1672,2008.06,1675.44,2006.69,1679.4z
		 M2011.73,1658.71l-0.87-0.18c0.63-3.07,1.51-6.55,2.61-10.34l0.85,0.25C2013.23,1652.2,2012.36,1655.66,2011.73,1658.71z
		 M2017.51,1638.31l-0.84-0.28c1.07-3.17,2.27-6.54,3.56-10.03l0.83,0.31C2019.77,1631.78,2018.57,1635.15,2017.51,1638.31z
		 M2024.86,1618.38l-0.82-0.32c1.26-3.17,2.6-6.49,4-9.86l0.82,0.34C2027.46,1611.9,2026.12,1615.21,2024.86,1618.38z M2033,1598.75
		l-0.81-0.35c1.39-3.21,2.83-6.48,4.28-9.74l0.81,0.36C2035.83,1592.27,2034.39,1595.55,2033,1598.75z M2041.68,1579.34l-0.8-0.37
		c2.74-5.92,4.53-9.63,4.55-9.66l0.8,0.39C2046.2,1569.72,2044.41,1573.42,2041.68,1579.34z"/>
</g>
<polygon class="st688" points="1593.18,1842.4 1630.84,1863.73 1625.51,1906.76 1670.95,1882.67 1729.42,1901.27 1740.77,1774.92 
	"/>
<polygon class="st688" points="2175.06,1869.71 2216.08,1892.94 2210.28,1939.83 2259.78,1913.58 2323.47,1933.84 2335.85,1796.19 
	"/>
<g>
	<path class="st691" d="M2168.37,2009.98l-0.86-0.21c0.01-0.04,0.96-3.9,2.84-10.32l0.85,0.25
		C2169.33,2006.09,2168.38,2009.94,2168.37,2009.98z M2174.31,1989.52l-0.84-0.27c1.07-3.36,2.2-6.76,3.35-10.11l0.84,0.29
		C2176.51,1982.78,2175.38,1986.17,2174.31,1989.52z M2181.23,1969.42l-0.83-0.31c1.23-3.34,2.51-6.69,3.8-9.94l0.82,0.32
		C2183.73,1962.75,2182.46,1966.09,2181.23,1969.42z M2189.05,1949.67l-0.81-0.35c1.4-3.3,2.84-6.58,4.28-9.74l0.81,0.37
		C2191.89,1943.1,2190.45,1946.37,2189.05,1949.67z M2197.87,1930.34l-0.79-0.39c1.58-3.23,3.21-6.42,4.84-9.48l0.78,0.41
		C2201.07,1923.94,2199.45,1927.12,2197.87,1930.34z M2207.82,1911.61l-0.77-0.44c1.8-3.12,3.65-6.19,5.5-9.12l0.75,0.47
		C2211.46,1905.44,2209.62,1908.49,2207.82,1911.61z M2219.16,1893.68l-0.73-0.51c2.07-2.97,4.19-5.86,6.31-8.58l0.7,0.54
		C2223.34,1887.84,2221.22,1890.71,2219.16,1893.68z M2232.19,1876.97l-0.66-0.58c2.4-2.72,4.86-5.33,7.32-7.74l0.62,0.63
		C2237.02,1871.67,2234.58,1874.26,2232.19,1876.97z M2247.31,1862.19l-0.56-0.68c2.81-2.32,5.68-4.46,8.54-6.37l0.49,0.74
		C2252.94,1857.77,2250.09,1859.89,2247.31,1862.19z"/>
</g>
<g>
	<path class="st691" d="M1568.17,2010.03l-0.83-0.31l0.65-1.72l0.83,0.31L1568.17,2010.03z M1572.67,1998.42l-0.82-0.33
		c1.31-3.26,2.67-6.57,4.04-9.83l0.82,0.34C1575.33,1991.86,1573.97,1995.17,1572.67,1998.42z M1580.92,1978.88l-0.81-0.36
		c1.43-3.22,2.92-6.47,4.41-9.67l0.8,0.37C1583.83,1972.42,1582.35,1975.67,1580.92,1978.88z M1589.92,1959.67l-0.79-0.39
		c1.57-3.19,3.18-6.39,4.78-9.49l0.79,0.41C1593.09,1953.29,1591.49,1956.48,1589.92,1959.67z M1599.65,1940.81l-0.78-0.42
		c1.68-3.11,3.41-6.24,5.15-9.3l0.77,0.44C1603.05,1934.58,1601.33,1937.71,1599.65,1940.81z M1610.1,1922.35l-0.76-0.45
		c1.81-3.05,3.66-6.11,5.51-9.09l0.75,0.47C1613.76,1916.25,1611.91,1919.3,1610.1,1922.35z M1621.28,1904.31l-0.74-0.48
		c1.93-2.98,3.91-5.96,5.87-8.86l0.73,0.5C1625.18,1898.36,1623.21,1901.34,1621.28,1904.31z M1633.19,1886.75l-0.72-0.51
		c2.06-2.91,4.16-5.8,6.24-8.61l0.71,0.53C1637.34,1880.95,1635.24,1883.84,1633.19,1886.75z M1645.82,1869.7l-0.7-0.54
		c2.19-2.82,4.41-5.62,6.62-8.32l0.69,0.56C1650.23,1864.09,1648.01,1866.88,1645.82,1869.7z M1659.23,1853.25l-0.67-0.58
		c2.34-2.73,4.71-5.42,7.03-7.98l0.66,0.59C1663.92,1847.84,1661.57,1850.52,1659.23,1853.25z M1673.49,1837.53l-0.64-0.62
		c4.76-4.92,7.58-7.46,7.6-7.49l0.59,0.66C1681.02,1830.11,1678.22,1832.64,1673.49,1837.53z"/>
</g>
<polygon class="st688" points="2562.28,1842.01 2599.94,1863.33 2594.61,1906.37 2640.04,1882.28 2698.51,1900.88 2709.87,1774.52 
	"/>
<g>
	<path class="st691" d="M2542.5,1999.88l-0.7-0.53c2.16-2.85,4.29-5.68,6.38-8.48l0.71,0.53
		C2546.8,1994.2,2544.67,1997.03,2542.5,1999.88z M2555.21,1982.86l-0.71-0.52c2.12-2.89,4.2-5.75,6.25-8.58l0.72,0.52
		C2559.42,1977.11,2557.34,1979.97,2555.21,1982.86z M2567.65,1965.64l-0.72-0.51c2.08-2.93,4.11-5.82,6.11-8.68l0.73,0.51
		C2571.77,1959.82,2569.73,1962.71,2567.65,1965.64z M2579.8,1948.22l-0.73-0.5c2.03-2.97,4.02-5.9,5.96-8.78l0.73,0.49
		C2583.83,1942.32,2581.84,1945.25,2579.8,1948.22z M2591.66,1930.59l-0.74-0.49c1.99-3.02,3.93-5.98,5.81-8.88l0.74,0.48
		C2595.59,1924.61,2593.65,1927.58,2591.66,1930.59z M2603.2,1912.76l-0.75-0.47c1.95-3.07,3.83-6.06,5.64-8.99l0.75,0.47
		C2607.03,1906.69,2605.15,1909.69,2603.2,1912.76z M2614.41,1894.71l-0.76-0.46c1.9-3.13,3.72-6.16,5.46-9.1l0.76,0.45
		C2618.13,1888.54,2616.31,1891.58,2614.41,1894.71z M2625.25,1876.44l-0.77-0.44c1.76-3.04,3.53-6.15,5.26-9.22l0.77,0.43
		C2628.79,1870.28,2627.01,1873.39,2625.25,1876.44z M2635.67,1857.92l-0.78-0.43c1.74-3.18,3.43-6.33,5.02-9.35l0.78,0.41
		C2639.11,1851.58,2637.42,1854.73,2635.67,1857.92z M2645.58,1839.12l-0.79-0.4c3.1-6.14,4.64-9.51,4.65-9.54l0.81,0.37
		C2650.24,1829.58,2648.69,1832.95,2645.58,1839.12z"/>
</g>
<g>
	<linearGradient id="SVGID_3_" gradientUnits="userSpaceOnUse" x1="2266.115" y1="1303.4812" x2="2479.4419" y2="1279.9648">
		<stop  offset="0.0112" style="stop-color:#671F07"/>
		<stop  offset="1" style="stop-color:#DA1C1C"/>
	</linearGradient>
	<polygon style="fill:url(#SVGID_3_);" points="2530.12,1229.48 2334.06,1312.58 2398.11,1333.83 	"/>
	<linearGradient id="SVGID_5_" gradientUnits="userSpaceOnUse" x1="2438.9282" y1="1223.1503" x2="2518.9031" y2="1459.5466">
		<stop  offset="0.0112" style="stop-color:#671F07"/>
		<stop  offset="1" style="stop-color:#DA1C1C"/>
	</linearGradient>
	<polygon style="fill:url(#SVGID_5_);" points="2398.11,1333.83 2404.47,1384.51 2530.12,1229.48 	"/>
	<linearGradient id="SVGID_7_" gradientUnits="userSpaceOnUse" x1="2468.5549" y1="1296.7548" x2="2460.4543" y2="1362.571">
		<stop  offset="0.0112" style="stop-color:#671F07"/>
		<stop  offset="1" style="stop-color:#DA1C1C"/>
	</linearGradient>
	<polygon style="fill:url(#SVGID_7_);" points="2404.47,1384.51 2433.36,1338.01 2530.12,1229.48 	"/>
	<linearGradient id="SVGID_9_" gradientUnits="userSpaceOnUse" x1="2476.427" y1="1204.0267" x2="2484.6895" y2="1327.9606">
		<stop  offset="0.0112" style="stop-color:#671F07"/>
		<stop  offset="1" style="stop-color:#DA1C1C"/>
	</linearGradient>
	<polygon style="fill:url(#SVGID_9_);" points="2433.36,1338.01 2519.15,1384.51 2530.12,1229.48 	"/>
</g>
<g>
	
		<linearGradient id="SVGID_11_" gradientUnits="userSpaceOnUse" x1="2577.7104" y1="1434.0876" x2="2776.7751" y2="1434.0876" gradientTransform="matrix(0.9986 -0.0535 0.0535 0.9986 -115.5268 212.2626)">
		<stop  offset="0.0112" style="stop-color:#E4E4E4"/>
		<stop  offset="1" style="stop-color:#FFFFFF"/>
	</linearGradient>
	<polygon style="fill:url(#SVGID_11_);" points="2731.19,1441.74 2536.9,1536.37 2596.18,1557.37 	"/>
	
		<linearGradient id="SVGID_13_" gradientUnits="userSpaceOnUse" x1="2682.123" y1="1376.6697" x2="2758.0886" y2="1601.2151" gradientTransform="matrix(0.9986 -0.0535 0.0535 0.9986 -115.5268 212.2626)">
		<stop  offset="0.1564" style="stop-color:#B2B2B2"/>
		<stop  offset="0.8352" style="stop-color:#F8F8F8"/>
		<stop  offset="1" style="stop-color:#FFFFFF"/>
	</linearGradient>
	<polygon style="fill:url(#SVGID_13_);" points="2596.18,1557.37 2604.13,1601.46 2731.19,1441.74 	"/>
	
		<linearGradient id="SVGID_15_" gradientUnits="userSpaceOnUse" x1="2641.3591" y1="1456.313" x2="2776.7751" y2="1456.313" gradientTransform="matrix(0.9986 -0.0535 0.0535 0.9986 -115.5268 212.2626)">
		<stop  offset="0.3132" style="stop-color:#4D4D4D"/>
		<stop  offset="0.8352" style="stop-color:#F8F8F8"/>
		<stop  offset="1" style="stop-color:#FFFFFF"/>
	</linearGradient>
	<polygon style="fill:url(#SVGID_15_);" points="2604.13,1601.46 2624.34,1559.01 2731.19,1441.74 	"/>
	
		<linearGradient id="SVGID_17_" gradientUnits="userSpaceOnUse" x1="2663.8088" y1="1456.4647" x2="2776.7751" y2="1456.4647" gradientTransform="matrix(0.9986 -0.0535 0.0535 0.9986 -115.5268 212.2626)">
		<stop  offset="0.0112" style="stop-color:#E4E4E4"/>
		<stop  offset="1" style="stop-color:#FFFFFF"/>
	</linearGradient>
	<polygon style="fill:url(#SVGID_17_);" points="2624.34,1559.01 2710.25,1596.08 2731.19,1441.74 	"/>
</g>
<g>
	
		<linearGradient id="SVGID_19_" gradientUnits="userSpaceOnUse" x1="2030.8307" y1="1351.2788" x2="2237.5813" y2="1351.2788" gradientTransform="matrix(0.9986 -0.0535 0.0535 0.9986 -115.5268 212.2626)">
		<stop  offset="0.0112" style="stop-color:#E4E4E4"/>
		<stop  offset="1" style="stop-color:#FFFFFF"/>
	</linearGradient>
	<polygon style="fill:url(#SVGID_19_);" points="2188.14,1384.51 1986.54,1486.32 2045.82,1507.32 	"/>
	
		<linearGradient id="SVGID_21_" gradientUnits="userSpaceOnUse" x1="2138.0349" y1="1290.7531" x2="2216.9648" y2="1524.0602" gradientTransform="matrix(0.9986 -0.0535 0.0535 0.9986 -115.5268 212.2626)">
		<stop  offset="0.1564" style="stop-color:#B2B2B2"/>
		<stop  offset="0.8352" style="stop-color:#F8F8F8"/>
		<stop  offset="1" style="stop-color:#FFFFFF"/>
	</linearGradient>
	<polygon style="fill:url(#SVGID_21_);" points="2045.82,1507.32 2053.77,1551.41 2188.14,1384.51 	"/>
	
		<linearGradient id="SVGID_23_" gradientUnits="userSpaceOnUse" x1="2094.4795" y1="1373.504" x2="2237.5813" y2="1373.504" gradientTransform="matrix(0.9986 -0.0535 0.0535 0.9986 -115.5268 212.2626)">
		<stop  offset="0.3132" style="stop-color:#4D4D4D"/>
		<stop  offset="0.8352" style="stop-color:#F8F8F8"/>
		<stop  offset="1" style="stop-color:#FFFFFF"/>
	</linearGradient>
	<polygon style="fill:url(#SVGID_23_);" points="2053.77,1551.41 2073.98,1508.96 2188.14,1384.51 	"/>
	
		<linearGradient id="SVGID_25_" gradientUnits="userSpaceOnUse" x1="2116.929" y1="1373.6558" x2="2237.5813" y2="1373.6558" gradientTransform="matrix(0.9986 -0.0535 0.0535 0.9986 -115.5268 212.2626)">
		<stop  offset="0.0112" style="stop-color:#E4E4E4"/>
		<stop  offset="1" style="stop-color:#FFFFFF"/>
	</linearGradient>
	<polygon style="fill:url(#SVGID_25_);" points="2073.98,1508.96 2159.88,1546.03 2188.14,1384.51 	"/>
</g>
<g>
	
		<linearGradient id="SVGID_27_" gradientUnits="userSpaceOnUse" x1="1655.3672" y1="1614.0289" x2="1845.1526" y2="1614.0289" gradientTransform="matrix(0.9986 -0.0535 0.0535 0.9986 -115.5268 212.2626)">
		<stop  offset="0.0112" style="stop-color:#E4E4E4"/>
		<stop  offset="1" style="stop-color:#FFFFFF"/>
	</linearGradient>
	<polygon style="fill:url(#SVGID_27_);" points="1810.57,1672.6 1625.51,1766.05 1679.93,1785.33 	"/>
	
		<linearGradient id="SVGID_29_" gradientUnits="userSpaceOnUse" x1="1753.7747" y1="1558.4697" x2="1826.2277" y2="1772.6326" gradientTransform="matrix(0.9986 -0.0535 0.0535 0.9986 -115.5268 212.2626)">
		<stop  offset="0.1564" style="stop-color:#B2B2B2"/>
		<stop  offset="0.8352" style="stop-color:#F8F8F8"/>
		<stop  offset="1" style="stop-color:#FFFFFF"/>
	</linearGradient>
	<polygon style="fill:url(#SVGID_29_);" points="1679.93,1785.33 1687.22,1825.8 1810.57,1672.6 	"/>
	
		<linearGradient id="SVGID_31_" gradientUnits="userSpaceOnUse" x1="1713.793" y1="1634.4305" x2="1845.1526" y2="1634.4305" gradientTransform="matrix(0.9986 -0.0535 0.0535 0.9986 -115.5268 212.2626)">
		<stop  offset="0.3132" style="stop-color:#4D4D4D"/>
		<stop  offset="0.8352" style="stop-color:#F8F8F8"/>
		<stop  offset="1" style="stop-color:#FFFFFF"/>
	</linearGradient>
	<polygon style="fill:url(#SVGID_31_);" points="1687.22,1825.8 1705.77,1786.84 1810.57,1672.6 	"/>
	
		<linearGradient id="SVGID_33_" gradientUnits="userSpaceOnUse" x1="1734.4005" y1="1634.5698" x2="1845.1526" y2="1634.5698" gradientTransform="matrix(0.9986 -0.0535 0.0535 0.9986 -115.5268 212.2626)">
		<stop  offset="0.0112" style="stop-color:#E4E4E4"/>
		<stop  offset="1" style="stop-color:#FFFFFF"/>
	</linearGradient>
	<polygon style="fill:url(#SVGID_33_);" points="1705.77,1786.84 1784.63,1820.86 1810.57,1672.6 	"/>
</g>
<g>
	
		<linearGradient id="SVGID_35_" gradientUnits="userSpaceOnUse" x1="2615.5115" y1="1663.1801" x2="2801.0093" y2="1663.1801" gradientTransform="matrix(0.9986 -0.0535 0.0535 0.9986 -115.5268 212.2626)">
		<stop  offset="0.0112" style="stop-color:#E4E4E4"/>
		<stop  offset="1" style="stop-color:#FFFFFF"/>
	</linearGradient>
	<polygon style="fill:url(#SVGID_35_);" points="2767.59,1668.25 2587.26,1769.79 2649.03,1784.94 	"/>
	
		<linearGradient id="SVGID_37_" gradientUnits="userSpaceOnUse" x1="2713.3848" y1="1601.2128" x2="2791.9502" y2="1833.4426" gradientTransform="matrix(0.9986 -0.0535 0.0535 0.9986 -115.5268 212.2626)">
		<stop  offset="0.1564" style="stop-color:#B2B2B2"/>
		<stop  offset="0.8352" style="stop-color:#F8F8F8"/>
		<stop  offset="1" style="stop-color:#FFFFFF"/>
	</linearGradient>
	<polygon style="fill:url(#SVGID_37_);" points="2649.03,1784.94 2656.32,1825.41 2767.59,1668.25 	"/>
	
		<linearGradient id="SVGID_39_" gradientUnits="userSpaceOnUse" x1="2681.4927" y1="1683.5817" x2="2801.0093" y2="1683.5817" gradientTransform="matrix(0.9986 -0.0535 0.0535 0.9986 -115.5268 212.2626)">
		<stop  offset="0.3132" style="stop-color:#4D4D4D"/>
		<stop  offset="0.8352" style="stop-color:#F8F8F8"/>
		<stop  offset="1" style="stop-color:#FFFFFF"/>
	</linearGradient>
	<polygon style="fill:url(#SVGID_39_);" points="2656.32,1825.41 2674.87,1786.44 2767.59,1668.25 	"/>
	
		<linearGradient id="SVGID_41_" gradientUnits="userSpaceOnUse" x1="2702.1001" y1="1678.2428" x2="2801.0093" y2="1678.2428" gradientTransform="matrix(0.9986 -0.0535 0.0535 0.9986 -115.5268 212.2626)">
		<stop  offset="0.0112" style="stop-color:#E4E4E4"/>
		<stop  offset="1" style="stop-color:#FFFFFF"/>
	</linearGradient>
	<polygon style="fill:url(#SVGID_41_);" points="2674.87,1786.44 2754.73,1809.44 2767.59,1668.25 	"/>
</g>
<g>
	
		<linearGradient id="SVGID_43_" gradientUnits="userSpaceOnUse" x1="2238.1838" y1="1663.0282" x2="2444.9343" y2="1663.0282" gradientTransform="matrix(0.9986 -0.0535 0.0535 0.9986 -115.5268 212.2626)">
		<stop  offset="0.0112" style="stop-color:#E4E4E4"/>
		<stop  offset="1" style="stop-color:#FFFFFF"/>
	</linearGradient>
	<polygon style="fill:url(#SVGID_43_);" points="2411.88,1684.73 2210.28,1786.54 2269.56,1807.54 	"/>
	
		<linearGradient id="SVGID_45_" gradientUnits="userSpaceOnUse" x1="2345.3879" y1="1602.5026" x2="2424.3179" y2="1835.8097" gradientTransform="matrix(0.9986 -0.0535 0.0535 0.9986 -115.5268 212.2626)">
		<stop  offset="0.1564" style="stop-color:#B2B2B2"/>
		<stop  offset="0.8352" style="stop-color:#F8F8F8"/>
		<stop  offset="1" style="stop-color:#FFFFFF"/>
	</linearGradient>
	<polygon style="fill:url(#SVGID_45_);" points="2269.56,1807.54 2277.51,1851.63 2411.88,1684.73 	"/>
	
		<linearGradient id="SVGID_47_" gradientUnits="userSpaceOnUse" x1="2301.8325" y1="1685.2535" x2="2444.9343" y2="1685.2535" gradientTransform="matrix(0.9986 -0.0535 0.0535 0.9986 -115.5268 212.2626)">
		<stop  offset="0.3132" style="stop-color:#4D4D4D"/>
		<stop  offset="0.8352" style="stop-color:#F8F8F8"/>
		<stop  offset="1" style="stop-color:#FFFFFF"/>
	</linearGradient>
	<polygon style="fill:url(#SVGID_47_);" points="2277.51,1851.63 2297.72,1809.18 2411.88,1684.73 	"/>
	
		<linearGradient id="SVGID_49_" gradientUnits="userSpaceOnUse" x1="2324.282" y1="1685.4053" x2="2444.9343" y2="1685.4053" gradientTransform="matrix(0.9986 -0.0535 0.0535 0.9986 -115.5268 212.2626)">
		<stop  offset="0.0112" style="stop-color:#E4E4E4"/>
		<stop  offset="1" style="stop-color:#FFFFFF"/>
	</linearGradient>
	<polygon style="fill:url(#SVGID_49_);" points="2297.72,1809.18 2383.63,1846.25 2411.88,1684.73 	"/>
</g>
<polygon class="st688" points="2281.62,1493.85 2285.34,1507.18 2050.54,1773.4 "/>
<polygon class="st688" points="2250.24,1606.51 1990.86,1911.65 2239.36,1632.88 "/>
<polygon class="st688" points="2343.78,1563.74 2358.2,1563.74 2225.09,1712.14 "/>
<polygon class="st688" points="2058.66,1873.5 2067.02,1873.5 1989.86,1959.52 "/>
<text transform="matrix(1 0 0 1 1672.8499 2250.3174)" class="st2 st716 st717">MISSION &amp; VISION</text>
</svg>
