<?xml version="1.0" encoding="utf-8"?>
<!-- Generator: Adobe Illustrator 24.0.1, SVG Export Plug-In . SVG Version: 6.00 Build 0)  -->
<svg version="1.0" xmlns="http://www.w3.org/2000/svg" xmlns:xlink="http://www.w3.org/1999/xlink" x="0px" y="0px"
	 viewBox="0 0 3710 3710" style="enable-background:new 0 0 3710 3710;" xml:space="preserve">
<style type="text/css">
	.st0{fill:transparent;}
	.st1{opacity:0.5;fill:#02CC5E;}
	.st2{opacity:0.5;}
	.st3{fill:#02CC5E;}
	.st4{fill:#00A551;}
	.st5{fill:#BDD0FB;}
	.st6{fill:#037F3B;}
	.st7{fill:#09B758;}
	.st8{fill:url(#SVGID_1_);}
	.st9{fill:url(#SVGID_2_);}
	.st10{fill:url(#SVGID_3_);}
	.st11{fill:#8C6239;}
	.st12{fill:url(#SVGID_4_);}
	.st13{fill:url(#SVGID_5_);}
	.st14{opacity:0.5;fill:#FFFFFF;}
	.st15{clip-path:url(#XMLID_19_);fill:url(#XMLID_20_);}
	.st16{fill:#231F20;}
</style>
<g id="Background">
	<g>
		<g>
			<rect class="st0" width="3710" height="3710"/>
		</g>
	</g>
</g>
<g id="Illustration">
	<path class="st1" d="M2902.79,2839.28c-56.51,59.49-109.97,97.85-152.22,128.16c-496.55,356.28-1084.11,252.43-1208.98,227.07
		c-184.4-37.45-540.83-109.85-798.53-412.89C353.19,2323.13,413.9,1600.8,716.31,1123.98c55.32-87.22,347.51-571.3,941.4-648.93
		c359.41-46.98,778.37,47.77,1081.77,301.96C3376.34,1310.58,3331,2388.47,2902.79,2839.28z"/>
	<g class="st2">
		<g>
			<path class="st3" d="M678.69,501.63c-64.44,164.06-400.48,1134.11,453.16,1612.95c0,0,385.62-581.67-427.56-1616.76
				C697.17,488.77,682.9,490.91,678.69,501.63z"/>
			<path class="st1" d="M729.52,676.75c-1.18,59.15,0.1,118.45,2.56,177.62c2.51,59.18,6.45,118.31,11.85,177.29
				c10.85,117.95,27.29,235.44,51.37,351.36c24.2,115.84,55.89,230.33,99.67,340.18c10.85,27.49,22.75,54.55,35.32,81.26
				c12.54,26.74,26.1,52.99,40.63,78.66c28.87,51.46,62.18,100.41,99.98,145.55l0.03,0.04c1.97,2.35,1.66,5.85-0.69,7.82
				c-2.35,1.97-5.85,1.66-7.82-0.69l-0.02-0.02c-38.12-45.94-71.57-95.59-100.46-147.65c-14.55-25.98-28.1-52.5-40.61-79.49
				c-12.54-26.97-24.4-54.27-35.19-81.97c-43.55-110.72-74.83-225.8-98.58-342.09c-23.63-116.38-39.56-234.19-49.91-352.4
				c-5.15-59.11-8.83-118.34-11.07-177.63c-2.19-59.29-3.22-118.6-1.76-177.99c0.03-1.3,1.11-2.33,2.41-2.29
				c1.3,0.03,2.33,1.11,2.29,2.41L729.52,676.75z"/>
		</g>
		<g>
			<path class="st3" d="M460.23,1193.25c-16.24,98.97-87.23,678.8,444.91,843.15c0,0,145-369.69-431.12-848.32
				C468.97,1183.89,461.29,1186.79,460.23,1193.25z"/>
			<path class="st1" d="M510.07,1282.03c6.68,32.23,14.66,64.29,23.11,96.15c8.52,31.86,17.75,63.53,27.63,94.99
				c9.85,31.47,20.5,62.69,31.82,93.65c11.38,30.94,23.27,61.69,36.3,91.95c25.85,60.6,55.08,119.79,89.16,176.05
				c4.1,7.13,8.73,13.93,13.08,20.9l6.62,10.39c2.2,3.47,4.61,6.8,6.9,10.2c4.68,6.75,9.21,13.6,14,20.27l14.65,19.79
				c19.98,26.02,41.4,50.91,64.59,74l0.05,0.05c2.13,2.12,2.14,5.56,0.02,7.69c-2.12,2.13-5.56,2.14-7.69,0.02l-0.03-0.03
				c-23.44-23.7-44.97-49.14-65-75.65l-14.66-20.14c-4.79-6.78-9.32-13.74-13.99-20.6c-2.29-3.46-4.69-6.85-6.89-10.36l-6.6-10.54
				c-4.34-7.07-8.95-13.97-13.03-21.19c-33.92-57.01-62.83-116.78-88.32-177.85c-12.84-30.5-24.54-61.47-35.71-92.6
				c-11.11-31.15-21.54-62.55-31.17-94.18c-9.65-31.63-18.66-63.45-26.95-95.45c-8.23-32.03-15.96-64.15-22.42-96.65
				c-0.25-1.25,0.56-2.46,1.81-2.71c1.24-0.25,2.45,0.55,2.71,1.79L510.07,1282.03z"/>
		</g>
	</g>
	<g>
		<g>
			<path class="st4" d="M2347.81,1031.71c-1.49-0.56-2.59-1.93-2.72-3.59c-0.41-5.47-0.71-11.04-0.89-16.55
				c-0.07-2.27,1.73-4.13,4.03-4.17c5.58-0.13,4.07,5.45,5.18,20.25c0.17,2.26-1.56,4.2-3.86,4.33
				C2348.95,1032.02,2348.35,1031.92,2347.81,1031.71z"/>
			<path class="st4" d="M2345.86,960.01c1.02-10.49,2.48-21.06,4.34-31.43c0.4-2.22,2.56-3.68,4.83-3.26
				c6.18,1.2,2.15,4.68-0.86,35.59c-0.22,2.25-2.26,3.87-4.55,3.62C2347.3,964.28,2345.65,962.23,2345.86,960.01z M2362.51,878.59
				c3.18-10.09,6.82-20.25,10.71-29.82c2.08-5.15,9.76-1.8,7.76,3.13c-3.86,9.55-7.38,19.35-10.49,29.23
				c-0.68,2.16-3.01,3.33-5.22,2.63C2363.04,883.05,2361.83,880.72,2362.51,878.59z M2395.55,802.41
				c5.17-9.16,10.79-18.23,16.69-26.96c3.05-4.5,10,0.13,6.97,4.61c-5.78,8.55-11.28,17.44-16.35,26.41
				C2400.2,811.19,2392.89,807.11,2395.55,802.41z M2444.31,740.47c-1.75-1.5-1.95-4.09-0.45-5.79c6.99-7.9,14.4-15.62,22.02-22.95
				c3.92-3.77,9.8,2.13,5.89,5.9c-7.46,7.19-14.73,14.75-21.58,22.49C2448.69,741.82,2446.05,741.98,2444.31,740.47z
				 M2504.63,684.05c-1.41-1.82-1.06-4.39,0.76-5.74c8.51-6.31,17.38-12.37,26.37-17.99c4.63-2.88,9.18,4.04,4.56,6.94
				c-8.81,5.52-17.5,11.45-25.84,17.63C2508.66,686.24,2506.04,685.87,2504.63,684.05z M2577.83,643.12
				c-0.98-0.37-1.82-1.09-2.31-2.09c-1.01-2.05-0.14-4.49,1.93-5.45c9.67-4.47,19.62-8.61,29.6-12.32c2.15-0.8,4.56,0.28,5.41,2.4
				c0.84,2.12-0.21,4.48-2.36,5.28c-9.78,3.63-19.54,7.69-29.01,12.07C2580.03,643.5,2578.86,643.51,2577.83,643.12z M2656.6,616.03
				c-1.25-0.47-2.25-1.52-2.6-2.88c-0.56-2.21,0.79-4.41,3.02-4.94c10.4-2.43,21.03-4.49,31.61-6.11c2.27-0.35,4.43,1.18,4.82,3.42
				c0.39,2.24-1.14,4.33-3.41,4.68c-10.36,1.59-20.78,3.6-30.97,5.99C2658.22,616.39,2657.36,616.32,2656.6,616.03z M2736.85,601.64
				c-0.1-2.27,1.69-4.15,3.99-4.21c10.71-0.28,21.58-0.15,32.32,0.4c5.53,0.3,5.19,8.47-0.31,8.19
				c-10.52-0.54-21.17-0.67-31.67-0.39C2738.89,605.69,2736.94,603.91,2736.85,601.64z M3004.16,690.74
				c-24.99-19.09-30.61-18.78-27.18-23.95c1.25-1.89,3.83-2.39,5.77-1.14c9.02,5.85,17.93,12.12,26.47,18.64
				C3013.6,687.64,3008.56,694.09,3004.16,690.74z M2820.6,607.09c0.38-2.23,2.52-3.71,4.8-3.3c10.57,1.88,21.22,4.19,31.65,6.87
				c5.36,1.38,3.36,9.31-2,7.93c-10.22-2.63-20.66-4.89-31.02-6.73C2821.74,611.45,2820.23,609.3,2820.6,607.09z M2933.28,647.19
				c-28.28-13.67-33.79-12.27-31.51-18.06c1.44-3.67,5.89-2.3,5.39-2.28c10.05,3.94,20.04,8.31,29.71,12.98
				c2.08,1.01,2.96,3.47,1.97,5.5C2937.89,647.27,2935.49,648.22,2933.28,647.19z"/>
			<path class="st4" d="M3054.7,736.45c-9.58-10.24-15.53-13.7-11.54-17.61c1.62-1.59,4.26-1.57,5.9,0.05
				c10.34,10.19,15.52,14.25,11.54,17.84C3059.4,737.81,3056.27,738.12,3054.7,736.45z"/>
		</g>
		<g>
			<path class="st4" d="M3166.3,1035.38c-1.67-0.63-2.82-2.27-2.72-4.1c0.29-5.39,0.47-10.84,0.54-16.21
				c0.03-2.26,1.92-4.05,4.22-3.99c2.3,0.07,4.15,1.94,4.12,4.21c-0.07,5.48-0.25,11.05-0.55,16.55c-0.12,2.26-2.09,3.97-4.39,3.81
				C3167.1,1035.62,3166.69,1035.53,3166.3,1035.38z"/>
			<path class="st4" d="M2603.58,1379.82c-10.74-4.39-21.41-9.28-31.73-14.53c-2.06-1.05-2.89-3.52-1.85-5.53
				c2.92-5.66,5.28-0.35,36.69,12.5c2.14,0.87,3.18,3.28,2.32,5.37C2607.51,1381.27,2603.08,1379.84,2603.58,1379.82z
				 M2654.32,1392.76c1.58-6.15,5.23-1.45,38.44,4.42c2.28,0.39,3.81,2.54,3.44,4.76c-0.38,2.23-2.52,3.71-4.79,3.31
				c-11.36-2.01-22.82-4.52-34.06-7.47C2655.1,1397.19,2653.76,1394.94,2654.32,1392.76z M2523.19,1336.27
				c-9.51-6.58-18.86-13.65-27.8-21c-1.78-1.46-2.04-4.05-0.57-5.78c4.12-4.87,5.24,0.8,33.11,20.09c1.9,1.31,2.38,3.87,1.07,5.72
				C2527.69,1337.15,2525.09,1337.58,2523.19,1336.27z M2746.33,1411.08c-1.63-0.62-2.77-2.19-2.73-4c0.06-2.26,1.98-4.02,4.28-3.93
				c11.34,0.46,22.8,0.45,34.08-0.04c2.31-0.1,4.28,1.66,4.41,3.92c0.14,2.26-1.62,4.18-3.92,4.28
				c-11.52,0.49-23.22,0.51-34.79,0.04C2747.2,1411.33,2746.75,1411.24,2746.33,1411.08z M2836.22,1404.9
				c-1.32-0.5-2.36-1.63-2.65-3.09c-0.45-2.23,1.02-4.36,3.28-4.77c11.09-2,22.24-4.49,33.13-7.4c2.22-0.59,4.53,0.7,5.16,2.89
				c0.64,2.19-0.64,4.44-2.86,5.03c-11.11,2.98-22.49,5.52-33.82,7.55C2837.7,1405.25,2836.92,1405.16,2836.22,1404.9z
				 M2922.27,1379.45c-1.02-0.39-1.9-1.16-2.37-2.23c-0.93-2.09,0.02-4.49,2.13-5.38c10.35-4.34,20.64-9.17,30.59-14.36
				c2.02-1.05,4.56-0.28,5.66,1.72c1.1,2,0.36,4.49-1.66,5.54c-10.15,5.29-20.65,10.22-31.21,14.65
				C2924.37,1379.84,2923.25,1379.82,2922.27,1379.45z M3000.35,1336.09c-0.74-0.28-1.41-0.76-1.91-1.44
				c-1.37-1.84-0.97-4.41,0.88-5.72c9.11-6.47,18.06-13.4,26.58-20.61c1.73-1.47,4.37-1.26,5.89,0.47c1.52,1.73,1.34,4.31-0.39,5.78
				c-8.7,7.36-17.82,14.43-27.12,21.03C3003.1,1336.44,3001.63,1336.57,3000.35,1336.09z M3065.41,1276.11
				c-4.9-4.25,0.87-5.1,20.83-31.7c3.25-4.33,10,0.6,6.74,4.93c-6.81,9.08-14.1,17.98-21.68,26.45
				C3069.79,1277.46,3067.16,1277.63,3065.41,1276.11z M3117.43,1204.31c-5.71-3.09-0.33-5.14,13.13-35.52
				c2.18-4.93,9.86-1.59,7.66,3.37c-4.59,10.37-9.69,20.65-15.14,30.57C3121.97,1204.73,3119.41,1205.4,3117.43,1204.31z
				 M3151.61,1122.73c-2.02-0.76-3.16-2.93-2.57-4.99c3.07-10.72,5.7-21.66,7.82-32.51c0.44-2.22,2.62-3.64,4.89-3.18
				c2.27,0.47,3.74,2.63,3.31,4.85c-2.17,11.07-4.86,22.23-7.99,33.17c-0.62,2.17-2.92,3.41-5.14,2.77
				C3151.82,1122.8,3151.72,1122.77,3151.61,1122.73z"/>
			<path class="st4" d="M2454.09,1276.32c-9.87-10.66-14.84-14.93-10.7-18.33c4.31-3.54,6.73,1.95,16.83,12.86
				c1.56,1.69,1.46,4.28-0.24,5.79C2458.29,1278.15,2455.65,1278.01,2454.09,1276.32z"/>
		</g>
		<g>
			<g>
				<path class="st4" d="M2499.71,1172.64l59.3-7.34c18.07,21.25,39.67,39.88,64.31,54.87c2.31,57.18-1.58,61.35,4.53,63.39
					l68.34,22.77c2,0.66,4.18,0.02,5.45-1.61l35.99-46.46c28.68,2.77,57.1,0.81,84.25-5.38l43.14,41.47
					c1.51,1.45,3.78,1.82,5.65,0.91l63.97-31.17c1.87-0.91,2.93-2.9,2.63-4.94l-8.37-58.41c21.35-17.44,39.97-38.39,54.85-62.39
					l59.84-0.22c2.1-0.01,3.94-1.32,4.59-3.28l22.13-66.84c0.65-1.95-0.04-4.11-1.72-5.38l-47.82-36.09
					c2.39-28.16-0.04-56.12-6.74-82.91c39.7-41.66,45.28-41.7,42.38-47.33c-33.14-61.59-31.25-66.83-37.75-66.03l-59.3,7.34
					c-18.07-21.25-39.67-39.88-64.31-54.87c-2.31-57.15,1.58-61.35-4.53-63.39c-68.29-21.45-69.92-26.15-73.79-21.16l-35.99,46.46
					c-28.68-2.77-57.1-0.81-84.25,5.38c-42.46-39.18-43.02-45.19-48.79-42.38c-62.76,31.95-67.51,29.8-66.61,36.11l8.37,58.41
					c-21.35,17.44-39.97,38.4-54.85,62.39c-57.12,1.38-62.41-2.6-64.43,3.5c-20.7,66.52-25.58,68.32-20.41,72.22l47.82,36.09
					c-2.39,28.15,0.04,56.12,6.74,82.91c-39.57,41.52-45.29,41.67-42.38,47.33C2495.1,1168.2,2493.22,1173.44,2499.71,1172.64z"/>
			</g>
			<g>
				<path class="st4" d="M2689.3,995.88c2.54-37.84,35.97-66.13,74.5-63.05c38.53,3.08,67.82,36.36,65.28,74.2
					c-2.55,37.84-35.97,66.13-74.51,63.06l0,0C2716.03,1067.01,2686.76,1033.71,2689.3,995.88z M2754.99,1063.95l0.04,0.01
					L2754.99,1063.95z M2762.98,945.09c-31.28-2.5-59.07,20.24-61.19,51.78c-2.09,31.08,21.96,58.43,53.61,60.94
					c31.65,2.52,59.1-20.71,61.19-51.79C2818.69,974.91,2794.57,947.6,2762.98,945.09z"/>
			</g>
			<path class="st3" d="M2698.22,1165.33L2698.22,1165.33c-9.71-3.67-19.1-8.14-27.99-13.33c-2.67-1.56-3.77-4.75-2.74-7.48
				c0.12-0.33,0.28-0.65,0.46-0.96c1.73-2.91,5.57-3.85,8.55-2.11c10.22,5.98,21.16,10.92,32.51,14.71l0,0
				c85.47,28.47,177.35-14.55,208.18-96.18c0.79-2.08,1.53-4.2,2.24-6.33c28.55-86.25-19.98-179.24-107.48-208.42
				c-87.38-29.11-181.91,16.5-210.43,102.51c-16.95,51.2-2.14,85.56-4.13,90.83c-2.15,5.7-10.58,5.03-11.97-0.92
				c-7.61-32.5-5.92-67.55,6.6-100.69c54.01-142.98,257.49-151.69,328.39-14.19c21.82,42.31,25.7,90.2,10.92,134.84
				c-0.76,2.31-1.57,4.6-2.43,6.86c-15.66,41.47-46.23,74.9-86.74,94.63c-42.72,20.81-91.38,23.9-137.02,8.7
				C2702.83,1167.02,2700.52,1166.19,2698.22,1165.33z"/>
		</g>
	</g>
	<g>
		<path class="st3" d="M2021.55,1131.16c11.61,11.87,25.19,21.98,40.41,29.73l3.22,35.38c0.36,3.93,3.61,2.17,43.61,12.76
			c3.7,0.91,3.06-2.44,22.42-31.09c17.08,0.19,33.8-2.45,49.59-7.58l27.31,22.75c3.04,2.52,4.08-1.02,39.86-21.82
			c1.07-0.65,1.61-1.9,1.34-3.11l-7.48-34.75c11.87-11.61,21.97-25.19,29.73-40.41c33.74-3.78,37.02-1.66,37.95-5.43
			c9.37-41.17,12.16-42.47,8.94-44.55l-29.84-19.27c0.19-17.08-2.45-33.8-7.58-49.59l22.75-27.31c2.52-3.03-1.02-4.08-21.82-39.86
			c-1.96-3.25-3.74-0.47-37.86,6.14c-11.61-11.87-25.19-21.97-40.41-29.73l-3.22-35.38c-0.36-3.93-3.61-2.17-43.61-12.76
			c-3.68-0.91-2.96,2.29-22.42,31.09c-17.08-0.19-33.8,2.45-49.59,7.58l-27.31-22.75c-0.96-0.8-2.32-0.9-3.38-0.26l-36.48,22.07
			c-1.07,0.65-1.61,1.9-1.34,3.11l7.48,34.75c-11.87,11.61-21.97,25.19-29.73,40.41c-33.74,3.78-37.03,1.66-37.95,5.43
			c-9.37,41.16-12.16,42.47-8.94,44.55l29.84,19.27c-0.19,17.08,2.45,33.8,7.58,49.59c-21.19,26.53-25.02,27.36-23.01,30.69
			l22.07,36.48C1985.66,1140.56,1987.6,1137.73,2021.55,1131.16z"/>
	</g>
	<g>
		<g>
			<path class="st5" d="M2088.34,1022.42c-0.14-24.59,19.63-44.61,44.23-44.75c24.58-0.15,44.61,19.63,44.75,44.22
				c0.15,24.53-19.69,44.61-44.23,44.76l0,0C2108.56,1066.78,2088.49,1046.95,2088.34,1022.42z M2133.06,1060.01l0.04,0.02
				L2133.06,1060.01z M2101.6,1022.33c0.11,17.22,14.2,31.15,31.41,31.05l0,0c27.65-0.17,41.51-33.94,21.77-53.44
				C2135.13,980.52,2101.44,994.5,2101.6,1022.33z"/>
		</g>
		<g>
			<path class="st3" d="M1914.78,1104.31c-2.11-5.59-4.03-11.34-5.7-17.09c-0.68-2.35,0.67-4.8,3.01-5.48
				c5.9-1.71,5.52,5.04,10.95,19.45c0.86,2.28-0.29,4.83-2.58,5.69C1918.2,1107.74,1915.64,1106.6,1914.78,1104.31z"/>
			<path class="st3" d="M1899.96,1028.83c-0.33-11.73,0.2-24.01,1.77-36.37c0.74-5.81,9.51-4.67,8.77,1.12
				c-4.07,32.02,1.39,39.34-6,39.55C1902.04,1033.19,1900.03,1031.26,1899.96,1028.83z M1919.04,941.02
				c-2.27-0.91-3.36-3.48-2.45-5.75c4.52-11.23,9.96-22.21,16.19-32.62c3.01-5.01,10.59-0.48,7.59,4.54
				c-5.99,10.01-11.24,20.57-15.58,31.38C1923.19,942.54,1918.51,941.04,1919.04,941.02z M1970.81,863.48
				c-0.58-0.22-1.12-0.56-1.58-1.03c-1.71-1.74-1.69-4.54,0.04-6.25c8.63-8.51,18-16.41,27.83-23.47c1.98-1.42,4.75-0.97,6.17,1.01
				c1.42,1.98,0.97,4.75-1.01,6.17c-9.47,6.8-18.47,14.4-26.78,22.59C1974.21,863.75,1972.38,864.07,1970.81,863.48z M2049.09,812.9
				c-1.14-0.43-2.09-1.32-2.56-2.55c-0.88-2.28,0.26-4.84,2.53-5.71c11.3-4.36,23.05-7.85,34.9-10.38c2.39-0.51,4.74,1.01,5.25,3.4
				c0.51,2.39-1.01,4.73-3.4,5.24c-11.4,2.43-22.7,5.79-33.57,9.98C2051.19,813.3,2050.07,813.27,2049.09,812.9z M2138.22,793.56
				c0.1-2.44,2.16-4.33,4.6-4.23c12.15,0.51,24.31,1.98,36.16,4.36c5.72,1.12,4.01,9.82-1.74,8.67c-11.4-2.29-23.1-3.7-34.78-4.19
				C2139.96,798.05,2138.12,795.95,2138.22,793.56z"/>
			<path class="st3" d="M2246.53,828.88c-13.97-8.24-19.91-8.77-17.28-14.13c1.07-2.19,3.67-3.13,5.91-2.03
				c5.35,2.62,10.69,5.49,15.86,8.54c2.1,1.24,2.8,3.95,1.56,6.05C2251.36,829.39,2248.68,830.13,2246.53,828.88z"/>
		</g>
		<g>
			<path class="st3" d="M2352.66,977.9c-3.2-15.96-6.75-20.69-1.01-22.31c2.35-0.66,4.79,0.7,5.45,3.05
				c1.62,5.73,3.04,11.63,4.22,17.52c0.48,2.39-1.07,4.72-3.46,5.2C2355.47,981.84,2353.14,980.29,2352.66,977.9z"/>
			<path class="st3" d="M2072.04,1242.56c1.81-7.12,7.53-0.32,39.32,2.7c5.81,0.54,5,9.35-0.84,8.8
				c-11.89-1.13-23.76-3.19-35.29-6.13C2072.91,1247.35,2071.43,1244.95,2072.04,1242.56z M2163.55,1248.69
				c-0.37-2.41,1.28-4.67,3.7-5.04c31.83-4.9,36.85-12,39.09-4.98c0.74,2.33-0.55,4.81-2.87,5.55c-11.35,3.6-23.08,6.35-34.87,8.17
				C2166.18,1252.75,2163.93,1251.1,2163.55,1248.69z M2250.09,1218.43c-3.9-6.24,4.89-5.62,29.13-26.54
				c4.43-3.81,10.21,2.87,5.78,6.69c-9.03,7.79-18.73,14.94-28.82,21.25C2254.12,1221.12,2251.39,1220.5,2250.09,1218.43z
				 M2317.79,1156.56c-6.05-4.23,2.32-7.09,16.42-35.83c2.57-5.24,10.52-1.36,7.94,3.89c-5.25,10.69-11.37,21.07-18.21,30.84
				C2322.54,1157.47,2319.78,1157.95,2317.79,1156.56z M2352.35,1067.86c6.54-31.51,1.64-38.74,9.02-38.37
				c2.44,0.12,4.31,2.2,4.19,4.64c-0.61,11.94-2.14,23.89-4.55,35.53c-0.5,2.39-2.83,3.93-5.23,3.43
				C2353.39,1072.59,2351.85,1070.25,2352.35,1067.86z"/>
			<path class="st3" d="M2020.97,1226.54c-5.25-2.88-10.45-6-15.45-9.27c-2.04-1.34-2.62-4.07-1.28-6.12
				c3.36-5.14,7.45,0.21,20.98,7.63c2.14,1.18,2.92,3.86,1.75,6C2025.78,1226.96,2023.07,1227.69,2020.97,1226.54z"/>
		</g>
		<path class="st5" d="M2085.71,1120.15c-3.78-1.82-4.8-5.87-3.29-8.98c1.61-3.29,5.61-4.65,8.87-3.05
			c6.11,2.98,12.59,5.33,19.28,6.97c1.44,0.07,36,11.1,72.83-11.11c73.03-44.19,56.16-155.41-26.82-175.82
			c-47.74-11.75-96.08,14.51-113.04,59.4c-17.08,45.21,7.34,66.38-6.39,70.6c-3.5,1.08-7.21-0.88-8.29-4.39
			c-5.82-18.88-6.38-39.04-1.63-58.32c14.39-58.54,73.79-94.62,132.52-80.17c63.19,15.55,99.66,83.16,76.21,145.25
			c-18.91,50.08-73.2,81.06-128.56,67.44l0,0C2099.9,1126.12,2092.6,1123.49,2085.71,1120.15z"/>
	</g>
	<polygon class="st6" points="1729.15,2487.66 1673.34,2988.17 2320.81,2988.17 2236.48,2487.66 	"/>
	<path class="st6" d="M602.51,1218.74v1179.55c0,97.03,77.32,176.38,174.32,178.89c430.83,11.11,1937.66,38.05,2347.78,32
		c70.49-1.04,127.59-57.45,129.63-127.91c7.91-274.02,20.75-932.96-26.78-1238.88c-10.01-64.42-64.39-112.6-129.55-114.68
		c-360.98-11.55-1958.32-48.22-2368.24-39.01C658.96,1090.27,602.51,1148.02,602.51,1218.74z"/>
	<path class="st7" d="M676.52,1213v1120.65c0,56.65,45.48,102.82,102.12,103.66l2286.96,28.25c56.16,0.84,102.2-44.34,102.41-100.51
		l3.83-1110.64c0.15-40.16-31.85-73.07-72-74.04l-2341.42-47.3C713.51,1131.98,676.52,1168.08,676.52,1213z"/>
	<path class="st3" d="M717.03,1270.41v1033.04c0,52.22,43.87,94.78,98.51,95.56l2206,26.05c54.17,0.77,98.58-40.88,98.78-92.65
		l3.69-1023.81c0.14-37.02-30.72-67.36-69.45-68.26l-2258.53-43.6C752.71,1195.72,717.03,1229,717.03,1270.41z"/>
	<path class="st3" d="M3185.23,2512c-0.02,0-0.04,0-0.06,0l-2508.71-42.74c-2.03-0.04-3.65-1.71-3.61-3.74
		c0.03-2.03,1.69-3.63,3.74-3.61l2508.71,42.74c2.03,0.04,3.65,1.71,3.61,3.74C3188.87,2510.39,3187.23,2512,3185.23,2512z"/>
	<path class="st6" d="M2460.27,3090.57h-947.61c-25.74,0-45.08-18.33-40.1-38.01l12.16-48.09c3.66-14.46,19.57-25.08,38.46-25.67
		l913.53-28.51c19.74-0.62,37.22,9.86,41.52,24.89l21.92,76.59C2505.86,3071.68,2486.43,3090.57,2460.27,3090.57z"/>
	<path class="st5" d="M3123.85,1353.01l0.16-44.13c0.14-37.02-30.72-67.5-69.45-68.4L795.73,1196.8
		c-43.31-1.01-79.3,32.2-79.3,73.61v82.6H3123.85z"/>
	<linearGradient id="SVGID_1_" gradientUnits="userSpaceOnUse" x1="2931.9985" y1="1303.3632" x2="2972.2002" y2="1303.3632">
		<stop  offset="0" style="stop-color:#DAE3FE"/>
		<stop  offset="1" style="stop-color:#E9EFFD"/>
	</linearGradient>
	<circle class="st8" cx="2952.1" cy="1303.36" r="20.1"/>
	<linearGradient id="SVGID_2_" gradientUnits="userSpaceOnUse" x1="2864.2927" y1="1303.3632" x2="2904.4944" y2="1303.3632">
		<stop  offset="0" style="stop-color:#DAE3FE"/>
		<stop  offset="1" style="stop-color:#E9EFFD"/>
	</linearGradient>
	<circle class="st9" cx="2884.39" cy="1303.36" r="20.1"/>
	<linearGradient id="SVGID_3_" gradientUnits="userSpaceOnUse" x1="2788.437" y1="1303.3632" x2="2828.6384" y2="1303.3632">
		<stop  offset="0" style="stop-color:#DAE3FE"/>
		<stop  offset="1" style="stop-color:#E9EFFD"/>
	</linearGradient>
	<circle class="st10" cx="2808.54" cy="1303.36" r="20.1"/>
	<path class="st5" d="M2407.76,2181.43l-1579.79-18.2c-24.1-0.28-43.49-19.9-43.49-44v-670.73c0-24.48,19.97-44.25,44.45-44
		l1579.79,16.11c24.13,0.25,43.55,19.87,43.55,44v672.82C2452.27,2161.93,2432.26,2181.71,2407.76,2181.43z"/>
	<path class="st5" d="M3037.11,1705.7l-494.7-14.66c-22.97-0.68-41.24-19.5-41.24-42.48V1466.3c0-23.21,18.63-42.14,41.84-42.5
		l494.7-7.74c23.73-0.37,43.17,18.76,43.17,42.5v204.66C3080.87,1687.19,3061.06,1706.41,3037.11,1705.7z"/>
	<path class="st5" d="M2999.35,2371.64l-459.52-13.62c-22.97-0.68-41.24-19.5-41.24-42.49l2.21-210.46
		c0.2-19.04,15.93-34.25,34.97-33.8l499.36,11.75c23.73-0.37,43.17,18.76,43.17,42.5V2295
		C3078.29,2338.23,3042.56,2372.92,2999.35,2371.64z"/>
	<path class="st5" d="M3034.53,2053.57l-494.7-15.63c-22.97-0.73-41.24-20.8-41.24-45.31l2.16-223.99
		c0.23-23.82,18.81-42.77,41.14-41.96l493.24,18.01c23.73-0.4,43.17,20.01,43.17,45.32v218.25
		C3078.29,2033.82,3058.49,2054.33,3034.53,2053.57z"/>
	<path class="st5" d="M2426.87,2277.52l-1599.15-7.16c-13.89-0.06-25.1-8.58-25.1-19.06v-12.79c0-10.57,11.4-19.12,25.41-19.06
		l1599.15,7.75c13.88,0.07,25.09,8.58,25.09,19.06v12.19C2452.27,2269.03,2440.87,2277.58,2426.87,2277.52z"/>
	<path class="st5" d="M1676.67,2365.26l-861.66-7.16c-7.48-0.06-13.53-8.58-13.53-19.06v-12.79c0-10.57,6.15-19.12,13.69-19.06
		l861.66,7.75c7.48,0.07,13.52,8.58,13.52,19.06v12.19C1690.36,2356.77,1684.21,2365.32,1676.67,2365.26z"/>
	<g>
		<g>
			<path class="st6" d="M2386.12,1946.3l730.55,554.16c30.64,23.24,34.99,67.66,9.44,96.4l-4.2,4.72
				c-22.61,25.43-61.6,27.59-86.88,4.82l-684.98-616.93L2386.12,1946.3z"/>
			<path class="st6" d="M1611.3,1509.26c-75.83,245.23,65.15,506.62,314.88,583.84c249.73,77.22,513.65-58.97,589.48-304.2
				c75.83-245.23-65.15-506.62-314.88-583.84C1951.04,1127.83,1687.12,1264.03,1611.3,1509.26z M1677.72,1529.8
				c64.69-209.2,289.84-325.39,502.89-259.51c213.05,65.88,333.32,288.88,268.63,498.08c-64.69,209.21-289.84,325.39-502.89,259.51
				C1733.3,1962,1613.03,1739,1677.72,1529.8z"/>
			<g>
				<path class="st5" d="M2464.5,1831.78c-0.86-0.39-1.23-1.4-0.85-2.26c4.55-10,8.76-20.29,12.51-30.61
					c0.32-0.88,1.3-1.34,2.18-1.02c0.89,0.32,1.34,1.3,1.02,2.18c-3.79,10.4-8.03,20.78-12.61,30.86c-0.3,0.66-0.98,1.04-1.67,0.99
					C2464.89,1831.92,2464.69,1831.87,2464.5,1831.78z M2500.29,1706.81c-0.94-0.11-1.6-0.96-1.48-1.9
					c3.66-29.79,4.14-60.07,1.4-89.99c-16.11-176.32-137.54-324.57-309.38-377.71c-80.14-24.78-164.91-26.61-245.17-5.29
					c-0.91,0.25-1.84-0.3-2.08-1.21c-0.24-0.91,0.3-1.84,1.21-2.08c80.88-21.48,166.31-19.64,247.05,5.32
					c85.85,26.55,160.73,77.23,216.53,146.57c54.5,67.73,87.43,148.67,95.24,234.08c2.76,30.16,2.28,60.68-1.42,90.72
					c-0.11,0.9-0.91,1.55-1.8,1.49C2500.35,1706.82,2500.32,1706.81,2500.29,1706.81z"/>
			</g>
			<path class="st5" d="M3067.79,2602.32c0.06,0,0.11,0,0.17,0c27.92-0.92,45.59-11.24,52.54-30.68
				c6.99-19.56,0.21-41.83-16.87-55.41l-86.92-69.1c-0.73-0.6-1.81-0.46-2.39,0.27c-0.59,0.74-0.46,1.81,0.27,2.39l86.92,69.1
				c15.94,12.67,22.28,33.41,15.78,51.59c-6.43,17.99-23.06,27.55-49.44,28.42c-0.94,0.03-1.68,0.82-1.65,1.76
				C3066.23,2601.56,3066.93,2602.26,3067.79,2602.32z"/>
			<path class="st0" d="M2988.75,2428.88c0.54,0.04,1.09-0.18,1.45-0.64c0.59-0.74,0.46-1.81-0.27-2.39l-11.27-8.96
				c-0.73-0.6-1.81-0.47-2.39,0.27c-0.59,0.74-0.46,1.81,0.27,2.39l11.27,8.96C2988.08,2428.73,2988.41,2428.85,2988.75,2428.88z"/>
		</g>
		<g>
			<path class="st11" d="M2931.69,2644.72l85.21,21.3l-21.3,159.76c0,0,31.95,31.95,42.6,74.56
				c10.65,42.6,20.47,221.49,20.47,221.49l20.22,12.22l2.46,10.2l-58.82,79.09l9.75-62.95c1.55-9.99-1.13-30.26-0.29-30.68
				c-31.95-85.21-100.3-325.24-100.3-325.24V2644.72z"/>
			<path class="st11" d="M2906.79,3145.35c0.92-0.02,1.83,0.06,2.76,0c-4.12-51.37-22.94-277.44-41.76-362.17
				c-21.3-95.86,31.95-287.58,31.95-287.58l95.86,95.86l-53.26,181.07c36.5,54.74-5.95,375.33-5.04,375.19l-0.06,0.71l13.9,19.11
				l-1.69,10.36l-84.89,50.09l33.4-54.24C2903.27,3165.14,2906.2,3155.38,2906.79,3145.35z"/>
			<path class="st11" d="M3014.61,2070.46c0,0,186.64,258.98,0,391.77l-19.02-16.95c0,0,92.66-109.24,0-242.97L3014.61,2070.46z"/>
			<path class="st6" d="M2858.97,3235.85h27.09c5.07,0,9.85-2.33,12.95-6.35c8.44-10.97,25.94-32.38,34.31-32.94
				c11.26-0.75,9.82,39.29,9.82,39.29h6.31l8-49.75c2.01-12.52-4.21-24.92-15.45-30.78l0,0c0,0-2.57,19.04-16.53,27.46
				c-13.96,8.42-56.81,38.58-56.81,38.58s-5.25-0.75-11.01,0.29C2849.09,3223.19,2850.29,3235.85,2858.97,3235.85z"/>
			<path class="st6" d="M3020.42,3232.76l24.97-10.5c4.67-1.97,8.18-5.97,9.47-10.87c3.53-13.39,11.36-39.91,18.85-43.67
				c10.09-5.06,24.29,32.41,24.29,32.41l5.82-2.45l-11.92-48.96c-3-12.32-13.55-21.34-26.18-22.38l0,0c0,0,5.01,18.55-4.59,31.73
				c-9.6,13.18-37.4,57.59-37.4,57.59s-5.13,1.34-10.04,4.54C3006.41,3224.92,3012.42,3236.13,3020.42,3232.76z"/>
			<linearGradient id="SVGID_4_" gradientUnits="userSpaceOnUse" x1="2338.6533" y1="3118.012" x2="2986.7344" y2="2520.9617">
				<stop  offset="0" style="stop-color:#E1473D"/>
				<stop  offset="1" style="stop-color:#E9605A"/>
			</linearGradient>
			<path class="st12" d="M2875.33,2333.78c0,0,3.13,22.74-1.46,85.25c-4.59,62.51-26.53,209.28-22.06,349.7
				c0,0,62.37,17.21,170.72,9.06c0,0,45.73-219.24,34.59-302.59c-11.14-83.35-71.57-143.14-71.57-143.14L2875.33,2333.78z"/>
			<polygon class="st11" points="2921.41,1980.83 2913.79,2070.46 2986.21,2070.46 2968.2,1933.65 			"/>
			<linearGradient id="SVGID_5_" gradientUnits="userSpaceOnUse" x1="3496.4937" y1="1601.4139" x2="3013.3857" y2="2104.9355">
				<stop  offset="0" style="stop-color:#FF928E"/>
				<stop  offset="1" style="stop-color:#FE7062"/>
			</linearGradient>
			<path class="st13" d="M3007.66,2058.07c-24.99-1.38-80.87-3.93-120.46-1.77c-20.84,1.14-38.3,16.09-42.57,36.52l-9.66,46.27
				c-3.6,17.23-3.06,35.08,1.57,52.06l38.78,142.36c0,0,34.49,20.73,110.22-1.45c0,0,66.5-158.59,39.28-260.04
				C3022.71,2064.15,3015.8,2058.52,3007.66,2058.07z"/>
			<path class="st11" d="M2846.52,2084.52c-10.67,28.1-20.3,57.57-30.65,85.16c-5.26,13.81-10.6,27.35-16.31,39.79
				c-2.89,6.19-6.06,11.88-8.97,17.04c-2.92,5.11-6.2,9.36-7.91,11.31c-0.33,0.29,0.79,0.51,1.16,0.53c0.23,0.03-7.21,1.22-9.49,1.6
				l-8.92-0.05c-12.78-0.66-27.25-2.91-41.77-5.73c-29.28-5.46-59.72-13.13-90.98-18.92l-0.24-0.04
				c-5.98-1.11-11.73,2.84-12.84,8.82c-0.73,3.94,0.75,7.8,3.55,10.28c12.6,11.09,25.96,20.21,39.82,29.08
				c6.98,4.26,14.07,8.45,21.29,12.46c7.36,3.75,14.73,7.53,22.4,11.02c15.43,6.72,31.36,12.91,49.72,16.89
				c4.83,0.81,9.59,1.65,14.55,2.32c5.57,0.19,10.62,0.69,16.7,0.33c3.23-0.32,6.47-0.72,9.71-1.19c1.73-0.3,2.99-0.34,5.08-0.91
				c2.22-0.67,4.43-1.41,6.61-2.23c4.56-1.64,7.51-3.62,11.21-5.68c3.07-2.03,5.88-4.15,8.6-6.32
				c10.04-8.55,16.27-17.03,21.76-25.18c5.48-8.14,9.82-16.29,13.72-24.29c7.82-15.96,13.92-31.78,18.88-47.71
				c10.04-31.92,16.84-63.28,19.71-96.6c1.37-15.96-10.45-30.01-26.41-31.39c-13.21-1.14-25.11,6.77-29.6,18.57L2846.52,2084.52z"/>
			<path class="st11" d="M2642.52,2229.56l-12.92-30.68l-68.02-16.95c0,0-5.44,11.79,23.13,16.95c0,0-10.2,11.28-4.76,24.54
				C2585.39,2236.69,2643.2,2249.98,2642.52,2229.56z"/>
			<path class="st11" d="M2890.75,1877.32c-2.59,1.52-22.96,73.38-5.89,103.51c17.07,30.13,69.21-3.62,83.34-47.18
				C2982.33,1890.08,2959.63,1836.7,2890.75,1877.32z"/>
			<path class="st6" d="M3042.95,1907.34c5.31,4.49,10.91,8.7,14.93,14.33c8.94,12.49,8.53,29.54,15.9,43.01
				c7.79,14.23,21.93,19.35,34.23,28.37c12.63,9.26,21.85,23.29,24.93,38.68c3.37,16.83-5.41,33.39-3.09,49.1
				c1.68,11.41,14.09,17.33,14.55,29.66c0.46,12.4-6.63,23.45-18.31,27.83c-6.64,2.49-14.66,2.86-19.27,8.25
				c-5.55,6.5-3.03,16.62-6.26,24.53c-9.59,23.44-34.19,7.71-49.75,3.69c-17.94-4.64-36.12,6.55-54.65,7.01
				c-24.25,0.61-47.05-20.24-48.63-44.44c-0.45-6.92,0.61-13.89-0.24-20.77c-1.71-13.86-9.96-20.31-19.63-28.73
				c-10.04-8.74-15.92-22.07-15.61-35.38c0.63-26.46,19.79-46.92,28.74-70.65c4.78-12.69,8.12-23.38,1.03-35.57
				c-7.33-12.6-19.57-21.99-31.49-29.96c-9.15-6.11-18.72-11.91-26-20.16c-7.28-8.25-12.03-19.61-9.42-30.3
				c7.19-29.37,61.4-47.1,87.97-42.7c19.85,3.29,35.5,12.65,45.84,29.97c8.6,14.4,15.05,32.54,25.56,45.67
				C3036.82,1901.97,3039.84,1904.7,3042.95,1907.34z"/>
		</g>
	</g>
	<g>
		<path class="st6" d="M801.2,2128.16c-3.59,169.33-15.23,753.41-9.67,960.39c0.59,21.93,15.61,39.53,34.36,40.24
			c92.7,3.55,432.55,12.54,584.18,5.1c31.58-1.55,56.7-31.48,57.35-68.45c3.15-177.73,10.1-677.63-6.42-906.63
			c-1.98-27.44-20.39-49.29-43.81-52.03c-100.96-11.82-442.27-40.7-573.27-30.75C820.3,2077.84,801.79,2100.48,801.2,2128.16z"/>
		<path class="st3" d="M842.56,2180.11c-4.99,136.67-20.73,591.35-15.73,759.49c0.73,24.57,17.29,44.45,38.27,45.88
			c86.4,5.91,381.15,18.96,507.87,7.08c22.82-2.14,40.72-23.73,41.96-50.47c6.42-139.44,24.86-562.81,20.07-729.05
			c-0.76-26.52-18.32-48.18-40.92-50.55c-93.47-9.82-406.68-33.18-514.36-26.3C859.5,2137.48,843.43,2156.45,842.56,2180.11z"/>
		<path class="st14" d="M1030.31,2105.63L1030.31,2105.63c0,5.2,3.46,9.48,7.9,9.75c21.9,1.34,83.58,5.14,111.14,7.01
			c5.44,0.37,9.7-5.35,8.67-11.6l-0.18-1.07c-0.7-4.27-3.73-7.48-7.43-7.88c-18.63-2-74.86-7.54-112.11-5.98
			C1033.83,2096.05,1030.31,2100.39,1030.31,2105.63z"/>
		<path class="st3" d="M1435.75,2264.77c-0.08-18.37-0.32-36.43-0.75-51.55c-0.76-26.52-18.33-48.27-40.92-50.64
			c-93.47-9.82-406.68-33.22-514.36-26.35c-20.21,1.29-36.29,20.41-37.16,44.07c-0.77,21.2-1.33,37.91-2.5,70.98L1435.75,2264.77z"
			/>
		<path class="st3" d="M1133.68,2556.07H890.07c-14.4,0-26.07-12.02-26.07-26.85v-213.9c0-13.55,10.84-24.45,23.99-24.12
			l245.86,6.05c13.52,0.33,24.32,11.72,24.32,25.65v207.95C1158.17,2544.77,1147.2,2556.07,1133.68,2556.07z"/>
		<path class="st3" d="M1398.04,2556.07h-209.36c-4.96,0-8.99-4.02-8.99-8.99v-242.22c0-3.87,3.14-7.01,7.01-7.01h211.81
			c3.9,0,7.06,3.16,7.06,7.06v243.64C1405.58,2552.69,1402.2,2556.07,1398.04,2556.07z"/>
		<path class="st3" d="M1398.34,2765.68H863.25c-4.42,0-8.01-3.59-8.01-8.01v-161.24c0-3.59,2.91-6.5,6.5-6.5h536.27
			c4.17,0,7.56,3.38,7.56,7.56v160.95C1405.58,2762.44,1402.34,2765.68,1398.34,2765.68z"/>
		<path class="st3" d="M1348.54,2964.08l-468.44-6.53c-13.89-0.19-25.03-10.32-25.03-22.75v-113.4c0-10.94,9.91-19.8,22.13-19.8
			H1370c11.69,0,21.17,8.46,21.2,18.92l0.31,105.6C1391.58,2947.3,1372.21,2964.41,1348.54,2964.08z"/>
		<circle class="st5" cx="891.37" cy="2209.05" r="16.53"/>
		<circle class="st5" cx="946.49" cy="2210.64" r="16.53"/>
		<circle class="st5" cx="997.92" cy="2213.7" r="16.53"/>
	</g>
	<rect x="-1238.1" y="710.52" class="st4" width="396.65" height="396.65"/>
	<rect x="-1238.1" y="205.01" class="st6" width="396.65" height="396.65"/>
	<rect x="-1238.1" y="1213.37" class="st7" width="396.65" height="396.65"/>
	<rect x="-1238.1" y="1664.53" class="st3" width="396.65" height="396.65"/>
	<rect x="-1238.1" y="3230.09" class="st4" width="396.65" height="396.65"/>
	<g>
		<g id="XMLID_455_">
			<g id="XMLID_458_">
				<defs>
					<path id="XMLID_459_" d="M-2381.25,938.33c-14.09,6.52-36.53,19.31-50.63,10.44c0,0,19.31,32.62,59.24,21.14l10.44-10.44
						l10.44-7.05l3.65-9.39l-4.96-2.09c0,0-7.65-4.96-17.32-4.96C-2373.83,935.98-2377.54,936.61-2381.25,938.33"/>
				</defs>
				<clipPath id="XMLID_19_">
					<use xlink:href="#XMLID_459_"  style="overflow:visible;"/>
				</clipPath>

					<linearGradient id="XMLID_20_" gradientUnits="userSpaceOnUse" x1="1529.5039" y1="1459.4343" x2="1529.9009" y2="1459.4343" gradientTransform="matrix(211.0539 0 0 -211.0539 -325243.125 308978)">
					<stop  offset="0" style="stop-color:#D2E4A5"/>
					<stop  offset="0.5" style="stop-color:#37B34A"/>
					<stop  offset="1" style="stop-color:#009345"/>
				</linearGradient>
				<rect id="XMLID_460_" x="-2431.87" y="935.98" class="st15" width="83.77" height="45.41"/>
			</g>
			<path id="XMLID_457_" class="st16" d="M-2351.76,933.11c0,4.32-3.5,7.83-7.83,7.83c-4.32,0-7.83-3.5-7.83-7.83
				c0-4.32,3.5-7.83,7.83-7.83C-2355.26,925.28-2351.76,928.79-2351.76,933.11"/>
			<path id="XMLID_456_" class="st16" d="M-2340.02,925.28c0,0-4.44,11.74-13.05,15.66c0,0,1.3,5.74-3.13,10.44
				c0,0-11.74-15.66-33.14,4.18c0,0,17.74-7.31,17.22,2.61c-0.52,9.92-19.31,24.01-30.53,25.57
				C-2402.65,983.74-2348.11,983.74-2340.02,925.28"/>
		</g>
		<g id="XMLID_173_">
			<path id="XMLID_453_" class="st4" d="M-2335.51,943.12c0.47,0,0.7,0.23,0.7,0.7v20.92c0,0.47-0.23,0.7-0.7,0.7h-3.44
				c-0.49,0-0.73-0.23-0.73-0.7v-20.92c0-0.47,0.24-0.7,0.73-0.7H-2335.51z"/>
			<path id="XMLID_451_" class="st4" d="M-2305.73,943.12c0.47,0,0.7,0.23,0.7,0.7v3.13c0,0.49-0.23,0.73-0.7,0.73h-15.98
				c-0.83,0-1.51,0.07-2.06,0.21c-0.54,0.14-0.97,0.37-1.29,0.7c-0.32,0.33-0.55,0.77-0.69,1.32c-0.14,0.55-0.21,1.25-0.21,2.1v4.59
				c0,0.85,0.07,1.56,0.21,2.12c0.14,0.56,0.37,1.01,0.69,1.34c0.32,0.33,0.75,0.56,1.29,0.7c0.54,0.14,1.23,0.21,2.06,0.21h10.52
				c0.55,0,0.96-0.14,1.21-0.43c0.26-0.29,0.38-0.79,0.38-1.52v-2.58c0-0.28-0.13-0.41-0.38-0.41h-9.34c-0.47,0-0.7-0.24-0.7-0.73
				v-2.39c0-0.49,0.23-0.73,0.7-0.73h13.3c0.64,0,0.96,0.32,0.96,0.96v7.43c0,1.79-0.34,3.05-1.02,3.78
				c-0.68,0.73-1.66,1.1-2.93,1.1h-12.88c-1.62,0-2.99-0.15-4.11-0.45c-1.13-0.3-2.05-0.78-2.76-1.45
				c-0.71-0.67-1.23-1.54-1.56-2.62c-0.33-1.07-0.49-2.38-0.49-3.91v-5.49c0-1.53,0.16-2.83,0.49-3.89c0.33-1.06,0.85-1.93,1.56-2.6
				c0.71-0.67,1.63-1.16,2.76-1.47c1.13-0.31,2.5-0.46,4.11-0.46H-2305.73z"/>
			<path id="XMLID_354_" class="st4" d="M-2296.86,943.12c0.47,0,0.7,0.23,0.7,0.7v20.92c0,0.47-0.23,0.7-0.7,0.7h-3.44
				c-0.49,0-0.73-0.23-0.73-0.7v-20.92c0-0.47,0.24-0.7,0.73-0.7H-2296.86z"/>
			<path id="XMLID_352_" class="st4" d="M-2268.86,943.12c0.47,0,0.7,0.23,0.7,0.7v3.13c0,0.49-0.23,0.73-0.7,0.73h-14.19
				c-0.83,0-1.51,0.07-2.06,0.21c-0.54,0.14-0.97,0.37-1.29,0.7s-0.55,0.77-0.69,1.32c-0.14,0.55-0.21,1.25-0.21,2.1v4.53
				c0,0.85,0.07,1.56,0.21,2.12c0.14,0.56,0.37,1.01,0.69,1.34s0.75,0.56,1.29,0.7c0.54,0.14,1.23,0.21,2.06,0.21h14.19
				c0.47,0,0.7,0.23,0.7,0.7v3.13c0,0.47-0.23,0.7-0.7,0.7h-14.38c-1.62,0-2.99-0.15-4.11-0.45c-1.13-0.3-2.05-0.78-2.76-1.45
				c-0.71-0.67-1.23-1.54-1.56-2.62c-0.33-1.07-0.49-2.38-0.49-3.91v-5.49c0-1.53,0.16-2.83,0.49-3.89c0.33-1.06,0.85-1.93,1.56-2.6
				c0.71-0.67,1.63-1.16,2.76-1.47c1.13-0.31,2.5-0.46,4.11-0.46H-2268.86z"/>
			<path id="XMLID_350_" class="st4" d="M-2260.64,943.12c0.47,0,0.7,0.23,0.7,0.7v12.72c0,0.85,0.07,1.56,0.21,2.12
				c0.14,0.56,0.37,1.01,0.69,1.34s0.75,0.56,1.29,0.7c0.54,0.14,1.23,0.21,2.06,0.21h8.83c0.83,0,1.51-0.07,2.06-0.21
				c0.54-0.14,0.97-0.37,1.29-0.7c0.32-0.33,0.54-0.78,0.67-1.34c0.13-0.56,0.19-1.27,0.19-2.12v-12.72c0-0.47,0.23-0.7,0.7-0.7
				h3.48c0.47,0,0.7,0.23,0.7,0.7v13.2c0,1.53-0.16,2.83-0.48,3.91c-0.32,1.07-0.83,1.95-1.55,2.62c-0.71,0.67-1.64,1.15-2.77,1.45
				c-1.14,0.3-2.51,0.45-4.13,0.45h-9.18c-1.62,0-2.99-0.15-4.11-0.45c-1.13-0.3-2.05-0.78-2.76-1.45
				c-0.71-0.67-1.23-1.54-1.56-2.62c-0.33-1.07-0.49-2.38-0.49-3.91v-13.2c0-0.47,0.24-0.7,0.73-0.7H-2260.64z"/>
			<path id="XMLID_322_" class="st4" d="M-2208.75,943.12c0.81,0,1.49,0.16,2.04,0.49s1.1,0.97,1.63,1.93l10.56,19.17
				c0.11,0.21,0.13,0.39,0.08,0.53c-0.05,0.14-0.21,0.21-0.46,0.21h-4.05c-0.36,0-0.61-0.14-0.73-0.41l-2.26-4.11h-14.99l-2.2,4.11
				c-0.15,0.28-0.39,0.41-0.73,0.41h-4.15c-0.28,0-0.44-0.07-0.49-0.21c-0.05-0.14-0.03-0.31,0.08-0.53l10.46-19.17
				c0.53-0.96,1.05-1.6,1.56-1.93s1.11-0.49,1.79-0.49H-2208.75z M-2214.94,957.22h10.97l-5.07-9.34c-0.09-0.15-0.2-0.22-0.35-0.22
				h-0.19c-0.15,0-0.27,0.07-0.35,0.22L-2214.94,957.22z"/>
			<path id="XMLID_184_" class="st4" d="M-2169.12,943.12c0.49,0,0.73,0.23,0.73,0.7v3.03c0,0.47-0.24,0.7-0.73,0.7h-13.84
				c-0.83,0-1.52,0.07-2.06,0.21c-0.54,0.14-0.97,0.37-1.29,0.7c-0.32,0.33-0.55,0.78-0.69,1.34c-0.14,0.56-0.21,1.26-0.21,2.09
				v0.64h17.92c0.47,0,0.7,0.23,0.7,0.7v2.52c0,0.47-0.23,0.7-0.7,0.7h-17.92v8.29c0,0.47-0.23,0.7-0.7,0.7h-3.44
				c-0.49,0-0.73-0.23-0.73-0.7v-13.2c0-1.53,0.16-2.83,0.49-3.89c0.33-1.06,0.85-1.93,1.56-2.6c0.71-0.67,1.63-1.16,2.76-1.47
				c1.13-0.31,2.5-0.46,4.11-0.46H-2169.12z"/>
			<path id="XMLID_181_" class="st4" d="M-2147.15,943.12c2.45,0,4.2,0.55,5.26,1.66c1.06,1.11,1.59,2.74,1.59,4.91v1.82
				c0,1.83-0.37,3.27-1.12,4.34c-0.74,1.06-1.96,1.74-3.64,2.04l5.45,6.76c0.11,0.11,0.14,0.27,0.1,0.48
				c-0.04,0.21-0.21,0.32-0.51,0.32h-4.11c-0.28,0-0.47-0.03-0.57-0.1c-0.11-0.06-0.21-0.17-0.32-0.32l-5.04-6.63h-10.3v6.35
				c0,0.47-0.23,0.7-0.7,0.7h-3.44c-0.49,0-0.73-0.23-0.73-0.7v-20.67c0-0.64,0.32-0.96,0.96-0.96H-2147.15z M-2160.35,954.51h12.21
				c1.08,0,1.85-0.23,2.3-0.7s0.67-1.18,0.67-2.14v-1.34c0-0.96-0.22-1.67-0.67-2.14s-1.21-0.7-2.3-0.7h-11.8
				c-0.28,0-0.41,0.13-0.41,0.38V954.51z"/>
			<path id="XMLID_179_" class="st4" d="M-2132.19,943.12c0.47,0,0.7,0.23,0.7,0.7v20.92c0,0.47-0.23,0.7-0.7,0.7h-3.44
				c-0.49,0-0.73-0.23-0.73-0.7v-20.92c0-0.47,0.24-0.7,0.73-0.7H-2132.19z"/>
			<path id="XMLID_177_" class="st4" d="M-2104.19,943.12c0.47,0,0.7,0.23,0.7,0.7v3.13c0,0.49-0.23,0.73-0.7,0.73h-14.19
				c-0.83,0-1.51,0.07-2.06,0.21c-0.54,0.14-0.97,0.37-1.29,0.7c-0.32,0.33-0.55,0.77-0.69,1.32c-0.14,0.55-0.21,1.25-0.21,2.1v4.53
				c0,0.85,0.07,1.56,0.21,2.12c0.14,0.56,0.37,1.01,0.69,1.34c0.32,0.33,0.75,0.56,1.29,0.7c0.54,0.14,1.23,0.21,2.06,0.21h14.19
				c0.47,0,0.7,0.23,0.7,0.7v3.13c0,0.47-0.23,0.7-0.7,0.7h-14.38c-1.62,0-2.99-0.15-4.11-0.45c-1.13-0.3-2.05-0.78-2.76-1.45
				c-0.71-0.67-1.23-1.54-1.56-2.62c-0.33-1.07-0.49-2.38-0.49-3.91v-5.49c0-1.53,0.16-2.83,0.49-3.89c0.33-1.06,0.85-1.93,1.56-2.6
				c0.71-0.67,1.63-1.16,2.76-1.47c1.13-0.31,2.5-0.46,4.11-0.46H-2104.19z"/>
			<path id="XMLID_174_" class="st4" d="M-2085.92,943.12c0.81,0,1.49,0.16,2.04,0.49s1.1,0.97,1.63,1.93l10.56,19.17
				c0.11,0.21,0.13,0.39,0.08,0.53c-0.05,0.14-0.21,0.21-0.46,0.21h-4.05c-0.36,0-0.61-0.14-0.73-0.41l-2.26-4.11h-14.99l-2.2,4.11
				c-0.15,0.28-0.39,0.41-0.73,0.41h-4.15c-0.28,0-0.44-0.07-0.49-0.21c-0.05-0.14-0.03-0.31,0.08-0.53l10.46-19.17
				c0.53-0.96,1.05-1.6,1.56-1.93s1.11-0.49,1.79-0.49H-2085.92z M-2092.1,957.22h10.97l-5.07-9.34c-0.09-0.15-0.2-0.22-0.35-0.22
				h-0.19c-0.15,0-0.27,0.07-0.35,0.22L-2092.1,957.22z"/>
		</g>
		<g id="XMLID_1_">
			<path id="XMLID_116_" class="st16" d="M-2331.62,975.58c0.16,0,0.23,0.08,0.23,0.23v1.09c0,0.16-0.08,0.23-0.23,0.23h-5.03
				c-0.29,0-0.52,0.02-0.7,0.07c-0.18,0.05-0.32,0.13-0.43,0.23c-0.1,0.11-0.18,0.26-0.22,0.44c-0.04,0.19-0.06,0.41-0.06,0.68v1.15
				c0,0.28,0.02,0.51,0.06,0.69c0.04,0.18,0.12,0.33,0.22,0.43c0.1,0.11,0.25,0.19,0.43,0.23c0.18,0.05,0.42,0.07,0.7,0.07h5.03
				c0.16,0,0.23,0.08,0.23,0.23v1.09c0,0.16-0.08,0.23-0.23,0.23h-5.21c-0.59,0-1.08-0.05-1.47-0.14c-0.39-0.1-0.71-0.25-0.95-0.46
				c-0.24-0.21-0.41-0.48-0.51-0.82c-0.1-0.33-0.16-0.73-0.16-1.2v-1.87c0-0.47,0.05-0.87,0.16-1.2c0.1-0.33,0.27-0.61,0.51-0.82
				c0.24-0.21,0.55-0.37,0.95-0.47c0.39-0.1,0.88-0.15,1.47-0.15H-2331.62z"/>
			<path id="XMLID_113_" class="st16" d="M-2317.55,975.58c0.58,0,1.07,0.05,1.47,0.15c0.4,0.1,0.72,0.26,0.95,0.47
				c0.24,0.21,0.41,0.48,0.51,0.82c0.1,0.33,0.16,0.73,0.16,1.2v1.87c0,0.47-0.05,0.87-0.16,1.2c-0.1,0.33-0.27,0.61-0.51,0.82
				c-0.24,0.21-0.56,0.37-0.95,0.46c-0.4,0.1-0.89,0.14-1.47,0.14h-3.67c-0.59,0-1.08-0.05-1.47-0.14c-0.39-0.1-0.71-0.25-0.95-0.46
				c-0.24-0.21-0.41-0.48-0.51-0.82c-0.1-0.33-0.16-0.73-0.16-1.2v-1.87c0-0.47,0.05-0.87,0.16-1.2c0.1-0.33,0.27-0.61,0.51-0.82
				c0.24-0.21,0.55-0.37,0.95-0.47c0.39-0.1,0.88-0.15,1.47-0.15H-2317.55z M-2322.45,979.75c0,0.28,0.02,0.51,0.06,0.69
				c0.04,0.18,0.12,0.33,0.23,0.43c0.11,0.11,0.25,0.19,0.43,0.23c0.18,0.05,0.41,0.07,0.69,0.07h3.31c0.29,0,0.52-0.02,0.7-0.07
				c0.18-0.05,0.33-0.13,0.43-0.23c0.11-0.11,0.18-0.25,0.23-0.43c0.04-0.18,0.06-0.41,0.06-0.69v-1.23c0-0.27-0.02-0.49-0.06-0.67
				c-0.04-0.18-0.12-0.33-0.23-0.44c-0.11-0.11-0.25-0.19-0.43-0.23c-0.18-0.04-0.41-0.06-0.7-0.06h-3.31
				c-0.28,0-0.51,0.02-0.69,0.06c-0.18,0.04-0.33,0.12-0.43,0.23c-0.11,0.11-0.18,0.26-0.23,0.44c-0.04,0.18-0.06,0.41-0.06,0.67
				V979.75z"/>
			<path id="XMLID_111_" class="st16" d="M-2300.2,975.58c0.58,0,1.07,0.05,1.47,0.15c0.4,0.1,0.72,0.26,0.95,0.47
				c0.24,0.21,0.41,0.48,0.51,0.82c0.1,0.33,0.16,0.73,0.16,1.2v4.2c0,0.19-0.1,0.29-0.29,0.29h-1.27c-0.19,0-0.29-0.1-0.29-0.29
				v-3.76c0-0.27-0.02-0.49-0.05-0.68c-0.03-0.19-0.1-0.33-0.2-0.44c-0.1-0.11-0.24-0.19-0.41-0.23c-0.17-0.05-0.4-0.07-0.67-0.07
				h-3.45c-0.28,0-0.51,0.02-0.69,0.07c-0.18,0.05-0.33,0.13-0.43,0.23c-0.11,0.11-0.18,0.26-0.23,0.44
				c-0.04,0.19-0.06,0.41-0.06,0.68v3.76c0,0.19-0.1,0.29-0.29,0.29h-1.27c-0.2,0-0.3-0.1-0.3-0.29v-4.2c0-0.47,0.05-0.87,0.16-1.2
				c0.1-0.33,0.27-0.61,0.51-0.82c0.24-0.21,0.55-0.37,0.95-0.47c0.39-0.1,0.88-0.15,1.47-0.15H-2300.2z"/>
			<path id="XMLID_109_" class="st16" d="M-2281.33,975.58c0.16,0,0.23,0.08,0.23,0.23v1.04c0,0.16-0.08,0.23-0.23,0.23h-5.85
				c-0.27,0-0.45,0.05-0.56,0.15c-0.1,0.1-0.16,0.24-0.16,0.43v0.19c0,0.17,0.05,0.31,0.16,0.41c0.1,0.1,0.29,0.15,0.56,0.15h4.37
				c0.73,0,1.24,0.15,1.56,0.45c0.31,0.3,0.47,0.73,0.47,1.28v0.73c0,0.29-0.03,0.54-0.1,0.77c-0.07,0.22-0.18,0.41-0.34,0.57
				s-0.37,0.27-0.63,0.36c-0.26,0.08-0.58,0.12-0.96,0.12h-6.64c-0.16,0-0.23-0.08-0.23-0.23v-1.04c0-0.16,0.08-0.23,0.23-0.23h6.15
				c0.27,0,0.46-0.05,0.56-0.14c0.11-0.1,0.16-0.25,0.16-0.48v-0.35c0-0.17-0.05-0.31-0.16-0.4c-0.11-0.1-0.3-0.14-0.56-0.14h-4.36
				c-0.73,0-1.24-0.15-1.56-0.45c-0.31-0.3-0.47-0.73-0.47-1.3v-0.57c0-0.27,0.03-0.51,0.1-0.73c0.07-0.22,0.18-0.41,0.34-0.56
				c0.16-0.16,0.37-0.27,0.63-0.36c0.26-0.08,0.58-0.12,0.96-0.12H-2281.33z"/>
			<path id="XMLID_107_" class="st16" d="M-2271.89,975.58c0.19,0,0.29,0.1,0.29,0.3v3.75c0,0.28,0.02,0.51,0.05,0.69
				c0.03,0.18,0.1,0.33,0.19,0.43c0.09,0.11,0.23,0.19,0.4,0.23c0.17,0.05,0.4,0.07,0.69,0.07h3.33c0.29,0,0.52-0.02,0.7-0.07
				c0.18-0.05,0.33-0.13,0.43-0.23c0.11-0.11,0.18-0.25,0.23-0.43c0.04-0.18,0.06-0.41,0.06-0.69v-3.75c0-0.2,0.1-0.3,0.29-0.3h1.27
				c0.19,0,0.29,0.1,0.29,0.3v4.2c0,0.47-0.05,0.87-0.16,1.2c-0.1,0.33-0.27,0.61-0.51,0.82c-0.24,0.21-0.56,0.37-0.95,0.46
				c-0.4,0.1-0.89,0.14-1.47,0.14h-3.62c-0.59,0-1.08-0.05-1.47-0.14c-0.39-0.1-0.71-0.25-0.95-0.46c-0.24-0.21-0.41-0.48-0.51-0.82
				c-0.1-0.33-0.16-0.73-0.16-1.2v-4.2c0-0.2,0.1-0.3,0.3-0.3H-2271.89z"/>
			<path id="XMLID_105_" class="st16" d="M-2254.53,972.97c0.19,0,0.29,0.1,0.29,0.29v9.16c0,0.19-0.1,0.29-0.29,0.29h-1.27
				c-0.19,0-0.29-0.1-0.29-0.29v-9.16c0-0.19,0.09-0.29,0.29-0.29H-2254.53z"/>
			<path id="XMLID_103_" class="st16" d="M-2245.76,975.58v-1.71c0-0.19,0.09-0.29,0.29-0.29h1.28c0.19,0,0.29,0.1,0.29,0.29v1.71
				h2.27c0.16,0,0.23,0.08,0.23,0.23v1.06c0,0.16-0.08,0.23-0.23,0.23h-2.27v3.01c0,0.36,0.07,0.63,0.22,0.8s0.44,0.25,0.87,0.25
				h1.26c0.16,0,0.23,0.08,0.23,0.23v1.06c0,0.16-0.08,0.23-0.23,0.23h-1.57c-0.52,0-0.95-0.05-1.28-0.14
				c-0.34-0.1-0.61-0.25-0.81-0.45c-0.2-0.21-0.34-0.48-0.42-0.8c-0.08-0.33-0.12-0.72-0.12-1.18v-3.01h-1.23
				c-0.16,0-0.23-0.08-0.23-0.23v-1.06c0-0.16,0.08-0.23,0.23-0.23H-2245.76z"/>
			<path id="XMLID_99_" class="st16" d="M-2228.55,975.58c0.58,0,1.07,0.05,1.47,0.15c0.4,0.1,0.72,0.26,0.95,0.47
				c0.24,0.21,0.41,0.48,0.51,0.82c0.1,0.33,0.16,0.73,0.16,1.2v3.45c0,0.21-0.02,0.38-0.05,0.51c-0.03,0.13-0.08,0.24-0.16,0.32
				c-0.07,0.08-0.17,0.13-0.29,0.16c-0.12,0.03-0.28,0.05-0.47,0.05h-6.17c-0.38,0-0.7-0.04-0.95-0.11
				c-0.25-0.07-0.46-0.18-0.62-0.33c-0.16-0.15-0.27-0.34-0.33-0.57c-0.06-0.23-0.1-0.51-0.1-0.83v-0.62c0-0.27,0.03-0.51,0.1-0.72
				c0.06-0.21,0.18-0.39,0.33-0.54c0.16-0.15,0.36-0.26,0.62-0.33c0.25-0.07,0.57-0.11,0.95-0.11h5.28v-0.25
				c0-0.21-0.02-0.38-0.06-0.53c-0.04-0.15-0.12-0.27-0.22-0.36s-0.25-0.16-0.43-0.2c-0.18-0.04-0.41-0.06-0.7-0.06h-5.42
				c-0.16,0-0.23-0.08-0.23-0.23v-1.09c0-0.16,0.08-0.23,0.23-0.23H-2228.55z M-2227.7,981.27c0.14,0,0.24-0.03,0.29-0.1
				c0.06-0.06,0.08-0.18,0.08-0.34v-1.14h-4.75c-0.27,0-0.46,0.05-0.56,0.16c-0.11,0.11-0.16,0.27-0.16,0.47v0.27
				c0,0.23,0.05,0.4,0.16,0.51c0.11,0.11,0.3,0.16,0.56,0.16H-2227.7z"/>
			<path id="XMLID_97_" class="st16" d="M-2211.34,975.58c0.58,0,1.07,0.05,1.47,0.15c0.4,0.1,0.72,0.26,0.95,0.47
				c0.24,0.21,0.41,0.48,0.51,0.82c0.1,0.33,0.16,0.73,0.16,1.2v4.2c0,0.19-0.1,0.29-0.29,0.29h-1.27c-0.19,0-0.29-0.1-0.29-0.29
				v-3.76c0-0.27-0.02-0.49-0.05-0.68c-0.03-0.19-0.1-0.33-0.2-0.44c-0.1-0.11-0.24-0.19-0.41-0.23c-0.17-0.05-0.4-0.07-0.67-0.07
				h-3.45c-0.28,0-0.51,0.02-0.69,0.07c-0.18,0.05-0.33,0.13-0.43,0.23c-0.11,0.11-0.18,0.26-0.23,0.44
				c-0.04,0.19-0.06,0.41-0.06,0.68v3.76c0,0.19-0.1,0.29-0.29,0.29h-1.27c-0.2,0-0.3-0.1-0.3-0.29v-4.2c0-0.47,0.05-0.87,0.16-1.2
				c0.1-0.33,0.27-0.61,0.51-0.82c0.24-0.21,0.55-0.37,0.95-0.47c0.39-0.1,0.88-0.15,1.47-0.15H-2211.34z"/>
			<path id="XMLID_95_" class="st16" d="M-2192.7,975.58c0.16,0,0.23,0.08,0.23,0.23v1.09c0,0.16-0.08,0.23-0.23,0.23h-5.03
				c-0.29,0-0.52,0.02-0.7,0.07c-0.18,0.05-0.32,0.13-0.43,0.23c-0.1,0.11-0.18,0.26-0.22,0.44c-0.04,0.19-0.06,0.41-0.06,0.68v1.15
				c0,0.28,0.02,0.51,0.06,0.69c0.04,0.18,0.12,0.33,0.22,0.43c0.1,0.11,0.25,0.19,0.43,0.23c0.18,0.05,0.42,0.07,0.7,0.07h5.03
				c0.16,0,0.23,0.08,0.23,0.23v1.09c0,0.16-0.08,0.23-0.23,0.23h-5.21c-0.59,0-1.08-0.05-1.47-0.14c-0.39-0.1-0.71-0.25-0.95-0.46
				c-0.24-0.21-0.41-0.48-0.51-0.82c-0.1-0.33-0.16-0.73-0.16-1.2v-1.87c0-0.47,0.05-0.87,0.16-1.2c0.1-0.33,0.27-0.61,0.51-0.82
				c0.24-0.21,0.55-0.37,0.95-0.47c0.39-0.1,0.88-0.15,1.47-0.15H-2192.7z"/>
			<path id="XMLID_93_" class="st16" d="M-2175.89,975.58c0.09,0,0.16,0.03,0.19,0.1c0.03,0.06,0.02,0.14-0.02,0.23l-4.98,8.78
				c-0.17,0.3-0.42,0.53-0.73,0.67c-0.32,0.14-0.75,0.21-1.32,0.21h-0.91c-0.16,0-0.23-0.08-0.23-0.23v-1.06
				c0-0.16,0.08-0.23,0.23-0.23h0.77c0.33,0,0.55-0.1,0.66-0.3l0.7-1.23c-0.22-0.02-0.38-0.07-0.5-0.16
				c-0.12-0.09-0.23-0.22-0.33-0.4l-3.5-6.04c-0.04-0.09-0.05-0.16-0.02-0.23c0.03-0.06,0.09-0.1,0.19-0.1h1.49
				c0.15,0,0.25,0.06,0.31,0.18l2.88,4.99c0.07,0.12,0.12,0.2,0.16,0.24c0.04,0.04,0.09,0.06,0.15,0.06l3.05-5.29
				c0.06-0.12,0.16-0.18,0.31-0.18H-2175.89z"/>
			<path id="XMLID_91_" class="st16" d="M-2156.94,972.97c0.19,0,0.29,0.1,0.29,0.29v9.16c0,0.19-0.1,0.29-0.29,0.29h-1.27
				c-0.19,0-0.29-0.1-0.29-0.29v-9.16c0-0.19,0.1-0.29,0.29-0.29H-2156.94z"/>
			<path id="XMLID_15_" class="st16" d="M-2147.48,972.94c0.19,0,0.29,0.1,0.29,0.29v1.23c0,0.2-0.1,0.3-0.29,0.3h-1.27
				c-0.2,0-0.3-0.1-0.3-0.3v-1.23c0-0.19,0.1-0.29,0.3-0.29H-2147.48z M-2147.48,975.58c0.19,0,0.29,0.1,0.29,0.3v6.54
				c0,0.19-0.1,0.29-0.29,0.29h-1.27c-0.19,0-0.29-0.1-0.29-0.29v-6.54c0-0.2,0.09-0.3,0.29-0.3H-2147.48z"/>
			<path id="XMLID_13_" class="st16" d="M-2129.91,975.58c0.58,0,1.07,0.05,1.46,0.15c0.39,0.1,0.71,0.26,0.95,0.47
				c0.24,0.21,0.41,0.48,0.51,0.82c0.1,0.33,0.15,0.73,0.15,1.2v4.2c0,0.19-0.1,0.29-0.29,0.29h-1.27c-0.19,0-0.29-0.1-0.29-0.29
				v-3.76c0-0.27-0.02-0.49-0.05-0.68c-0.03-0.19-0.1-0.33-0.19-0.44c-0.1-0.11-0.23-0.19-0.4-0.23c-0.17-0.05-0.4-0.07-0.69-0.07
				h-2.28v5.19c0,0.19-0.1,0.29-0.3,0.29h-1.27c-0.19,0-0.29-0.1-0.29-0.29v-5.19h-2.2c-0.28,0-0.51,0.02-0.69,0.07
				c-0.18,0.05-0.33,0.13-0.43,0.23c-0.11,0.11-0.18,0.26-0.23,0.44c-0.04,0.19-0.06,0.41-0.06,0.68v3.76c0,0.19-0.1,0.29-0.29,0.29
				h-1.27c-0.2,0-0.3-0.1-0.3-0.29v-4.2c0-0.47,0.05-0.87,0.16-1.2c0.1-0.33,0.27-0.61,0.51-0.82c0.24-0.21,0.55-0.37,0.95-0.47
				c0.39-0.1,0.88-0.15,1.47-0.15H-2129.91z"/>
			<path id="XMLID_10_" class="st16" d="M-2117.69,972.94c0.19,0,0.29,0.1,0.29,0.29v1.23c0,0.2-0.1,0.3-0.29,0.3h-1.27
				c-0.2,0-0.3-0.1-0.3-0.3v-1.23c0-0.19,0.1-0.29,0.3-0.29H-2117.69z M-2117.69,975.58c0.19,0,0.29,0.1,0.29,0.3v6.54
				c0,0.19-0.1,0.29-0.29,0.29h-1.27c-0.19,0-0.29-0.1-0.29-0.29v-6.54c0-0.2,0.1-0.3,0.29-0.3H-2117.69z"/>
			<path id="XMLID_8_" class="st16" d="M-2108.92,975.58v-1.71c0-0.19,0.1-0.29,0.29-0.29h1.28c0.19,0,0.29,0.1,0.29,0.29v1.71h2.27
				c0.16,0,0.23,0.08,0.23,0.23v1.06c0,0.16-0.08,0.23-0.23,0.23h-2.27v3.01c0,0.36,0.07,0.63,0.22,0.8
				c0.15,0.17,0.44,0.25,0.87,0.25h1.26c0.16,0,0.23,0.08,0.23,0.23v1.06c0,0.16-0.08,0.23-0.23,0.23h-1.57
				c-0.52,0-0.95-0.05-1.28-0.14c-0.34-0.1-0.61-0.25-0.81-0.45c-0.2-0.21-0.34-0.48-0.42-0.8c-0.08-0.33-0.12-0.72-0.12-1.18v-3.01
				h-1.23c-0.16,0-0.23-0.08-0.23-0.23v-1.06c0-0.16,0.08-0.23,0.23-0.23H-2108.92z"/>
			<path id="XMLID_5_" class="st16" d="M-2090.87,975.58c0.44,0,0.81,0.04,1.1,0.11c0.29,0.07,0.52,0.19,0.69,0.36
				c0.17,0.17,0.29,0.39,0.36,0.66c0.07,0.27,0.1,0.6,0.1,0.99v1.23c0,0.28-0.06,0.47-0.18,0.58c-0.12,0.11-0.31,0.16-0.56,0.16
				h-6.55v0.31c0,0.41,0.1,0.7,0.29,0.88c0.19,0.18,0.57,0.27,1.13,0.27h5.41c0.16,0,0.23,0.08,0.23,0.23v1.09
				c0,0.16-0.08,0.23-0.23,0.23h-5.59c-0.59,0-1.08-0.05-1.47-0.14c-0.39-0.1-0.71-0.25-0.95-0.46c-0.24-0.21-0.41-0.48-0.51-0.82
				c-0.1-0.33-0.16-0.73-0.16-1.2v-1.87c0-0.47,0.05-0.87,0.16-1.2c0.1-0.33,0.27-0.61,0.51-0.82c0.24-0.21,0.55-0.37,0.95-0.47
				c0.39-0.1,0.88-0.15,1.47-0.15H-2090.87z M-2095.92,978.52h5.25c0.15,0,0.22-0.07,0.22-0.22v-0.54c0-0.27-0.06-0.46-0.17-0.57
				c-0.11-0.11-0.32-0.17-0.62-0.17h-3.25c-0.56,0-0.94,0.09-1.13,0.27c-0.19,0.18-0.29,0.47-0.29,0.89V978.52z"/>
			<path id="XMLID_2_" class="st16" d="M-2073.43,975.58v-2.32c0-0.19,0.09-0.29,0.29-0.29h1.27c0.19,0,0.29,0.1,0.29,0.29v6.82
				c0,0.47-0.05,0.87-0.16,1.2c-0.1,0.33-0.27,0.61-0.51,0.82c-0.24,0.21-0.56,0.37-0.95,0.46c-0.4,0.1-0.89,0.14-1.47,0.14h-3.63
				c-0.59,0-1.08-0.05-1.47-0.14c-0.39-0.1-0.71-0.25-0.95-0.46c-0.24-0.21-0.41-0.48-0.51-0.82c-0.1-0.33-0.16-0.73-0.16-1.2v-1.87
				c0-0.47,0.05-0.87,0.16-1.2c0.1-0.33,0.27-0.61,0.51-0.82c0.24-0.21,0.55-0.37,0.95-0.47c0.39-0.1,0.88-0.15,1.47-0.15H-2073.43z
				 M-2074.86,981.14c0.29,0,0.52-0.02,0.7-0.07c0.18-0.05,0.33-0.13,0.43-0.23c0.11-0.11,0.18-0.25,0.23-0.43
				c0.04-0.18,0.06-0.41,0.06-0.69v-2.58h-4.69c-0.28,0-0.51,0.02-0.69,0.07c-0.18,0.05-0.33,0.13-0.43,0.23
				c-0.11,0.11-0.18,0.26-0.23,0.44c-0.04,0.19-0.06,0.41-0.06,0.68v1.15c0,0.28,0.02,0.51,0.06,0.69c0.04,0.18,0.12,0.33,0.23,0.43
				c0.11,0.11,0.25,0.19,0.43,0.23c0.18,0.05,0.41,0.07,0.69,0.07H-2074.86z"/>
		</g>
	</g>
</g>
</svg>
