<?xml version="1.0" encoding="utf-8"?>
<!-- Generator: Adobe Illustrator 24.0.1, SVG Export Plug-In . SVG Version: 6.00 Build 0)  -->
<svg version="1.0" xmlns="http://www.w3.org/2000/svg" xmlns:xlink="http://www.w3.org/1999/xlink" x="0px" y="0px"
	 viewBox="0 0 2100 2200" style="enable-background:new 0 0 2100 2200;" xml:space="preserve">
<style type="text/css">
	.st0{opacity:0.33;fill:#81F7D8;}
	.st1{fill:#02A006;}
	.st2{opacity:0.75;fill:#5ACC5A;}
</style>
<g id="BG">
	<path class="st0" d="M2071.18,915.47c0,531.46-552.77,1032.27-1084.23,1032.27s-962.3-430.84-962.3-962.3
		s182.82-882.88,713.59-855.61C1088.78,147.84,2071.18,384,2071.18,915.47z"/>
</g>
<g id="Text">
</g>
<g id="Icon">
	<g>
		<path class="st1" d="M1680.64,1416.44l-221.67-221.67c-24.47-24.47-61.02-31.38-92.41-18.55l-26.16-26.11
			c0.8-0.89,1.54-1.74,2.34-2.59c31.93-35.56,57.59-75.9,76.19-119.91c22.48-53.12,33.87-109.52,33.87-167.66
			c0-29.29-2.98-58.54-8.8-86.89l-0.55-2.73c-1.29-6.17-2.79-12.38-4.33-18.45l-0.8-2.98c-1.59-6.07-3.43-12.24-5.32-18.35
			l-0.94-2.98c-3.83-11.84-8.26-23.72-13.13-35.26c-21.68-51.28-52.77-97.33-92.31-136.87c-14.82-14.82-30.79-28.65-47.45-41.08
			c-5.72-4.28-11.79-8.55-18.1-12.73c-5.92-3.98-12.14-7.91-18.4-11.64c-17.01-10.15-34.81-19.2-52.92-26.86
			c-53.12-22.48-109.52-33.87-167.66-33.87c-58.14,0-114.54,11.39-167.66,33.87c-10.64,4.53-21.44,9.6-32.03,15.17
			c-6.32,3.28-12.63,6.81-18.75,10.4c-6.12,3.58-12.23,7.41-18.2,11.34c-24.37,16.06-47.2,34.67-67.94,55.4
			c-39.54,39.54-70.57,85.59-92.26,136.87c-5.02,11.79-9.5,23.97-13.43,36.11l-0.15,0.6c-2.19,6.76-4.23,13.73-6.07,20.74
			l-0.25,0.85c-1.69,6.57-3.28,13.28-4.68,19.94l-0.5,2.29c-5.87,28.45-8.8,57.74-8.8,87.13c0,25.61,2.34,50.88,6.71,75.7
			c9.15-5.77,19.69-8.9,30.79-8.9c15.47,0,30.04,6.07,40.98,17.01l4.43,4.38c-7.26-28.55-10.99-58.09-10.99-88.18
			c0-27.1,3.03-54.16,9.05-80.37l0.6-2.39c1.39-5.92,2.93-11.89,4.63-17.71l0.55-1.79c1.84-6.22,3.93-12.48,6.22-18.85l0.15-0.45
			c24.97-69.08,69.93-128.22,130.11-170.99c5.82-4.18,11.89-8.21,18-11.99c5.82-3.68,11.84-7.21,17.95-10.54
			c27.45-15.02,56.8-26.36,87.18-33.67c27.45-6.66,55.85-10.05,84.35-10.05c18.65,0,37.45,1.49,55.8,4.33
			c49.09,7.71,95.24,25.27,137.22,52.17c6.17,3.93,12.33,8.16,18.25,12.48c6.37,4.68,12.68,9.65,18.8,14.77
			c47.3,39.59,83.75,90.82,105.54,148.11c1.04,2.78,2.04,5.57,3.03,8.36c1.59,4.62,3.18,9.4,4.63,14.22
			c0.5,1.54,0.99,3.13,1.44,4.73c1.59,5.47,3.03,11.04,4.38,16.56l0.6,2.64c6.02,26.21,9.1,53.32,9.1,80.42
			c0,80.57-26.21,156.71-75.8,220.27c-4.72,6.07-9.7,12.09-14.77,17.76c-4.97,5.62-10.25,11.19-15.62,16.51
			c-16.91,16.76-35.51,31.93-55.3,45.01c-2.24,1.49-4.58,2.83-6.86,4.28c20.94,8.7,35.71,29.39,35.71,53.46v9.3
			c10.89-6.71,21.49-13.88,31.38-21.29c4.33-3.23,8.65-6.61,12.98-10.15l27.55,27.5c-12.88,31.38-5.97,67.94,18.5,92.46
			l221.67,221.62c16.01,16.01,37.4,24.87,60.18,24.87c22.73,0,44.12-8.85,60.13-24.87c16.01-16.01,24.82-37.35,24.82-60.13
			C1705.45,1453.79,1696.65,1432.46,1680.64,1416.44z"/>
		<path class="st1" d="M904.43,1198.96c-15.72-5.47-31.18-12.09-45.95-19.75c-11.54-5.92-22.88-12.53-33.67-19.69
			c-7.86-5.17-15.47-10.79-22.88-16.61c-11.74,8.36-21.58,19.15-28.75,31.73c-3.98,6.96-7.06,14.52-9.25,22.43
			c-0.6,2.19-1.14,4.33-1.59,6.47c0.75,0.55,1.44,1.19,2.19,1.69c9.95,7.46,20.49,14.62,31.38,21.34
			c18.7,11.59,38.4,21.73,58.54,30.24c26.86,11.39,54.66,19.84,83.11,25.51c1.19-1.59,2.34-3.18,3.43-4.87
			c0.65-0.95,1.29-1.94,1.99-2.88c0.65-0.99,1.44-2.09,1.74-2.59c2.69-4.77,5.12-10.44,7.46-17.41c0.35-1.04,0.75-2.14,1.14-3.18
			c0.2-0.65,0.45-1.24,0.65-1.89c1.44-5.27,2.49-10.94,3.08-16.71l0.1-1l0.05-0.3c0.3-3.23,0.4-5.82,0.4-8.21
			c0-3.48-0.25-6.96-0.65-10.49C939.14,1209.5,921.59,1204.92,904.43,1198.96z"/>
		<path class="st1" d="M733.49,925.07c18.35,0,33.67-14.27,34.76-32.82c8.16-142.39,99.52-252.9,227.29-275.03
			c18.95-3.28,31.63-21.29,28.35-40.24c-3.28-18.95-21.29-31.68-40.24-28.35c-160.34,27.75-274.83,164.22-284.93,339.64
			c-1.09,19.2,13.58,35.66,32.78,36.75C732.15,925.07,732.84,925.07,733.49,925.07z"/>
		<path class="st2" d="M1190.3,1189.16h-25.56H1144c-6.37-53.71-27.55-102.9-59.33-143.29l32.73-32.73
			c9.75-9.8,10.79-24.97,3.13-35.96c-0.95-1.29-1.94-2.64-3.13-3.83l-8.55-8.5c-5.47-5.52-12.68-8.26-19.84-8.26
			c-7.21,0-14.42,2.74-19.89,8.26l-12.38,12.33l-20.34,20.39c-9.4-7.41-19.35-14.17-29.64-20.39
			c-33.97-20.44-72.41-34.12-113.64-38.99v-46.25c0-15.52-12.58-28.1-28.15-28.1H852.9c-15.52,0-28.1,12.58-28.1,28.1v46.25
			c-41.23,4.87-79.72,18.55-113.69,38.99c-7.76,4.72-15.22,9.8-22.53,15.17c-2.34,1.74-4.77,3.38-7.06,5.22l-20.39-20.39
			l-12.33-12.33c-5.52-5.52-12.68-8.26-19.89-8.26c-7.21,0-14.37,2.74-19.89,8.26l-3.78,3.78l-4.72,4.72
			c-1.19,1.19-2.19,2.54-3.13,3.83c-7.66,10.99-6.66,26.16,3.13,35.96l32.73,32.73c-31.83,40.38-53.02,89.57-59.38,143.29h-46.25
			c-15.52,0-28.1,12.58-28.1,28.1v12.04c0,1.69,0.2,3.28,0.45,4.87c0.1,0.55,0.25,1.09,0.35,1.64c0.05,0.15,0.1,0.25,0.15,0.35
			c3.03,12.19,14.03,21.29,27.16,21.29h46.25c0.3,2.19,0.7,4.38,1.04,6.61c1.44,10.15,3.33,20.09,5.82,29.89
			c10,39.44,28.05,75.7,52.52,106.78l-32.73,32.73c-10.99,10.99-10.99,28.75,0,39.74l8.5,8.55c5.52,5.47,12.68,8.21,19.89,8.21
			c7.21,0,14.37-2.74,19.89-8.21l32.73-32.77c40.38,31.83,89.57,53.02,143.29,59.38v46.3c0,15.52,12.58,28.1,28.1,28.1h12.04
			c15.57,0,28.15-12.58,28.15-28.1v-46.3c53.71-6.37,102.85-27.55,143.29-59.33l32.73,32.72c5.47,5.47,12.68,8.21,19.89,8.21
			c7.16,0,14.37-2.74,19.84-8.21l8.55-8.55c10.94-10.99,10.94-28.75,0-39.74l-32.73-32.73c24.42-31.08,42.52-67.34,52.52-106.78
			c1.64-6.61,2.98-13.33,4.18-20.14c0.55-3.23,1.14-6.47,1.64-9.75c0.3-2.24,0.75-4.43,0.99-6.61h44.21h2.09
			c9.1,0,17.06-4.43,22.18-11.14c2.34-3.08,4.18-6.61,5.07-10.49c0.15-0.55,0.25-1.09,0.35-1.64c0.3-1.59,0.5-3.18,0.5-4.87v-12.04
			C1218.4,1201.74,1205.82,1189.16,1190.3,1189.16z M965.85,1293.95c-11.14,16.81-25.91,31.03-43.52,41.03
			c-9.1,5.17-18.9,9.25-29.24,12.09c-10.89,3.03-22.33,4.72-34.17,4.72c-11.84,0-23.23-1.69-34.12-4.72
			c-10.34-2.83-20.14-6.91-29.29-12.09c-17.61-10-32.33-24.22-43.47-41.03c-1.64-2.44-3.38-4.72-4.82-7.26
			c-4.03-7.11-7.16-14.77-9.8-22.63c-0.75-2.24-1.64-4.38-2.29-6.61c-1.89-7.01-3.23-14.22-3.98-21.64c-0.1-0.55-0.15-1.09-0.2-1.64
			c-0.3-3.58-0.55-7.21-0.55-10.89c0-11.84,1.74-23.23,4.72-34.12c0.6-2.14,1.24-4.23,1.94-6.32c2.69-8.01,6.02-15.72,10.15-22.98
			c8.11-14.17,18.8-26.61,31.43-36.75c5.32-4.23,10.89-8.16,16.86-11.54c9.15-5.17,18.95-9.25,29.29-12.08
			c10.89-2.98,22.28-4.73,34.12-4.73c11.84,0,23.28,1.74,34.17,4.73c10.34,2.83,20.14,6.91,29.24,12.08
			c20.14,11.49,36.85,28.15,48.29,48.29c5.22,9.1,9.25,18.95,12.09,29.29c2.49,8.95,4.03,18.25,4.53,27.85
			c0.1,2.09,0.2,4.18,0.2,6.27c0,3.68-0.2,7.31-0.5,10.89c-0.05,0.55-0.15,1.09-0.2,1.64c-0.75,7.41-2.09,14.62-4.03,21.64
			c-0.6,2.24-1.49,4.38-2.24,6.61c-2.64,7.86-5.77,15.52-9.85,22.63c-0.15,0.3-0.35,0.55-0.5,0.85
			C968.78,1289.72,967.24,1291.81,965.85,1293.95z"/>
	</g>
</g>
</svg>
