<?xml version="1.0" encoding="utf-8"?>
<!-- Generator: Adobe Illustrator 24.0.1, SVG Export Plug-In . SVG Version: 6.00 Build 0)  -->
<svg version="1.0" id="_x3C_Layer_x3E_" xmlns="http://www.w3.org/2000/svg" xmlns:xlink="http://www.w3.org/1999/xlink" x="0px"
	 y="0px" viewBox="0 0 1770.89 1292.94" style="enable-background:new 0 0 1770.89 1292.94;" xml:space="preserve">
<style type="text/css">
	.st0{fill:#561C17;}
	.st1{fill:#6AA319;}
	.st2{fill:#7FC064;}
	.st3{fill:#FFFFFF;}
	.st4{fill:#00A76E;}
	.st5{fill:#7AC44C;}
	.st6{opacity:0.6;fill:#7FC064;}
	.st7{fill:#FFDF76;}
	.st8{fill:#F4F4F4;}
	.st9{opacity:0.5;}
	.st10{fill:#4DB05B;}
	.st11{fill:#00784D;}
	.st12{fill:#FFC655;}
	.st13{fill:#FFA076;}
	.st14{fill:#F47C53;}
	.st15{fill:#DAEBE8;}
	.st16{fill:#366F90;}
	.st17{fill:#8A4D27;}
	.st18{opacity:0.3;fill:#FFFFFF;}
	.st19{opacity:0.3;}
</style>
<g>
	<g>
		<path class="st0" d="M1291.05,427.71l-30.6-42.84c-7.52-10.53-19.24-16.94-32.16-17.59c-11.15-0.56-23.48-1.23-34.08-1.81
			c-26.81-1.47-71.39-0.32-110.72,0.7c-18.48,0.48-35.93,0.93-48.92,1.02c-0.16,0-0.32,0-0.47,0c-15.91,0-30.81-5.75-40.94-15.8
			c-7.74-7.68-11.99-17.37-11.99-27.28V178.16c0-10.46,4.62-20.64,13.02-28.64c10.38-9.9,25.1-15.16,40.42-14.44
			c6.9,0.33,14.71,0.91,22.98,1.52c24.15,1.79,54.22,4.03,84.98,1.72c48.94-3.67,142.52-6.83,190.9-3.24
			c30.91,2.29,53.35,20.41,53.35,43.08v145.96c0,11.33-5.47,21.47-15.82,29.33c-9.54,7.25-22.86,12.13-37.51,13.75
			c-6.57,0.73-13.13,1.25-20.04,1.6c-12.56,0.63-22.41,11.01-22.41,23.62V427.71z M1161.43,363.37c12.42,0,23.68,0.2,32.87,0.7
			c10.59,0.58,22.92,1.25,34.07,1.81c13.35,0.67,25.46,7.3,33.23,18.18l28.05,39.27v-30.92c0-13.36,10.43-24.35,23.74-25.02
			c6.88-0.35,13.41-0.87,19.96-1.59c25.92-2.86,52.08-16.86,52.08-41.68V178.16c0-21.91-21.89-39.44-52.05-41.68
			c-48.32-3.59-141.79-0.42-190.7,3.24c-30.86,2.31-60.99,0.08-85.19-1.72c-8.26-0.61-16.07-1.19-22.94-1.52
			c-14.93-0.71-29.28,4.41-39.38,14.05c-8.12,7.74-12.59,17.55-12.59,27.63v145.96c0,9.53,4.11,18.87,11.58,26.28
			c9.87,9.8,24.41,15.4,39.95,15.4c0.16,0,0.31,0,0.47,0c12.98-0.09,30.42-0.55,48.89-1.02
			C1109.36,364.1,1137.53,363.37,1161.43,363.37z"/>
	</g>
	<path class="st1" d="M1344.93,154.82c-48.19-3.58-141.59-0.45-190.8,3.24c-41.37,3.1-81.06-1.96-108.05-3.24
		c-29.06-1.38-52.7,18.97-52.7,42.38v74.57v71.39c0,23.41,23.6,42.59,52.7,42.38c39.92-0.29,119.9-3.91,159.68-1.72
		c12.4,0.68,23.7,1.29,34.07,1.81c13.06,0.66,25.1,7.24,32.7,17.88l29.32,41.05v-33.11c0-12.95,10.14-23.67,23.07-24.32
		c6.88-0.35,13.46-0.87,20-1.59c28.84-3.19,52.7-18.97,52.7-42.38V197.2C1397.63,173.79,1373.91,156.97,1344.93,154.82z"/>
	<path class="st2" d="M793.24,119.73c-21.88-1.62-64.29-0.2-86.63,1.47c-18.79,1.41-36.81-0.89-49.06-1.47
		c-13.19-0.63-23.93,8.61-23.93,19.24v33.86v32.41c0,10.63,10.71,19.34,23.93,19.24c18.13-0.13,54.44-1.77,72.51-0.78
		c5.63,0.31,10.76,0.59,15.47,0.82c5.93,0.3,11.39,3.29,14.85,8.12l13.31,18.64v-15.03c0-5.88,4.6-10.75,10.48-11.04
		c3.12-0.16,6.11-0.39,9.08-0.72c13.09-1.45,23.93-8.61,23.93-19.24v-66.28C817.17,128.34,806.4,120.7,793.24,119.73z"/>
	<g>
		<path class="st3" d="M1060.4,247.07c0-1.41,1.05-2.6,2.45-2.75c2.63-0.29,6.2-0.52,9.68-0.52c5.73,0,9.24,0.55,12.31,2.34
			c2.89,1.54,4.93,4.37,4.93,8.19c0,3.63-2.16,7.02-6.84,8.8v0.12c4.74,1.23,8.25,4.86,8.25,10.16c0,3.82-1.72,6.77-4.31,8.87
			c-3.02,2.4-8.07,3.76-16.32,3.76c-3.09,0-5.66-0.14-7.65-0.32c-1.42-0.13-2.51-1.33-2.51-2.76V247.07z M1069.7,257.77
			c0,1.53,1.24,2.77,2.77,2.77h0.31c4.99,0,7.57-2.03,7.57-5.11c0-3.14-2.4-4.8-6.65-4.8c-0.48,0-0.92,0.01-1.31,0.02
			c-1.5,0.04-2.69,1.27-2.69,2.77V257.77z M1069.7,276.31c0,1.53,1.23,2.77,2.76,2.77c0.27,0,0.56,0,0.87,0c4.25,0,8-1.66,8-6.03
			c0-4.13-3.76-5.79-8.44-5.79h-0.43c-1.53,0-2.77,1.24-2.77,2.77V276.31z"/>
		<path class="st3" d="M1135.58,264.42c0,13.67-8.19,21.86-20.38,21.86c-12.25,0-19.52-9.3-19.52-21.18c0-12.44,8-21.74,20.2-21.74
			C1128.62,243.37,1135.58,252.91,1135.58,264.42z M1105.59,264.92c0,8.19,3.82,13.92,10.1,13.92c6.34,0,9.97-6.03,9.97-14.1
			c0-7.51-3.51-13.92-9.97-13.92C1109.29,250.82,1105.59,256.85,1105.59,264.92z"/>
		<path class="st3" d="M1141.73,282.84v-35.96c0-1.53,1.24-2.77,2.77-2.77h6.58c1,0,1.92,0.54,2.41,1.4l7.82,13.8
			c2.46,4.37,4.86,9.54,6.77,14.22h0.12c-0.55-5.48-0.74-11.08-0.74-17.36v-9.3c0-1.53,1.24-2.77,2.77-2.77h3.08
			c1.53,0,2.77,1.24,2.77,2.77v35.96c0,1.53-1.24,2.77-2.77,2.77h-5.45c-1.01,0-1.94-0.55-2.42-1.43l-8.08-14.58
			c-2.46-4.43-5.23-9.79-7.2-14.65h-0.25c0.31,5.54,0.43,11.39,0.43,18.16v9.73c0,1.53-1.24,2.77-2.77,2.77h-3.08
			C1142.97,285.61,1141.73,284.37,1141.73,282.84z"/>
		<path class="st3" d="M1195.11,244.11h3.82c1.53,0,2.77,1.24,2.77,2.77v23.46c0,11.82-5.66,15.95-14.72,15.95
			c-1.32,0-2.87-0.13-4.29-0.37c-1.47-0.25-2.47-1.63-2.27-3.11l0.29-2.11c0.21-1.52,1.61-2.56,3.13-2.36
			c0.66,0.08,1.36,0.13,2.08,0.13c3.94,0,6.4-1.79,6.4-8.19v-23.4C1192.34,245.35,1193.58,244.11,1195.11,244.11z"/>
		<path class="st3" d="M1247.51,264.42c0,13.67-8.19,21.86-20.38,21.86c-12.25,0-19.52-9.3-19.52-21.18c0-12.44,8-21.74,20.2-21.74
			C1240.56,243.37,1247.51,252.91,1247.51,264.42z M1217.53,264.92c0,8.19,3.82,13.92,10.1,13.92c6.34,0,9.97-6.03,9.97-14.1
			c0-7.51-3.51-13.92-9.97-13.92C1221.22,250.82,1217.53,256.85,1217.53,264.92z"/>
		<path class="st3" d="M1260.26,244.11c1.53,0,2.77,1.24,2.77,2.77v21.06c0,7.2,2.77,10.84,7.51,10.84c4.93,0,7.64-3.45,7.64-10.84
			v-21.06c0-1.53,1.24-2.77,2.77-2.77h3.82c1.53,0,2.77,1.24,2.77,2.77v20.5c0,12.81-6.47,18.9-17.3,18.9
			c-10.47,0-16.56-5.85-16.56-19.03v-20.38c0-1.53,1.24-2.77,2.77-2.77H1260.26z"/>
		<path class="st3" d="M1295.66,247.08c0-1.41,1.05-2.59,2.45-2.75c2.77-0.32,6.23-0.53,10.04-0.53c6.16,0,10.47,0.92,13.42,3.26
			c2.53,1.97,3.88,4.93,3.88,8.74c0,5.23-3.76,8.87-7.33,10.16v0.18c2.89,1.17,4.49,3.88,5.54,7.7c0.77,2.83,1.52,5.9,2.17,8.26
			c0.49,1.76-0.85,3.5-2.67,3.5h-3.89c-1.18,0-2.24-0.75-2.62-1.87c-0.58-1.73-1.31-4.36-2.1-7.8c-1.17-5.23-2.96-6.59-6.83-6.65
			l0,0c-1.53,0-2.77,1.24-2.77,2.77v10.78c0,1.53-1.24,2.77-2.77,2.77h-3.76c-1.53,0-2.77-1.24-2.77-2.77V247.08z M1304.96,259.75
			c0,1.53,1.24,2.77,2.77,2.77h0.92c4.68,0,7.45-2.34,7.45-5.97c0-3.76-2.59-5.73-6.9-5.73c-0.59,0-1.12,0.01-1.59,0.02
			c-1.49,0.05-2.66,1.28-2.66,2.77V259.75z"/>
	</g>
	<path class="st4" d="M1126.57,901.99c-19,1.15-46.95,5.7-76.09,2.91c-34.65-3.31-100.43-6.13-134.37-2.91
		c-20.41,1.93-37.12,17.06-37.12,38.1v131.22c0,21.04,16.81,35.23,37.12,38.1c10.12,1.43,20.38,1.99,32.7,1.9
		c8.97-0.07,16.29,7.15,16.29,16.11v35.05l32.41-45.37c3.85-5.39,9.9-8.77,16.5-9.23c0.04,0,0.07-0.01,0.11-0.01
		c28.01-1.96,84.34,1.29,112.46,1.55c20.5,0.19,37.12-17.06,37.12-38.1v-64.18v-67.04C1163.69,919.05,1147.03,900.75,1126.57,901.99
		z"/>
	<g>
		<path class="st3" d="M943.54,984.59v9.89c0,2.09,1.69,3.78,3.78,3.78h9.35c2.09,0,3.78-1.69,3.78-3.78v-9.89
			c0-2.09,1.69-3.78,3.78-3.78h2.68c2.09,0,3.78,1.69,3.78,3.78v37.86c0,2.09-1.69,3.78-3.78,3.78h-2.68
			c-2.09,0-3.78-1.69-3.78-3.78v-11.44c0-2.09-1.69-3.78-3.78-3.78h-9.35c-2.09,0-3.78,1.69-3.78,3.78v11.44
			c0,2.09-1.69,3.78-3.78,3.78h-2.68c-2.09,0-3.78-1.69-3.78-3.78v-37.86c0-2.09,1.69-3.78,3.78-3.78h2.68
			C941.85,980.81,943.54,982.5,943.54,984.59z"/>
		<path class="st3" d="M1021.25,1003.05c0,14.96-8.96,23.93-22.31,23.93c-13.41,0-21.36-10.18-21.36-23.18
			c0-13.61,8.76-23.79,22.11-23.79C1013.63,980,1021.25,990.45,1021.25,1003.05z M988.43,1003.59c0,8.96,4.18,15.23,11.05,15.23
			c6.94,0,10.92-6.61,10.92-15.43c0-8.22-3.84-15.23-10.92-15.23C992.47,988.16,988.43,994.76,988.43,1003.59z"/>
		<path class="st3" d="M1031.84,980.81h2.68c2.09,0,3.78,1.69,3.78,3.78v29.23c0,2.09,1.69,3.78,3.78,3.78h10.5
			c2.09,0,3.78,1.69,3.78,3.78v1.06c0,2.09-1.69,3.78-3.78,3.78h-20.74c-2.09,0-3.78-1.69-3.78-3.78v-37.86
			C1028.05,982.5,1029.75,980.81,1031.84,980.81z"/>
		<path class="st3" d="M1072.64,1017.35l-1.7,6.12c-0.45,1.64-1.95,2.77-3.65,2.77h-2.6c-2.54,0-4.36-2.45-3.62-4.88l11.52-37.86
			c0.48-1.59,1.95-2.68,3.62-2.68h7.89c1.66,0,3.12,1.08,3.61,2.66l11.8,37.86c0.76,2.44-1.06,4.91-3.61,4.91h-3.17
			c-1.67,0-3.14-1.09-3.62-2.69l-1.88-6.27c-0.48-1.6-1.95-2.69-3.62-2.69h-7.32C1074.59,1014.58,1073.09,1015.71,1072.64,1017.35z
			 M1079.88,1006.89c2.53,0,4.34-2.43,3.63-4.85l-1.41-4.79c-0.81-2.7-1.62-6.07-2.29-8.76h-0.13c-0.67,2.7-1.35,6.13-2.09,8.76
			l-1.35,4.83C1075.56,1004.5,1077.37,1006.89,1079.88,1006.89L1079.88,1006.89z"/>
	</g>
	<path class="st5" d="M377.69,656.82c-33.94-2.96-99.72-0.37-134.37,2.68c-29.14,2.57-57.09-1.62-76.09-2.68
		c-20.46-1.14-37.12,15.71-37.12,35.09v61.74v59.11c0,19.38,16.62,35.26,37.12,35.09c28.12-0.24,84.44-3.24,112.46-1.43
		c0.04,0,0.07,0,0.11,0.01c6.63,0.43,12.75,3.68,16.83,8.93l32.08,41.36V868.3c0-10.31,8.35-18.7,18.66-18.69
		c11.28,0.01,20.86-0.53,30.33-1.76c20.31-2.64,37.12-15.71,37.12-35.09V691.91C414.8,672.53,398.1,658.6,377.69,656.82z"/>
	<g>
		<path class="st3" d="M266.99,779.31c1.97-8.73,7.29-21.44,13.01-31.28c0.16-0.28,0.51-0.4,0.81-0.29l4.3,1.53
			c0.39,0.14,0.57,0.59,0.36,0.96c-5.37,9.75-10.51,22.47-12.4,31.16c-0.09,0.4-0.51,0.63-0.9,0.49l-4.76-1.79
			C267.1,779.96,266.92,779.64,266.99,779.31z M271.42,747.62c-1.75-6.24-3.67-16.41-4.03-19.47c-0.05-0.39,0.26-0.74,0.65-0.75
			l2.6-0.07h40.83c0.47,0,0.79-0.46,0.63-0.89c-1.6-4.57-2.96-9.36-4.1-14.09c-0.07-0.29-0.32-0.5-0.62-0.51c-0.01,0-0.02,0-0.03,0
			c-0.77-0.03-0.88-1.14-0.13-1.33l5.75-1.52c0.37-0.1,0.75,0.13,0.83,0.51c3.16,14.29,8.5,28.48,15,37.2
			c0.23,0.31,0.16,0.75-0.17,0.96c-1.2,0.79-2.64,2.01-3.66,2.97c-0.3,0.28-0.77,0.24-1.01-0.09c-3.34-4.55-6.43-10.39-9.1-16.83
			c-0.1-0.25-0.35-0.42-0.62-0.42h-14.09c-0.37,0-0.68,0.3-0.68,0.68v53.85c0,1.26,1.02,2.28,2.28,2.28h3.1c1.51,0,3.34,0,5.29-0.06
			c0.5-0.01,0.84,0.5,0.63,0.96c-0.74,1.59-1.39,3.49-1.75,5.01c-0.07,0.3-0.35,0.51-0.66,0.51c-12.75-0.03-15.14-1.32-15.14-8.03
			v-54.53c0-0.37-0.3-0.68-0.68-0.68h-17.34c-0.42,0-0.74,0.37-0.67,0.79c0.76,4.54,1.59,9.15,2.28,12.44
			c0.08,0.37-0.16,0.73-0.53,0.8l-4.1,0.79C271.86,748.16,271.52,747.96,271.42,747.62z M315.05,748.88
			c2.86,11.53,7.51,23.06,12.95,30.18c0.25,0.33,0.16,0.8-0.21,1c-1.23,0.67-2.72,1.61-3.78,2.42c-0.3,0.23-0.72,0.18-0.95-0.12
			c-5.7-7.5-10.67-19.34-13.64-30.56c-0.07-0.27-0.29-0.46-0.57-0.49c-0.12-0.01-0.23-0.03-0.33-0.05c-0.69-0.14-0.7-1.13-0.02-1.31
			l5.71-1.55C314.58,748.29,314.96,748.51,315.05,748.88z M341.05,796.32h-4.98c-0.37,0-0.68-0.3-0.68-0.68v-58.86
			c0-0.32-0.23-0.59-0.55-0.66c-0.09-0.02-0.17-0.04-0.25-0.06c-0.65-0.2-0.63-1.12,0.02-1.3l0.86-0.24
			c0.4-0.11,0.61-0.55,0.43-0.93c-3.19-6.82-6.05-14.05-8.48-21.21c-0.09-0.27-0.35-0.45-0.64-0.45c-0.26,0-0.5-0.03-0.73-0.09
			c-0.64-0.18-0.63-1.1,0.01-1.29l6.13-1.85c0.35-0.11,0.73,0.09,0.84,0.44c5.32,17.04,13.57,34.44,22.21,44.95
			c0.21,0.26,0.21,0.62-0.02,0.87c-1,1.12-2.31,2.73-3.17,3.94c-0.26,0.37-0.8,0.38-1.08,0.02c-2.75-3.52-5.44-7.52-8.01-11.86
			c-0.35-0.59-1.26-0.34-1.26,0.34v48.24C341.73,796.02,341.43,796.32,341.05,796.32z"/>
		<path class="st3" d="M195.41,750.09v-10.73c0-0.2-0.09-0.39-0.24-0.52c-7.06-5.82-14.99-14.57-19.86-21.46
			c-0.08-0.11-0.19-0.2-0.32-0.24c-0.15-0.05-0.3-0.11-0.44-0.18c-0.48-0.23-0.52-0.9-0.07-1.19l3.95-2.46
			c0.17-0.1,0.37-0.13,0.56-0.07l0.84,0.26c0.06,0.02,0.13,0.03,0.2,0.03h40.44c0.37,0,0.68,0.3,0.68,0.68v4.6
			c0,0.37-0.3,0.68-0.68,0.68h-34.37c-0.56,0-0.88,0.64-0.54,1.08c3.72,4.93,8.46,10.29,12.98,14.15c0.13,0.11,0.31,0.17,0.48,0.16
			l2.13-0.13c0.39-0.02,0.72,0.29,0.72,0.67v14.67c0,0.37,0.3,0.68,0.68,0.68h21.81c0.37,0,0.68,0.3,0.68,0.68v4.79
			c0,0.37-0.3,0.68-0.68,0.68h-21.81c-0.37,0-0.68,0.3-0.68,0.68v30.71c0,1.98,0.95,1.98,4.16,1.98c2.43,0,6.14-0.08,10.25-0.17
			c0.5-0.01,0.83,0.5,0.63,0.95c-0.71,1.58-1.41,3.47-1.78,4.87c-0.08,0.29-0.35,0.49-0.65,0.5c-16.26,0.16-19.04-1.03-19.04-8.23
			v-30.61c0-0.37-0.3-0.68-0.68-0.68h-21.43c-0.37,0-0.68-0.3-0.68-0.68v-4.79c0-0.37,0.3-0.68,0.68-0.68h21.43
			C195.11,750.76,195.41,750.46,195.41,750.09z M228.96,728.55h13.63c0.43,0,0.75-0.4,0.66-0.82c-1.31-5.85-2.52-11.53-3.5-16.56
			c-0.05-0.27-0.27-0.49-0.54-0.53c-0.92-0.15-1.36-0.51-1.44-1.08l7.12-0.87c0.35-0.04,0.68,0.19,0.74,0.54
			c1.08,5.74,2.33,12.13,3.74,18.79c0.07,0.31,0.34,0.54,0.66,0.54h9.55c0.37,0,0.68,0.3,0.68,0.68v4.6c0,0.37-0.3,0.68-0.68,0.68
			h-7.93c-0.43,0-0.76,0.4-0.66,0.83c2.63,11.66,5.42,23.07,7.7,31.17c0.09,0.31-0.05,0.63-0.34,0.77l-4.16,2.19
			c-0.38,0.2-0.85,0-0.97-0.42l-0.68-2.48c-0.12-0.44-0.62-0.64-1.01-0.4c-3.18,1.96-6.42,4.13-9.53,6.45
			c-0.27,0.21-0.35,0.59-0.18,0.89c4.51,7.93,10.1,13.76,16.71,17.49c0.38,0.22,0.47,0.72,0.17,1.04c-1.06,1.15-2.26,2.7-3.04,3.99
			c-0.19,0.32-0.61,0.42-0.93,0.22c-7.1-4.39-13.08-10.48-17.72-18.68c-0.21-0.37-0.7-0.46-1.02-0.19
			c-3.59,2.98-6.72,5.94-8.94,8.64c-0.28,0.34-0.8,0.33-1.07-0.02l-3.04-4.08c-0.19-0.25-0.18-0.59,0.01-0.83
			c2.48-3,6.15-6.24,10.41-9.57c0.24-0.19,0.33-0.52,0.2-0.8c-4.59-10.4-7.55-23.63-8.85-40.06c-0.01-0.07-0.02-0.14-0.05-0.21
			l-0.22-0.5c-0.16-0.38,0.05-0.82,0.45-0.92l2.67-0.7c0.11-0.03,0.23-0.03,0.34,0l0.89,0.22
			C228.85,728.54,228.9,728.55,228.96,728.55z M231.12,735.26c1.31,12.44,3.9,22.9,7.45,31.39c0.16,0.39,0.65,0.53,1,0.3
			c3.6-2.39,7.27-4.77,10.87-6.76c0.27-0.15,0.4-0.45,0.32-0.75c-1.91-7.48-3.99-15.97-5.9-24.4c-0.07-0.31-0.34-0.53-0.66-0.53
			H231.8C231.4,734.5,231.08,734.86,231.12,735.26z"/>
	</g>
	<path class="st6" d="M1129.81,603.03c103.53-62.16,243.98-130.87,282.32-73.58c46.2,69.03-117.37,97.94-245.11,137.94
		C1121.19,681.74,1063.83,642.65,1129.81,603.03z"/>
	<path class="st6" d="M619.69,793.56c-66.9,80.53-162.14,176.98-209.92,141.09c-57.58-43.25,67.98-113.76,161.04-183.09
		C604.19,726.69,662.32,742.24,619.69,793.56z"/>
	<g>
		<path class="st7" d="M1039.65,672.27c0,0,414.54-149.89,465.96-21.6s-308.23,31.08-427.01,79.03L1039.65,672.27z"/>
		<g>
			<path class="st8" d="M1061.15,704.59c81.43-34.6,181.12-43.91,250.4-45.62c75.11-1.86,131.64,4.56,132.2,4.62l0.41-3.51
				c-0.56-0.07-57.33-6.51-132.69-4.65c-69.59,1.72-169.75,11.08-251.7,45.9L1061.15,704.59z"/>
		</g>
	</g>
	<g>
		<path class="st7" d="M652.44,665.48c0,0-31.12,389.28-153.44,383.71c-122.32-5.57,87.95-259.98,92.85-373.36L652.44,665.48z"/>
		<g>
			<path class="st8" d="M618.49,670.97c-1.95,78.36-31,162.17-55.03,218.67c-26.05,61.26-51.95,104.49-52.21,104.92l2.68,1.61
				c0.26-0.43,26.27-43.85,52.4-105.31c24.13-56.76,53.31-140.97,55.27-219.82L618.49,670.97z"/>
		</g>
	</g>
	<g>
		<g>
			<path class="st2" d="M1283.73,958.35c-31.41-28.39-78.28,13.72-96.34-31.37c-15.25-38.14-14.22-43.02-31.61-47.53
				c-5.96-1.55-12.12-2.15-18.27-1.97c-7.38,0.21-19.35-1.01-28.14-9.61c-53.7-52.54-23.8-198.55,70.21-171
				c6.79,1.99,12.88,7.6,19.26,14.08c34.6,35.16,25.28,60.54,94.32,58.23c69.06-2.3,32.54,88.06,53.95,112.92
				c21.41,24.86,46.17,42.54,32.89,83.42C1366.7,1006.43,1315.11,986.76,1283.73,958.35z"/>
		</g>
		<g class="st9">
			<g>
				<path class="st8" d="M1128.65,762.45l0.97-2.61c1.15,0.43,116.61,44.77,245.82,216.18l-2.22,1.68
					C1244.49,806.93,1129.79,762.87,1128.65,762.45z"/>
			</g>
			<g>
				<path class="st8" d="M1273.83,822.6c4.19-37.85,17.72-53.69,18.29-54.34l2.1,1.83c-0.14,0.15-13.53,15.94-17.62,52.82
					L1273.83,822.6z"/>
			</g>
			<g>
				<path class="st8" d="M1252.28,844.1c6.75-14.63,23.6-25.8,48.72-32.29c18.81-4.86,35.89-5.44,36.06-5.44l0.09,2.78
					c-0.67,0.02-66.82,2.47-82.34,36.12L1252.28,844.1z"/>
			</g>
			<g>
				<path class="st8" d="M1289.14,887.16c0.33-4.38,0.75-6.93,0.77-7.04l2.74,0.48c-0.09,0.54-9.03,54.2,25.39,99.23l-2.21,1.69
					C1288.1,945.24,1287.93,903.48,1289.14,887.16z"/>
			</g>
			<g>
				<path class="st8" d="M1253.05,947.32c4.18-18.91,13.74-30.32,21.02-36.55c7.93-6.79,14.81-9.05,15.1-9.14l0.86,2.65
					c-0.27,0.09-26.61,9.01-34.26,43.65L1253.05,947.32z"/>
			</g>
		</g>
	</g>
	<path class="st2" d="M1264.31,481.35c10.78-7.22,17.13-4.67,21.01,1.13c3.88,5.8,3.82,12.64-6.95,19.86
		c-19.63,13.15-36.15,9.01-36.15,9.01S1244.39,494.69,1264.31,481.35z"/>
	<path class="st2" d="M1381.1,737.97c15.58,3.44,18.71,11.26,16.86,19.64c-1.85,8.38-7.99,14.15-23.57,10.71
		c-28.38-6.27-38.74-24.47-38.74-24.47S1352.3,731.61,1381.1,737.97z"/>
	<g>
		<g>
			<path class="st2" d="M710.83,363.39c-9.69,1.19-12.95-1.53-13.42-5.33c-0.47-3.8,2.04-7.23,11.72-8.43
				c17.65-2.17,27.03,3.65,27.03,3.65S728.74,361.18,710.83,363.39z"/>
			<g>
				<g>
					<path class="st2" d="M641.4,479.47l-1.65-1.88c2.87-26.99,3.15-60.72-3.56-99.01c-0.12-0.67-0.24-1.34-0.36-2.01
						c-2.28-12.63-5.32-25.75-9.29-39.27c-0.85-2.92-1.75-5.86-2.69-8.82l1.76-0.56c0.93,2.91,1.81,5.8,2.65,8.67
						c7.92,26.99,12.21,52.36,14.08,75.5c0.07,0.71,0.12,1.42,0.17,2.13C644.35,438.77,643.49,460.77,641.4,479.47z"/>
				</g>
				<g>
					<path class="st2" d="M642.13,414.47l-1.03-1.53c55.65-37.49,62.88-109.12,62.94-109.84l1.84,0.17
						C705.81,303.99,698.52,376.48,642.13,414.47z"/>
				</g>
				<g>
					<path class="st2" d="M628.49,375.91c-17.23-7.45-26.51-21.71-26.62-21.87l1.56-1c0.12,0.18,12.03,18.43,33.83,23.91l-0.45,1.79
						C633.87,378,631.09,377.03,628.49,375.91z"/>
				</g>
				<g>
					<path class="st2" d="M626.81,318.53c5.47,11.98,4.28,16.83,0.8,18.42c-3.48,1.59-7.93-0.68-13.4-12.66
						c-9.97-21.81-8.48-35.24-8.48-35.24S616.7,296.4,626.81,318.53z"/>
				</g>
				<g>
					<path class="st2" d="M608.8,350.52c8.83,9.77,9.15,14.75,6.31,17.32c-2.84,2.57-7.77,1.74-16.59-8.03
						c-16.08-17.79-18.71-31.04-18.71-31.04S592.48,332.47,608.8,350.52z"/>
				</g>
				<g>
					<path class="st2" d="M657.53,356.4c-1.73,9.61-5.3,11.92-9.06,11.24c-3.77-0.68-6.3-4.09-4.57-13.69
						c3.15-17.5,11.49-24.73,11.49-24.73S660.72,338.64,657.53,356.4z"/>
				</g>
				<g>
					<path class="st2" d="M712.43,297.94c-2.27,12.97-6,16.29-9.77,15.63c-3.77-0.66-6.15-5.05-3.88-18.02
						c4.13-23.62,12.95-33.85,12.95-33.85S716.62,273.97,712.43,297.94z"/>
				</g>
			</g>
		</g>
	</g>
	<path class="st2" d="M619.16,464.61c0,0-115.95-244.69-181.17-210.73s114.03,146.75,145.53,219.05L619.16,464.61z"/>
	<g>
		<path class="st10" d="M611.36,477.7c0,0-210.65-266.77-296.51-203.63c-85.86,63.14,189.31,145.7,247.64,225.41L611.36,477.7z"/>
		<g>
			<path class="st8" d="M584.13,490.13c-39.28-55.78-100.81-102.42-145.51-131.71c-48.46-31.76-88.1-50.54-88.5-50.73l1.16-2.47
				c0.4,0.19,40.21,19.05,88.83,50.91c44.9,29.43,106.71,76.29,146.24,132.42L584.13,490.13z"/>
		</g>
	</g>
	<g>
		<g>
			<path class="st7" d="M534.89,656.61c-18.03,27.39-77.49,25.09-100.67,6.55c-6.62-5.29-35.08-43.96-98.11-43.87
				c-45.21,0.04-43.55-39.48-57.24-70.71c-0.24-0.57-0.5-1.14-0.76-1.7c-5.36-11.61-13.05-21.93-26.35-28.43
				c-14.12-6.88-28.16-16.08-40.03-26.57c-0.99-0.86-1.96-1.74-2.92-2.64c-23.37-21.71-37.01-48.33-23.15-70.94
				c0.32-0.54,0.67-1.07,1.03-1.59c2.51-3.7,5.77-7.3,9.88-10.73c42.81-35.76,76.07-14.5,116.36-0.73
				c22.28,7.61,60.09-15.78,94.63-23.99c0.49-0.12,0.99-0.23,1.48-0.34c27.36-6.16,52.49-2.31,65.94,34.69c0,0.01,0,0.01,0,0.01
				c0.27,0.75,0.55,1.5,0.82,2.23C506.06,499.45,665.04,393.81,534.89,656.61z"/>
		</g>
		<g>
			<g>
				<path class="st8" d="M562.64,610.46l2.67-2.43c-1.07-1.18-110.29-118.78-379.19-191.48l-0.94,3.49
					C453.07,492.46,561.57,609.29,562.64,610.46z"/>
			</g>
		</g>
	</g>
	<path class="st2" d="M272.64,365.25c-10.53-4.81-11.59-10.76-9.05-16.33c2.55-5.57,7.74-8.65,18.27-3.84
		c19.18,8.77,23.83,23.09,23.83,23.09S292.1,374.14,272.64,365.25z"/>
	<g>
		<path class="st0" d="M626.86,975.6v-60.24c0-17.2-12.94-31.11-29.45-31.67c-17.39-0.59-33.57-1.77-49.48-3.59
			c-26.96-3.09-51.46-12.41-68.99-26.23c-18.95-14.94-28.96-34.2-28.96-55.7V518.39c0-43.1,41.21-77.56,97.98-81.93
			c89.33-6.88,262.11-0.82,352.49,6.21c56.85,4.42,112.4,0.14,157.03-3.3c15.27-1.18,29.7-2.29,42.43-2.91
			c27.4-1.34,54,8.23,72.97,26.29c16.19,15.41,25.1,35.17,25.1,55.64v279.77c0,19.37-8.21,38.19-23.12,52.99
			c-18.75,18.61-46.04,29.19-74.92,28.94c-23.98-0.18-56.21-1.04-90.32-1.96c-72.65-1.95-155-4.17-204.55-1.34
			c-25.94,1.48-53.3,3.01-77.56,4.22c-14.7,0.73-28.05,8.29-36.61,20.73L626.86,975.6z M650.27,434.84
			c-38.8,0-74.52,0.89-102.21,3.02c-56.02,4.32-96.69,38.18-96.69,80.53v279.77c0,21.05,9.83,39.93,28.43,54.6
			c17.33,13.66,41.58,22.87,68.28,25.94c15.87,1.82,32.02,2.99,49.37,3.58c17.28,0.59,30.81,15.12,30.81,33.08v56.48l61.52-70.95
			c8.77-12.75,22.51-20.52,37.65-21.28c24.26-1.21,51.61-2.74,77.55-4.22c49.6-2.83,131.98-0.61,204.67,1.34
			c34.11,0.92,66.32,1.78,90.29,1.96c0.28,0,0.57,0,0.86,0c28.17,0,54.76-10.38,73.06-28.54c14.64-14.53,22.71-33,22.71-51.99
			V518.39c0-20.08-8.76-39.48-24.67-54.62c-18.69-17.79-44.91-27.24-71.93-25.91l-0.03-0.7l0.03,0.7
			c-12.71,0.63-27.13,1.74-42.39,2.91c-44.68,3.44-100.29,7.73-157.25,3.3C838.03,439.23,736.54,434.84,650.27,434.84z"/>
	</g>
	<path class="st11" d="M1132.23,428.49c-50.78,2.41-125.46,11.93-203.32,6.1c-92.6-6.94-268.35-12.83-359.04-6.1
		c-54.54,4.05-99.17,35.7-99.17,79.75V782.9c0,44.04,44.91,73.75,99.17,79.75c16.28,1.8,32.7,2.94,50.36,3.52
		c17.13,0.56,30.7,14.65,30.7,31.79v75.76l63.94-89.51c8.8-12.32,22.74-19.93,37.86-20.65c23.5-1.13,49.6-2.53,79.02-4.14
		c74.85-4.11,225.36,2.7,300.49,3.24c54.77,0.39,99.17-35.7,99.17-79.75V648.56V508.23C1231.4,464.19,1186.91,425.9,1132.23,428.49z
		"/>
	<g>
		<path class="st3" d="M630.09,615.77v22.72c0,5.76,4.67,10.44,10.44,10.44h21.38c5.76,0,10.44-4.67,10.44-10.44v-22.72
			c0-5.76,4.67-10.44,10.44-10.44h4.71c5.76,0,10.44,4.67,10.44,10.44v92.58c0,5.76-4.67,10.44-10.44,10.44h-4.71
			c-5.76,0-10.44-4.67-10.44-10.44v-26.6c0-5.76-4.67-10.44-10.44-10.44h-21.38c-5.76,0-10.44,4.67-10.44,10.44v26.6
			c0,5.76-4.67,10.44-10.44,10.44h-4.71c-5.76,0-10.44-4.67-10.44-10.44v-92.58c0-5.76,4.67-10.44,10.44-10.44h4.71
			C625.41,605.34,630.09,610.01,630.09,615.77z"/>
		<path class="st3" d="M777.37,670.82H756.5c-5.76,0-10.44,4.67-10.44,10.44v6.06c0,5.76,4.67,10.44,10.44,10.44h25.75
			c5.76,0,10.44,4.67,10.44,10.44v0.17c0,5.76-4.67,10.44-10.44,10.44h-51.34c-5.76,0-10.44-4.67-10.44-10.44v-92.58
			c0-5.76,4.67-10.44,10.44-10.44h48.98c5.76,0,10.44,4.67,10.44,10.44v0.17c0,5.76-4.67,10.44-10.44,10.44h-23.4
			c-5.76,0-10.44,4.67-10.44,10.44v2.69c0,5.76,4.67,10.44,10.44,10.44h20.87c5.76,0,10.44,4.67,10.44,10.44l0,0
			C787.81,666.15,783.13,670.82,777.37,670.82z"/>
		<path class="st3" d="M820.8,605.34h4.71c5.76,0,10.44,4.67,10.44,10.44v71.03c0,5.76,4.67,10.44,10.44,10.44h24.24
			c5.76,0,10.44,4.67,10.44,10.44v0.67c0,5.76-4.67,10.44-10.44,10.44H820.8c-5.76,0-10.44-4.67-10.44-10.44v-92.58
			C810.36,610.01,815.03,605.34,820.8,605.34z"/>
		<path class="st3" d="M906.81,605.34h4.71c5.76,0,10.44,4.67,10.44,10.44v71.03c0,5.76,4.67,10.44,10.44,10.44h24.24
			c5.76,0,10.44,4.67,10.44,10.44v0.67c0,5.76-4.67,10.44-10.44,10.44h-49.82c-5.76,0-10.44-4.67-10.44-10.44v-92.58
			C896.37,610.01,901.04,605.34,906.81,605.34z"/>
		<path class="st3" d="M1079.68,660.89c0,37.37-22.39,59.76-55.72,59.76c-33.5,0-53.36-25.42-53.36-57.9
			c0-34,21.88-59.42,55.21-59.42C1060.66,603.32,1079.68,629.41,1079.68,660.89z M997.7,662.23c0,22.39,10.44,38.04,27.61,38.04
			c17.34,0,27.27-16.5,27.27-38.55c0-20.54-9.59-38.04-27.27-38.04C1007.8,623.69,997.7,640.18,997.7,662.23z"/>
	</g>
	<g>
		<path class="st0" d="M1196.13,1024.01c0,0,2.11,13.75,7.72,20.76c3.7,4.62,13.9,13.77,6.64,16.82
			c-5.79,2.44-16.95-8.41-20.57-11.1c-3.62-2.7-9.08-7.8-7.87-12.15c2.51-9.01,1.68-20.34,1.68-20.34L1196.13,1024.01z"/>
		<path class="st0" d="M1155.54,1013.35c0,0-2.8,13.63,0.02,22.15c1.86,5.62,8.24,17.75,0.38,18.08
			c-6.28,0.27-12.97-13.78-15.43-17.56c-2.46-3.79-5.8-10.47-3.16-14.13c5.49-7.58,8.65-18.49,8.65-18.49L1155.54,1013.35z"/>
		<g>
			<path class="st12" d="M1159.47,1022.98c75.2-50.16,71.49-94.11,61.07-111.3c-12.1-19.96-31.27-35.74-60.64-42.78
				c-7.83-1.88-15.28-2.96-21.51-3.59c-9.02-0.9-16.79,6.3-16.55,15.36l0.67,25.59l-0.06,0c12.55-0.26,50.61,3.56,60.59,23.85
				c2.07,4.22-48.55,63.67-46.66,74.34C1138.53,1016.53,1152.12,1027.88,1159.47,1022.98z"/>
		</g>
		<g>
			<path class="st12" d="M1188.63,1030.49c8.65,0.04,15.55-7.22,15.04-15.85c-1.13-19.19-4.7-51.86-15.88-76.54
				c-6.34-14-16.42-26.72-29.95-37.83c-10.21-8.37-22.42-15.85-36.31-22.24c-23.1-10.62-39.73-9.14-39.73-9.14l-12.62,18.61
				c0.17,0.03-3.54,18.78,23.14,35.49c14.72,9.22,44.32,14.85,56.5,38.68c8.69,17.01,12.01,39.57,13.12,55.33
				c0.53,7.54,6.79,13.39,14.35,13.43L1188.63,1030.49z"/>
		</g>
		<path class="st13" d="M1171.46,802.92c0,0,15.51,23.86,21.07,59.24c3.68,23.41-38.92-3.84-38.92-3.84l-1.89-48.9L1171.46,802.92z"
			/>
		<path class="st1" d="M1093.92,789.43c0,0,11.81-20.19,39.05-14c27.23,6.2,38.33,34.01,40.28,100.82c0,0-16.36,28.94-90.76,23.3
			c-8.24-0.63-20.06-1.72-16.03-15.08C1073.95,859.62,1081.21,810.05,1093.92,789.43z"/>
		<path class="st1" d="M1063.96,795.33l28.01,5.27c0,0,48.99,14.49,62.7,14.6c13.71,0.11,19.39-9.92,19.39-9.92
			s-11.06-18.77-34.24-27.63c-2.18-0.84-4.46-1.58-6.85-2.21c-4.02-1.06-8.1-1.99-12.18-2.04
			C1074.55,772.86,1063.96,795.33,1063.96,795.33z"/>
		<path class="st0" d="M1063.96,795.33c-0.61,2.21,5.27,5.89,13.12,8.23c7.85,2.34,14.7,2.44,15.31,0.23
			c0.61-2.21-5.27-5.89-13.12-8.23C1071.42,793.22,1064.57,793.12,1063.96,795.33z"/>
		<g>
			<path class="st13" d="M1068.8,857.53c11.96,18.75,35.67,30.72,60.57,29.93l-2.65-19.98c-19.31-3.52-34.12-16.09-36.87-26.68
				c-3.46-13.31-2.28-26.28-0.62-36.03c0.16-0.92-0.21-1.85-0.95-2.42c-2.47-1.89-8.87-5.74-20.3-5.96
				c-1.02-0.02-1.92,0.66-2.18,1.65C1061.01,816.05,1058.12,840.8,1068.8,857.53z"/>
		</g>
		<g>
			<path class="st14" d="M1081.4,863.46c-0.44,0-0.9-0.09-1.36-0.28c-1.31-0.53-2.48-1.77-3.14-3.33c-1.14-2.71-0.46-5.6,1.52-6.44
				c0.77-0.33,1.65-0.32,2.53,0.04c1.31,0.53,2.48,1.77,3.14,3.33c1.14,2.71,0.46,5.6-1.53,6.44
				C1082.21,863.38,1081.81,863.46,1081.4,863.46z M1079.61,853.65c-0.34,0-0.68,0.07-0.99,0.2c-1.74,0.74-2.31,3.35-1.27,5.82
				c0.61,1.44,1.69,2.59,2.88,3.08c0.76,0.31,1.51,0.32,2.16,0.04c1.74-0.74,2.31-3.35,1.27-5.82c-0.61-1.44-1.69-2.59-2.88-3.08
				C1080.38,853.73,1079.99,853.65,1079.61,853.65z"/>
		</g>
		<g>
			<path class="st13" d="M1126.72,867.48c0,0,17.89-5.69,23.57-3c5.69,2.69,10.91,10.43,7.04,9.51c-3.88-0.92-8.51-3.46-8.51-3.46
				s9.64,5.9,7.28,7.56c-2.36,1.66-10.69-3.56-10.69-3.56s10.91,7.93,8.18,8.78c-2.73,0.84-10.98-5.24-10.98-5.24
				s9.86,7.79,6.66,8.69c-3.2,0.91-8.1-6.49-10.46-4.83c-2.36,1.66-8.37,9.26-13.77,3.28L1126.72,867.48z"/>
			<g>
				<path class="st14" d="M1148.67,870.71c-0.02-0.02-2.41-2-4.17-1.51l-0.13-0.45c2-0.57,4.49,1.51,4.6,1.6L1148.67,870.71z"/>
			</g>
			<g>
				<path class="st14" d="M1145.26,874.71c-0.02-0.02-2.36-2.01-5.06-1.8l-0.04-0.46c2.91-0.22,5.31,1.82,5.41,1.91L1145.26,874.71z
					"/>
			</g>
			<g>
				<path class="st14" d="M1142.46,878.24c-0.03-0.02-2.87-2.39-4.69-1.7l-0.16-0.44c2.07-0.78,5.02,1.67,5.15,1.78L1142.46,878.24z
					"/>
			</g>
		</g>
		<g>
			<path class="st0" d="M1148.69,895.31h57.42c1.2,0,2.27-0.76,2.65-1.9l11.93-35.64c0.6-1.79-0.74-3.65-2.65-3.65h-55.22
				c-2.52,0-4.75,1.6-5.54,3.97l-11.24,33.56C1145.44,893.46,1146.78,895.31,1148.69,895.31z"/>
			<path class="st0" d="M1152.29,895.31h57.42c1.2,0,2.27-0.76,2.65-1.9l11.93-35.64c0.6-1.79-0.74-3.65-2.65-3.65h-55.22
				c-2.52,0-4.75,1.6-5.54,3.97l-11.24,33.56C1149.04,893.46,1150.39,895.31,1152.29,895.31z"/>
			<path class="st15" d="M1192.53,873.56c0-1.35-1.56-1.9-2.92-1.9c-1.36,0-3.59,1.49-3.57,3.38c0.02,2.05,1.61,2.31,2.98,2.31
				S1192.53,875.28,1192.53,873.56z"/>
			<path class="st0" d="M1131.18,890.28h78.56v5.04h-80.2c-0.94,0-1.7-0.76-1.7-1.7l0,0
				C1127.84,891.77,1129.34,890.28,1131.18,890.28z"/>
			<g>
				<path class="st16" d="M1156.38,872.15l-0.36-0.1c0.12-0.44,2.86-10.72,4.7-14.04c1.87-3.37,4.17-4.03,4.26-4.06l0.1,0.36
					c-0.02,0.01-2.24,0.66-4.04,3.88C1159.22,861.48,1156.4,872.04,1156.38,872.15z"/>
			</g>
			<g>
				<path class="st16" d="M1147.89,890.46v-0.37c1.88,0,2.35-0.78,2.35-0.79l4.46-13.33l0.35,0.12l-4.47,13.37
					C1150.55,889.52,1150.02,890.46,1147.89,890.46z"/>
			</g>
		</g>
		<g>
			<path class="st0" d="M1200.81,988.16c-0.01-0.17-1.21-17.31-6.51-36.69c-4.88-17.86-14.35-41.34-31.71-51.73l0.24-0.4
				c17.5,10.47,27.02,34.06,31.92,52.01c5.31,19.42,6.51,36.6,6.52,36.77L1200.81,988.16z"/>
		</g>
		<g>
			<path class="st0" d="M1162.48,1020.79c-0.19-26.63-8.9-47.18-8.98-47.39l0.43-0.18c0.09,0.21,8.83,20.84,9.02,47.56
				L1162.48,1020.79z"/>
		</g>
		<path class="st0" d="M1144.4,776.77c0,0-6.36-3.27-7.06-7.06c-0.69-3.78-3.25-2.88-4.58-3.96c-1.33-1.08,3.59-10.72,3.59-10.72
			l14.18-3.71l-3.08,17.44L1144.4,776.77z"/>
		<path class="st13" d="M1115.76,773.43c2.96-0.04,5.68-1.63,7.1-4.23l4.46-8.14l1.29-2.36l7.6-13.89l-2.5,14.9l-1.5,8.94
			l-0.43,2.55c-0.35,2.08,0.94,4.07,2.97,4.64l0.04,0.01c0.94,1.91,2.12,5.72-2.59,6.74c-5.54,1.2-13.84-3.85-16.48-9.17
			C1115.73,773.43,1115.75,773.43,1115.76,773.43z"/>
		<path class="st14" d="M1127.33,760.81c-0.01,0.08-0.01,0.17-0.01,0.25c-0.1,4.87,4.86,7.62,4.86,7.62l0.03-0.02l1.5-8.94
			c-1.53-0.73-3.72-1.54-5.1-1.01C1127.89,758.97,1127.39,759.61,1127.33,760.81z"/>
		<path class="st13" d="M1150.77,748.61c0.91-9.6-4.66-17.99-12.45-18.72c-7.78-0.74-14.83,6.45-15.74,16.05s4.66,17.99,12.45,18.72
			C1142.81,765.4,1149.86,758.22,1150.77,748.61z"/>
		<path class="st3" d="M1143.2,759.25c0,0-4.83-0.34-9.48-2.49c0,0-0.85,4.71,4.34,5.52C1141.07,762.75,1143.2,759.25,1143.2,759.25
			z"/>
		<g>
			<path class="st0" d="M1138.02,747.57c0.1-0.02,0.18-0.08,0.23-0.17c0.08-0.16,0.02-0.35-0.14-0.43
				c-0.09-0.05-2.15-1.36-4.24,0.53c-0.13,0.12-0.15,0.32-0.03,0.45c0.12,0.13,0.3,0.12,0.45,0.03c1.57-0.85,3.44-0.49,3.52-0.45
				C1137.88,747.58,1137.95,747.59,1138.02,747.57z"/>
		</g>
		<path class="st0" d="M1134.48,750.63c-0.1,0.76,0.27,1.44,0.83,1.51c0.55,0.07,1.08-0.49,1.18-1.25c0.1-0.76-0.27-1.44-0.83-1.51
			C1135.11,749.31,1134.58,749.87,1134.48,750.63z"/>
		<path class="st0" d="M1143.55,752.1c-0.15,0.75,0.18,1.45,0.73,1.56c0.55,0.11,1.11-0.42,1.25-1.18s-0.18-1.45-0.73-1.56
			C1144.26,750.82,1143.7,751.34,1143.55,752.1z"/>
		<path class="st0" d="M1130.89,735.49c10.54,3.6,17.27,13.98,16.57,25.09c-0.04,0.65-0.09,1.31-0.16,1.99c0,0-7.44,0.93-8.51,8.04
			c-0.33,2.23,5.78,6.66,6.25,6.5c3.54-1.19,13.18-8.61,12.72-25.2c-0.46-16.59-5.67-29.24-20.69-31.17
			c-15.01-1.93-13.96,8.3-13.96,8.3S1125.35,733.61,1130.89,735.49z"/>
		<path class="st0" d="M1132.99,735.72c0,0-0.27,0.14-0.71,0.42c-1.71,1.08-5.99,4.25-7.19,9.47c-1.51,6.57,4.5,11.32,2.26,16.3
			c-2.24,4.98-6.34-1.23-10.19-0.71c-3.85,0.52-6.44-1.5-5.98-9.05c0.46-7.55,3.88-24.96,12.79-24.12L1132.99,735.72z"/>
		<path class="st13" d="M1122.59,748.59c1.45,1.68,3.67,2.04,4.95,0.82c1.28-1.22,1.15-3.57-0.31-5.25
			c-1.45-1.68-3.67-2.04-4.95-0.82C1121,744.57,1121.14,746.92,1122.59,748.59z"/>
		<g>
			<path class="st3" d="M1150.27,769.3c-0.01,0-0.02,0-0.03,0c-0.09-0.02-0.15-0.11-0.14-0.2c2.05-10.69-0.84-21.51-4.61-27.49
				c-5.83-9.26-13.04-8.81-13.11-8.81c-0.09,0-0.18-0.06-0.18-0.16c-0.01-0.09,0.06-0.18,0.16-0.18c0.07-0.01,7.47-0.48,13.43,8.96
				c3.81,6.04,6.73,16.96,4.66,27.73C1150.43,769.24,1150.35,769.3,1150.27,769.3z"/>
		</g>
		<g>
			<path class="st3" d="M1117.6,755.37c-0.07,0-0.14-0.04-0.16-0.11c-2.71-7.43,0.19-19.58,3.38-22.99
				c3.25-3.47,7.69-1.03,7.73-1.01c0.08,0.05,0.11,0.15,0.06,0.23c-0.05,0.08-0.15,0.11-0.23,0.07c-0.17-0.1-4.25-2.33-7.31,0.94
				c-3.14,3.35-5.98,15.32-3.31,22.64c0.03,0.09-0.01,0.19-0.1,0.22C1117.64,755.37,1117.62,755.37,1117.6,755.37z"/>
		</g>
		<g>
			<path class="st3" d="M1152.49,755.98C1152.49,755.98,1152.49,755.98,1152.49,755.98c-0.1,0-0.17-0.08-0.17-0.18
				c0.01-0.2,0.67-20.47-7.02-24.66c-7.69-4.19-14.08-0.39-14.15-0.35c-0.08,0.05-0.19,0.02-0.23-0.06
				c-0.05-0.08-0.02-0.19,0.06-0.23c0.07-0.04,6.62-3.95,14.49,0.34c7.87,4.29,7.23,24.13,7.19,24.97
				C1152.66,755.91,1152.59,755.98,1152.49,755.98z"/>
		</g>
	</g>
	<g>
		<path class="st13" d="M309.17,548.57c1.81,3.22,19.95,31.33,16.16,58.82l-19.75-7.14l-9.03-37.06L309.17,548.57z"/>
		<path class="st11" d="M230.29,537.05c0,0,12.14-21.77,41.68-15.75s45.66,48.3,37.65,132.04c0,0-46.93-18.66-107.95-3.62
			C201.67,649.72,211.71,568.62,230.29,537.05z"/>
		<path class="st11" d="M207.76,528.25l20.76,20.73c0,0,53.23,14.38,68.02,14.21c14.79-0.17,20.6-10.98,20.6-10.98
			s-12.48-19.76-37.73-28.7c-2.37-0.84-4.85-1.59-7.45-2.21c-4.36-1.05-8.79-1.65-13.19-1.91
			C232.64,517.83,207.76,528.25,207.76,528.25z"/>
		<path class="st0" d="M207.76,528.25c-3.32,3.61,1.8,7.55,7.53,13.27c5.73,5.72,11.66,9.06,13.23,7.46
			c1.57-1.61-1.8-7.55-7.53-13.27C215.26,529.98,209.29,526.6,207.76,528.25z"/>
		<path class="st13" d="M225.77,549.06c0,0,0.31-4.14-4.89-9.43c-3.13-3.18-7.1-5.26-9.76-6.42c-1.58-0.68-3.41,0.08-4.04,1.7
			l-1.66,4.29l7.75,4.99L225.77,549.06z"/>
		<path class="st1" d="M262.46,625.84c0,0-64.06-34.71-87.02,3.15c-17,28.03,8.55,54.14,103.32,51.49c0,0,9.37-4.39,7.08-27.14
			C284.94,644.33,262.46,625.84,262.46,625.84z"/>
		<path class="st1" d="M262.46,625.84c0,0,85.32-34.95,102.2-13.1c19.4,25.11,0.8,67.74-89.13,52.5l-10.96-11.9L262.46,625.84z"/>
		<g>
			<path class="st0" d="M278.86,680.63l-0.21-0.29c9.95-7.1,7.27-25.33,7.03-26.86l-64.66-23.53l0.12-0.34L286,653.21l0.02,0.1
				C286.05,653.51,289.38,673.12,278.86,680.63z"/>
		</g>
		<path class="st0" d="M286.39,659.6c0,0,15.72,0.64,23.11,4.26c7.39,3.62,3.44,12.46-11.55,12.23c-15-0.24-13.86-2.47-13.86-2.47
			S286.93,665.86,286.39,659.6z"/>
		<g>
			<path class="st13" d="M266.26,627.51c5.21,0,9.48-1.32,12.95-3.93c6.55-4.94,7.77-12.82,6.82-18.06l-6.27-3.64
				c-0.31-1.72-12.4,4.67-12.38,4.66c-0.06,0.02-5.77,1.67-25.59-8.46c-13.8-7.05-20.75-17.06-21.26-30.59
				c-0.38-10.2,4.17-15.93,5.24-18.42c0.14-0.33-6.67-7.16-6.47-7.85l-5.11-2.59c0.16-0.59-4.91-2.59-4.84-2.75l-3.94,3.36
				c-1.94,4.5-6.08,14.83-5.55,29.05c0.55,14.78,6.66,35.18,32.59,48.43C246.59,623.93,257.68,627.51,266.26,627.51z"/>
		</g>
		<g>
			<path class="st17" d="M270.47,628.34h55.28c1.16,0,2.18-0.74,2.55-1.83l11.49-34.31c0.58-1.73-0.72-3.51-2.55-3.51h-53.16
				c-2.42,0-4.57,1.54-5.34,3.82l-10.82,32.31C267.34,626.55,268.63,628.34,270.47,628.34z"/>
			<path class="st17" d="M273.94,628.34h55.28c1.16,0,2.18-0.74,2.55-1.83l11.49-34.31c0.58-1.73-0.72-3.51-2.55-3.51h-53.16
				c-2.42,0-4.57,1.54-5.34,3.82l-10.82,32.31C270.81,626.55,272.1,628.34,273.94,628.34z"/>
			<path class="st15" d="M312.67,607.39c0-1.3-1.5-1.83-2.81-1.83c-1.31,0-3.45,1.43-3.44,3.25c0.01,1.97,1.55,2.23,2.87,2.23
				C310.59,611.04,312.67,609.05,312.67,607.39z"/>
			<path class="st17" d="M253.61,623.49h75.63v4.85h-77.22c-0.9,0-1.63-0.73-1.63-1.63l0,0
				C250.4,624.93,251.84,623.49,253.61,623.49z"/>
			<g>
				<path class="st0" d="M277.87,606.04l-0.35-0.09c0.11-0.42,2.75-10.32,4.53-13.52c1.8-3.24,4.01-3.88,4.1-3.91l0.1,0.35
					c-0.02,0.01-2.16,0.63-3.89,3.74C280.61,595.76,277.89,605.93,277.87,606.04z"/>
			</g>
			<g>
				<path class="st0" d="M269.7,623.67v-0.36c1.81,0,2.26-0.75,2.26-0.76l4.3-12.84l0.34,0.11l-4.31,12.87
					C272.26,622.76,271.75,623.67,269.7,623.67z"/>
			</g>
		</g>
		<g>
			<path class="st14" d="M216.56,597.76c-0.2,0-0.4-0.03-0.62-0.09c-1.19-0.32-2.5-1.51-3.41-3.11l0,0
				c-1.4-2.45-1.44-4.99-0.09-5.78c0.42-0.25,0.94-0.3,1.51-0.15c1.19,0.32,2.5,1.51,3.41,3.11c1.4,2.45,1.44,4.99,0.09,5.77
				C217.19,597.69,216.89,597.76,216.56,597.76z M213.16,594.21c0.81,1.42,1.98,2.51,2.97,2.77c0.38,0.1,0.7,0.08,0.96-0.07
				c0.97-0.57,0.81-2.77-0.35-4.8c-0.81-1.42-1.98-2.51-2.98-2.77c-0.38-0.1-0.7-0.08-0.96,0.07
				C211.84,589.98,211.99,592.18,213.16,594.21L213.16,594.21z"/>
		</g>
		<path class="st13" d="M258.32,519.34c3.63-0.11,6.39-0.48,8.48-2.94l6.47-7.61l1.88-2.21l11.07-13.02l-5.81,15.22l-3.49,9.14
			l-1.1,2.89c-0.75,1.96,0.24,2.88,0.94,5.18c0.28,0.93,2.19,6.66-2.78,6.69c-6.19,0.05-14.02-7.15-15.74-13.36
			C258.26,519.32,258.29,519.34,258.32,519.34z"/>
		<path class="st0" d="M271.47,503.91c0,0-12.19-11.71-5.16-21.6c7.03-9.89,8.79,15.86,8.79,15.86l-1.96,5.95L271.47,503.91z"/>
		<path class="st0" d="M273.33,508.53c-0.02,0.09-0.04,0.17-0.06,0.26c-1.13,5.13,3.61,9.15,3.61,9.15l0.04-0.02l3.49-9.14
			c-1.48-1.11-3.67-2.45-5.25-2.2C274.32,506.71,273.65,507.27,273.33,508.53z"/>
		
			<ellipse transform="matrix(0.2768 -0.9609 0.9609 0.2768 -272.0536 634.5369)" class="st13" cx="285.51" cy="498" rx="17.3" ry="14.23"/>
		<path class="st0" d="M274.48,492.51c0,0,3.88,2.82,7.13,0.44c3.25-2.38,5.55-4.65,12.84-0.98c7.28,3.67,15.26,2.02,16.73-2.11
			c1.47-4.13-2-7.29-6.57-7.08c-4.57,0.2,0.97-2.3-2.21-6.64c-3.18-4.34-11.25,0.13-15.26-2.02c-4-2.15-18.26-4.02-20.82,8.19
			L274.48,492.51z"/>
		<path class="st13" d="M271.43,494.96c0.94,1.44,2.73,1.93,4.01,1.09c1.28-0.84,1.56-2.7,0.62-4.14c-0.94-1.44-2.73-1.93-4.01-1.09
			C270.77,491.66,270.5,493.51,271.43,494.96z"/>
		<g>
			<path class="st3" d="M303.13,488.43c-3.06,0-7.21-3.73-7.4-3.91l0.36-0.39c0.05,0.04,4.89,4.4,7.7,3.69
				c1.08-0.27,1.69-0.78,1.59-1.33c-0.09-0.52-0.86-1.02-1.94-0.91c-2.37,0.24-3.66-0.56-3.71-0.6l0.29-0.45
				c0.01,0.01,1.2,0.74,3.37,0.52c1.45-0.15,2.38,0.58,2.52,1.34c0.12,0.67-0.34,1.52-1.98,1.94
				C303.66,488.4,303.4,488.43,303.13,488.43z"/>
		</g>
		<g>
			<path class="st3" d="M290.55,478.21c-1.01,0-2.06-0.15-3.05-0.54c-1.27-0.5-2.37-1.08-3.43-1.64c-2.07-1.09-3.85-2.03-5.79-1.66
				l-0.1-0.52c2.12-0.41,3.99,0.57,6.14,1.71c1.05,0.56,2.14,1.13,3.38,1.62c3.7,1.45,8.04-0.64,8.31-0.87l0.39,0.36
				C296.16,476.93,293.5,478.21,290.55,478.21z"/>
		</g>
		<g>
			<path class="st3" d="M270.01,481.68c-0.08,0-0.15-0.01-0.22-0.04c-0.18-0.07-0.45-0.28-0.28-0.93l0.04-0.08
				c0.3-0.43,1.85-2.53,2.91-1.85c0.14,0.09,0.42,0.35,0.14,0.92C272.25,480.4,270.83,481.68,270.01,481.68z M270.01,480.89
				c-0.05,0.2-0.02,0.26-0.02,0.26c0.14,0.05,0.91-0.32,1.65-1.07c0.52-0.53,0.56-0.81,0.54-0.85
				C271.71,478.93,270.62,480.03,270.01,480.89z"/>
		</g>
		<g>
			<path class="st0" d="M288.24,498.45c0.09-0.01,0.17-0.06,0.21-0.15c0.08-0.14,0.03-0.32-0.11-0.4c-0.08-0.05-1.88-1.29-3.81,0.36
				c-0.12,0.1-0.14,0.29-0.04,0.41c0.1,0.12,0.26,0.11,0.41,0.04c1.43-0.72,3.09-0.34,3.16-0.3
				C288.12,498.45,288.18,498.46,288.24,498.45z"/>
		</g>
		<path class="st0" d="M285.58,501.33c-0.11,0.69,0.2,1.31,0.7,1.39c0.49,0.08,0.98-0.41,1.09-1.1c0.11-0.69-0.2-1.31-0.7-1.39
			C286.18,500.16,285.69,500.65,285.58,501.33z"/>
		<g>
			<path class="st0" d="M298.32,502.11c0.07,0.02,0.14,0,0.2-0.07c0.1-0.11,0.13-0.29,0.06-0.41c-0.04-0.07-0.88-1.82-2.82-0.92
				c-0.12,0.06-0.2,0.22-0.17,0.37c0.03,0.15,0.15,0.19,0.27,0.17c1.26-0.21,2.3,0.7,2.34,0.76
				C298.23,502.06,298.27,502.09,298.32,502.11z"/>
		</g>
		<path class="st0" d="M294.7,503.73c-0.36,0.59-0.31,1.29,0.12,1.55c0.43,0.26,1.06,0,1.42-0.6c0.36-0.59,0.31-1.29-0.12-1.55
			C295.7,502.87,295.06,503.14,294.7,503.73z"/>
		<g>
			<g>
				<path class="st0" d="M286.45,511.02c-1.73,0-4.35-0.51-5.9-3.26c-0.06-0.1-0.02-0.22,0.08-0.28c0.1-0.05,0.22-0.02,0.28,0.08
					c2.31,4.08,7,2.94,7.2,2.88c0.11-0.03,0.22,0.04,0.25,0.15c0.03,0.11-0.04,0.22-0.15,0.25
					C288.18,510.85,287.47,511.02,286.45,511.02z"/>
			</g>
			<g>
				<path class="st0" d="M280.14,508.48c-0.02,0-0.04,0-0.06-0.01c-0.11-0.04-0.16-0.15-0.13-0.26c0.17-0.5,0.61-0.97,1.33-1.38
					c0.09-0.05,0.24-0.04,0.3,0.05c0.06,0.09,0.05,0.2-0.04,0.26l-0.06,0.04c-0.78,0.45-1.05,0.88-1.15,1.16
					C280.3,508.42,280.22,508.48,280.14,508.48z"/>
			</g>
		</g>
		<g>
			
				<rect x="303.76" y="551.28" transform="matrix(0.9499 -0.3125 0.3125 0.9499 -158.6656 122.9267)" class="st0" width="0.89" height="10.44"/>
		</g>
		<g>
			<path class="st3" d="M296.32,513.54c-1.04,0-1.98-0.39-2.74-1.14c-2.43-2.41-2.32-7.99,0.26-12.45c1.58-2.74,3.81-4.55,5.94-4.84
				c1.27-0.17,2.42,0.21,3.32,1.1c2.43,2.41,2.32,7.99-0.26,12.45c-1.58,2.74-3.81,4.55-5.94,4.83
				C296.71,513.53,296.51,513.54,296.32,513.54z M300.36,495.68c-0.16,0-0.33,0.01-0.5,0.03c-1.95,0.26-4.01,1.96-5.5,4.54
				c-2.45,4.23-2.6,9.49-0.35,11.72c0.76,0.76,1.74,1.08,2.82,0.93c1.95-0.26,4.01-1.96,5.5-4.54c2.44-4.23,2.6-9.49,0.35-11.72
				C302.04,496.01,301.24,495.68,300.36,495.68z"/>
		</g>
		<path class="st18" d="M279.35,493.41c-2.08,4.43-1.51,9.82,1.29,12.04c2.79,2.22,6.75,0.43,8.83-4c2.08-4.43,1.51-9.82-1.29-12.04
			C285.39,487.18,281.44,488.98,279.35,493.41z"/>
		<path class="st18" d="M293.63,500.31c-2.09,4.45-1.81,9.85,0.63,12.06c2.44,2.21,6.11,0.4,8.2-4.06
			c2.09-4.45,1.81-9.85-0.63-12.06C299.4,494.04,295.72,495.86,293.63,500.31z"/>
		<g>
			<path class="st3" d="M283.77,506.63c-1.09,0-2.12-0.36-3.03-1.07c-3.09-2.41-3.77-8.22-1.52-12.94c1.31-2.76,3.35-4.64,5.59-5.17
				c1.54-0.37,3.01-0.04,4.25,0.93c3.09,2.41,3.77,8.22,1.52,12.94c-1.31,2.76-3.35,4.64-5.59,5.17
				C284.57,506.59,284.17,506.63,283.77,506.63z M286.01,487.9c-0.35,0-0.71,0.04-1.07,0.13c-2.03,0.48-3.97,2.29-5.18,4.84
				c-2.13,4.49-1.53,9.97,1.34,12.21c1.09,0.85,2.39,1.14,3.74,0.82c2.03-0.48,3.97-2.29,5.18-4.84c2.13-4.49,1.53-9.97-1.34-12.21
				C287.88,488.22,286.97,487.9,286.01,487.9z"/>
		</g>
		<g>
			<path class="st3" d="M293.99,502.2c-0.17,0-0.33-0.07-0.44-0.22l0,0c-0.05-0.06-1.21-1.51-3.75-1.58
				c-0.31-0.01-0.55-0.27-0.55-0.58c0.01-0.31,0.25-0.56,0.58-0.55c3.1,0.08,4.55,1.93,4.62,2.01c0.19,0.25,0.14,0.6-0.1,0.79
				C294.23,502.16,294.11,502.2,293.99,502.2z"/>
		</g>
	</g>
	<g>
		<path class="st0" d="M813.2,553.86c0,0-2.38,15.4-8.71,23.24c-4.17,5.17-15.68,15.42-7.5,18.83c6.54,2.73,19.12-9.41,23.21-12.43
			c4.09-3.02,10.25-8.74,8.88-13.61c-2.83-10.09-1.9-22.77-1.9-22.77L813.2,553.86z"/>
		<path class="st0" d="M844.8,541.92c0,0,3.16,15.26-0.02,24.8c-2.1,6.29-9.3,19.87-0.43,20.25c7.08,0.3,14.63-15.42,17.4-19.66
			c2.77-4.24,6.55-11.73,3.56-15.82c-6.19-8.48-9.76-20.7-9.76-20.7L844.8,541.92z"/>
		<g>
			<path class="st5" d="M840.37,552.7c-84.84-56.16-80.65-105.37-68.9-124.61c13.66-22.35,35.28-40.02,68.41-47.9
				c8.83-2.1,17.24-3.32,24.27-4.02c10.18-1.01,18.94,7.05,18.67,17.2l-0.76,28.65l0.06,0c-14.16-0.29-57.1,3.99-68.36,26.7
				c-2.34,4.72,54.77,71.29,52.64,83.23C864,545.48,848.66,558.19,840.37,552.7z"/>
		</g>
		<g>
			<path class="st5" d="M807.47,561.11c-9.76,0.05-17.54-8.08-16.96-17.75c1.28-21.49,5.3-58.06,17.91-85.7
				c7.15-15.67,18.52-29.92,33.8-42.35c11.52-9.37,25.3-17.75,40.97-24.9c26.06-11.89,44.83-10.23,44.83-10.23l12.27,7.36
				c-0.19,0.04,17.75,41.2-15.35,59.52c-33.9,18.76-58.79,10.32-72.53,37c-9.81,19.05-13.55,44.3-14.8,61.95
				c-0.6,8.44-7.66,14.99-16.19,15.03L807.47,561.11z"/>
		</g>
		<g>
			<path class="st0" d="M793.72,513.72l-0.52-0.03c0.01-0.19,1.37-19.43,7.36-41.17c5.54-20.09,16.28-46.51,36.02-58.23l0.27,0.45
				c-19.59,11.63-30.27,37.92-35.78,57.91C795.09,494.34,793.74,513.53,793.72,513.72z"/>
		</g>
		<g>
			<path class="st0" d="M836.97,550.25l-0.52,0c0.21-29.93,10.08-53.03,10.18-53.26l0.48,0.21
				C847,497.42,837.18,520.43,836.97,550.25z"/>
		</g>
		<path class="st13" d="M836.72,292.72c-2.7,3.49-29.09,33.53-29.42,66.7l24.6-4.98l17.17-42.23L836.72,292.72z"/>
		<path class="st12" d="M931.98,292.94c0,0-10.53-27.86-46.5-25.93c-35.98,1.93-61.25,16.12-66.47,116.53
			c0,0,49.65-2.82,106.41,30.59c9.56,5.63,24.48,4.49,25.09-6.58C951.72,385.49,947.19,343.37,931.98,292.94z"/>
		<path class="st12" d="M963.58,297.34l-31.61,10.01c0,0-65.45,7.66-82.9,4.86c-17.45-2.8-22.43-16.59-22.43-16.59
			s18.22-21.17,49.63-27.31c2.95-0.58,6.02-1.02,9.19-1.31c5.34-0.47,10.47-0.96,15.71-0.41
			C952.36,271.97,963.58,297.34,963.58,297.34z"/>
		<path class="st0" d="M963.58,297.34c1.69,3.77-5.71,7.31-14.79,10.67s-17.18,4.04-18.08,1.52c-0.91-2.53,5.71-7.31,14.79-10.67
			C954.57,295.49,962.48,294.89,963.58,297.34z"/>
		<g>
			<path class="st13" d="M873.59,393.56c-6.16-0.91-10.98-3.22-14.62-6.92c-6.88-6.99-6.93-16.51-4.89-22.55l8.05-3.21
				c0.67-1.98,13.84,7.7,13.82,7.69c0.06,0.03,6.53,2.99,31.74-5.51c17.55-5.91,27.52-16.52,30.5-32.43
				c2.24-11.99-1.66-18.15-2.49-21.28c-0.11-0.42,2.16-5.65,11.53-8.74c10.11-3.34,13.79-0.74,13.79-0.74
				c1.51,5.66,4.59,18.59,1.46,35.32c-3.25,17.38-14.04,40.42-47.02,51.54C897.47,392.79,883.73,395.07,873.59,393.56z"/>
		</g>
		<g>
			<path class="st0" d="M868.06,396.38l-66.04-1.8c-1.38-0.04-2.59-0.95-2.99-2.27l-12.6-41.36c-0.63-2.08,0.97-4.17,3.16-4.11
				l63.51,1.74c2.89,0.08,5.41,1.99,6.25,4.74l11.87,38.95C871.86,394.36,870.25,396.44,868.06,396.38z"/>
			<path class="st0" d="M863.92,396.27l-66.04-1.8c-1.38-0.04-2.59-0.95-2.99-2.27l-12.6-41.36c-0.63-2.08,0.97-4.17,3.16-4.11
				l63.51,1.74c2.89,0.08,5.41,1.99,6.25,4.74l11.87,38.95C867.71,394.24,866.11,396.33,863.92,396.27z"/>
			<path class="st15" d="M818.32,369.98c0.04-1.56,1.85-2.14,3.42-2.1c1.57,0.04,4.08,1.82,4,4c-0.08,2.35-1.93,2.61-3.5,2.57
				C820.69,374.41,818.27,371.97,818.32,369.98z"/>
			<path class="st0" d="M888.37,391.14L798,388.67l-0.16,5.79l92.25,2.52c1.07,0.03,1.97-0.82,2-1.89l0-0.03
				C892.15,392.96,890.48,391.2,888.37,391.14z"/>
			<g>
				<path class="st5" d="M859.95,369.5c-0.03-0.12-2.94-12.36-4.93-16.2c-1.96-3.76-4.49-4.58-4.52-4.59l0.13-0.41
					c0.11,0.03,2.73,0.87,4.77,4.8c2.02,3.88,4.85,15.79,4.97,16.3L859.95,369.5z"/>
			</g>
			<g>
				<path class="st5" d="M869.13,390.83c-2.45-0.07-3.03-1.17-3.05-1.21l-4.74-15.55l0.41-0.13l4.73,15.51c0,0,0,0,0,0
					c0.01,0,0.53,0.89,2.67,0.94L869.13,390.83z"/>
			</g>
		</g>
		<g class="st19">
			<path class="st14" d="M937.95,367.15c-0.55,0-1.03-0.16-1.4-0.46c-1.46-1.17-0.97-4.16,1.11-6.81c1.36-1.73,3.12-2.91,4.58-3.08
				c0.69-0.08,1.3,0.07,1.75,0.44c1.46,1.17,0.97,4.16-1.11,6.81l0,0c-1.36,1.73-3.12,2.91-4.58,3.08
				C938.18,367.14,938.06,367.15,937.95,367.15z M942.6,357.64c-0.08,0-0.17,0.01-0.26,0.02c-1.22,0.14-2.8,1.22-4,2.76
				c-1.73,2.2-2.3,4.77-1.25,5.61c0.28,0.22,0.66,0.31,1.12,0.25c1.23-0.14,2.8-1.22,4-2.76l0,0c1.73-2.2,2.3-4.77,1.25-5.61
				C943.23,357.73,942.94,357.64,942.6,357.64z"/>
		</g>
		<path class="st13" d="M891.96,262.16l-5.42-9.56l-1.58-2.78l-9.27-16.36l3.1,17.61l1.86,10.57l0.59,3.35
			c0.4,2.27-0.87,3.04-2.11,5.37c-0.5,0.94-3.78,6.69,1.61,7.79c6.71,1.37,17.26-5.23,20.44-11.55
			C901.14,266.6,893.71,265.25,891.96,262.16z"/>
		<g>
			<path class="st0" d="M860.26,229.94c0,0-0.18,4.49,2.09,9.57c2.27,5.08,4.83-9.19,4.83-9.19L860.26,229.94z"/>
			
				<ellipse transform="matrix(0.9964 -0.0847 0.0847 0.9964 -17.1553 75.2024)" class="st13" cx="877.95" cy="239.84" rx="15.96" ry="19.25"/>
			<path class="st0" d="M893.07,233.02l-7.72,0.87c-1.7,0.19-3.41-0.37-4.62-1.58c-2.08-2.08-4.21-2.92-11.19-1.11
				c-8.84,2.28-15.89-1.74-17.87-6.2c-2.02-4.55,1.83-8.77,6.81-7.48c4.97,1.29,1.83-3.86,6.01-5.39c7.8-2.86,10.67,3.01,17.21,1.37
				c8.58-2.15,25.49,1.03,21.48,17.84L893.07,233.02z"/>
			<g>
				<path class="st0" d="M876.96,239.23c-0.09-0.03-0.17-0.11-0.2-0.21c-0.05-0.17,0.04-0.35,0.21-0.4c0.1-0.03,2.36-0.97,4.1,1.28
					c0.11,0.14,0.09,0.34-0.05,0.46c-0.14,0.11-0.32,0.06-0.46-0.05c-1.4-1.12-3.32-1.09-3.4-1.06
					C877.09,239.26,877.02,239.25,876.96,239.23z"/>
			</g>
			<path class="st0" d="M879.22,242.98c-0.04,0.77-0.52,1.37-1.08,1.34c-0.56-0.03-0.98-0.68-0.94-1.45
				c0.04-0.77,0.53-1.37,1.08-1.34C878.83,241.57,879.25,242.21,879.22,242.98z"/>
			<g>
				<path class="st0" d="M865.06,240.85c-0.08,0-0.15-0.04-0.21-0.12c-0.09-0.14-0.08-0.34,0.03-0.45c0.06-0.07,1.39-1.78,3.3-0.34
					c0.12,0.09,0.17,0.28,0.1,0.44c-0.07,0.16-0.21,0.18-0.34,0.12c-1.33-0.52-2.69,0.22-2.74,0.28
					C865.16,240.82,865.11,240.85,865.06,240.85z"/>
			</g>
			<path class="st0" d="M868.65,243.46c0.26,0.73,0.04,1.47-0.49,1.66c-0.53,0.19-1.16-0.25-1.42-0.98
				c-0.26-0.73-0.04-1.47,0.49-1.66C867.76,242.29,868.39,242.73,868.65,243.46z"/>
			<path class="st0" d="M903.17,231.33c0,0-2.75,12.39-9.96,14.83c0,0,4.1-9.88-9.64-12.35
				C883.57,233.81,894.74,229.46,903.17,231.33z"/>
			<path class="st13" d="M894.11,239.82c-1.36,1.35-3.44,1.46-4.65,0.25c-1.21-1.22-1.08-3.3,0.28-4.65
				c1.36-1.35,3.44-1.46,4.65-0.25C895.59,236.38,895.47,238.47,894.11,239.82z"/>
			<path class="st0" d="M883.57,233.81c0,0,3.07,9.22,1.54,11.42c-1.53,2.2-14.05,5.75-20.47,4.75l0,0
				c1.23,6.08,6.67,10.5,12.87,10.2c2.05-0.1,4.1-0.55,6.05-1.35l0,0c3.99-1.63,7.64-4.23,8.51-8.44c0.26-1.28-2.82-8.15-2.82-8.15
				s-1.49-4.1,0.48-6.83C889.74,235.41,886.34,233.49,883.57,233.81z"/>
			<path class="st3" d="M868.52,252.71c0,0,5.15,0.25,10.35-1.42c0,0,0.3,5.09-5.29,5.28C870.32,256.68,868.52,252.71,868.52,252.71
				z"/>
			<g>
				<path class="st0" d="M859.14,216.59l-0.08-0.43c2.07-0.39,1.89-2.07,1.88-2.14l0.43-0.05
					C861.38,213.99,861.62,216.13,859.14,216.59z"/>
			</g>
			<g>
				<path class="st3" d="M866.47,229.25c-0.42-0.03-10.35-0.76-11.86-5.7c-0.44-1.43-0.39-2.46,0.13-3.15
					c0.83-1.1,2.68-1.08,4.33-1.05c0.24,0,0.48,0,0.71,0.01v0.22c-0.23,0-0.47,0-0.71-0.01c-1.59-0.02-3.39-0.05-4.15,0.97
					c-0.48,0.63-0.51,1.6-0.09,2.96c1.46,4.8,11.56,5.54,11.66,5.54L866.47,229.25z"/>
			</g>
			<g>
				<path class="st3" d="M879.03,215.7c-5.08,0-8.06-2.25-8.1-2.28l0.13-0.17c0.06,0.04,5.66,4.27,14.64,0.99l0.07,0.2
					C883.26,215.36,880.99,215.7,879.03,215.7z"/>
			</g>
		</g>
	</g>
	<g>
		<g>
			<path class="st0" d="M1337.85,488.99l-1.09-1.81c20.28-12.21,52.92-38.96,43.56-80.9l2.06-0.46c4.29,19.21,0.4,37.34-11.54,53.89
				C1360.89,473.48,1347.41,483.24,1337.85,488.99z"/>
		</g>
		<g>
			<polygon class="st0" points="1346.19,492 1339.54,486.73 1338.71,478.29 1326.19,494 			"/>
		</g>
		<g>
			<polygon class="st0" points="1390.31,409.6 1381.88,408.6 1375.31,413.97 1377.63,394.01 			"/>
		</g>
	</g>
	<g>
		<g>
			<path class="st0" d="M804.06,987.56c-13.36,0-26.15-4.22-38.19-12.63c-13.93-9.73-23.89-23.06-29.79-32.53l1.79-1.12
				c12.53,20.09,39.78,52.31,81.57,42.29l0.49,2.05C814.57,986.91,809.27,987.56,804.06,987.56z"/>
		</g>
		<g>
			<polygon class="st0" points="733.2,950.78 738.37,944.05 746.8,943.1 730.89,930.82 			"/>
		</g>
		<g>
			<polygon class="st0" points="816.28,993.62 817.15,985.18 811.68,978.69 831.67,980.7 			"/>
		</g>
	</g>
	<g>
		<g>
			<path class="st0" d="M363.21,967.85c-7.29,0-14.75-1.25-22.36-3.77c-16.13-5.33-29.5-15.24-37.87-22.62l1.4-1.58
				c17.76,15.66,53.1,38.71,90.27,17.14l1.06,1.82C385.37,964.84,374.5,967.85,363.21,967.85z"/>
		</g>
		<g>
			<polygon class="st0" points="302.63,950.32 305.65,942.39 313.45,939.06 294.7,931.86 			"/>
		</g>
		<g>
			<polygon class="st0" points="394.5,967.54 392.91,959.2 385.81,954.56 405.54,950.75 			"/>
		</g>
	</g>
	<g>
		<path class="st3" d="M681.03,157.66v21.93c0,0.79-0.64,1.44-1.44,1.44h-2.72c-0.79,0-1.44-0.64-1.44-1.44v-17.33
			c0-0.79-0.64-1.44-1.44-1.44h-5.96c-0.79,0-1.44,0.64-1.44,1.44v17.33c0,0.79-0.64,1.44-1.44,1.44h-2.72
			c-0.79,0-1.44-0.64-1.44-1.44v-21.93c0-0.79,0.64-1.44,1.44-1.44h17.15C680.38,156.23,681.03,156.87,681.03,157.66z"/>
		<path class="st3" d="M685.7,169.07c0-1.7-0.04-3.2-0.09-4.54c-0.03-0.81,0.62-1.49,1.43-1.49h2.07c0.74,0,1.35,0.56,1.43,1.29
			l0.13,1.21h0.07c1.32-1.88,3.38-2.91,6-2.91c3.94,0,7.47,3.42,7.47,9.16c0,6.55-4.16,9.64-8.17,9.64c-2.17,0-3.86-0.88-4.67-2.06
			h-0.07v7.51c0,0.79-0.64,1.44-1.44,1.44h-2.72c-0.79,0-1.44-0.64-1.44-1.44V169.07z M691.29,173.3c0,0.44,0.04,0.81,0.11,1.18
			c0.37,1.51,1.66,2.65,3.27,2.65c2.43,0,3.86-2.02,3.86-5.08c0-2.87-1.29-5.04-3.79-5.04c-1.58,0-2.98,1.18-3.35,2.83
			c-0.07,0.29-0.11,0.66-0.11,0.99V173.3z"/>
		<path class="st3" d="M711.53,163.04c0.79,0,1.44,0.64,1.44,1.44v4.08c0,2.87-0.15,4.89-0.29,7.32l0.15,0.04
			c0.85-2.06,1.32-3.46,2.06-5.15l3.11-6.88c0.23-0.51,0.74-0.84,1.31-0.84h4.48c0.79,0,1.44,0.64,1.44,1.44v15.12
			c0,0.79-0.64,1.44-1.44,1.44h-2.43c-0.79,0-1.44-0.64-1.44-1.44v-4.05c0-2.8,0.15-3.97,0.33-7.76h-0.15
			c-0.7,1.95-1.14,3.13-1.88,4.82c-1.03,2.25-2.23,5.01-3.37,7.58c-0.23,0.52-0.74,0.85-1.31,0.85h-4.44
			c-0.79,0-1.44-0.64-1.44-1.44v-15.12c0-0.79,0.64-1.44,1.44-1.44H711.53z"/>
		<path class="st3" d="M729.63,164.5c0-0.74,0.56-1.36,1.29-1.43c1.58-0.15,3.85-0.3,5.95-0.3c3.05,0,8.9,0.33,8.9,4.6
			c0,2.32-1.88,3.53-3.68,3.86v0.11c2.69,0.44,4.45,1.91,4.45,4.38c0,5.11-6.95,5.56-10.63,5.56c-1.78,0-3.63-0.09-4.97-0.2
			c-0.75-0.06-1.33-0.68-1.33-1.43V164.5z M735.11,176.46c0,0.79,0.63,1.43,1.42,1.44c0.14,0,0.29,0,0.45,0
			c1.91,0,3.83-0.55,3.83-2.32c0-1.58-1.47-2.28-4.12-2.28h-0.15c-0.79,0-1.44,0.64-1.44,1.44V176.46z M735.15,168.63
			c0,0.79,0.64,1.44,1.44,1.44l0,0c2.24,0,3.68-0.59,3.68-1.95c0-1.18-0.99-1.88-3.24-1.88c-0.19,0-0.36,0-0.52,0.01
			c-0.76,0.04-1.36,0.67-1.36,1.43V168.63z"/>
		<path class="st3" d="M756.79,173.82c-1.49,0-2,1.99-0.69,2.7c0.9,0.48,2.04,0.72,3.25,0.72c1.33,0,2.48-0.12,3.56-0.37
			c0.78-0.18,1.55,0.34,1.7,1.13l0.2,1.05c0.14,0.72-0.28,1.44-0.98,1.65c-1.58,0.48-3.38,0.71-5.3,0.71c-6.11,0-9.6-3.53-9.6-9.16
			c0-4.56,2.83-9.6,9.09-9.6c5.81,0,8.02,4.53,8.02,8.98c0,0.31-0.01,0.6-0.03,0.88c-0.05,0.75-0.68,1.33-1.43,1.33H756.79z
			 M759.11,169.99c1.03,0,1.77-1.07,1.32-2c-0.43-0.9-1.26-1.64-2.73-1.64c-1.25,0-2.1,0.61-2.65,1.4c-0.65,0.94,0.05,2.24,1.2,2.24
			H759.11z"/>
		<path class="st3" d="M783.31,164.47v1.43c0,0.79-0.64,1.44-1.44,1.44h-2.35c-0.79,0-1.44,0.64-1.44,1.44v10.82
			c0,0.79-0.64,1.44-1.44,1.44h-2.72c-0.79,0-1.44-0.64-1.44-1.44v-10.82c0-0.79-0.64-1.44-1.44-1.44h-2.35
			c-0.79,0-1.44-0.64-1.44-1.44v-1.43c0-0.79,0.64-1.44,1.44-1.44h13.17C782.67,163.04,783.31,163.68,783.31,164.47z"/>
	</g>
	<g>
		<g>
			<path class="st1" d="M719.54,1129.34c-21.01,0-45.72-1.13-60.89-2.39c-13.78-1.14-27.27-0.03-38.1,0.85
				c-3.72,0.3-7.23,0.59-10.34,0.75l0,0c-6.53,0.34-12.97-2.01-17.64-6.44c-4.31-4.09-6.78-9.64-6.78-15.24v-72.26
				c0-5.38,2.22-10.54,6.25-14.54c4.59-4.55,11.11-7.15,17.92-7.15c0.07,0,0.14,0,0.21,0c5.84,0.05,13.68,0.27,21.98,0.51
				c17.66,0.5,37.67,1.08,49.7,0.35c4.1-0.25,7.76-2.01,10.09-4.84l21.91-26.49v21.26c0,1.95,0.82,3.83,2.31,5.31
				c1.83,1.82,4.49,2.86,7.3,2.86c0.03,0,0.05,0,0.08,0c8.09-0.06,14.55,0.27,20.95,1.05c14.53,1.77,24.29,10.48,24.29,21.68v72.26
				c0,11.41-10.23,20.53-24.32,21.68C737.71,1129.11,729,1129.34,719.54,1129.34z M646.19,1125.06c4.11,0,8.33,0.14,12.57,0.49
				c21.95,1.81,63.9,3.38,85.59,1.6c13.34-1.09,23.03-9.62,23.03-20.28v-72.26c0-12.07-11.58-18.89-23.05-20.28
				c-6.34-0.77-12.74-1.09-20.77-1.04c-0.03,0-0.06,0-0.09,0c-3.18,0-6.19-1.19-8.29-3.27c-1.76-1.74-2.72-3.98-2.72-6.31v-17.35
				l-19.43,23.48c-2.59,3.13-6.6,5.07-11.02,5.34c-12.16,0.74-32.21,0.16-49.89-0.34c-8.29-0.24-16.13-0.46-21.95-0.51
				c-0.07,0-0.14,0-0.2,0c-6.44,0-12.6,2.45-16.93,6.74c-3.76,3.73-5.83,8.54-5.83,13.54v72.26c0,5.22,2.31,10.4,6.34,14.22
				c4.39,4.17,10.44,6.37,16.6,6.05l0.04,0.7l-0.04-0.7c3.08-0.16,6.59-0.45,10.29-0.75
				C627.99,1125.79,636.84,1125.06,646.19,1125.06z"/>
		</g>
		<g>
			<path class="st1" d="M611.14,1060.4c-0.2-0.62,0.1-1.28,0.68-1.56c1.63-0.78,3.85-1.44,6.65-1.44c5.37,0,8.54,2.7,8.54,6.32
				c0,3.1-2.08,5.11-4.93,5.8v0.07c3.07,0.44,5.73,2.56,5.73,5.84c0,5.51-5.51,7.41-10.11,7.41c-2.17,0-4.49-0.39-6.4-1.23
				c-0.58-0.25-0.87-0.9-0.7-1.51l0.5-1.86c0.2-0.72,0.97-1.13,1.67-0.87c1.28,0.48,3.04,0.93,4.67,0.93c2.81,0,4.53-1.2,4.53-3.25
				c0-2.7-2.85-3.25-5.18-3.25h-1.05c-0.71,0-1.28-0.58-1.28-1.28v-1.56c0-0.71,0.58-1.28,1.28-1.28h1.05c2.52,0,4.42-1.13,4.42-3.1
				c0-1.61-1.35-2.7-3.72-2.7c-1.39,0-2.89,0.41-4.14,0.9c-0.69,0.27-1.47-0.09-1.7-0.8L611.14,1060.4z"/>
			<path class="st1" d="M651.07,1059.13v17.73c0,0.68,0.53,1.24,1.21,1.28l0,0c0.69,0.04,1.22,0.62,1.21,1.31l-0.19,7.95
				c-0.02,0.7-0.59,1.25-1.28,1.25h-1.72c-0.69,0-1.25-0.54-1.28-1.22l-0.18-3.76c-0.03-0.69-0.6-1.22-1.28-1.22h-11.97
				c-0.69,0-1.25,0.54-1.28,1.22l-0.18,3.76c-0.03,0.69-0.6,1.22-1.28,1.22h-1.75c-0.7,0-1.27-0.56-1.28-1.26l-0.17-7.96
				c-0.01-0.68,0.51-1.26,1.19-1.31l0.16-0.01c0.44-0.03,0.83-0.28,1.04-0.66c0.83-1.54,1.51-3.16,2-4.86
				c0.66-2.48,0.95-5.18,0.95-8.18v-5.29c0-0.71,0.58-1.28,1.28-1.28h13.53C650.5,1057.85,651.07,1058.42,651.07,1059.13z
				 M640.12,1065.66c0,2.85-0.36,5.62-1.1,8.1c-0.24,0.82-0.53,1.63-0.85,2.39c-0.35,0.84,0.28,1.77,1.19,1.77h4.87
				c0.71,0,1.28-0.58,1.28-1.28v-12.98c0-0.71-0.58-1.28-1.28-1.28h-2.83c-0.71,0-1.28,0.58-1.28,1.28V1065.66z"/>
			<path class="st1" d="M656.66,1059.28c0-0.64,0.47-1.19,1.11-1.27c1.6-0.21,3.69-0.35,6.41-0.35c3.43,0,5.88,0.66,7.52,1.97
				c1.61,1.24,2.63,3.29,2.63,5.69c0,2.41-0.77,4.49-2.26,5.84c-1.9,1.75-4.71,2.59-7.99,2.59c-0.2,0-0.38,0-0.57-0.01
				c-0.73-0.02-1.33,0.55-1.33,1.28v6.13c0,0.71-0.58,1.28-1.28,1.28h-2.94c-0.71,0-1.28-0.58-1.28-1.28V1059.28z M662.17,1068.2
				c0,0.69,0.55,1.26,1.24,1.28c0.19,0.01,0.39,0.01,0.62,0.01c2.96,0,4.78-1.5,4.78-3.98c0-2.26-1.57-3.61-4.38-3.61
				c-0.39,0-0.75,0.01-1.05,0.03c-0.68,0.04-1.21,0.6-1.21,1.28V1068.2z"/>
			<path class="st1" d="M681.11,1077.07l-1.23,4.43c-0.15,0.56-0.66,0.94-1.24,0.94h-3.02c-0.86,0-1.48-0.83-1.23-1.66l6.7-22.03
				c0.16-0.54,0.66-0.91,1.23-0.91h5.4c0.56,0,1.06,0.37,1.23,0.9l6.87,22.03c0.26,0.83-0.36,1.67-1.23,1.67h-3.32
				c-0.57,0-1.07-0.37-1.23-0.92l-1.35-4.49c-0.16-0.54-0.66-0.91-1.23-0.91h-5.11C681.77,1076.13,681.27,1076.52,681.11,1077.07z
				 M685.9,1071.97c0.86,0,1.47-0.82,1.23-1.65l-1.05-3.57c-0.44-1.46-0.88-3.29-1.24-4.75h-0.07c-0.37,1.46-0.73,3.32-1.13,4.75
				l-1,3.59c-0.23,0.82,0.39,1.63,1.24,1.63H685.9z"/>
			<path class="st1" d="M699.59,1059.29c0-0.65,0.48-1.2,1.12-1.27c1.58-0.19,3.86-0.35,6.07-0.35c3.39,0,5.48,0.33,7.3,1.39
				c1.72,0.91,2.92,2.59,2.92,4.85c0,2.15-1.28,4.16-4.05,5.22v0.07c2.81,0.73,4.89,2.88,4.89,6.02c0,2.26-1.02,4.02-2.56,5.26
				c-1.79,1.42-4.78,2.23-9.67,2.23c-2.02,0-3.66-0.1-4.88-0.22c-0.65-0.07-1.15-0.62-1.15-1.28V1059.29z M705.1,1066.31
				c0,0.71,0.58,1.28,1.28,1.28h0.54c2.96,0,4.49-1.2,4.49-3.03c0-1.86-1.42-2.85-3.94-2.85c-0.45,0-0.82,0.01-1.14,0.03
				c-0.69,0.03-1.23,0.59-1.23,1.28V1066.31z M705.1,1077.29c0,0.7,0.56,1.28,1.26,1.28c0.27,0,0.56,0,0.89,0
				c2.52,0,4.75-0.99,4.75-3.58c0-2.45-2.23-3.43-5-3.43h-0.61c-0.71,0-1.28,0.58-1.28,1.28V1077.29z"/>
			<path class="st1" d="M744.02,1069.89c0,8.1-4.86,12.96-12.08,12.96c-7.26,0-11.57-5.51-11.57-12.56
				c0-7.37,4.75-12.89,11.97-12.89C739.89,1057.41,744.02,1063.06,744.02,1069.89z M726.24,1070.18c0,4.86,2.26,8.25,5.99,8.25
				c3.76,0,5.91-3.58,5.91-8.36c0-4.45-2.08-8.25-5.91-8.25C728.43,1061.82,726.24,1065.4,726.24,1070.18z"/>
		</g>
	</g>
</g>
</svg>
