<?xml version="1.0" encoding="utf-8"?>
<!-- Generator: Adobe Illustrator 24.0.1, SVG Export Plug-In . SVG Version: 6.00 Build 0)  -->
<svg version="1.0" xmlns="http://www.w3.org/2000/svg" xmlns:xlink="http://www.w3.org/1999/xlink" x="0px" y="0px"
	 viewBox="0 0 1927.45 1927.45" style="enable-background:new 0 0 1927.45 1927.45;" xml:space="preserve">
<style type="text/css">
	.st0{fill:transparent;}
	.st1{fill:#00872D;stroke:#1A004F;stroke-linejoin:round;stroke-miterlimit:10;}
	.st2{fill:#D8DCF6;stroke:#1A004F;stroke-linejoin:round;stroke-miterlimit:10;}
	.st3{fill:none;stroke:#1A004F;stroke-width:8;stroke-linejoin:round;stroke-miterlimit:10;}
	.st4{fill:#FFFFFF;stroke:#1A004F;stroke-linejoin:round;stroke-miterlimit:10;}
	.st5{fill:#752A05;stroke:#1A004F;stroke-linejoin:round;stroke-miterlimit:10;}
	.st6{fill:#1A004F;stroke:#1A004F;stroke-linejoin:round;stroke-miterlimit:10;}
	.st7{fill:#BFF4C7;}
	.st8{stroke:#000000;stroke-linejoin:round;stroke-miterlimit:10;}
	.st9{fill:#A17E4E;}
	.st10{fill:#596BFB;stroke:#1A004F;stroke-linejoin:round;stroke-miterlimit:10;}
	.st11{fill:#00B549;}
	.st12{fill:none;stroke:#1A004F;stroke-width:4;stroke-linejoin:round;}
	.st13{fill:#1A004F;}
	.st14{fill:#96CA9B;}
	.st15{fill:#E4FFE6;}
	.st16{fill:#79A87D;}
	.st17{fill:#D7BCA5;}
	.st18{fill:#6F6F6F;}
	.st19{fill:#E6E6E6;}
	.st20{fill:#6A4646;}
	.st21{fill:#CE5757;}
	.st22{fill:#4980B6;}
	.st23{fill:#4172AD;}
	.st24{fill:#8A6230;}
	.st25{fill:#EDF0F5;}
	.st26{fill:#D7DBE4;}
	.st27{fill:#313131;}
	.st28{fill:#F8EDB4;}
	.st29{fill:#343841;}
	.st30{fill:#2E333A;}
	.st31{opacity:0.5;fill:#ADADAD;}
	.st32{opacity:0.5;}
	.st33{fill:#ADADAD;}
	.st34{fill:#747474;}
	.st35{fill:url(#SVGID_1_);}
	.st36{fill:url(#SVGID_2_);}
	.st37{fill:url(#SVGID_3_);}
	.st38{fill:url(#SVGID_4_);}
	.st39{fill:url(#SVGID_5_);}
	.st40{fill:url(#SVGID_6_);}
	.st41{fill:url(#SVGID_7_);}
	.st42{fill:url(#SVGID_8_);}
	.st43{fill:url(#SVGID_9_);}
	.st44{fill:url(#SVGID_10_);}
	.st45{fill:url(#SVGID_11_);}
	.st46{fill:url(#SVGID_12_);}
	.st47{fill:url(#SVGID_13_);}
	.st48{fill:url(#SVGID_14_);}
	.st49{fill:url(#SVGID_15_);}
	.st50{fill:url(#SVGID_16_);}
	.st51{fill:url(#SVGID_17_);}
	.st52{fill:url(#SVGID_18_);}
	.st53{fill:url(#SVGID_19_);}
	.st54{fill:url(#SVGID_20_);}
	.st55{fill:url(#SVGID_21_);}
	.st56{fill:url(#SVGID_22_);}
	.st57{fill:url(#SVGID_23_);}
	.st58{fill:url(#SVGID_24_);}
</style>
<g id="BACKGROUND">
	<rect class="st0" width="1927.45" height="1927.45"/>
</g>
<g id="OBJECTS">
	<path class="st1" d="M1265.74,1167.59c0,0-36.63,28.62-44.07,47.5c-7.44,18.89-21.75,42.92-21.75,42.92l31.48,38.35l9.73-5.72
		c0,0,26.9-37.2,33.77-74.97C1281.76,1177.89,1270.32,1160.72,1265.74,1167.59z"/>
	<path class="st2" d="M1223.72,1405.36c0,0-21.31,143.67-17.37,209.99c3.95,66.31,19.74,166.57,19.74,166.57h266.03
		c0,0,26.05-149.2,26.05-237.62s0.79-106.57,0.79-106.57s-73.42,14.21-113.68,11.05
		C1365.03,1445.62,1223.72,1405.36,1223.72,1405.36z"/>
	<polyline class="st3" points="1241.88,1545.09 1258.45,1563.25 1278.98,1781.13 	"/>
	<path class="st3" d="M1375.55,1470.12c0,0-1.05,24.45,10.79,39.45c11.84,15,30,19.74,30,19.74"/>
	<line class="st3" x1="1423.34" y1="1612.29" x2="1424.23" y2="1779.55"/>
	<line class="st3" x1="1422.65" y1="1481.94" x2="1423.24" y2="1592.98"/>
	<line class="st3" x1="1241.53" y1="1513.72" x2="1239.51" y2="1530.88"/>
	<line class="st3" x1="1249.77" y1="1444.04" x2="1243.05" y2="1500.88"/>
	<path class="st1" d="M1345.33,1019.55c0,0-25.64,32.05-36.63,55.86c-10.99,23.81-49.45,77.84-55.86,116.3
		c-6.41,38.46-14.65,93.41-14.65,93.41s-21.98,126.38-17.4,135.54c4.58,9.16,107.15,41.21,154.77,49.45
		c47.62,8.24,85.17,9.16,107.15,0c21.98-9.16,58.61-20.15,54.95-38.46c-3.66-18.32-8.24-37.55-8.24-37.55s-8.24-213.38-8.24-233.53
		s-0.92-105.32-16.48-140.12c-15.57-34.8-22.89-43.04-22.89-43.04L1345.33,1019.55z"/>
	<polygon class="st4" points="1372.8,967.35 1338.92,979.26 1314.19,1032.37 1345.33,1019.55 1357.23,1027.8 1387.46,1001.24 	"/>
	<path class="st5" d="M1359.22,718.28c0,0-21.79,25.94-26.98,41.51c-5.19,15.57-8.3,29.06-25.94,36.32
		c-17.64,7.26-31.13,5.19-31.13,14.53c0,9.34,15.57,21.79,15.57,21.79s-3.11,56.04,1.04,72.64c4.15,16.6,13.49,20.75,19.72,20.75
		c6.23,0,43.58-4.15,43.58-4.15l22.83,65.37l92.36-37.36l-9.34-51.88c0,0,22.83-36.32,24.9-53.96c2.08-17.64-14.53-71.6-49.81-99.62
		C1400.73,716.21,1373.75,711.02,1359.22,718.28z"/>
	<path class="st3" d="M1309.86,852.67c0,0,17.05,6.93,34.11-6.4"/>
	<polygon class="st6" points="1355.07,921.67 1389.8,916.62 1361.02,936.87 	"/>

		<ellipse transform="matrix(0.2696 -0.963 0.963 0.2696 218.9899 1866.6705)" class="st3" cx="1339.97" cy="788.98" rx="34.91" ry="29.04"/>
	<line class="st3" x1="1367.95" y1="800.44" x2="1427.71" y2="818.94"/>
	<path class="st7" d="M1341.15,791.64c-1.46,4.94-4.24,8.47-6.22,7.89c-1.98-0.58-2.39-5.06-0.94-10c1.46-4.94,4.24-8.47,6.22-7.89
		C1342.19,782.22,1342.61,786.7,1341.15,791.64z"/>
	<path class="st3" d="M1341.3,761c0,0,10.66-0.53,15.45,7.99"/>
	<path class="st8" d="M1440.16,660.17c0,0-12.45-30.09-59.15-22.83c-46.7,7.26-41.51,76.79-25.94,100.66
		c15.57,23.87,53.96,49.81,53.96,49.81s2.08,13.49,6.23,23.87c4.15,10.38,12.45,7.26,12.45,7.26s14.53,14.53,20.75,41.51
		c6.23,26.98-5.19,43.58,25.94,49.81c31.13,6.23,49.81-4.15,57.07-20.75c7.26-16.6,12.45-30.09,13.49-34.24
		c1.04-4.15,51.88-38.39,44.62-91.32c-7.26-52.92-43.58-88.2-81.98-100.66C1469.22,650.83,1440.16,660.17,1440.16,660.17z"/>
	<path class="st9" d="M1414.22,833.47c0,0,25.94-42.55,39.43-23.87c13.49,18.68,12.45,40.47-5.19,50.85
		c-17.64,10.38-32.17,9.34-32.17,9.34"/>
	<path class="st8" d="M1566.76,709.98c0,0-28.02-17.64-15.57-67.45c12.45-49.81,55-58.11,52.92-44.62
		c-2.08,13.49-13.49,30.09-13.49,30.09s78.86-39.43,112.07-11.41c33.21,28.02,39.43,98.58,18.68,121.41
		c-20.75,22.83-79.9,12.45-79.9,12.45s21.79,14.53,0,18.68C1619.69,773.28,1572.99,739.03,1566.76,709.98z"/>
	<polygon class="st4" points="1472.62,935.3 1351.74,987.5 1354.49,1052.52 1491.85,979.26 	"/>
	<path class="st1" d="M1411.27,1047.94c0,0-10.99,7.33-28.39,52.2c-17.4,44.87-47.62,208.8-48.54,214.29
		c-0.92,5.49-43.04,30.22-53.12,32.97c-10.07,2.75-144.69-4.58-144.69-4.58s-10.07,2.75-10.07,18.32s2.75,23.81,8.24,27.47
		c5.49,3.66,22.89,0.92,22.89,0.92s134.62,56.78,178.58,59.53c43.96,2.75,98.91,7.33,126.38-44.87
		c27.47-52.2,62.27-206.05,62.27-278.4c0-72.35-9.16-122.72-57.69-109.89"/>
	<path class="st3" d="M1340.75,1315.35c0,0,18.32-27.47,23.81-61.36"/>
	<path class="st4" d="M1154.7,1298.65c0,0,37.77,12.02,45.21,12.02s16.6-9.73,20.6-20.6c4.01-10.87,9.54-9.93,6.67-15.66
		c-2.86-5.72-20.01-23.15-27.45-20.86c-7.44,2.29-16.43,15.91-18.15,18.2C1179.89,1274.04,1154.7,1298.65,1154.7,1298.65z"/>
	<path class="st4" d="M1155.85,1255.73c0,0-24.04,1.14-25.18,4.01c-1.14,2.86-7.44,37.77-4.58,42.35c2.86,4.58,5.72,4.58,8.58-1.72
		c2.86-6.3,8.01-28.04,8.01-28.04l12.59-1.72L1155.85,1255.73z"/>
	<path class="st5" d="M1154.13,1242.56c0,0-10.87,20.6-11.45,29.76c-0.57,9.16,1.14,35.48,4.58,37.2c3.43,1.72,9.16,2.29,9.73-1.14
		c0.57-3.43,0-26.33,0-26.33s10.87-22.32,12.59-29.76C1171.3,1244.85,1158.14,1237.99,1154.13,1242.56z"/>
	<path class="st5" d="M1169.59,1252.29c0,0-14.31,24.61-12.59,29.76s-0.57,29.76,1.72,31.48c2.29,1.72,5.72,1.72,8.59-1.14
		c2.86-2.86,2.86-11.45,4.01-14.88c1.14-3.43,1.72-16.03,1.72-16.03s19.46-16.03,20.03-25.18
		C1193.62,1247.14,1176.45,1243.14,1169.59,1252.29z"/>
	<path class="st5" d="M1208.5,1252.87c0,0,14.31,10.3,18.31,18.31c4.01,8.01,7.44,16.6,4.58,25.18
		c-2.86,8.58-20.6,16.03-22.32,25.75c-1.72,9.73-12.02,8.59-12.02-1.72c0-10.3,10.3-33.77,10.3-33.77"/>
	<path class="st5" d="M1207.93,1271.75l-21.75,28.04c0,0-1.72,13.74-5.15,17.74c-3.43,4.01-8.58,4.01-11.45,1.14
		c-2.86-2.86,5.72-30.91,3.43-37.2c-2.29-6.3,20.03-25.18,20.03-25.18s3.43-7.44,10.3-5.72c6.87,1.72,9.16,11.45,9.16,11.45"/>
	<polygon class="st2" points="947.09,1120.62 991.79,1313.32 1158.85,1349.96 1118.55,1143.33 	"/>
	<polygon class="st6" points="1158.85,1349.96 1281.22,1347.4 1153.72,1319.92 	"/>
	<path class="st5" d="M1001.89,1307.24c0,0,5.72,28.04,9.16,32.05c3.43,4.01,26.9,7.44,26.9,7.44L1001.89,1307.24z"/>
	<path class="st5" d="M1046.53,1349.59c0,0-23.47-10.3-25.75-12.02c-2.29-1.72-18.31-25.75-18.89-30.33
		c-0.57-4.58,3.43-5.15,8.59-2.29c5.15,2.86,14.31,15.45,14.31,15.45l9.16,14.31L1046.53,1349.59z"/>
	<path class="st5" d="M1057.41,1328.41c0,0-7.99,0.46-13.16-5.72c-8.18-9.78-15.38-28.41-18.89-32.62
		c-5.72-6.87-6.87,9.16-2.29,20.03c4.58,10.87,9.16,26.9,17.17,32.62c8.01,5.72,24.04,23.47,29.76,24.61s56.09-0.57,56.09-0.57
		s-1.72-7.44,0-13.16c1.72-5.72,4.01-9.73,4.01-9.73L1057.41,1328.41z"/>
	<path class="st5" d="M1074.01,1359.89c0,0-14.31-20.03-14.31-25.18s2.29-46.93,8.58-42.92c6.3,4.01,6.87,12.02,6.87,20.6
		s1.72,21.75,1.72,21.75l9.73,10.87"/>
	<line class="st3" x1="250.9" y1="523.09" x2="250.9" y2="719.19"/>
	<line class="st3" x1="234.09" y1="687.44" x2="678.6" y2="687.44"/>
	<line class="st3" x1="236.39" y1="673.13" x2="251.86" y2="673.13"/>
	<line class="st3" x1="236.39" y1="654.76" x2="251.86" y2="654.76"/>
	<line class="st3" x1="236.39" y1="636.39" x2="251.86" y2="636.39"/>
	<line class="st3" x1="236.39" y1="618.02" x2="251.86" y2="618.02"/>
	<line class="st3" x1="236.39" y1="599.64" x2="251.86" y2="599.64"/>
	<line class="st3" x1="236.39" y1="581.27" x2="251.86" y2="581.27"/>
	<line class="st3" x1="236.39" y1="562.9" x2="251.86" y2="562.9"/>
	<line class="st3" x1="236.39" y1="544.52" x2="251.86" y2="544.52"/>
	<polygon class="st2" points="249.93,688.61 323.42,554.19 340.83,577.4 413.36,496.17 442.37,581.27 456.87,559.99 498.45,666.37
		566.14,530.98 623.2,664.43 635.77,628.65 664.78,685.71 	"/>
	<polygon class="st10" points="249.93,688.61 298.28,632.52 320.52,645.09 384.34,549.36 433.66,647.03 466.54,608.35
		497.49,640.26 563.24,565.8 636.74,665.4 650.27,651.86 664.78,685.71 	"/>
	<rect x="263.93" y="961.32" class="st2" width="35.22" height="120.79"/>
	<rect x="308.34" y="973.07" class="st10" width="35.22" height="109.04"/>
	<rect x="352.76" y="960.01" class="st2" width="35.22" height="122.1"/>
	<rect x="397.17" y="920.82" class="st10" width="35.22" height="161.29"/>
	<rect x="441.59" y="881.63" class="st2" width="35.22" height="200.48"/>
	<polygon class="st7" points="462.32,842.31 427.99,846.6 434.94,855.78 321.44,941.7 270.73,925.63 267.24,936.65 323.65,954.54
		441.92,865 448.87,874.18 	"/>
	<rect x="770.96" y="383.31" class="st4" width="69.28" height="28.04"/>
	<rect x="770.96" y="431.15" class="st2" width="140.21" height="28.04"/>
	<rect x="770.96" y="478.98" class="st10" width="300.22" height="28.04"/>
	<path class="st10" d="M759.24,900.48c-47.62,0-86.22,38.6-86.22,86.22c0,47.62,38.6,86.22,86.22,86.22
		c47.62,0,86.22-38.6,86.22-86.22C845.46,939.08,806.86,900.48,759.24,900.48z M759.24,1011.9c-13.92,0-25.2-11.28-25.2-25.2
		c0-13.92,11.28-25.2,25.2-25.2c13.92,0,25.2,11.28,25.2,25.2C784.44,1000.62,773.16,1011.9,759.24,1011.9z"/>
	<path class="st4" d="M759.24,1072.91c29.49,0,55.52-14.82,71.06-37.41l-49.87-35.2c-4.48,6.97-12.29,11.59-21.19,11.59
		c-5.67,0-10.88-1.9-15.09-5.06l-36.87,48.64C721.72,1066.42,739.72,1072.91,759.24,1072.91z"/>
	<path class="st2" d="M770.6,901.25l-7.57,60.57c12.11,1.83,21.41,12.26,21.41,24.88c0,5.02-1.48,9.68-4.01,13.6l49.87,35.2
		c9.55-13.88,15.15-30.69,15.15-48.81C845.46,942.94,812.85,906.82,770.6,901.25z"/>
	<line class="st3" x1="621.8" y1="853.46" x2="667.99" y2="853.46"/>
	<line class="st3" x1="621.8" y1="871.6" x2="667.99" y2="871.6"/>
	<line class="st3" x1="621.8" y1="889.75" x2="667.99" y2="889.75"/>
	<polyline class="st3" points="684.49,866.65 735.62,866.65 735.62,926.04 	"/>
	<path class="st10" d="M948.09,627.03c-47.62,0-86.22,38.6-86.22,86.22c0,47.62,38.6,86.22,86.22,86.22s86.22-38.6,86.22-86.22
		C1034.31,665.63,995.71,627.03,948.09,627.03z M948.09,738.45c-13.92,0-25.2-11.28-25.2-25.2c0-13.92,11.28-25.2,25.2-25.2
		s25.2,11.28,25.2,25.2C973.29,727.17,962.01,738.45,948.09,738.45z"/>
	<path class="st4" d="M973.17,715.61c-0.67,7.25-4.43,13.59-9.93,17.74l36.75,48.74c18.83-14.21,31.63-35.97,33.93-60.77
		L973.17,715.61z"/>
	<path class="st2" d="M948.09,627.03v61.02c13.92,0,25.2,11.28,25.2,25.2c0,0.8-0.05,1.58-0.12,2.36l60.75,5.71
		c0.25-2.66,0.39-5.35,0.39-8.07C1034.31,665.63,995.71,627.03,948.09,627.03z"/>
	<line class="st3" x1="1024.07" y1="842.35" x2="1070.26" y2="842.35"/>
	<line class="st3" x1="1024.07" y1="860.5" x2="1070.26" y2="860.5"/>
	<line class="st3" x1="1024.07" y1="878.64" x2="1070.26" y2="878.64"/>
	<polyline class="st3" points="1009.22,751.62 1047.16,751.62 1047.16,842.35 	"/>
	<line class="st3" x1="1013.12" y1="1781.92" x2="191.34" y2="1781.92"/>
	<line class="st3" x1="1742.71" y1="1781.92" x2="1041.98" y2="1781.92"/>
	<path class="st11" d="M359.54,1514.53c8.99,3.93,30.98,3.43,30.99,3.43c0.23-0.01-4.73-14.39-5.14-15.27
		c-4.82-10.09-20.08-26.75-32.49-25.08c-8.94,1.21-13.92,10.16-11.9,18.58C343.07,1504.79,351.89,1511.18,359.54,1514.53z"/>
	<path class="st11" d="M367.13,1578.21c9.32,1.36,28.95-4.33,30.51-4.79c3.1,10.98,7.17,22,11.9,32.93
		c2.7,6.25,5.61,12.46,8.61,18.65c-1.79-2.62-3.41-4.95-3.67-5.26c-7.32-8.46-26.43-20.5-37.96-15.6
		c-8.31,3.53-10.74,13.47-6.57,21.06c4.26,7.75,14.46,11.58,22.72,12.79c8.39,1.22,25.21-3.29,29.65-4.55
		c1.18,2.36,2.32,4.73,3.51,7.09c5.68,11.31,11.4,22.58,16.67,33.8c1.86,3.95,3.54,7.92,5.25,11.87c-1.59-2.33-2.95-4.27-3.19-4.55
		c-7.32-8.46-26.43-20.5-37.96-15.6c-8.31,3.53-10.74,13.47-6.57,21.06c4.26,7.75,14.46,11.58,22.72,12.79
		c8.01,1.17,23.57-2.86,28.85-4.33c1.62,4.11,3.25,8.22,4.63,12.27c0.88,2.79,1.93,5.41,2.66,8.26c0.79,2.81,1.56,5.58,2.33,8.34
		c1.28,5.35,2.64,10.87,3.76,16.12c0.81,3.65,1.51,7.14,2.23,10.65c-1.81-3.96-5.5-11.63-5.88-12.24
		c-5.95-9.47-23.02-24.27-35.16-21.17c-8.74,2.23-12.66,11.69-9.68,19.82c3.04,8.3,12.53,13.64,20.52,16.08
		c8.8,2.69,28.27,0.23,30.7-0.09c1.17,5.82,2.25,11.49,3.18,16.86c0.7,3.97,1.34,7.79,1.92,11.46h7.8
		c-0.74-4.08-1.54-8.35-2.43-12.82c-1.16-5.91-2.52-12.21-3.98-18.66c1.46-0.58,9.77-3.94,17.13-8.05
		c6.41,6.94,22.84,15.07,24.97,16.1c-2.24,5.5-4.46,10.82-6.65,15.82c-1.15,2.65-2.27,5.14-3.38,7.62h8.25
		c0.66-1.57,1.3-3.1,1.97-4.73c2.29-5.57,4.63-11.57,6.98-17.76c2.36,0.49,21.64,4.41,30.62,2.38c8.15-1.84,18.02-6.45,21.67-14.51
		c3.57-7.89,0.37-17.61-8.18-20.49c-11.87-3.99-30,9.5-36.64,18.5c-0.39,0.53-4,6.77-6.21,10.74c0.94-2.53,1.89-4.98,2.83-7.6
		c1.9-5.16,3.63-10.38,5.53-15.97c0.82-2.74,1.65-5.5,2.48-8.29c0.89-2.75,1.47-5.77,2.23-8.68c1.62-6.78,2.92-13.73,4.08-20.76
		c4.53,1.65,20.69,7.27,29.06,6.68c8.33-0.59,18.79-3.65,23.61-11.06c4.73-7.25,3.04-17.35-4.98-21.49
		c-11.13-5.74-31.09,4.84-39.02,12.73c-0.49,0.49-5.55,6.79-8.25,10.31c0.66-4.23,1.35-8.45,1.88-12.75
		c1.54-12.42,2.71-25.04,3.94-37.62c0.37-3.86,0.79-7.69,1.2-11.53c1.6,0.6,20.67,7.7,30.05,7.04c8.33-0.58,18.79-3.65,23.61-11.06
		c4.73-7.25,3.04-17.35-4.98-21.49c-11.13-5.74-31.09,4.84-39.02,12.73c-0.6,0.6-7.85,9.67-9.59,12.07
		c0.89-8.46,1.86-16.89,3.16-25.15c1.77-11.41,4.13-22.5,7.22-33.08c0.75,0.28,20.61,7.78,30.21,7.11
		c8.33-0.59,18.79-3.65,23.61-11.06c4.72-7.25,3.04-17.35-4.98-21.49c-11.13-5.74-31.09,4.84-39.02,12.73
		c-0.62,0.62-8.42,10.39-9.71,12.26c0.19-0.63,0.31-1.3,0.5-1.92c3.44-11.25,8.18-21.72,13.1-31.3c2.85-5.57,5.88-10.74,8.95-15.71
		c3.56,1.78,19.9,9.71,28.61,10.06c8.35,0.33,19.08-1.56,24.68-8.4c5.49-6.69,4.93-16.91-2.59-21.91
		c-10.44-6.93-31.43,1.4-40.18,8.37c-0.47,0.38-4.88,4.77-8.05,8.01c1.42-2.22,2.84-4.53,4.24-6.63
		c5.24-7.89,10.52-14.79,15.25-20.87c2.72-3.43,5.24-6.48,7.64-9.31c4.4-0.08,22.12-0.62,29.87-4.25
		c7.56-3.55,16.21-10.18,18.04-18.83c1.79-8.47-3.42-17.28-12.39-18.25c-12.45-1.34-27.25,15.72-31.8,25.94
		c-0.39,0.88-4.96,15.4-4.73,15.4c0,0,0.21,0,0.27,0c-2.36,2.68-4.85,5.57-7.52,8.79c-4.87,5.99-10.32,12.79-15.75,20.6
		c-5.45,7.79-11.15,16.4-16.34,26.02c-5.21,9.63-10.2,20.03-13.95,31.41c-0.04,0.13-0.07,0.27-0.11,0.4
		c0.07-3.67-0.1-13.94-0.2-14.72c-1.44-11.09-10.73-31.68-23.05-33.96c-8.87-1.64-16.39,5.31-17.1,13.94
		c-0.72,8.81,5.67,17.63,11.9,23.2c7.03,6.28,26.53,12.35,28.09,12.84c-3.48,10.87-6.16,22.3-8.24,34.03
		c-1.2,6.7-2.19,13.49-3.1,20.31c-0.05-3.17-0.11-6.01-0.16-6.41c-1.44-11.09-10.73-31.68-23.05-33.96
		c-8.88-1.64-16.39,5.31-17.1,13.94c-0.72,8.81,5.67,17.63,11.9,23.2c6.32,5.65,22.85,11.17,27.24,12.57
		c-0.32,2.62-0.67,5.23-0.99,7.85c-1.5,12.57-2.95,25.12-4.74,37.39c-0.63,4.32-1.41,8.56-2.17,12.8c-0.04-2.82-0.11-5.19-0.15-5.55
		c-1.44-11.09-10.73-31.68-23.05-33.96c-8.88-1.64-16.39,5.31-17.1,13.94c-0.72,8.81,5.67,17.63,11.9,23.2
		c6.03,5.39,21.24,10.62,26.45,12.31c-0.91,4.32-1.82,8.64-2.9,12.79c-0.8,2.81-1.38,5.57-2.34,8.36c-0.89,2.77-1.78,5.52-2.66,8.23
		c-1.88,5.17-3.79,10.52-5.75,15.52c-1.34,3.49-2.68,6.79-4.02,10.11c0.68-4.3,1.83-12.73,1.84-13.45c0.17-7.43-2.47-19.51-7.72-28
		c0.03-1.1-0.03-2.19-0.2-3.28c-1.37-8.55-9.4-14.9-18.13-12.58c-12.1,3.22-19.78,24.47-20.35,35.64c-0.03,0.66,0.4,7.85,0.74,12.38
		c-0.61-2.63-1.17-5.2-1.83-7.9c-1.27-5.35-2.69-10.66-4.2-16.37c-0.83-2.73-1.66-5.49-2.51-8.28c-0.78-2.78-1.95-5.62-2.93-8.47
		c-2.39-6.54-5.14-13.06-8.05-19.57c4.69-1.12,21.27-5.35,27.92-10.46c6.63-5.09,13.66-13.41,13.6-22.25
		c-0.06-8.66-7.04-16.15-16.01-15.18c-12.45,1.35-23.26,21.19-25.52,32.15c-0.14,0.68-0.88,8.73-1.2,13.15
		c-1.78-3.89-3.54-7.79-5.47-11.68c-5.56-11.21-11.55-22.38-17.47-33.56c-1.82-3.42-3.58-6.85-5.36-10.28
		c1.67-0.38,21.49-4.98,28.95-10.7c6.63-5.08,13.66-13.41,13.59-22.25c-0.06-8.66-7.04-16.15-16.01-15.18
		c-12.45,1.35-23.26,21.19-25.52,32.14c-0.17,0.83-1.21,12.4-1.34,15.36c-3.92-7.55-7.76-15.11-11.24-22.72
		c-4.82-10.49-8.96-21.05-12.23-31.57c0.78-0.18,21.48-4.88,29.12-10.74c6.63-5.09,13.66-13.41,13.59-22.25
		c-0.06-8.66-7.04-16.15-16.01-15.18c-12.45,1.35-23.26,21.19-25.52,32.15c-0.18,0.86-1.3,13.31-1.34,15.58
		c-0.19-0.62-0.46-1.25-0.65-1.88c-3.34-11.28-5.16-22.63-6.34-33.34c-0.7-6.22-1.02-12.2-1.2-18.03
		c3.95-0.48,21.96-2.88,29.41-7.39c7.15-4.33,15.05-11.83,15.96-20.62c0.89-8.61-5.22-16.83-14.25-16.84
		c-12.53-0.02-25.45,18.51-28.9,29.15c-0.19,0.58-1.44,6.67-2.3,11.12c-0.04-2.63-0.13-5.35-0.12-7.87
		c0.02-9.47,0.62-18.15,1.21-25.82c0.37-4.36,0.8-8.3,1.23-11.98c3.62-2.49,18.11-12.72,22.57-20.03
		c4.35-7.13,7.91-17.43,4.66-25.65c-3.18-8.05-12.39-12.53-20.4-8.39c-11.13,5.75-14.06,28.15-12.22,39.19
		c0.16,0.95,4.36,15.58,4.55,15.45c0,0,0.18-0.12,0.22-0.15c-0.49,3.53-0.97,7.33-1.42,11.48c-0.76,7.68-1.55,16.36-1.77,25.87
		c-0.25,9.5-0.25,19.83,0.73,30.72c0.97,10.91,2.54,22.33,5.69,33.89c0.04,0.13,0.09,0.26,0.13,0.39
		c-1.97-3.1-7.77-11.57-8.29-12.17c-7.32-8.46-26.43-20.5-37.96-15.61c-8.31,3.53-10.74,13.47-6.57,21.06
		C348.67,1573.18,358.87,1577.01,367.13,1578.21z"/>
	<path class="st11" d="M581.93,1519.36c0.19,0.12,4-14.61,4.13-15.57c1.54-11.08-1.99-33.39-13.27-38.84
		c-8.12-3.93-17.21,0.8-20.17,8.93c-3.02,8.31,0.81,18.5,5.35,25.52C563.31,1507.64,581.92,1519.35,581.93,1519.36z"/>
	<g>
		<g>
			<path class="st12" d="M345.19,1192.35c0,0,88.21,55.5,235.11,58.13c146.38,2.61,206.48-42.97,292.36-68.47"/>
			<g>
				<polygon class="st13" points="872.65,1190.4 883.7,1178.89 868.21,1175.08 				"/>
			</g>
		</g>
	</g>
	<g>
		<g>
			<path class="st12" d="M670.55,545.3c19.93,67.5,49.02,132.27,88.45,190.68c63.96,94.74,156.88,159.48,241.38,234.23
				c46.03,40.72,69.71,106.57,77.65,132.56"/>
			<g>
				<polygon class="st13" points="1069.65,1102.76 1081.15,1113.82 1084.98,1098.33 				"/>
			</g>
		</g>
	</g>
	<g>
		<g>
			<path class="st12" d="M623.76,247.23c4.81,69.27,13.66,138.47,25.55,206.86c0.86,4.97,1.77,9.93,2.72,14.88"/>
			<g>
				<polygon class="st13" points="643.86,468.15 654.28,480.23 659.54,465.17 				"/>
			</g>
		</g>
	</g>
	<g>
		<g>
			<path class="st12" d="M1182.98,643.75c-30.26,129.28-28.21,213.74-22.83,246.28"/>
			<g>
				<polygon class="st13" points="1151.99,889.42 1162.72,901.23 1167.58,886.03 				"/>
			</g>
		</g>
	</g>
	<g>
		<g>
			<path class="st12" d="M1340.6,362.74c0,0-96.08,62.74-144.04,228.3"/>
			<g>
				<polygon class="st13" points="1189.56,586.63 1193.46,602.1 1204.91,590.99 				"/>
			</g>
		</g>
	</g>
	<g>
		<g>
			<path class="st12" d="M410.88,725.3c0,0,35.43,33.62,85.19,51.57c29.43,10.62,59.28,12.55,85.52,27.66"/>
			<g>
				<polygon class="st13" points="575.27,810.08 591.2,810.82 583.88,796.65 				"/>
			</g>
		</g>
	</g>
	<path class="st14" d="M1219.9,172.51c-68.23,71.08-109.61,182.26-96.6,262.16c18.36,112.79,60.33-65.58,212.48-136.41
		c152.14-70.82,131.16-170.5,68.21-188.87C1335.36,89.37,1270.3,120,1219.9,172.51z"/>
	<path class="st14" d="M868.85,1237.36c0,0-94.43,65.58-178.38,78.7c-83.94,13.12-167.88,5.25-165.26,57.71
		c2.62,52.46,78.7,47.22,154.77,18.36C756.05,1363.27,868.85,1237.36,868.85,1237.36z"/>
	<path class="st14" d="M428.23,276.9c-13.83,12.3-19,35.14-13.2,55.46c15.74,55.09,118.04,120.67,118.04,120.67
		s2.62-28.86-20.99-110.17c-6.29-21.65-16.75-61.64-41.09-71.14C452.8,264.61,438.25,267.99,428.23,276.9z"/>
	<path class="st14" d="M1534.57,416.72c-0.84,0.29-1.68,0.6-2.51,0.91c-21.24,7.94-40.25,20.84-58.31,34.55
		c-14.84,11.27-41.66,29.16-42.57,48.78c18.13,2.88,38.84-7.97,57.15-11.8c21.89-4.57,44.47-5.12,66.34-9.74
		c21.88-4.62,43.96-14.14,57.05-32.27c3.63-5.03,6.58-11.16,5.41-17.25c-1.61-8.41-10.25-13.45-18.41-16.05
		C1577.96,407.26,1555.16,409.49,1534.57,416.72z"/>
	<circle class="st14" cx="274.7" cy="1312.12" r="38.04"/>
	<path class="st14" d="M619.64,1152.11c0,7.97-6.46,14.43-14.43,14.43c-7.97,0-14.43-6.46-14.43-14.43
		c0-7.97,6.46-14.43,14.43-14.43C613.19,1137.68,619.64,1144.14,619.64,1152.11z"/>
	<path class="st14" d="M283.88,834.7c0,7.97-6.46,14.43-14.43,14.43c-7.97,0-14.43-6.46-14.43-14.43c0-7.97,6.46-14.43,14.43-14.43
		C277.42,820.27,283.88,826.73,283.88,834.7z"/>
	<circle class="st14" cx="766.54" cy="639.28" r="15.74"/>

		<ellipse transform="matrix(0.2307 -0.973 0.973 0.2307 429.0592 1154.9398)" class="st14" cx="944.92" cy="306.13" rx="36.72" ry="36.72"/>
	<path class="st14" d="M1131.17,603.86c0,9.42-7.63,17.05-17.05,17.05c-9.42,0-17.05-7.63-17.05-17.05
		c0-9.42,7.63-17.05,17.05-17.05C1123.53,586.81,1131.17,594.45,1131.17,603.86z"/>
	<circle class="st14" cx="1163.96" cy="1010.46" r="24.92"/>
</g>
</svg>
