<?xml version="1.0" encoding="utf-8"?>
<!-- Generator: Adobe Illustrator 24.0.1, SVG Export Plug-In . SVG Version: 6.00 Build 0)  -->
<svg version="1.0" id="Layer_1" xmlns="http://www.w3.org/2000/svg" xmlns:xlink="http://www.w3.org/1999/xlink" x="0px" y="0px"
	 viewBox="0 0 4883.33 4961.11" style="enable-background:new 0 0 4883.33 4961.11;" xml:space="preserve">
<style type="text/css">
	.st0{fill:transparent;}
	.st1{fill:#A9F7C9;}
	.st2{fill:none;stroke:#FFFFFF;stroke-width:10;stroke-linecap:round;stroke-linejoin:round;stroke-miterlimit:10;}
	.st3{fill:none;stroke:#000000;stroke-width:10;stroke-linecap:round;stroke-linejoin:round;stroke-miterlimit:10;}
	.st4{fill:#FFFFFF;stroke:#000000;stroke-width:10;stroke-linecap:round;stroke-linejoin:round;stroke-miterlimit:10;}
	.st5{fill:none;stroke:#F5E8DF;stroke-width:10;stroke-linecap:round;stroke-miterlimit:10;}
	.st6{fill:#AF6345;}
	.st7{fill:#02CC5E;}
	.st8{fill:#0A74BE;}
	.st9{fill:#A65835;}
	.st10{fill:#FFB31F;stroke:#000000;stroke-width:10;stroke-linecap:round;stroke-linejoin:round;stroke-miterlimit:10;}
	.st11{fill:#C92627;}
	.st12{fill:none;}
	.st13{fill:#DEFFE9;}
	.st14{fill:#6DC994;}
	.st15{fill:#037F3B;}
	.st16{fill:#00A551;}
	.st17{fill:#662948;}
	.st18{fill:#3A72AA;}
	.st19{fill:#936037;}
	.st20{fill:#23659B;}
	.st21{fill:#B17F4A;}
	.st22{fill:#A07853;}
	.st23{fill:#F4D4BE;}
	.st24{fill:#D1A68F;}
	.st25{fill:#312783;}
	.st26{fill:#D64343;}
	.st27{fill:#FCB4B4;}
	.st28{fill:#EB5648;}
	.st29{fill:#F49F9F;}
	.st30{fill:#FFE7D7;}
	.st31{fill:#F9C0C0;}
	.st32{fill:#CE3932;}
	.st33{fill:#93ABE5;}
	.st34{fill:#BBCEEA;}
	.st35{fill:#EDD5C5;}
	.st36{fill:#EA876C;}
	.st37{fill:#8C4225;}
	.st38{fill:#103663;}
	.st39{fill:#F9F8F3;}
	.st40{fill:#FDFFDE;}
</style>
<rect x="0" y="0" class="st0" width="4883.33" height="4961.11"/>
<path class="st1" d="M4334.77,4203.27C3186.19,5978.61-272.25,3625.35,198.01,1722.79C671.77-193.93,3671.29-470.27,4465.68,1179.91
	C4926.3,2136.76,4778.56,3517.3,4334.77,4203.27z"/>
<line class="st2" x1="934.18" y1="994.13" x2="934.18" y2="3060.72"/>
<line class="st2" x1="1511.46" y1="3438.22" x2="1511.46" y2="886.47"/>
<line class="st2" x1="1511.46" y1="1411.18" x2="934.18" y2="1411.18"/>
<line class="st2" x1="1511.46" y1="1965.76" x2="934.18" y2="1965.76"/>
<line class="st2" x1="1511.46" y1="2520.33" x2="934.18" y2="2520.33"/>
<line class="st2" x1="1511.46" y1="3074.91" x2="1132.16" y2="3074.91"/>
<rect x="950.37" y="1049.05" class="st2" width="45.57" height="362.13"/>
<rect x="1350.02" y="1026.1" class="st2" width="36.52" height="385.08"/>
<rect x="1227.22" y="1026.1" class="st2" width="45.57" height="385.08"/>
<rect x="1304.45" y="1049.05" class="st2" width="45.57" height="362.13"/>
<rect x="1272.8" y="994.13" class="st2" width="31.65" height="417.05"/>
<rect x="1180.22" y="1048.36" transform="matrix(0.9968 0.0798 -0.0798 0.9968 101.96 -91.5583)" class="st2" width="31.74" height="362.13"/>
<rect x="995.94" y="970.83" class="st2" width="16.43" height="440.35"/>
<rect x="1041.4" y="971.68" transform="matrix(0.9912 -0.1322 0.1322 0.9912 -148.3147 149.1783)" class="st2" width="16.43" height="440.35"/>
<rect x="1057.97" y="971.7" transform="matrix(0.9912 -0.1322 0.1322 0.9912 -148.1686 151.3463)" class="st2" width="16.17" height="440.35"/>
<rect x="1093.2" y="974.19" transform="matrix(0.9768 -0.2144 0.2144 0.9768 -230.4361 263.8849)" class="st2" width="16.43" height="440.35"/>
<rect x="1409.2" y="971.68" transform="matrix(0.9912 -0.1322 0.1322 0.9912 -145.0874 197.7878)" class="st2" width="16.43" height="440.35"/>
<rect x="1441.12" y="2712.79" transform="matrix(-1 -1.224647e-16 1.224647e-16 -1 2927.812 5787.6987)" class="st2" width="45.57" height="362.13"/>
<rect x="1424.69" y="2634.57" transform="matrix(-1 -1.224647e-16 1.224647e-16 -1 2865.8125 5709.478)" class="st2" width="16.43" height="440.35"/>
<rect x="1379.24" y="2635.41" transform="matrix(-0.9912 -0.1322 0.1322 -0.9912 2385.3213 5869.4937)" class="st2" width="16.43" height="440.35"/>
<rect x="1150.84" y="2847.52" transform="matrix(0.1322 -0.9912 0.9912 0.1322 -1640.7377 3837.1836)" class="st2" width="440.35" height="16.17"/>
<rect x="1327.43" y="2637.92" transform="matrix(-0.9768 -0.2144 0.2144 -0.9768 2027.5298 5936.0767)" class="st2" width="16.43" height="440.35"/>
<rect x="1383.56" y="1589.43" transform="matrix(-1 -1.224647e-16 1.224647e-16 -1 2846.772 3332.0786)" class="st2" width="79.66" height="153.22"/>
<line class="st2" x1="1452.42" y1="1642.69" x2="1396.28" y2="1642.69"/>
<line class="st2" x1="1452.42" y1="1672.87" x2="1396.28" y2="1672.87"/>
<line class="st2" x1="1452.42" y1="1703.05" x2="1396.28" y2="1703.05"/>
<rect x="1267.45" y="1589.43" transform="matrix(-1 -1.224647e-16 1.224647e-16 -1 2614.5486 3332.0786)" class="st2" width="79.66" height="153.22"/>
<line class="st2" x1="1336.31" y1="1642.69" x2="1280.17" y2="1642.69"/>
<line class="st2" x1="1336.31" y1="1672.87" x2="1280.17" y2="1672.87"/>
<line class="st2" x1="1336.31" y1="1703.05" x2="1280.17" y2="1703.05"/>
<rect x="1112.47" y="1584.78" transform="matrix(-0.9659 -0.259 0.259 -0.9659 1835.032 3564.5046)" class="st2" width="79.66" height="153.22"/>
<g>
	<path class="st2" d="M1395.22,1887.48c0,15.55,12.61,28.16,28.16,28.16s28.16-12.61,28.16-28.16c0-15.55-12.61-28.16-28.16-28.16
		S1395.22,1871.92,1395.22,1887.48z"/>

		<rect x="1365.94" y="1506.18" transform="matrix(-1 -1.224647e-16 1.224647e-16 -1 2846.772 3471.9321)" class="st2" width="114.9" height="459.58"/>
	<path class="st2" d="M1279.11,1887.48c0,15.55,12.61,28.16,28.16,28.16c15.55,0,28.16-12.61,28.16-28.16
		c0-15.55-12.61-28.16-28.16-28.16C1291.72,1859.31,1279.11,1871.92,1279.11,1887.48z"/>

		<rect x="1249.83" y="1506.18" transform="matrix(-1 -1.224647e-16 1.224647e-16 -1 2614.5488 3471.9321)" class="st2" width="114.9" height="459.58"/>

		<ellipse transform="matrix(0.8962 -0.4436 0.4436 0.8962 -718.2642 680.3608)" class="st2" cx="1094.95" cy="1875.27" rx="28.16" ry="28.16"/>

		<rect x="1076.74" y="1499.14" transform="matrix(-0.9659 -0.259 0.259 -0.9659 1781.9392 3692.5938)" class="st2" width="114.9" height="459.58"/>
</g>
<line class="st2" x1="1186.38" y1="1646.35" x2="1132.16" y2="1631.82"/>
<line class="st2" x1="1178.57" y1="1675.5" x2="1124.34" y2="1660.97"/>
<line class="st2" x1="1170.75" y1="1704.65" x2="1116.53" y2="1690.12"/>
<ellipse transform="matrix(0.4719 -0.8817 0.8817 0.4719 -1434.7906 2530.5466)" class="st2" cx="1394.84" cy="2462.89" rx="28.16" ry="28.16"/>
<rect x="1133.58" y="2386.28" transform="matrix(6.123234e-17 -1 1 6.123234e-17 -1289.4825 3636.2913)" class="st2" width="79.66" height="153.22"/>
<rect x="1186.05" y="2233.26" transform="matrix(6.123234e-17 -1 1 6.123234e-17 -1219.7241 3706.3862)" class="st2" width="114.56" height="459.58"/>
<line class="st2" x1="1150.06" y1="2491.92" x2="1150.06" y2="2435.78"/>
<line class="st2" x1="1180.24" y1="2491.92" x2="1180.24" y2="2435.78"/>
<line class="st2" x1="1210.42" y1="2491.92" x2="1210.42" y2="2435.78"/>
<ellipse transform="matrix(0.4719 -0.8817 0.8817 0.4719 -1333.7875 2470.0435)" class="st2" cx="1394.84" cy="2348.33" rx="28.16" ry="28.16"/>
<rect x="1133.58" y="2271.72" transform="matrix(6.123234e-17 -1 1 6.123234e-17 -1174.9241 3521.7327)" class="st2" width="79.66" height="153.22"/>
<rect x="1185.88" y="2118.54" transform="matrix(6.123234e-17 -1 1 6.123234e-17 -1104.9972 3591.6594)" class="st2" width="114.9" height="459.58"/>
<line class="st2" x1="1150.06" y1="2377.36" x2="1150.06" y2="2321.22"/>
<line class="st2" x1="1180.24" y1="2377.36" x2="1180.24" y2="2321.22"/>
<line class="st2" x1="1210.42" y1="2377.36" x2="1210.42" y2="2321.22"/>
<ellipse transform="matrix(0.1784 -0.984 0.984 0.1784 -1050.4303 3206.394)" class="st2" cx="1394.84" cy="2232.22" rx="28.16" ry="28.16"/>
<rect x="1133.58" y="2155.61" transform="matrix(6.123234e-17 -1 1 6.123234e-17 -1058.8125 3405.6211)" class="st2" width="79.66" height="153.22"/>
<rect x="1184.97" y="2002.73" transform="matrix(6.123234e-17 -1 1 6.123234e-17 -989.1896 3475.8518)" class="st2" width="116.72" height="459.58"/>
<line class="st2" x1="1150.06" y1="2261.25" x2="1150.06" y2="2205.11"/>
<line class="st2" x1="1180.24" y1="2261.25" x2="1180.24" y2="2205.11"/>
<line class="st2" x1="1210.42" y1="2261.25" x2="1210.42" y2="2205.11"/>
<ellipse transform="matrix(0.9239 -0.3827 0.3827 0.9239 -728.5219 569.6815)" class="st2" cx="1067.73" cy="2116.1" rx="28.16" ry="28.16"/>
<rect x="1249.34" y="2039.5" transform="matrix(-1.836970e-16 1 -1 -1.836970e-16 3405.2725 826.9376)" class="st2" width="79.66" height="153.22"/>
<rect x="1161.49" y="1886.62" transform="matrix(-1.836970e-16 1 -1 -1.836970e-16 3335.6499 897.1683)" class="st2" width="115.5" height="459.58"/>
<line class="st2" x1="1312.52" y1="2087.07" x2="1312.52" y2="2143.21"/>
<line class="st2" x1="1282.34" y1="2087.07" x2="1282.34" y2="2143.21"/>
<line class="st2" x1="1252.16" y1="2087.07" x2="1252.16" y2="2143.21"/>
<line class="st2" x1="1953.83" y1="3916.24" x2="4580.16" y2="3916.24"/>
<line class="st2" x1="452.22" y1="1837.42" x2="934.18" y2="1837.42"/>
<line class="st2" x1="1511.46" y1="1903.44" x2="3626.38" y2="1903.44"/>
<line class="st2" x1="608.72" y1="1903.44" x2="934.18" y2="1903.44"/>
<line class="st2" x1="2724.72" y1="2695.05" x2="2724.72" y2="68.72"/>
<polyline class="st3" points="3144.2,4521.94 3550.62,789.89 1905.57,789.89 1499.15,4521.94 "/>
<polyline class="st3" points="2360.75,4521.94 1970.87,789.89 3615.91,789.89 4005.79,4521.94 "/>
<path class="st4" d="M1613.56,3544.11h1664.16c38.43,0,70.69-28.94,74.85-67.15l291.8-2679.53c4.85-44.55-30.04-83.45-74.85-83.45
	H1905.36c-38.43,0-70.69,28.94-74.85,67.15l-291.8,2679.53C1533.85,3505.21,1568.75,3544.11,1613.56,3544.11z"/>
<path class="st4" d="M2537.12,753.98h-631.76c-18.05,0-33.14,13.53-35.09,31.48l-110.34,1013.21"/>
<path class="st4" d="M3516.77,1599.68l87.84-806.58c1.1-10.1-2.03-19.83-8.81-27.39c-6.78-7.56-16.12-11.73-26.27-11.73h-139.56"/>
<line class="st4" x1="3401.77" y1="2655.69" x2="3446.54" y2="2244.58"/>
<polygon class="st5" points="2199.8,2477.1 2139.9,2477.32 2186,2081.39 2245.91,2081.26 "/>
<polygon class="st5" points="2309.98,2476.69 2250.14,2476.91 2275.01,2263.54 2334.86,2263.37 "/>
<polygon class="st5" points="2420.07,2476.28 2360.28,2476.5 2402.65,2113.44 2462.45,2113.31 "/>
<polygon class="st5" points="2530.05,2475.87 2470.32,2476.09 2505.61,2173.94 2565.36,2173.79 "/>
<polygon class="st5" points="2639.93,2475.46 2580.25,2475.68 2626.47,2080.48 2686.16,2080.36 "/>
<polygon class="st5" points="2749.71,2475.05 2690.09,2475.27 2745.42,2002.62 2805.06,2002.51 "/>
<polygon class="st5" points="2859.38,2474.64 2799.82,2474.86 2831.55,2204.16 2891.12,2204.01 "/>
<line class="st5" x1="1755.3" y1="2478.76" x2="3233.68" y2="2473.25"/>
<polyline class="st5" points="2801.7,1958.08 2784.7,1921.87 2759.19,1958.16 "/>
<polyline class="st5" points="2421.13,2029.11 2438.15,2065.31 2463.64,2029.03 "/>
<path class="st5" d="M2689.85,1220.91c-29.5-13.77-62.94-21.48-99.06-21.58c-5.01-0.01-10,0.13-14.97,0.41l-15,256.26
	L2689.85,1220.91z"/>
<path class="st5" d="M2575.82,1199.74c-134.57,7.42-253.72,118.99-269.65,255.82c-16.52,141.84,84.16,256.87,224.7,256.96
	c67.71,0.04,132.33-26.6,182.94-70.07L2560.82,1456L2575.82,1199.74z"/>
<path class="st5" d="M2814.93,1456.44c12.31-105.19-39.87-195.74-125.08-235.53L2560.82,1456l152.99,186.45
	C2768.14,1595.79,2806.35,1529.74,2814.93,1456.44z"/>
<polyline class="st5" points="1908.22,1599.41 2144.75,1599.68 2440.21,1494.75 "/>
<polyline class="st5" points="2628.71,1245.78 2930.14,1043.58 3403.86,1045.23 "/>
<polyline class="st5" points="2732.54,1482.29 2939.7,1600.58 3338.44,1601.03 "/>
<line class="st5" x1="1980.61" y1="975.39" x2="2340.89" y2="976.74"/>
<line class="st5" x1="3054.42" y1="979.42" x2="3411.45" y2="980.76"/>
<line class="st5" x1="3001.43" y1="1431.29" x2="3358.34" y2="1431.95"/>
<line class="st5" x1="2995.4" y1="1482.72" x2="3352.3" y2="1483.3"/>
<line class="st5" x1="2989.36" y1="1534.14" x2="3288.07" y2="1534.57"/>
<line class="st5" x1="1975.24" y1="1021.71" x2="2335.5" y2="1023"/>
<line class="st5" x1="1969.87" y1="1068.03" x2="2330.11" y2="1069.25"/>
<line class="st5" x1="1964.49" y1="1114.35" x2="2324.73" y2="1115.49"/>
<path class="st5" d="M1959.12,1160.66c85.89,0.97,172.99-0.01,261.11,0.78"/>
<line class="st5" x1="1916.25" y1="1534.59" x2="2123.76" y2="1534.14"/>
<path class="st6" d="M3421.49,1580.85c-31.29-46.29-92.9-115.1-101.99-148.6c-10.45-38.53-32.92-5.81-30.04,20.1
	c2.89,25.92,31.16,50.56,25.17,69.14c-4.69,14.55-12.84,12.97-54.95,3.4c-42.11-9.58-140.7-40.27-154.6-24.85
	c-9.56,10.61,0.32,19.1,0.32,19.1s-24.88-1.67-23.63,14.47c1.25,16.15,27.33,18.86,27.33,18.86s-17.8,18.39,5.92,23.44
	c7.99,1.7,9.12,1.66,24.01,4.14c27.94,21.83,74.9,77.01,101.49,78.88c25.38,1.78,86.43,6.84,122.77,6.25
	C3423.25,1664.22,3443.1,1612.81,3421.49,1580.85z"/>
<path class="st3" d="M3105.41,1519.15c48.26-0.48,137.43,28.26,137.43,28.26"/>
<path class="st3" d="M3109.11,1552.48c51.91-2.45,132.36,27.97,132.36,27.97"/>
<path class="st3" d="M3139.04,1580.07c-7.14-10.18,7.45-24.01,25.57-11.04c19.02,13.62,72.01,47.27,72.01,47.27"/>
<path d="M4401.09,1417.98c3.28-19.52-21.46-35-19.42-54.68c2.2-21.32,34.01-31.45,33.31-52.86c-0.69-20.98-31.22-28.08-38.21-47.87
	c-8.04-22.74,19.35-45.99,13.41-69.37c-6.72-26.43-48.09-28.41-59.23-53.3c-7.15-15.97,0.43-37.38-11.28-50.38
	c-12.56-13.94-36.95-6.78-52.5-17.28c-14.88-10.05-16.95-32.99-32.33-42.24c-23.19-13.93-58.24,13.13-78.23-5.1
	c-8.45-7.71-10.22-21.06-19.22-28.13c-12.01-9.43-29.76-2.83-42.14,6.11c-12.38,8.93-24.73,20.49-40,20.5
	c-22.48,0.01-39.55-25.28-61.98-23.71c-14.16,1-25.21,12.63-32.71,24.68c-7.5,12.05-13.23,25.62-23.81,35.07
	c-11.11,9.92-26.07,13.99-39.68,20.03c-13.61,6.05-27.35,15.89-30.23,30.5c-3.19,16.17,8.02,33.14,3.01,48.85
	c-8.25,25.9-52.79,27.84-56.68,54.74c-2.77,19.12,18.81,36.37,13.89,55.05c-5.85,22.2-42.8,23.94-48.1,46.28
	c-3.84,16.16,12.14,30.52,13.62,47.06c1.13,12.63-6.26,24.19-11.51,35.73c-5.25,11.54-7.97,26.58,0.77,35.75
	c6.82,7.16,18.41,8.11,25.1,15.39c14.95,16.26-6.86,45.64,5.82,63.72c9.26,13.2,29.38,10.38,44.28,16.54
	c25.89,10.7,14.49,45.35,31.2,72.74c16.71,27.39,63.35-2.5,91.85,5.55c8.47,2.39,10.78,23.44,19.56,22.92
	c14.5-0.85,81.2,41.78,167.84-16.1c18.15-12.12,25.47-32.53,40.69-48.17c11.94-12.26,30.85-14.61,47.88-13
	c17.04,1.61,33.85,6.44,50.95,5.67c17.1-0.76,35.53-8.94,41.48-24.99c8.51-22.96-11.63-51.06,1.13-71.97
	C4361.75,1441.88,4397.24,1440.89,4401.09,1417.98z"/>
<polygon class="st0" points="3453.76,1610.85 3506.99,1680.25 3435.46,1743.46 3333.98,1677.15 "/>
<path class="st7" d="M3988.19,1591.77c-50.08-54.96-137.31-49.79-171.98,52.35c-41.82,123.18-89.99,229.73-89.99,229.73
	l-258.96-258.46l-93.55,123.56c0,0,181.17,236.06,291.95,346.85c106.3,106.3,272.67-152.05,342.94-308.25
	C4040.25,1707.17,4019.23,1625.83,3988.19,1591.77z"/>
<polygon class="st7" points="3883.4,1786.67 3779.31,2201.7 3723.48,2593.29 3959.22,2593.29 "/>
<path class="st6" d="M4016.17,3617.66c-20.47,291.11-19.94,499.2-19.94,499.2l-25,106.84l14.24,268.36l233.82-2.37
	c0,0-61.58-169.97-82.54-229.24c-9.22-26.06-12.6-68.81-13.5-108.54c0,0,0,0,0,0c0,0,44.99-252.82,95.07-534.26H4016.17z"/>
<path d="M3980.27,4492.07c-2.57-40.03,38.42-89.91,149.51-89.91c82.15,0,94.29,73.43,95.18,88.96L3980.27,4492.07z"/>
<path class="st6" d="M4033.31,4491.83c-33.28-37.45-11.7-62.49,15.88-63.24c29.41-0.8,49.01,23.62,49.01,23.62
	s37.51-21.22,95.47-12.01c40.57,6.44,33.12,38.46,24.5,49.51L4033.31,4491.83z"/>
<rect x="3975.86" y="4483" width="253.61" height="38.94"/>
<path class="st6" d="M3705.92,3741.65l-120.88,474.58l-25.04,275.83l-233.82-2.37c0,0,95.76-222.97,116.72-282.24
	c9.22-26.06,133.86-440.63,133.86-440.63L3705.92,3741.65z"/>
<path d="M3565.18,4492.07c2.57-40.03-38.42-89.91-149.5-89.91c-82.15,0-94.29,73.43-95.18,88.96L3565.18,4492.07z"/>
<path class="st6" d="M3512.15,4491.83c33.28-37.45,11.7-62.49-15.88-63.24c-29.41-0.8-49.01,23.62-49.01,23.62
	s-37.51-21.22-95.47-12.01c-40.57,6.44-33.12,38.46-24.5,49.51L3512.15,4491.83z"/>
<rect x="3315.98" y="4483" transform="matrix(-1 -1.224647e-16 1.224647e-16 -1 6885.5742 9004.9414)" width="253.61" height="38.94"/>
<path class="st8" d="M3820.75,2272.68c-71.01,233.38-86.11,189.91-389,1901.82l170.76,102.23l409.28-1440.07l-36.51,1288.45
	l173.65,59.49c0,0,187.9-1310.8,167.98-1577.66c-10.71-143.56-37.89-283.78-74.03-377.64L3820.75,2272.68z"/>
<line class="st3" x1="4007.25" y1="2449.34" x2="4012.96" y2="2833.18"/>
<line class="st3" x1="4306.96" y1="2641.77" x2="4130.71" y2="4130.81"/>
<line class="st3" x1="3929.09" y1="2731.24" x2="3596.99" y2="4182.85"/>
<polyline class="st3" points="3674.97,2873.8 3431.75,4174.51 3603.68,4273.24 "/>
<polyline class="st3" points="3976.44,4121.62 4150.09,4181.11 4033.27,4090.65 "/>
<path class="st0" d="M3820.75,2272.68c0,0,407.53-8.69,397.78,1.06c-9.74,9.74,98.38-609.92,98.38-609.92s-401.4-55.61-400.91-54.37
	C3916.48,1610.69,3820.75,2272.68,3820.75,2272.68z"/>
<line class="st3" x1="4067.84" y1="2249.84" x2="3850.83" y2="2256.57"/>
<line class="st3" x1="3832.35" y1="2313.08" x2="4242.88" y2="2313.08"/>
<path class="st7" d="M3878.48,1679.44c123.83-159.02,295.09-179.37,318.18-74.75c23.09,104.62,125.67-46.54,84.07-63.1
	c-105.56-42.02-233.06-43.25-384.92,15.43C3803.03,1592.87,3878.48,1679.44,3878.48,1679.44z"/>
<path class="st6" d="M4168.8,1511.63c177.35,17.61-66.71,200.73-176.71,190.34c-81.2-7.67-84.76-132.93,12.6-182.24
	C4039.24,1502.24,4129.12,1507.68,4168.8,1511.63z"/>
<path class="st3" d="M4212.25,1590.03c-45.72,56.14-156.03,117.99-220.16,111.94c-64.9-6.13-80.21-87.4-34-144.95"/>
<path class="st7" d="M4020.27,1512.91c-202.58,67.55-213.4,491-228.45,587.52l-68.35,492.85
	C3723.48,2593.29,3914.87,1596.77,4020.27,1512.91z"/>
<path class="st3" d="M3837.97,1952.95c1.41-69.53,26.47-227.97,26.47-227.97l39-13.36l-32.73-19.86l37.85-82.33"/>
<path class="st7" d="M4346.44,1573.35c-48.14-38.75-111.86-60.38-165.37-63.08c0,0-70.27,62.33-75.57,278.64
	c-4.92,200.89,84.54,835.28,84.54,835.28h152.8l-80.65-389.24C4262.19,2234.95,4403.77,1619.48,4346.44,1573.35z"/>
<path class="st3" d="M4218.18,1518.6c0,0-44.14,56.12-17.23,193.45c-6.18-1.92-56.07,7.68-56.07,7.68l47.43,50.85
	c0,0-60.86,146.8-54.15,215.89"/>
<g>
	<g>
		<path class="st6" d="M3963.8,1341.08l49.25,220.24c15.36,63.21,157.76,26.26,143.64-39.64c-14.12-65.89-66.77-311.54-66.77-311.54
			S3941.95,1162.97,3963.8,1341.08z"/>
		<path class="st9" d="M4099.22,1318.38c0,0,6.14,152.38-95.73,197.3l-28.29-109.35L4099.22,1318.38z"/>
		<path class="st6" d="M4059.51,1077.44c249.19,73.34,44.98,407.92-137.21,384.74c-28.69-3.65-58.64-131.96-32.45-227.74
			C3916.46,1137.06,3949.76,1045.14,4059.51,1077.44z"/>
		<path d="M3983.16,1275.93c15.19-7.7,18.23,20.88,2.24,22.5C3969.41,1300.06,3976.83,1279.13,3983.16,1275.93z"/>
		<path d="M3905.79,1256.45c15.19-7.7,18.23,20.88,2.24,22.5C3892.04,1280.58,3899.46,1259.65,3905.79,1256.45z"/>
		<path class="st3" d="M3884.94,1226.97c27.44-6.98,51.43,9.77,51.43,9.77"/>
		<path class="st3" d="M3978.01,1243.02c22.24-1.08,44.23,9.44,56.95,28.41"/>
		<path class="st3" d="M3936.67,1259.64c-15.83,50.03-28.11,75.29-28.11,75.29s-0.62,11.29,15.2,16.3"/>
	</g>
</g>
<path class="st3" d="M4342.84,2624.19h-152.8c0,0-52.25-341.26-52.25-394.89"/>
<line class="st3" x1="3820.75" y1="1886.96" x2="3723.48" y2="2593.29"/>
<polygon class="st6" points="4314.22,2308.94 4438.48,2181.44 4345.23,2122.18 4249.87,2276.08 "/>
<polygon class="st0" points="4363.61,2297.66 4450.7,2153.95 4375.83,2104.43 4258.97,2244.58 "/>
<path class="st6" d="M4270.63,2266.11c-62.69-13.19,22.56,173.14,27.16,186.98c4.6,13.84,91.14-15.15,88.27-37.2
	c-2.87-22.05-46.98-36.7-46.98-36.7S4347.66,2282.32,4270.63,2266.11z"/>
<path class="st3" d="M4263.3,2363.17c13.92,42.31,32.41,83.68,34.49,89.92c4.6,13.84,91.14-15.15,88.27-37.2"/>
<path class="st3" d="M4330.55,2375.84c-3.37,19.42-19.65,33.61-19.65,33.61s36.52-2.74,48.28,1.17
	c-22.32-10.09-20.11-31.43-20.11-31.43"/>
<line class="st3" x1="4258.97" y1="2244.58" x2="4368.57" y2="2301.86"/>
<path class="st7" d="M4263.48,2229.3l130.98,43.39l218.67-228.99c48.66-50.96,49.17-131.01,1.16-182.58l-267.86-287.76
	c-53.56-50.11-178.32,66.36-107.33,167.38c70.99,101.03,221.92,218,221.92,218L4263.48,2229.3z"/>
<path class="st3" d="M4242.88,1746c37.95,58.7,94.75,105.32,94.75,105.32"/>
<polyline class="st3" points="4499.48,1948.29 4461.02,1958.72 4499.48,1976.26 "/>
<line class="st3" x1="4263.48" y1="2229.3" x2="4394.46" y2="2272.68"/>
<polyline class="st3" points="3727.46,1926.92 3726.22,1873.84 3744.68,1900.38 "/>
<polyline class="st3" points="3373.71,1738.93 3467.26,1615.37 3604.69,1752.54 "/>
<line class="st3" x1="3333.98" y1="1677.15" x2="3453.76" y2="1610.85"/>
<path class="st7" d="M509.74,3644.82c-70.04,0-124.15-57.56-119.95-127.58l16.68-277.73c0.92-15.28-0.97-30.48-5.57-44.86
	l-119.65-373.84c-15.9-49.68,21.16-100.47,73.33-100.47h260.93c60.77,0,115,38.15,135.53,95.34l136.08,378.97
	c5.16,14.38,7.65,29.58,7.32,44.86l59.65,244.81c-0.32,15.17-1,31.29-1.15,47.25c145.93-19.48,183.43,113.24,60.58,113.24H509.74z"
	/>
<path class="st3" d="M512.01,3644.82c-70.04,0-124.15-57.56-119.95-127.58l16.68-277.73c0.92-15.28-0.97-30.48-5.57-44.86
	l-85.74-267.88"/>
<line class="st3" x1="1013.54" y1="3644.82" x2="509.74" y2="3644.82"/>
<path class="st3" d="M354.58,2720.35h260.93c60.77,0,115,38.15,135.53,95.34l136.08,378.97c5.16,14.38,7.65,29.58,7.32,44.86"/>
<line class="st3" x1="765.1" y1="3719.32" x2="765.1" y2="4356.99"/>
<path class="st3" d="M487.39,4415.06L487.39,4415.06c0-31.27,25.35-56.62,56.62-56.62h442.2c31.27,0,56.62,25.35,56.62,56.62"/>
<ellipse transform="matrix(0.7071 -0.7071 0.7071 0.7071 -3016.2827 1653.1514)" class="st10" cx="487.39" cy="4467.55" rx="54.56" ry="54.48"/>
<path class="st10" d="M487.39,4492.08c-0.44,0-0.88-0.01-1.32-0.03c-12.37-0.63-22.54-10.8-23.17-23.17
	c-0.35-6.83,2.04-13.29,6.71-18.21c4.68-4.92,11-7.63,17.78-7.63c0.44,0,0.87,0.01,1.32,0.03c12.37,0.63,22.54,10.8,23.17,23.17
	c0.35,6.83-2.04,13.29-6.71,18.21C500.49,4489.36,494.18,4492.08,487.39,4492.08z"/>
<path class="st3" d="M955.23,3644.82c-13.68,43.07-54.14,74.5-101.58,74.5h-177.1c-47.44,0-87.9-31.43-101.58-74.5"/>
<path d="M1072.03,4093.17c0,0-33.97-57.3-53.98-33.13c-20.02,24.17-53.98,90.98-53.98,90.98l5.08,17.79l17.7,10.91l60.54-21.73
	L1072.03,4093.17z"/>
<path d="M1085.02,4492.9c0,0-67.42-66.11-87.24-85.55c-38.03-37.3,6.53-294.41,6.53-294.41l24.58-33.47l117.9,97.7
	c0,0-50.83,226.65-50.64,246.98c0.2,20.33,20.77,53.4,31.36,71.57C1115.08,4505.48,1098.99,4506.59,1085.02,4492.9z"/>
<path class="st6" d="M1236.9,4097.21c-60.72,71.18-115.43,239.07-109.99,308.12c1.21,15.41,1.46,22.81,17.25,38.27
	c15.79,15.46-2.69,54.12-27.86,28.42c-25.16-25.7-63.23-62-80-78.45c-16.77-16.44-19.65-23.96-20.61-122.04
	s-11.8-167.3,37.89-217.25c49.69-49.95,117.39-11.16,117.39-11.16S1265.22,4064,1236.9,4097.21z"/>
<path d="M1006.25,4342.92c44.47-16.52,117.71,37.49,120.77,63.91c-0.06-3.63,7.07-63.03,7.07-63.03s-56.96-65.14-103.35-58.84
	c0,0,3.68-123.23,45.79-250.29c-24.99,1.25-64.32,6.16-75.98,56.35c0,0-22.91,213.1-18.02,235.89
	C987.43,4349.7,1006.25,4342.92,1006.25,4342.92z"/>
<path class="st3" d="M1093.71,4405.88c-8.95,14.02-25.3,16.26-35.49,7.08"/>
<path class="st3" d="M1121.96,4433.59c-8.47,13.77-24.47,18.09-33.86,8.59"/>
<rect x="991.93" y="4430.99" transform="matrix(0.714 0.7002 -0.7002 0.714 3420.5886 525.3284)" width="150.7" height="37.09"/>
<path class="st6" d="M617.66,3449.71c2.52-79.91,69.34-142.64,149.24-140.12l760.83,27.87l7.78,0.23
	c20.27,0.7,40.61,6.71,58.9,18.49c54.09,34.83,69.7,106.9,34.88,160.99l-506.81,757.87c-25.27,39.05-63.89-171.75-41.02-212.85
	l248.34-482.72l-391.44,9.17c-2.67,0.06-205.48-24.99-208.18-25.07C650.28,3561.06,615.14,3529.62,617.66,3449.71z"/>
<path class="st6" d="M922.75,3574.88l556.95-212.58l-148.72-133.56l-120.6,890.65c-6.31,48.81,28.15,93.48,76.95,99.79
	c46.71,6.04,58.83-28.35,67.96-73.84l209.95-878.29c12.46-62.88-28.41-123.96-91.29-136.42c-16.81-3.33-33.49-2.85-49.15,0.84
	l-8.29,2.02L728.52,3287.1c-77.74,18.69-68.81,124.57-50.12,202.31C697.08,3567.15,919.8,3575.79,922.75,3574.88z"/>
<path class="st8" d="M624.54,3588.65c-269.95-71.9,7-485.36,7-485.36l366.26,48.31l-18.47,72.41l392.56-81.7
	c-76.61,23.58-82.58,171.27-82.58,171.27s-20.11,17.06-23.87,139.61c-1.6,52.35,8.42,117.77,17.05,135.46H624.54z"/>
<line class="st3" x1="1551.54" y1="3334.65" x2="1382.87" y2="3992.23"/>
<path d="M1409.79,4539.48c0,0-91.51-40.07-118.42-51.85c-51.63-22.61-104.11-293.66-104.11-293.66l11.74-42.34l153.32,52.35
	c0,0,34.84,243.28,42.67,263.31c7.83,20.04,40.6,45.02,57.9,59.01C1444.24,4540.63,1428.74,4547.78,1409.79,4539.48z"/>
<path class="st6" d="M1385.7,4011.2c-30.15,174.73,1.32,359.68,32.63,425.93c6.99,14.78,10.01,22.02,31.44,31.38
	s17.66,54.55-16.88,38.57c-34.54-15.97-85.83-37.58-108.59-47.55c-22.76-9.97-28.44-16.32-66.22-112.97
	c-37.79-96.65-74.51-161.05-44.11-229.11c30.4-68.07,111.93-55.13,111.93-55.13S1393.55,3965.69,1385.7,4011.2z"/>
<path d="M1275.55,4420.72c37.78-33.05,130.51-7.13,143.46,17.85c-1.42-3.57-16.68-65-16.68-65s-80.8-43.04-124.33-19.39
	c0,0-45.33-181.09-49.99-260.26c-17.3,7.28-62.2,9.66-52.71,79.77c0,0,57.38,219.39,70.78,240.09S1275.55,4420.72,1275.55,4420.72z"
	/>
<path class="st3" d="M1385.7,4450.15c-3.59,17.23-18.92,25.58-32.45,20.33"/>
<path class="st3" d="M1424.05,4466.94c-3.2,16.8-17.41,27.08-30.27,21.22"/>
<rect x="1296.23" y="4483.63" transform="matrix(0.916 0.4011 -0.4011 0.916 1921.7906 -173.7756)" width="159.44" height="39.24"/>
<path d="M1221.44,4146.67c0,0-23.63-57.96-34.35-26.53s-50.71,124.31-50.71,124.31l11.71,15.69l21.61,4.14l51.72-44.23
	L1221.44,4146.67z"/>
<line class="st3" x1="1230.27" y1="4106.69" x2="1315.3" y2="3313.58"/>
<path class="st11" d="M1167.14,2550.32c91.51,212.46,201.54,467.76,201.54,467.76s-26.69,70.74-37.99,70.06
	c-11.3-0.67-305.24,0-305.24,0l91.33-358.87L1167.14,2550.32z"/>
<path class="st0" d="M997.41,3203.14c0,0-411.86-81.93-403.7-72.76c8.16,9.16,113.56-479.02,113.56-479.02s486.3-27.09,485.62-25.93
	C1192.21,2626.6,997.41,3203.14,997.41,3203.14z"/>
<path class="st11" d="M1167.14,2599.19c-123.21-158.22-297.2-172.58-320.17-68.49c-22.97,104.09-124.57-45.16-83.65-62.78
	c40.92-17.62,177.76-70.91,268.11-30.52S1167.14,2599.19,1167.14,2599.19z"/>
<path class="st6" d="M924.75,2430.27c-83.75,8.32-96.09,59.04-65.33,121.72c34.05,69.39,259.2,47.39,231.42-16.79
	C1061.58,2467.64,1002.07,2422.59,924.75,2430.27z"/>
<g>
	<g>
		<g>
			<g>
				<path class="st6" d="M1066.86,2289.9l-28.41,210.66c-11.45,63.7-188.68,32.04-178.62-34.25
					c10.06-66.29,47.58-313.42,47.58-313.42S1077.85,2111.7,1066.86,2289.9z"/>
			</g>
		</g>
	</g>
</g>
<path class="st11" d="M1047.86,2449.33c236.3,100.56,128.85,370.62,119.28,456.1s-150.48,311.15-150.48,311.15l-37.33,7.42
	c96.9-380.06,170.68-657.35,75.68-741.58C1046.36,2462.45,1047.86,2449.33,1047.86,2449.33z"/>
<path class="st11" d="M688.07,2496.1c54-36.44,120.44-52.85,174.1-55.38c0,0-10.7,43.55,0.09,66.07
	c22.96,47.92,43.07,98.73,31.62,192.08c-23.17,188.85-210.67,625.79-210.67,625.79l-195.83-61.08l97.06-261.93
	C584.45,3001.65,622.22,2540.55,688.07,2496.1z"/>
<path class="st3" d="M893.88,2698.86c-9.94,156.88-210.67,625.79-210.67,625.79l-131.69-38.85"/>
<path class="st7" d="M797.97,3644.82H532.56c-46.3,0-85.08-35.07-89.72-81.13l-20.06-199.09c-4.31-42.75,21.83-82.73,62.75-95.84
	c93.89-30.09,264.61-75.74,400.72-61.78c54.46,5.59,91.42,58.1,78.9,111.39l-56.01,238.36
	C897.02,3608.34,850.98,3644.82,797.97,3644.82z M839.56,3556.74l56.01-238.36c12.52-53.3-24.44-105.81-78.9-111.39
	c-136.12-13.97-306.83,31.69-400.72,61.78c-40.92,13.11-67.06,53.09-62.75,95.84l20.06,199.09c4.64,46.07,43.42,81.13,89.72,81.13
	h265.41C781.39,3644.82,827.43,3608.34,839.56,3556.74z"/>
<path class="st3" d="M909.15,3556.74c-12.13,51.61-58.17,88.08-111.18,88.08H532.56c-46.3,0-85.08-35.07-89.72-81.13l-20.06-199.09"
	/>
<path class="st3" d="M495.31,3245.44c94.5-25.25,217.92-49.07,321.35-38.45c54.46,5.59,91.42,58.1,78.9,111.39l-56.01,238.36
	c-12.13,51.61-58.17,88.08-111.18,88.08H462.97c-46.3,0-85.08-35.07-89.72-81.13l-20.06-199.09"/>
<line class="st3" x1="886.76" y1="2282.64" x2="859.83" y2="2466.31"/>
<path class="st3" d="M1174.11,2636.04c22.01,121.07-41.42,305.83-41.42,305.83"/>
<path class="st6" d="M1330.65,2964.9c-0.63-9.29-8.68-16.3-17.97-15.67c0,0-56.19,4.28-96.89,7.32
	c-27.52-4.82-75.2-12.34-107.72-14.69l-245.92,17.25l-21.28,124.76l211.57-52.24c35.57,22.78,70.61,8.96,103.01-6.15l0.83,30.56
	c0.13,4.96,2.4,9.36,5.89,12.35c3.06,2.63,7.07,4.17,11.42,4.05c9.31-0.25,16.65-8,16.39-17.31c0,0-0.67-24.82-1.31-48.4
	c0.25-0.16,0.51-0.32,0.76-0.48l37.03,63.47c2.27,3.89,5.86,6.54,9.87,7.7c4.28,1.24,9.03,0.79,13.18-1.63
	c8.04-4.69,10.76-15.01,6.07-23.05l-36.58-62.71l95.97-7.15c4.95-0.34,9.25-2.78,12.1-6.39
	C1329.57,2973.31,1330.95,2969.24,1330.65,2964.9z"/>
<path class="st3" d="M840.88,3083.87l211.57-52.24c35.57,22.78,70.61,8.96,103.01-6.15l0.83,30.56c0.13,4.96,2.4,9.36,5.89,12.35
	c3.06,2.63,7.07,4.17,11.42,4.05c9.31-0.25,16.65-8,16.39-17.31c0,0-0.67-24.82-1.31-48.4c0.25-0.16,0.51-0.32,0.76-0.48
	l37.03,63.47c2.27,3.89,5.86,6.54,9.87,7.7c4.28,1.24,9.03,0.79,13.18-1.63c8.04-4.69,10.76-15.01,6.07-23.05l-36.58-62.71
	l95.97-7.15c4.95-0.34,9.25-2.78,12.1-6.39c2.5-3.17,3.87-7.24,3.57-11.58"/>
<line class="st4" x1="1216.92" y1="3053.34" x2="1182.92" y2="2995.05"/>
<line class="st4" x1="1255.6" y1="3052.73" x2="1214.8" y2="2983.44"/>
<path class="st4" d="M1154.84,2997.76c0.22,8.65,0.41,17.31,0.58,25.96"/>
<path class="st0" d="M971.96,3103.28c-13.75-2.13-20.4-11.98-24.17-24.79h734.92c-3.77,12.81-9.51,22.67-23.05,24.79L971.96,3103.28
	z"/>
<path class="st0" d="M1672.01,3079h-432.66c-23.28,0-34.81-17.99-25.74-40.17l138.06-337.87c4.98-12.19,19.39-22.08,32.19-22.08
	h470.63c12.8,0,19.13,9.89,14.15,22.08l-138.06,337.87C1721.51,3061.01,1695.29,3079,1672.01,3079z"/>
<path class="st3" d="M1547.08,2678.87h307.41c12.8,0,19.13,9.89,14.15,22.08l-138.06,337.87c-9.07,22.19-35.29,40.17-58.57,40.17"/>
<path class="st3" d="M1516.05,3079h-276.7c-23.28,0-34.81-17.99-25.74-40.17l81.89-200.41"/>
<path class="st11" d="M740.6,2490.5c-149.59-48.88-252.1,406.24-270.94,591.07C450.82,3266.39,965.13,3104,965.13,3104
	l-28.72-160.93l-242.44,31.41C693.97,2974.48,930.43,2552.54,740.6,2490.5z"/>
<path class="st3" d="M559.48,2689.04c-48.6,132.42-80.18,297.9-89.82,392.53C450.82,3266.39,965.13,3104,965.13,3104l-28.72-160.93
	l-242.44,31.41c0,0,136.24-243.1,118.87-387.38"/>
<polyline class="st3" points="642.41,2991.73 693.97,2974.48 660.17,3018.08 "/>
<rect x="1045.14" y="3101.18" transform="matrix(-1 -1.224647e-16 1.224647e-16 -1 4699.5352 6246.498)" class="st7" width="2609.26" height="44.14"/>
<line class="st3" x1="3662.11" y1="3101.18" x2="988.81" y2="3101.18"/>
<line class="st3" x1="3755.72" y1="3145.32" x2="1014.31" y2="3145.32"/>
<path d="M845.66,2105.51c98.44-157.42,196.51-152.2,251.24-68.34c34.09,52.23,61.58,262.28-142.65,236.34
	C796.32,2253.45,845.66,2105.51,845.66,2105.51z"/>
<path class="st6" d="M988.39,2049.05c59.58-22.24,105.82,43.81,144.31,93.74c28.98,37.6,58.86,45.35,58.55,53.3
	c-0.72,18.5-18.14,31.75-18.14,31.75s14.65,87.57-3.15,120.73c-12.39,23.09-146.12,42.92-191.05-52.14
	c-15.24-32.23-43.4-5.59-57.85-40.59C883,2163.66,866.19,2078.77,988.39,2049.05z"/>
<path class="st3" d="M1094.91,2128.39c-25.95,29.09-21.51,51.04-21.51,51.04"/>
<path d="M1119.94,2160.83c7.74,24.48-19.61,1.38-17.21-7.97C1105.13,2143.51,1114.53,2143.72,1119.94,2160.83z"/>
<path class="st3" d="M1176.92,2273.12c-20.81,12.92-41.55-3.88-41.55-3.88"/>
<path d="M1027.9,2011.26c84.33,42.78-52.77,223.94-52.77,223.94s-11.45,132.48-106.82,145.12c-74.47,48.6-141.71-96.68-117.2-230.93
	C774.53,2021.23,913.34,1953.15,1027.9,2011.26z"/>
<path class="st3" d="M1002.17,2008.63c147.53,51-8.93,200.42-8.93,200.42"/>
<path class="st6" d="M1019.36,2275.97c32.84-41.88-38.1-104.98-59.07-68C939.32,2244.95,988.63,2315.15,1019.36,2275.97z"/>
<line class="st3" x1="1005.9" y1="2255.62" x2="980.67" y2="2222.9"/>
<path class="st3" d="M1018.54,2222.9c-15.43-23.43-45.74-37-58.25-14.93c-17.96,31.67,15.62,87.71,44.94,78.54"/>
<path d="M748.89,2277.31c79.92-74.54-19.84-126.58-91.57-84.35c-71.73,42.23-68.46,161.29-34.5,292.62
	c33.96,131.33-92.2,71.64-114.69,209.92c-22.48,138.27,81.54,201.98,161.08,144.36C937.86,2645.27,668.97,2351.86,748.89,2277.31z"
	/>
<path class="st3" d="M670.45,2199.09c-74.93,36.24-81.37,155.17-58.22,288.84s-109.41,64.36-143.08,200.34"/>
<path class="st0" d="M2367.16,3005.31c106.66-1.08,319.86-3.24,319.86-3.24c26.02-0.26,47.32,20.61,47.59,46.63
	c0.23,22.87-59.92,51.04-59.92,51.04l-324.92-3.4L2367.16,3005.31z"/>
<g>
	<path class="st0" d="M2824.65,3064.76c4.54,0,9.07-1.79,12.45-5.34c6.55-6.88,6.28-17.75-0.6-24.3l-70.81-67.41
		c-4.33-4.13-9.94-6.44-16.28-4.16c-19.69,5.15-52.67,37.86-52.67,37.86c-9.17,2.44,2.08,11.2,11.26,8.75l40.96-10.92l63.83,60.77
		C2816.13,3063.19,2820.39,3064.76,2824.65,3064.76z"/>
</g>
<g>
	<path class="st3" d="M2824.65,3064.76c4.54,0,9.07-1.79,12.45-5.34c6.55-6.88,6.28-17.75-0.6-24.3l-70.81-67.41
		c-4.33-4.13-9.94-6.44-16.28-4.16c-19.69,5.15-52.67,37.86-52.67,37.86c-9.17,2.44,2.08,11.2,11.26,8.75l40.96-10.92l63.83,60.77
		C2816.13,3063.19,2820.39,3064.76,2824.65,3064.76z"/>
</g>
<g>
	<path class="st0" d="M2857.34,3060.14c4.54,0,9.07-1.79,12.45-5.34c6.55-6.88,6.28-17.75-0.6-24.3l-70.81-67.41
		c-4.33-4.13-9.94-6.44-16.28-4.16c-19.69,5.15-52.67,37.86-52.67,37.86c-9.17,2.44,2.08,11.2,11.26,8.75l40.96-10.92l63.83,60.77
		C2848.82,3058.56,2853.08,3060.14,2857.34,3060.14z"/>
</g>
<g>
	<path class="st3" d="M2781.66,2994.63l63.83,60.77c3.33,3.17,7.59,4.74,11.85,4.74c4.54,0,9.07-1.79,12.45-5.34
		c6.55-6.88,6.28-17.75-0.6-24.3l-70.81-67.41c-4.33-4.13-9.94-6.44-16.28-4.16c-5.36,1.4-11.71,3.04-18.11,7.31"/>
</g>
<g>
	<g>
		<path class="st0" d="M2608.03,3064.76c48.31,22.7,79.27,34,103.9,25.34c14.77-5.2,103.12-93.92,103.12-93.92
			s11.15-34.5,5.68-35.63c-10.36-2.13-123.44,31.99-169.93,41.88C2604.31,3012.33,2608.03,3064.76,2608.03,3064.76z"/>
		<g>
			<path class="st0" d="M2890.73,3061.69c4.54,0,9.07-1.79,12.45-5.34c6.55-6.87,6.28-17.75-0.6-24.3l-70.81-67.41
				c-4.33-4.13-10.5-5.7-16.28-4.16l-50.26,13.4c-9.17,2.44-14.62,11.86-12.18,21.03c2.45,9.17,11.86,14.63,21.03,12.18l40.96-10.92
				l63.83,60.77C2882.21,3060.12,2886.47,3061.69,2890.73,3061.69z"/>
		</g>
		<g>
			<path class="st3" d="M2774.79,2979.05l40.71-18.56c5.78-1.54,11.95,0.03,16.28,4.16l70.81,67.41c6.87,6.54,7.14,17.42,0.6,24.3
				c-3.38,3.55-7.91,5.34-12.45,5.34c-4.26,0-8.52-1.57-11.85-4.74l-63.83-60.77l-89.02,84.06c-19.52,16.88-56.75,19.44-56.75,19.44
				"/>
		</g>
	</g>
</g>
<polyline class="st3" points="2521.35,3003.75 2650.8,3002.44 2712.83,2986.81 2732.48,2971.9 "/>
<path class="st0" d="M2638.15,2974.15l2.88,125.24l-207.83-1.89c0,0,33.6-144.47,36.96-143.51
	C2473.52,2954.95,2638.15,2974.15,2638.15,2974.15z"/>
<line class="st3" x1="2638.15" y1="2974.15" x2="2641.03" y2="3099.39"/>
<path class="st8" d="M2024.56,3477.4c22.6-16.61,295.64-109.98,305.65-109.43c10.01,0.55,333.4,957.44,333.4,957.44l-240.11,30.68
	L2024.56,3477.4z"/>
<polygon class="st6" points="1762.48,2192.69 1668.15,2527.78 1846.23,2547.56 1916.25,2371.14 "/>
<line class="st3" x1="1671.99" y1="2518.12" x2="1750.42" y2="2236.09"/>
<polygon points="2969.94,4483.73 2449.77,4483.73 2470.72,4384.85 2664.44,4343.95 "/>
<path class="st0" d="M2440.86,4522.56c0.12-13.89,0.26-33.54,0.36-38.82h539.73c-0.09,4.98-0.24,24.78-0.36,38.82H2440.86z"/>
<line class="st3" x1="2980.96" y1="4483.73" x2="2441.23" y2="4483.73"/>
<polygon class="st0" points="2384.88,4207.5 2292.41,4366.08 2449.84,4413.3 2509.59,4207.5 "/>
<path d="M2505.63,4509.19c-78.66-30.97-272.92-107.44-272.92-107.44l55.71-84.34l195.24,32.91c0,0,114.68,119.06,153.02,158.87
	H2505.63z"/>
<path class="st0" d="M2432.15,4521.98l-221.94-87.37c5.2-12.88,12.53-31.11,14.56-35.99l313.36,123.36H2432.15z"/>
<path class="st3" d="M2505.66,4509.19c-142.42-56.07-280.89-110.58-280.89-110.58"/>
<path class="st8" d="M1933.81,3218.13l877.42,148.89c111.52,21.13,128.1,159.33,74.68,259.48l-366.09,731.03l-232.21-61.06
	l312.71-669.97c0,0-407.72,22.05-650.17,22.05s-310.55-384.11-310.55-384.11L1933.81,3218.13z"/>
<polyline class="st3" points="2336.88,3636.67 2600.32,3626.49 2398.29,4059.33 "/>
<polyline class="st3" points="2287.61,4296.46 2519.82,4357.52 2612.06,4173.33 "/>
<polyline class="st3" points="2672.08,3585.34 2600.32,3626.49 2651.58,3626.49 "/>
<path class="st7" d="M1839.09,3646.62h-264.4c-46.12,0-84.75-34.93-89.38-80.82l-19.98-198.33c-4.29-42.59,21.75-82.41,62.51-95.47
	c93.53-29.97,263.6-75.46,399.2-61.54c54.26,5.57,91.08,57.87,78.6,110.97l-55.79,237.45
	C1937.77,3610.28,1891.9,3646.62,1839.09,3646.62z M1880.52,3558.87l55.79-237.45c12.55-53.39-24.78-105.54-79.35-111.05
	c-135.42-13.66-304.96,31.67-398.34,61.58c-40.8,13.07-66.91,52.88-62.61,95.51l16.25,161.28c6.74,66.93,63.08,117.88,130.35,117.88
	h227.16C1822.58,3646.62,1868.44,3610.28,1880.52,3558.87z"/>
<path class="st8" d="M1449.37,2613.35c39.26-63.16,158.67-177.45,287.11-177.45s310.39,83.11,362.05,148.25
	c51.66,65.14-58.72,300.12-58.72,300.12s21.36,193.01,70.82,352.99c40.54,131.13,191.07,247.11,68.22,339.88
	c-122.85,92.77-222.61,45.73-222.61,45.73s-248.8,42.34-369.84-106.53C1465.34,3367.47,1410.1,2676.51,1449.37,2613.35z"/>
<path class="st7" d="M1566.54,3646.62c-69.77,0-123.68-57.34-119.49-127.1l16.62-276.67c0.91-15.22-0.97-30.36-5.55-44.69
	l-119.2-372.42c-15.84-49.49,21.08-100.08,73.05-100.08h259.94c60.54,0,114.56,38,135.02,94.98l135.57,377.53
	c5.14,14.32,7.62,29.47,7.3,44.69l-5.82,276.67c-1.47,69.76,54.68,127.1,124.45,127.1H1566.54z"/>
<path class="st3" d="M1411.97,2725.66h259.94c60.54,0,114.56,38,135.02,94.98l135.57,377.53c5.14,14.32,7.62,29.47,7.3,44.69
	l-5.82,276.67c-1.47,69.76,54.68,127.1,124.45,127.1h-501.88c-69.77,0-123.68-57.34-119.49-127.1l16.62-276.67
	c0.91-15.22-0.97-30.36-5.55-44.69"/>
<path class="st3" d="M2020.91,2530.33c-44.55-7.61-98.49,5.87-119.49,49.04"/>
<line class="st3" x1="1998.57" y1="2923.36" x2="2081.04" y2="3318.78"/>
<line class="st3" x1="1634.8" y1="3186.14" x2="1904.45" y2="3186.14"/>
<line class="st3" x1="1510.94" y1="3223.5" x2="1730.08" y2="3223.5"/>
<line class="st3" x1="1820.93" y1="3720.83" x2="1820.93" y2="4356.08"/>
<path class="st3" d="M1544.27,4413.92L1544.27,4413.92c0-31.15,25.25-56.4,56.4-56.4h440.52c31.15,0,56.4,25.25,56.4,56.4"/>
<ellipse transform="matrix(0.7071 -0.7071 0.7071 0.7071 -2707.2156 2400.6819)" class="st10" cx="1544.27" cy="4468.24" rx="54.35" ry="54.28"/>
<path class="st10" d="M1544.27,4492.56c-0.43,0-0.87-0.01-1.31-0.03c-12.26-0.62-22.35-10.71-22.98-22.97
	c-0.34-6.77,2.02-13.18,6.65-18.06c4.64-4.88,10.9-7.57,17.63-7.57c0.43,0,0.87,0.01,1.31,0.03c12.26,0.62,22.35,10.71,22.98,22.98
	c0.34,6.77-2.02,13.18-6.65,18.06C1557.26,4489.87,1551,4492.56,1544.27,4492.56z"/>
<path class="st10" d="M2151.83,4465.41c1.63,32.23-24.84,58.7-57.07,57.07c-27.6-1.4-50.02-23.82-51.42-51.42
	c-1.63-32.23,24.84-58.71,57.07-57.07C2128.01,4415.39,2150.43,4437.82,2151.83,4465.41z"/>
<path class="st10" d="M2097.59,4492.56c-0.43,0-0.87-0.01-1.31-0.03c-12.26-0.62-22.35-10.71-22.98-22.97
	c-0.34-6.77,2.02-13.18,6.65-18.06c4.64-4.88,10.9-7.57,17.63-7.57c0.43,0,0.87,0.01,1.31,0.03c12.26,0.62,22.35,10.71,22.97,22.98
	c0.34,6.77-2.02,13.18-6.65,18.05C2110.58,4489.87,2104.32,4492.56,2097.59,4492.56z"/>
<path class="st3" d="M2010.34,3646.62c-13.63,42.9-53.93,74.21-101.19,74.21h-176.43c-47.26,0-87.57-31.31-101.19-74.21"/>
<path d="M2513.12,4394.25c127.76,39.2,205.18,89.49,205.18,89.49h-277.44L2513.12,4394.25z"/>
<path class="st0" d="M2440.86,4483.73h293.87c-0.14,4.98-0.35,24.78-0.54,38.82h-302.05L2440.86,4483.73z"/>
<path class="st3" d="M2734.74,4483.73c0,0-134.69,0-293.87,0"/>
<line class="st3" x1="2384.88" y1="4256.46" x2="2519.82" y2="4357.52"/>
<line class="st3" x1="2735.03" y1="3490.04" x2="2207.23" y2="3424.44"/>
<path class="st7" d="M2350.79,3646.62h-264.4c-46.12,0-84.75-34.93-89.38-80.82l-19.98-198.33c-4.29-42.59,21.75-82.41,62.51-95.47
	c93.53-29.97,263.6-75.46,399.2-61.54c54.26,5.57,91.08,57.87,78.6,110.97l-55.79,237.45
	C2449.47,3610.28,2403.6,3646.62,2350.79,3646.62z M2392.22,3558.87l55.79-237.45c12.48-53.1-24.34-105.4-78.6-110.97
	c-135.6-13.91-305.66,31.57-399.2,61.54c-40.76,13.06-66.8,52.88-62.51,95.47l19.98,198.33c4.62,45.89,43.25,80.82,89.38,80.82
	h264.4C2334.27,3646.62,2380.14,3610.28,2392.22,3558.87z"/>
<path class="st12" d="M2392.22,3558.87l55.79-237.45c12.48-53.1-24.34-105.4-78.6-110.97c-6.47-0.66-13.03-1.19-19.64-1.59
	c-114.69,6.11-236.34,39.46-310.22,63.13c-40.76,13.06-66.8,52.88-62.51,95.47l19.98,198.33c4.62,45.89,43.25,80.82,89.38,80.82
	h195.07C2334.27,3646.62,2380.14,3610.28,2392.22,3558.87z"/>
<path class="st3" d="M1918.19,3471.56l9.49,94.24c4.62,45.89,43.25,80.82,89.38,80.82h69.33c-46.12,0-84.75-34.93-89.38-80.82
	l-19.98-198.33c-4.29-42.59,21.75-82.41,62.51-95.47c73.89-23.68,195.54-57.03,310.22-63.13"/>
<path class="st3" d="M2086.39,3646.62h195.07h69.33c52.81,0,98.68-36.34,110.76-87.75l55.79-237.45
	c12.48-53.1-24.34-105.4-78.6-110.97c-28.48-2.92-58.48-3.22-88.97-1.59c6.62,0.4,13.17,0.93,19.64,1.59"/>
<path class="st3" d="M1924.81,3304.71c15.32-23.19,42.95-31.98,51.77-34.74"/>
<path class="st8" d="M1938.75,2578.79c50.46-55.38,106.6-49.07,179.77,31.29c73.17,80.36,172.62,296.54,172.62,296.54l307.63,51.41
	l-37.28,137.81c0,0-284.74,3.9-354.59,3.9c-33.09,0-217.9-176.37-288.71-333.77C1886.3,2695.08,1907.48,2613.11,1938.75,2578.79z"/>
<polyline class="st3" points="2299.68,2952.01 2291.14,2906.62 2273.93,2952.01 "/>
<path class="st3" d="M1961.17,2832.05c35.78,57.83,108.11,142.18,108.11,142.18"/>
<path class="st9" d="M1850.5,2315.71c7.32,56.13,42.04,135.42,39.66,131.3c-2.39-4.12,39.05-106.9,39.05-106.9L1850.5,2315.71z"/>
<path class="st6" d="M1727.95,2265.1c-104.61-61.98-101.82-228.15,28.34-265c130.16-36.85,151.51-5.87,174.55,34.39
	c23.05,40.26,38.82,59.4,48.44,83.83c9.5,24.12-6.14,32.01-1.15,55.75c2.14,10.19,28.01,39.57,33.72,55.75
	c3.02,8.55-14.67,15.2-14.67,15.2s7.07,105.52-26.11,133.87C1937.88,2407.25,1786.73,2340.21,1727.95,2265.1z"/>
<path d="M1901.2,1952.28c-51.11-15.42-97.63,21.9-99.24,27.42c-1.61,5.52-111.25,4.36-152.77,82.56
	c-41.52,78.2-28.42,177.6,71.24,281.68c35.87,24.74,154.79-79.05,123.97-130.35c-46.23-76.94,45.78-103.7,71.05-36.32
	c8.62-7.01-18.1-65.23,5.54-119.21c23.64-53.98,39.45-21,39.45-21C1959.58,2010.91,1948.58,1966.58,1901.2,1952.28z"/>
<path class="st6" d="M1897.34,2151.31c-14.53-21.55-41.53-33.89-53.91-13.88c-15.46,24.99,3.23,67.74,26.5,76.51
	C1871.67,2190.44,1880.57,2167.53,1897.34,2151.31z"/>
<line class="st3" x1="1885.66" y1="2185.06" x2="1862.54" y2="2152.58"/>
<path class="st3" d="M1843.43,2137.44c-18.48,29.88,11.84,85.14,40.45,77.37"/>
<path class="st3" d="M1955.08,2150.58c14.05-19.47,33.97-21.65,33.97-21.65"/>
<ellipse transform="matrix(0.0596 -0.9982 0.9982 0.0596 -292.9682 4050.908)" class="st3" cx="2003.47" cy="2180.94" rx="40.23" ry="19.5"/>
<path class="st3" d="M1894.03,2146.83c10.24,0.66,140.32,23.08,140.32,23.08"/>
<path class="st0" d="M1933.84,2480.44c-111.66-164.74-282.18-134.69-261.85-39.41C1687.75,2514.91,1933.84,2480.44,1933.84,2480.44z
	"/>
<path class="st8" d="M1943.24,2487.84c-169.85-127.98-286.72-106.59-289.52-31.1C1650.92,2532.24,1943.24,2487.84,1943.24,2487.84z"
	/>
<path class="st3" d="M1833.32,2452.99c-102.55-24.03-161.34-4.45-161.34-4.45"/>
<path class="st3" d="M2120.04,3263.16c69.89,168.86,186.98,237.68,58.8,328.02"/>
<line class="st3" x1="2598.77" y1="2958.03" x2="2561.49" y2="3095.84"/>
<line class="st3" x1="2166.87" y1="3099.74" x2="3381.98" y2="3099.74"/>
<path class="st6" d="M2911.44,2272.25c-110.11-53.6-121-220.63,6.62-268.34c127.62-47.71,151.6-18.37,178.05,20.14
	c26.45,38.51,43.86,56.43,55.53,80.16c11.52,23.43-3.53,32.64,3.43,56.06c2.99,10.06,31.37,37.42,38.44,53.18
	c3.73,8.33-15.11,20.47-15.11,20.47s17.42,101.34-13.56,132.53c-10.64,10.71-30.52,16.12-59.57,2.06
	C3042.37,2338.08,2954.25,2318.58,2911.44,2272.25z"/>
<path class="st11" d="M3301.07,2483.74c105.44-10.2,107.6,410.31,74.82,546.43c-29.47,122.4-354.42,5.94-354.42,5.94
	L3301.07,2483.74z"/>
<path class="st11" d="M2725.44,2492.37c-171.85-88.9-239.63,537.58-222.49,573.04c54.79,113.35,341.87-13.02,341.87-13.02
	L2725.44,2492.37z"/>
<polygon class="st6" points="2936.24,2226.1 2892.27,2535.35 3105.83,2552.47 3104.03,2336.21 "/>
<polygon points="2711.17,4482.24 2952.23,4482.24 2933.98,4381.1 2819.96,4339.27 "/>
<path class="st0" d="M2959.99,4521.94c-0.11-14.21-0.23-34.31-0.32-39.71h-258.1c0.08,5.1,0.2,25.34,0.31,39.71H2959.99z"/>
<line class="st3" x1="2701.57" y1="4482.24" x2="2959.67" y2="4482.24"/>
<polygon points="3287.4,4482.24 2976.67,4482.24 2978.95,4386.96 3108.94,4339.27 "/>
<path class="st0" d="M2968.91,4521.94c0.11-14.21,0.23-34.31,0.32-39.71H3297c-0.08,5.1-0.2,25.34-0.31,39.71H2968.91z"/>
<line class="st3" x1="3297" y1="4482.24" x2="2969.23" y2="4482.24"/>
<path class="st11" d="M3104.75,3337.28c0,0,92.8-136.29,219.69-16.45c126.89,119.85-146.92,1069.87-146.92,1069.87
	s-209.3-36.42-208.61-51.44C2969.61,4324.24,3104.75,3337.28,3104.75,3337.28z"/>
<path class="st11" d="M2968.44,3349.41c0,0-73.92-147.39-215.57-45.41c-141.65,101.98,3.88,1079.91,3.88,1079.91
	s212.28-8.37,213.59-23.35C2971.64,4345.58,2968.44,3349.41,2968.44,3349.41z"/>
<path class="st11" d="M2618.09,2535.9c106.93-185.98,644.81-99.89,710.54-47.89c94.67,74.91-34.3,423.82-34.3,423.82l-33.35,319.57
	l-594.27,16.28l38.57-367.71C2705.29,2879.98,2586.03,2591.66,2618.09,2535.9z"/>
<line class="st4" x1="3318.46" y1="2678.51" x2="3266.99" y2="3147.52"/>
<path class="st3" d="M2655.86,2492.95c-83.64,71.9-51.74,216.65-51.74,216.65"/>
<path class="st11" d="M2860.77,2426.37c86.73-61.56,246.67-60.55,276.26,9.34C3040.6,2427.25,2860.77,2426.37,2860.77,2426.37z"/>
<path class="st3" d="M2902.69,2403.47c192.4-55.7,234.34,32.23,234.34,32.23"/>
<path class="st3" d="M2795.6,2435.71c191.64-28.89,380.14,6.17,380.14,6.17"/>
<line class="st3" x1="3198" y1="3742.23" x2="3104.75" y2="4315.34"/>
<line class="st3" x1="2848.32" y1="4090.65" x2="2861.93" y2="4377.94"/>
<path class="st3" d="M2992.58,2433.09c-30.71,120.03-25.2,234.49-25.2,234.49"/>
<path d="M2920.54,2338.27c-53.24-83.86-106.52-75.55-129.31-164.99c-22.13-86.83,22.93-149.78,92.18-162.91
	c26.88-73.7,104.89-16.07,99.45-80.69c118.86,17.48,134.38,88.72,127.16,114c-67.14,14.64-12.32,102.75-6.88,143.22
	c6.46,48.06,39.67,60.07,71.28,57.84c31.6-2.23,33.5,120.18,22.67,137.87c-8.71,14.22-59.89,26.74-95.54-10.7
	c11.82-51.28-4.97-129.72-20.98-205.92c-16-76.21-110.82-30.68-56.49,44.96C3059.24,2259.9,2976.03,2341.85,2920.54,2338.27z"/>
<path class="st6" d="M3072.1,2144.08c-16.36-20.43-44.48-30.59-55.26-9.49c-13.46,26.36,8.83,67.73,32.9,74.62
	C3049.55,2185.47,3056.6,2161.74,3072.1,2144.08z"/>
<line class="st3" x1="3063.16" y1="2178.91" x2="3037.27" y2="2148.22"/>
<path class="st3" d="M3074.03,2146.6c-15.98-22.09-45.98-33.97-57.19-12.02c-16.09,31.51,18.9,84.49,46.98,74.34"/>
<path class="st3" d="M3154.97,2113c-17.8,11.77-17.93,32.85-17.93,32.85"/>
<path class="st7" d="M2751.34,3619.3H2633.7c-32.82,0-59.43-26.61-59.43-59.43l-25.04-381.57h87.73L2751.34,3619.3z"/>
<path class="st7" d="M3145.85,3619.3h117.64c32.82,0,59.43-26.61,59.43-59.43l25.04-381.57h-87.73L3145.85,3619.3z"/>
<path class="st7" d="M3104.75,2684.09H2799.5c-49.11,0-91.34,34.81-100.7,83.02l-59.95,384.87
	c-13.13,67.57-19.74,136.24-19.74,205.08v176.41c0,47.72,38.68,86.4,86.4,86.4h493.24c47.72,0,86.4-38.68,86.4-86.4v-176.41
	c0-68.83-6.61-137.51-19.74-205.08l-59.95-384.87C3196.09,2718.9,3153.87,2684.09,3104.75,2684.09z"/>
<path class="st3" d="M2619.11,3533.47c0,47.72,38.68,86.4,86.4,86.4h493.24c47.72,0,86.4-38.68,86.4-86.4v-176.41"/>
<path class="st3" d="M3104.75,2684.09H2799.5c-49.11,0-91.34,34.81-100.7,83.02l-59.95,384.87
	c-13.13,67.57-19.74,136.24-19.74,205.08"/>
<line class="st3" x1="3050.83" y1="3155.06" x2="2775.04" y2="3155.06"/>
<line class="st3" x1="3177.52" y1="3193.27" x2="2953.38" y2="3193.27"/>
<line class="st3" x1="2952.13" y1="3701.95" x2="2952.13" y2="4351.67"/>
<path class="st3" d="M3235.09,4410.83L3235.09,4410.83c0-31.86-25.83-57.69-57.69-57.69h-450.56c-31.86,0-57.69,25.83-57.69,57.69"
	/>
<ellipse transform="matrix(0.7068 -0.7074 0.7074 0.7068 -2211.0918 3598.3347)" class="st10" cx="3235.09" cy="4466.39" rx="55.51" ry="55.59"/>
<path class="st10" d="M3235.09,4491.94c-7.07,0-13.65-2.83-18.53-7.96c-4.87-5.12-7.35-11.86-6.99-18.97
	c0.65-12.89,11.26-23.49,24.15-24.15c0.46-0.02,0.92-0.04,1.37-0.04c7.07,0,13.65,2.83,18.53,7.96c4.87,5.12,7.35,11.86,6.99,18.97
	c-0.65,12.89-11.26,23.49-24.15,24.15C3236.01,4491.93,3235.55,4491.94,3235.09,4491.94
	C3235.1,4491.94,3235.1,4491.94,3235.09,4491.94z"/>
<path class="st10" d="M2613.68,4463.5c-1.67,32.96,25.41,60.04,58.37,58.37c28.23-1.43,51.16-24.36,52.59-52.59
	c1.67-32.96-25.41-60.04-58.37-58.37C2638.05,4412.34,2615.11,4435.27,2613.68,4463.5z"/>
<path class="st10" d="M2669.17,4491.94c-7.07,0-13.65-2.83-18.53-7.96c-4.87-5.12-7.35-11.86-6.99-18.97
	c0.65-12.89,11.26-23.49,24.15-24.15c0.46-0.02,0.92-0.04,1.37-0.04c7.07,0,13.65,2.83,18.53,7.96c4.87,5.12,7.35,11.86,6.99,18.97
	c-0.65,12.89-11.26,23.5-24.15,24.15C2670.08,4491.93,2669.62,4491.94,2669.17,4491.94
	C2669.17,4491.94,2669.17,4491.94,2669.17,4491.94z"/>
<path class="st3" d="M2758.4,3626.04c13.94,43.88,55.16,75.91,103.5,75.91h180.45c48.34,0,89.56-32.02,103.5-75.91"/>
<polyline class="st3" points="2210.21,4434.61 2432.15,4522.56 3296.68,4521.94 "/>
<path class="st0" d="M3965.33,1373.72c0,0-30.16,8.59-71.26-0.59C3913.57,1443.64,3965.33,1373.72,3965.33,1373.72z"/>
<path d="M3946.44,1083.85c-31.86,68.96,35.6,69.02,53.74,70.44c26.56,2.08,10.21,23.12,24.06,45.73
	c12.96,21.15,41.1,10.94,55.37,24.52c21.18,20.15-12.82,49.65,5.21,71.43c18.03,21.78,29.86,22.81,30.3,41.4
	c0.61,25.66-28.13,33.59-27.42,59.02c0.95,33.81,59.96,32.28,67.23,60.4c7.26,28.12,77.85-30.43,73.39-121.04
	c-4.46-90.61-39.99-241.94-105-271.04C3995.44,1007.47,3946.44,1083.85,3946.44,1083.85z"/>
<line class="st3" x1="277.53" y1="4521.94" x2="4368.57" y2="4521.94"/>
</svg>
