<svg id="Layer_1" data-name="Layer 1" xmlns="http://www.w3.org/2000/svg" xmlns:xlink="http://www.w3.org/1999/xlink" viewBox="0 0 588.26 98.41"><defs><style>.cls-1{fill:none;}.cls-2{clip-path:url(#clip-path);}.cls-3{fill:url(#linear-gradient);}.cls-4{fill:#00a651;}</style><clipPath id="clip-path" transform="translate(-14.19 -16.03)"><path class="cls-1" d="M96.85,37.33c-23,10.65-59.65,31.53-82.66,17,0,0,31.53,53.26,96.72,34.51l17-17,17-11.5L151,45l-8.1-3.41s-12.49-8.1-28.27-8.1a41.93,41.93,0,0,0-17.74,3.84"/></clipPath><linearGradient id="linear-gradient" x1="103.5" y1="181.78" x2="104.15" y2="181.78" gradientTransform="translate(-21850.08 -38310.83) scale(211.05)" gradientUnits="userSpaceOnUse"><stop offset="0" stop-color="#d2e5a6"/><stop offset="0.5" stop-color="#39b54a"/><stop offset="1" stop-color="#009444"/></linearGradient></defs><title>logo&amp;amp; details-03</title><g class="cls-2"><rect class="cls-3" y="17.46" width="136.77" height="74.14"/></g><path d="M145,28.81A12.78,12.78,0,1,1,132.22,16,12.78,12.78,0,0,1,145,28.81" transform="translate(-14.19 -16.03)"/><path d="M164.17,16s-7.24,19.17-21.3,25.56a20,20,0,0,1-5.11,17s-19.17-25.57-54.11,6.82c0,0,29-11.93,28.12,4.26s-31.53,39.2-49.85,41.76c0,0,89,0,102.25-95.44" transform="translate(-14.19 -16.03)"/><path class="cls-4" d="M171.52,45.16a1,1,0,0,1,1.15,1.15V80.47a1,1,0,0,1-1.15,1.15H165.9c-.8,0-1.2-.38-1.2-1.15V46.31c0-.76.4-1.15,1.2-1.15Z" transform="translate(-14.19 -16.03)"/><path class="cls-4" d="M220.16,45.16a1,1,0,0,1,1.15,1.15v5.1c0,.8-.38,1.2-1.15,1.2H194.07a13.74,13.74,0,0,0-3.36.34,4.36,4.36,0,0,0-2.11,1.15,4.73,4.73,0,0,0-1.12,2.16,14.28,14.28,0,0,0-.34,3.44v7.5a14.58,14.58,0,0,0,.34,3.46,4.74,4.74,0,0,0,1.12,2.19A4.36,4.36,0,0,0,190.71,74a13.63,13.63,0,0,0,3.36.34h17.18a2.53,2.53,0,0,0,2-.7,3.73,3.73,0,0,0,.62-2.47V67c0-.45-.21-.68-.62-.68H198c-.76,0-1.15-.4-1.15-1.2v-3.9c0-.8.38-1.2,1.15-1.2h21.71a1.38,1.38,0,0,1,1.56,1.56V73.66c0,2.92-.56,5-1.67,6.17a6.21,6.21,0,0,1-4.79,1.8h-21A26.48,26.48,0,0,1,187,80.9a10.31,10.31,0,0,1-4.5-2.37A9.62,9.62,0,0,1,180,74.26a21.86,21.86,0,0,1-.81-6.38v-9a21.55,21.55,0,0,1,.81-6.35,9.63,9.63,0,0,1,2.55-4.24,10.56,10.56,0,0,1,4.5-2.4,25.92,25.92,0,0,1,6.72-.76h26.42Z" transform="translate(-14.19 -16.03)"/><path class="cls-4" d="M234.63,45.16a1,1,0,0,1,1.15,1.15V80.47a1,1,0,0,1-1.15,1.15H229c-.8,0-1.2-.38-1.2-1.15V46.31c0-.76.4-1.15,1.2-1.15Z" transform="translate(-14.19 -16.03)"/><path class="cls-4" d="M280.35,45.16a1,1,0,0,1,1.15,1.15v5.1c0,.8-.38,1.2-1.15,1.2H257.18a13.74,13.74,0,0,0-3.36.34,4.36,4.36,0,0,0-2.11,1.15,4.73,4.73,0,0,0-1.12,2.16,14.28,14.28,0,0,0-.34,3.44v7.39a14.58,14.58,0,0,0,.34,3.46,4.74,4.74,0,0,0,1.12,2.19,4.36,4.36,0,0,0,2.11,1.15,13.63,13.63,0,0,0,3.36.34h23.17a1,1,0,0,1,1.15,1.15v5.1a1,1,0,0,1-1.15,1.15H256.87a26.48,26.48,0,0,1-6.72-.73,10.31,10.31,0,0,1-4.5-2.37,9.62,9.62,0,0,1-2.55-4.27,21.86,21.86,0,0,1-.81-6.38v-9a21.55,21.55,0,0,1,.81-6.35,9.57,9.57,0,0,1,2.55-4.24,10.56,10.56,0,0,1,4.5-2.4,25.92,25.92,0,0,1,6.72-.76h23.48Z" transform="translate(-14.19 -16.03)"/><path class="cls-4" d="M293.78,45.16a1,1,0,0,1,1.15,1.15V67.09a14.58,14.58,0,0,0,.34,3.46,4.74,4.74,0,0,0,1.12,2.19,4.36,4.36,0,0,0,2.11,1.15,13.63,13.63,0,0,0,3.36.34h14.42a13.74,13.74,0,0,0,3.36-.34,4,4,0,0,0,3.2-3.34,15.92,15.92,0,0,0,.31-3.46V46.31a1,1,0,0,1,1.15-1.15H330a1,1,0,0,1,1.15,1.15V67.87a22.65,22.65,0,0,1-.78,6.38,9.4,9.4,0,0,1-2.52,4.27,10.31,10.31,0,0,1-4.53,2.37,26.82,26.82,0,0,1-6.74.73h-15a26.48,26.48,0,0,1-6.72-.73,10.31,10.31,0,0,1-4.5-2.37,9.62,9.62,0,0,1-2.55-4.27,21.86,21.86,0,0,1-.81-6.38V46.31c0-.76.4-1.15,1.2-1.15Z" transform="translate(-14.19 -16.03)"/><path class="cls-4" d="M378.49,45.16a6.37,6.37,0,0,1,3.33.81,8.29,8.29,0,0,1,2.66,3.15l17.24,31.29a1.08,1.08,0,0,1,.13.86c-.09.23-.34.34-.75.34h-6.61a1.2,1.2,0,0,1-1.2-.68l-3.7-6.72H365.12l-3.59,6.72a1.26,1.26,0,0,1-1.2.68h-6.77c-.45,0-.72-.11-.81-.34a1.08,1.08,0,0,1,.13-.86L370,49.11A8.88,8.88,0,0,1,372.5,46a5.23,5.23,0,0,1,2.92-.81h3.07Zm-10.1,23H386.3L378,52.91a.64.64,0,0,0-.57-.36h-.31a.64.64,0,0,0-.57.36Z" transform="translate(-14.19 -16.03)"/><path class="cls-4" d="M443.21,45.16c.8,0,1.2.38,1.2,1.15v4.95c0,.76-.4,1.15-1.2,1.15h-22.6a13.74,13.74,0,0,0-3.36.34,4.36,4.36,0,0,0-2.11,1.15A4.74,4.74,0,0,0,414,56.09a14.36,14.36,0,0,0-.34,3.41v1h29.26a1,1,0,0,1,1.15,1.15V65.8A1,1,0,0,1,442.94,67H413.68V80.49a1,1,0,0,1-1.15,1.15h-5.62c-.8,0-1.2-.38-1.2-1.15V58.93a21.55,21.55,0,0,1,.81-6.35,9.57,9.57,0,0,1,2.55-4.24,10.56,10.56,0,0,1,4.5-2.4,25.92,25.92,0,0,1,6.72-.76h22.92Z" transform="translate(-14.19 -16.03)"/><path class="cls-4" d="M479.08,45.16c4,0,6.86.9,8.59,2.71s2.6,4.48,2.6,8v3a12.17,12.17,0,0,1-1.82,7.08,8.64,8.64,0,0,1-5.94,3.33l8.9,11a.82.82,0,0,1,.16.78c-.07.35-.35.52-.83.52H484a1.93,1.93,0,0,1-.94-.16,1.82,1.82,0,0,1-.52-.52L474.33,70.1H457.51V80.46a1,1,0,0,1-1.15,1.15h-5.62c-.8,0-1.2-.38-1.2-1.15V46.72a1.38,1.38,0,0,1,1.56-1.56ZM457.53,63.75h19.94a5,5,0,0,0,3.75-1.15,4.88,4.88,0,0,0,1.09-3.49V56.92a4.93,4.93,0,0,0-1.09-3.49,5.07,5.07,0,0,0-3.75-1.15H458.2c-.45,0-.68.21-.68.63V63.75Z" transform="translate(-14.19 -16.03)"/><path class="cls-4" d="M503.5,45.16a1,1,0,0,1,1.15,1.15V80.47a1,1,0,0,1-1.15,1.15h-5.62c-.8,0-1.2-.38-1.2-1.15V46.31c0-.76.4-1.15,1.2-1.15Z" transform="translate(-14.19 -16.03)"/><path class="cls-4" d="M549.22,45.16a1,1,0,0,1,1.15,1.15v5.1c0,.8-.38,1.2-1.15,1.2H526.05a13.74,13.74,0,0,0-3.36.34,4.36,4.36,0,0,0-2.11,1.15,4.73,4.73,0,0,0-1.12,2.16,14.28,14.28,0,0,0-.34,3.44v7.39a14.58,14.58,0,0,0,.34,3.46,4.74,4.74,0,0,0,1.12,2.19,4.36,4.36,0,0,0,2.11,1.15,13.63,13.63,0,0,0,3.36.34h23.17a1,1,0,0,1,1.15,1.15v5.1a1,1,0,0,1-1.15,1.15H525.74A26.48,26.48,0,0,1,519,80.9a10.31,10.31,0,0,1-4.5-2.37A9.62,9.62,0,0,1,512,74.26a21.86,21.86,0,0,1-.81-6.38v-9a21.55,21.55,0,0,1,.81-6.35,9.63,9.63,0,0,1,2.55-4.24,10.56,10.56,0,0,1,4.5-2.4,25.92,25.92,0,0,1,6.72-.76h23.48Z" transform="translate(-14.19 -16.03)"/><path class="cls-4" d="M579.05,45.16a6.37,6.37,0,0,1,3.33.81A8.29,8.29,0,0,1,585,49.12l17.24,31.29a1.08,1.08,0,0,1,.13.86c-.09.23-.34.34-.75.34h-6.61a1.2,1.2,0,0,1-1.2-.68l-3.7-6.72H565.68l-3.59,6.72a1.26,1.26,0,0,1-1.2.68h-6.77c-.45,0-.72-.11-.81-.34a1.08,1.08,0,0,1,.13-.86l17.07-31.3A8.88,8.88,0,0,1,573.06,46a5.23,5.23,0,0,1,2.92-.81h3.07Zm-10.1,23h17.91l-8.28-15.26a.64.64,0,0,0-.57-.36h-.31a.64.64,0,0,0-.57.36Z" transform="translate(-14.19 -16.03)"/><path d="M177.88,98.14a.34.34,0,0,1,.38.38v1.78a.34.34,0,0,1-.38.38h-8.22a4.41,4.41,0,0,0-1.14.12,1.43,1.43,0,0,0-.7.38,1.53,1.53,0,0,0-.36.72,5,5,0,0,0-.11,1.11v1.88a4.91,4.91,0,0,0,.11,1.12,1.49,1.49,0,0,0,.36.71,1.43,1.43,0,0,0,.7.38,4.52,4.52,0,0,0,1.14.12h8.22a.34.34,0,0,1,.38.38v1.78a.34.34,0,0,1-.38.38h-8.51a10.71,10.71,0,0,1-2.4-.23,3.68,3.68,0,0,1-1.55-.75,2.92,2.92,0,0,1-.84-1.33,6.62,6.62,0,0,1-.25-2v-3a6.62,6.62,0,0,1,.25-2,2.87,2.87,0,0,1,.84-1.33,3.52,3.52,0,0,1,1.55-.76,10.1,10.1,0,0,1,2.4-.24h8.51Z" transform="translate(-14.19 -16.03)"/><path d="M200.86,98.14a10.12,10.12,0,0,1,2.39.24,3.68,3.68,0,0,1,1.56.76,2.92,2.92,0,0,1,.84,1.33,6.62,6.62,0,0,1,.25,2v3a6.62,6.62,0,0,1-.25,2,2.87,2.87,0,0,1-.84,1.33,3.45,3.45,0,0,1-1.56.75,10.23,10.23,0,0,1-2.39.23h-6a10.71,10.71,0,0,1-2.4-.23,3.68,3.68,0,0,1-1.55-.75,2.92,2.92,0,0,1-.84-1.33,6.62,6.62,0,0,1-.25-2v-3a6.62,6.62,0,0,1,.25-2,2.87,2.87,0,0,1,.84-1.33,3.52,3.52,0,0,1,1.55-.76,10.1,10.1,0,0,1,2.4-.24Zm-8,6.82a4.91,4.91,0,0,0,.11,1.12,1.42,1.42,0,0,0,.37.71,1.52,1.52,0,0,0,.71.38,4.41,4.41,0,0,0,1.12.12h5.4a4.41,4.41,0,0,0,1.14-.12,1.52,1.52,0,0,0,.71-.38,1.42,1.42,0,0,0,.37-.71,5,5,0,0,0,.11-1.12v-2a4.85,4.85,0,0,0-.11-1.1,1.46,1.46,0,0,0-.37-.72,1.43,1.43,0,0,0-.71-.38,5.11,5.11,0,0,0-1.14-.11h-5.4a4.91,4.91,0,0,0-1.12.11,1.43,1.43,0,0,0-.71.38,1.46,1.46,0,0,0-.37.72,4.85,4.85,0,0,0-.11,1.1Z" transform="translate(-14.19 -16.03)"/><path d="M229.19,98.14a10.12,10.12,0,0,1,2.39.24,3.68,3.68,0,0,1,1.56.76,2.92,2.92,0,0,1,.84,1.33,6.62,6.62,0,0,1,.25,2v6.86a.42.42,0,0,1-.47.47h-2.08a.42.42,0,0,1-.47-.47v-6.14a6.84,6.84,0,0,0-.08-1.11,1.5,1.5,0,0,0-.33-.72,1.33,1.33,0,0,0-.67-.38,4.14,4.14,0,0,0-1.1-.12H223.4a4.35,4.35,0,0,0-1.12.12,1.52,1.52,0,0,0-.71.38,1.46,1.46,0,0,0-.37.72,5,5,0,0,0-.11,1.11v6.14a.42.42,0,0,1-.47.47h-2.07a.43.43,0,0,1-.49-.47v-6.86a6.62,6.62,0,0,1,.25-2,2.87,2.87,0,0,1,.84-1.33,3.52,3.52,0,0,1,1.55-.76,10.1,10.1,0,0,1,2.4-.24Z" transform="translate(-14.19 -16.03)"/><path d="M260,98.14a.34.34,0,0,1,.38.38v1.69a.34.34,0,0,1-.38.38h-9.55a1.32,1.32,0,0,0-.91.24.93.93,0,0,0-.25.71v.32a.9.9,0,0,0,.25.67,1.32,1.32,0,0,0,.91.24h7.14a3.59,3.59,0,0,1,2.54.74,2.77,2.77,0,0,1,.76,2.1v1.19a4.34,4.34,0,0,1-.17,1.25,2.1,2.1,0,0,1-.56.93,2.51,2.51,0,0,1-1,.58,5.4,5.4,0,0,1-1.57.2H246.71a.34.34,0,0,1-.38-.38v-1.69a.34.34,0,0,1,.38-.38h10a1.44,1.44,0,0,0,.92-.23,1,1,0,0,0,.26-.78v-.57a.87.87,0,0,0-.26-.66,1.38,1.38,0,0,0-.92-.23h-7.11a3.59,3.59,0,0,1-2.54-.73,2.82,2.82,0,0,1-.76-2.13v-.93a4.09,4.09,0,0,1,.17-1.2,2.12,2.12,0,0,1,.56-.92,2.51,2.51,0,0,1,1-.58,5.4,5.4,0,0,1,1.57-.2H260Z" transform="translate(-14.19 -16.03)"/><path d="M275.41,98.14c.31,0,.47.16.47.49v6.12a6.8,6.8,0,0,0,.08,1.12,1.46,1.46,0,0,0,.32.71,1.3,1.3,0,0,0,.66.38,4.25,4.25,0,0,0,1.12.12h5.44a4.41,4.41,0,0,0,1.14-.12,1.52,1.52,0,0,0,.71-.38,1.42,1.42,0,0,0,.37-.71,5,5,0,0,0,.11-1.12V98.63a.43.43,0,0,1,.47-.49h2.07c.31,0,.47.16.47.49v6.86a6.62,6.62,0,0,1-.25,2,2.87,2.87,0,0,1-.84,1.33,3.45,3.45,0,0,1-1.56.75,10.23,10.23,0,0,1-2.39.23h-5.91a10.71,10.71,0,0,1-2.4-.23,3.68,3.68,0,0,1-1.55-.75,2.92,2.92,0,0,1-.84-1.33,6.62,6.62,0,0,1-.25-2V98.63a.43.43,0,0,1,.49-.49Z" transform="translate(-14.19 -16.03)"/><path d="M303.76,93.89a.42.42,0,0,1,.47.47v15a.42.42,0,0,1-.47.47h-2.07a.42.42,0,0,1-.47-.47v-15a.42.42,0,0,1,.47-.47Z" transform="translate(-14.19 -16.03)"/><path d="M318.07,98.14V95.35a.42.42,0,0,1,.47-.47h2.1a.42.42,0,0,1,.47.47v2.79h3.71a.34.34,0,0,1,.38.38v1.74a.34.34,0,0,1-.38.38h-3.71v4.91a1.94,1.94,0,0,0,.36,1.3,1.84,1.84,0,0,0,1.42.41h2.05a.34.34,0,0,1,.38.38v1.74a.34.34,0,0,1-.38.38h-2.56a8.14,8.14,0,0,1-2.1-.23,2.93,2.93,0,0,1-1.32-.74,2.8,2.8,0,0,1-.69-1.31,8.34,8.34,0,0,1-.19-1.93v-4.91h-2a.34.34,0,0,1-.38-.38V98.52a.34.34,0,0,1,.38-.38Z" transform="translate(-14.19 -16.03)"/><path d="M346.17,98.14a10.12,10.12,0,0,1,2.39.24,3.68,3.68,0,0,1,1.56.76,2.92,2.92,0,0,1,.84,1.33,6.62,6.62,0,0,1,.25,2v5.63a3.93,3.93,0,0,1-.07.84,1.1,1.1,0,0,1-.25.52.87.87,0,0,1-.48.26,3.22,3.22,0,0,1-.76.07H339.57a5.77,5.77,0,0,1-1.56-.18,2.44,2.44,0,0,1-1-.54,2,2,0,0,1-.54-.93,4.93,4.93,0,0,1-.16-1.36v-1a3.92,3.92,0,0,1,.16-1.18,2,2,0,0,1,.54-.88,2.38,2.38,0,0,1,1-.54,5.71,5.71,0,0,1,1.56-.18h8.62v-.4a3.12,3.12,0,0,0-.11-.87,1.2,1.2,0,0,0-.36-.58,1.58,1.58,0,0,0-.7-.33,5.11,5.11,0,0,0-1.14-.11H337a.34.34,0,0,1-.38-.38V98.49a.34.34,0,0,1,.38-.38h9.14Zm1.39,9.3a.6.6,0,0,0,.48-.16.88.88,0,0,0,.14-.56v-1.86h-7.75a1.31,1.31,0,0,0-.92.26,1,1,0,0,0-.26.77v.44a1.19,1.19,0,0,0,.26.84,1.27,1.27,0,0,0,.92.26h7.13Z" transform="translate(-14.19 -16.03)"/><path d="M374.26,98.14a10.12,10.12,0,0,1,2.39.24,3.68,3.68,0,0,1,1.56.76,2.92,2.92,0,0,1,.84,1.33,6.62,6.62,0,0,1,.25,2v6.86a.42.42,0,0,1-.47.47h-2.07a.42.42,0,0,1-.47-.47v-6.14a6.84,6.84,0,0,0-.08-1.11,1.5,1.5,0,0,0-.33-.72,1.33,1.33,0,0,0-.67-.38,4.14,4.14,0,0,0-1.1-.12h-5.63a4.35,4.35,0,0,0-1.12.12,1.52,1.52,0,0,0-.71.38,1.46,1.46,0,0,0-.37.72,5,5,0,0,0-.11,1.11v6.14a.42.42,0,0,1-.47.47h-2.07a.43.43,0,0,1-.49-.47v-6.86a6.62,6.62,0,0,1,.25-2,2.87,2.87,0,0,1,.84-1.33,3.52,3.52,0,0,1,1.55-.76,10.1,10.1,0,0,1,2.4-.24Z" transform="translate(-14.19 -16.03)"/><path d="M404.71,98.14a.34.34,0,0,1,.38.38v1.78a.34.34,0,0,1-.38.38h-8.22a4.41,4.41,0,0,0-1.14.12,1.43,1.43,0,0,0-.7.38,1.53,1.53,0,0,0-.36.72,5,5,0,0,0-.11,1.11v1.88a4.91,4.91,0,0,0,.11,1.12,1.49,1.49,0,0,0,.36.71,1.43,1.43,0,0,0,.7.38,4.52,4.52,0,0,0,1.14.12h8.22a.34.34,0,0,1,.38.38v1.78a.34.34,0,0,1-.38.38H396.2a10.71,10.71,0,0,1-2.4-.23,3.68,3.68,0,0,1-1.55-.75,2.92,2.92,0,0,1-.84-1.33,6.62,6.62,0,0,1-.25-2v-3a6.62,6.62,0,0,1,.25-2,2.87,2.87,0,0,1,.84-1.33,3.52,3.52,0,0,1,1.55-.76,10.1,10.1,0,0,1,2.4-.24h8.51Z" transform="translate(-14.19 -16.03)"/><path d="M432.15,98.14a.3.3,0,0,1,.31.16.41.41,0,0,1,0,.37L424.3,113a2.54,2.54,0,0,1-1.2,1.09,5.4,5.4,0,0,1-2.15.35h-1.48a.34.34,0,0,1-.38-.38v-1.74a.34.34,0,0,1,.38-.38h1.25a1.11,1.11,0,0,0,1.08-.49l1.14-2a1.66,1.66,0,0,1-.82-.25,2.08,2.08,0,0,1-.54-.66l-5.72-9.87a.41.41,0,0,1,0-.37.3.3,0,0,1,.31-.16h2.44a.52.52,0,0,1,.51.3l4.7,8.15a1.93,1.93,0,0,0,.26.39.33.33,0,0,0,.24.1l5-8.64a.52.52,0,0,1,.51-.3h2.37Z" transform="translate(-14.19 -16.03)"/><path d="M463.09,93.89a.42.42,0,0,1,.47.47v15a.42.42,0,0,1-.47.47H461a.42.42,0,0,1-.47-.47v-15a.42.42,0,0,1,.47-.47Z" transform="translate(-14.19 -16.03)"/><path d="M478.54,93.84a.42.42,0,0,1,.47.47v2a.43.43,0,0,1-.47.49h-2.07a.43.43,0,0,1-.49-.49v-2c0-.31.16-.47.49-.47Zm0,4.3c.31,0,.47.16.47.49V109.3a.42.42,0,0,1-.47.47h-2.07a.42.42,0,0,1-.47-.47V98.63a.43.43,0,0,1,.47-.49Z" transform="translate(-14.19 -16.03)"/><path d="M507.23,98.14a10,10,0,0,1,2.38.24,3.8,3.8,0,0,1,1.56.76,2.84,2.84,0,0,1,.84,1.33,7,7,0,0,1,.24,2v6.86a.42.42,0,0,1-.47.47h-2.07a.42.42,0,0,1-.47-.47v-6.14a6.84,6.84,0,0,0-.08-1.11,1.5,1.5,0,0,0-.32-.72,1.3,1.3,0,0,0-.66-.38,4.25,4.25,0,0,0-1.12-.12h-3.73v8.47c0,.31-.16.47-.49.47h-2.08a.42.42,0,0,1-.47-.47v-8.47h-3.6a4.35,4.35,0,0,0-1.12.12,1.52,1.52,0,0,0-.71.38,1.46,1.46,0,0,0-.37.72,5,5,0,0,0-.11,1.11v6.14a.42.42,0,0,1-.47.47h-2.07a.43.43,0,0,1-.49-.47v-6.86a6.62,6.62,0,0,1,.25-2,2.87,2.87,0,0,1,.84-1.33,3.52,3.52,0,0,1,1.55-.76,10.1,10.1,0,0,1,2.4-.24Z" transform="translate(-14.19 -16.03)"/><path d="M527.18,93.84a.42.42,0,0,1,.47.47v2a.43.43,0,0,1-.47.49H525.1a.43.43,0,0,1-.49-.49v-2c0-.31.16-.47.49-.47Zm0,4.3c.31,0,.47.16.47.49V109.3a.42.42,0,0,1-.47.47H525.1a.42.42,0,0,1-.47-.47V98.63a.43.43,0,0,1,.47-.49Z" transform="translate(-14.19 -16.03)"/><path d="M541.49,98.14V95.35a.42.42,0,0,1,.47-.47h2.1a.42.42,0,0,1,.47.47v2.79h3.71a.34.34,0,0,1,.38.38v1.74a.34.34,0,0,1-.38.38h-3.71v4.91a1.94,1.94,0,0,0,.36,1.3,1.84,1.84,0,0,0,1.42.41h2.05a.34.34,0,0,1,.38.38v1.74a.34.34,0,0,1-.38.38H545.8a8.14,8.14,0,0,1-2.1-.23,2.93,2.93,0,0,1-1.32-.74,2.8,2.8,0,0,1-.69-1.31,8.34,8.34,0,0,1-.19-1.93v-4.91h-2a.34.34,0,0,1-.38-.38V98.52a.34.34,0,0,1,.38-.38Z" transform="translate(-14.19 -16.03)"/><path d="M571,98.14a7.43,7.43,0,0,1,1.79.18,2.4,2.4,0,0,1,1.12.59,2.26,2.26,0,0,1,.58,1.08,6.76,6.76,0,0,1,.17,1.62v2a1.2,1.2,0,0,1-.3.94,1.32,1.32,0,0,1-.91.26H562.72v.51a1.89,1.89,0,0,0,.48,1.44,2.77,2.77,0,0,0,1.85.44h8.83a.34.34,0,0,1,.38.38v1.78a.34.34,0,0,1-.38.38h-9.13a10.71,10.71,0,0,1-2.4-.23,3.68,3.68,0,0,1-1.55-.75,2.92,2.92,0,0,1-.84-1.33,6.62,6.62,0,0,1-.25-2v-3a6.62,6.62,0,0,1,.25-2,2.87,2.87,0,0,1,.84-1.33,3.52,3.52,0,0,1,1.55-.76,10.1,10.1,0,0,1,2.4-.24ZM562.73,103h8.58a.32.32,0,0,0,.36-.36v-.89a1.25,1.25,0,0,0-.28-.93,1.45,1.45,0,0,0-1-.28h-5.31a2.82,2.82,0,0,0-1.85.43,1.87,1.87,0,0,0-.48,1.45Z" transform="translate(-14.19 -16.03)"/><path d="M599.44,98.14V94.35a.42.42,0,0,1,.47-.47H602a.42.42,0,0,1,.47.47v11.14a6.62,6.62,0,0,1-.25,2,2.87,2.87,0,0,1-.84,1.33,3.45,3.45,0,0,1-1.56.75,10.23,10.23,0,0,1-2.39.23h-5.93a10.71,10.71,0,0,1-2.4-.23,3.68,3.68,0,0,1-1.55-.75,2.92,2.92,0,0,1-.84-1.33,6.62,6.62,0,0,1-.25-2v-3a6.62,6.62,0,0,1,.25-2,2.87,2.87,0,0,1,.84-1.33,3.52,3.52,0,0,1,1.55-.76,10.1,10.1,0,0,1,2.4-.24h8Zm-2.33,9.09a4.41,4.41,0,0,0,1.14-.12,1.52,1.52,0,0,0,.71-.38,1.42,1.42,0,0,0,.37-.71,5,5,0,0,0,.11-1.12v-4.21h-7.66a4.35,4.35,0,0,0-1.12.12,1.52,1.52,0,0,0-.71.38,1.46,1.46,0,0,0-.37.72,5,5,0,0,0-.11,1.11v1.88a4.91,4.91,0,0,0,.11,1.12,1.42,1.42,0,0,0,.37.71,1.52,1.52,0,0,0,.71.38,4.41,4.41,0,0,0,1.12.12Z" transform="translate(-14.19 -16.03)"/></svg>